<?xml version="1.0" encoding="UTF-8"?>
<!-- Generator: visioncortex VTracer 0.6.3 -->
<svg version="1.1" xmlns="http://www.w3.org/2000/svg" width="1280" height="1280">
<path d="M0 0 C2.01 -0.01 4.01 -0.01 6.02 -0.02 C11.44 -0.04 16.87 -0.03 22.29 -0.01 C27.98 0.01 33.67 -0 39.35 -0.01 C48.9 -0.01 58.45 0.01 68 0.03 C79.02 0.07 90.05 0.07 101.08 0.05 C111.7 0.03 122.33 0.04 132.95 0.06 C137.47 0.06 141.98 0.06 146.5 0.06 C151.81 0.05 157.13 0.06 162.45 0.09 C164.39 0.09 166.34 0.09 168.29 0.09 C181.92 0.04 191.44 1.21 202.08 10.63 C207.57 16.25 211.03 21.72 213.08 29.38 C214.66 35.17 214.66 35.17 216.51 40.88 C218.34 46.19 219.75 51.62 221.23 57.03 C222.49 61.61 223.84 66.12 225.41 70.6 C226.26 73.18 226.88 75.8 227.52 78.43 C228.46 82.16 229.48 85.86 230.51 89.57 C230.73 90.36 230.95 91.15 231.18 91.97 C232.46 96.56 233.83 101.1 235.41 105.6 C236.26 108.18 236.88 110.8 237.52 113.43 C238.46 117.16 239.48 120.86 240.51 124.57 C240.73 125.36 240.95 126.15 241.18 126.97 C242.46 131.56 243.8 136.12 245.4 140.61 C246.4 143.59 247.22 146.61 248.08 149.63 C248.91 149.63 249.74 149.63 250.59 149.63 C340.92 149.62 431.24 149.62 521.57 149.66 C522.93 149.66 524.29 149.66 525.65 149.66 C554.25 149.68 582.85 149.69 611.45 149.71 C625.82 149.71 640.19 149.72 654.55 149.73 C656.72 149.73 658.89 149.73 661.05 149.73 C694.42 149.75 727.79 149.76 761.16 149.76 C761.88 149.76 762.59 149.76 763.33 149.76 C774.9 149.75 786.47 149.75 798.03 149.75 C831.35 149.75 864.67 149.74 897.98 149.76 C898.67 149.76 899.35 149.76 900.06 149.77 C915.1 149.77 930.15 149.78 945.19 149.8 C951.24 149.8 957.29 149.81 963.35 149.81 C964.01 149.81 964.67 149.81 965.35 149.81 C987.35 149.83 1009.35 149.82 1031.35 149.81 C1052.79 149.8 1074.23 149.81 1095.66 149.84 C1108.41 149.85 1121.15 149.86 1133.89 149.83 C1142.4 149.82 1150.91 149.83 1159.41 149.85 C1164.26 149.87 1169.11 149.87 1173.96 149.85 C1178.38 149.83 1182.79 149.84 1187.21 149.87 C1188.79 149.87 1190.38 149.87 1191.96 149.85 C1203.5 149.75 1211.46 152.22 1221.08 158.63 C1221.08 159.29 1221.08 159.95 1221.08 160.63 C1221.74 160.63 1222.4 160.63 1223.08 160.63 C1224.44 162.1 1224.44 162.1 1225.95 164.13 C1226.69 165.11 1226.69 165.11 1227.44 166.1 C1227.98 166.94 1228.52 167.77 1229.08 168.63 C1229.43 169.17 1229.78 169.72 1230.15 170.28 C1233.62 176.26 1233.64 181.78 1233.51 188.57 C1233.52 189.6 1233.53 190.63 1233.53 191.7 C1233.49 197.42 1232.88 202.19 1230.86 207.54 C1229.61 210.89 1228.84 214.34 1228.01 217.82 C1226.69 223.36 1225.27 228.77 1223.07 234.04 C1221.81 237.32 1221.01 240.66 1220.2 244.07 C1215.59 262.94 1215.59 262.94 1213.08 269.06 C1211.81 272.33 1211.01 275.67 1210.2 279.07 C1205.59 297.94 1205.59 297.94 1203.08 304.06 C1201.81 307.33 1201.01 310.67 1200.2 314.07 C1195.59 332.94 1195.59 332.94 1193.08 339.06 C1191.81 342.33 1191.01 345.67 1190.2 349.07 C1185.59 367.94 1185.59 367.94 1183.08 374.06 C1181.81 377.33 1181.01 380.67 1180.2 384.07 C1175.59 402.94 1175.59 402.94 1173.08 409.06 C1171.81 412.33 1171.01 415.67 1170.2 419.07 C1165.6 437.93 1165.6 437.93 1163.07 444.07 C1161.82 447.29 1161.06 450.52 1160.26 453.88 C1158.69 460.36 1156.91 466.75 1155 473.13 C1153.46 478.28 1152 483.45 1150.58 488.63 C1148.77 495.19 1146.89 501.72 1144.95 508.24 C1143.44 513.35 1141.99 518.49 1140.58 523.63 C1138.77 530.19 1136.89 536.72 1134.95 543.24 C1133.44 548.35 1131.99 553.49 1130.58 558.63 C1128.77 565.19 1126.89 571.72 1124.95 578.24 C1123.44 583.35 1121.99 588.49 1120.58 593.63 C1118.77 600.19 1116.89 606.72 1114.95 613.24 C1113.44 618.35 1111.99 623.49 1110.58 628.63 C1108.77 635.19 1106.89 641.72 1104.95 648.24 C1103.44 653.35 1101.99 658.49 1100.58 663.63 C1098.77 670.19 1096.89 676.72 1094.95 683.24 C1093.44 688.35 1091.99 693.49 1090.58 698.63 C1089.74 701.63 1088.91 704.63 1088.08 707.63 C1087.76 708.77 1087.76 708.77 1087.43 709.93 C1080.82 733.51 1080.82 733.51 1073.08 741.63 C1072.42 741.63 1071.76 741.63 1071.08 741.63 C1071.08 742.29 1071.08 742.95 1071.08 743.63 C1069.06 745.07 1069.06 745.07 1066.39 746.63 C1065.52 747.15 1064.65 747.66 1063.75 748.19 C1059.5 750.48 1056.06 751.88 1051.2 751.89 C1049.75 751.89 1049.75 751.89 1048.28 751.9 C1047.23 751.9 1046.17 751.9 1045.09 751.89 C1043.96 751.9 1042.84 751.9 1041.68 751.9 C1037.87 751.92 1034.07 751.91 1030.27 751.91 C1027.52 751.91 1024.78 751.92 1022.04 751.93 C1016.06 751.94 1010.08 751.95 1004.1 751.95 C995.21 751.95 986.32 751.96 977.43 751.98 C962.48 752 947.53 752.02 932.58 752.03 C917.77 752.04 902.96 752.05 888.15 752.07 C886.77 752.07 886.77 752.07 885.36 752.08 C880.69 752.08 876.02 752.09 871.34 752.1 C838.23 752.14 805.12 752.18 772.01 752.21 C739.84 752.24 707.66 752.27 675.49 752.31 C674.5 752.31 673.51 752.32 672.49 752.32 C662.53 752.33 652.58 752.34 642.62 752.35 C622.34 752.38 602.06 752.41 581.78 752.43 C580.38 752.43 580.38 752.43 578.95 752.43 C516.66 752.51 454.37 752.57 392.08 752.63 C391.82 753.18 391.56 753.72 391.3 754.28 C390.12 756.77 388.94 759.26 387.76 761.76 C387.16 763.04 387.16 763.04 386.54 764.35 C384.84 767.94 383.14 771.51 381.33 775.04 C377.89 782.17 378.37 792.04 380.08 799.63 C381.26 802.28 382.55 804.84 383.92 807.4 C385.08 809.63 385.08 809.63 386.08 812.63 C387.07 812.96 388.06 813.29 389.08 813.63 C389.08 814.29 389.08 814.95 389.08 815.63 C389.74 815.63 390.4 815.63 391.08 815.63 C391.08 816.29 391.08 816.95 391.08 817.63 C394.02 818.83 396.98 819.99 399.95 821.13 C400.57 821.37 401.18 821.61 401.82 821.85 C402.56 822.11 403.31 822.37 404.08 822.63 C405.05 822.97 406.03 823.31 407.04 823.66 C411.97 825.05 416.88 824.9 421.98 824.88 C423.07 824.88 424.16 824.88 425.29 824.88 C428.97 824.89 432.65 824.88 436.32 824.87 C438.98 824.87 441.64 824.87 444.3 824.87 C450.08 824.88 455.87 824.87 461.66 824.87 C470.26 824.85 478.86 824.85 487.47 824.86 C501.06 824.86 514.65 824.85 528.24 824.85 C549.81 824.83 571.38 824.84 592.96 824.85 C601.26 824.85 609.56 824.86 617.86 824.86 C618.78 824.86 619.71 824.86 620.66 824.86 C642.61 824.87 664.56 824.88 686.52 824.88 C687.96 824.88 687.96 824.88 689.43 824.88 C711.84 824.88 734.25 824.88 756.66 824.87 C757.63 824.87 758.59 824.87 759.58 824.87 C767.35 824.87 775.12 824.86 782.89 824.86 C814.92 824.84 846.95 824.85 878.98 824.88 C883.5 824.88 888.03 824.88 892.55 824.89 C893.89 824.89 893.89 824.89 895.25 824.89 C909.58 824.9 923.9 824.89 938.23 824.87 C952.63 824.85 967.03 824.85 981.43 824.88 C989.98 824.89 998.54 824.89 1007.09 824.86 C1012.81 824.84 1018.52 824.85 1024.24 824.87 C1027.5 824.88 1030.75 824.88 1034.01 824.86 C1049.99 824.77 1060.43 825.15 1073.08 835.63 C1081.36 844.73 1084.5 854.64 1084.29 866.76 C1083.71 877.27 1079.54 883.57 1072.76 891.26 C1065.81 897.4 1058.87 901.86 1049.34 901.91 C1047.66 901.93 1047.66 901.93 1045.95 901.94 C1044.13 901.95 1044.13 901.95 1042.28 901.95 C1040.99 901.96 1039.7 901.97 1038.37 901.98 C1034.85 902.01 1031.33 902.02 1027.81 902.04 C1024.13 902.05 1020.45 902.08 1016.76 902.1 C1009.79 902.15 1002.82 902.19 995.85 902.22 C987.92 902.26 979.98 902.31 972.04 902.36 C955.72 902.46 939.4 902.55 923.08 902.63 C923.75 902.82 924.42 903.02 925.12 903.22 C926.45 903.61 926.45 903.61 927.82 904.01 C928.7 904.26 929.58 904.52 930.49 904.78 C933.56 905.79 936.3 907.15 939.15 908.67 C941.09 909.64 943.02 910.36 945.08 911.07 C948.86 912.42 952.06 914.34 955.41 916.55 C957.09 917.69 957.09 917.69 959.08 918.63 C959.08 919.29 959.08 919.95 959.08 920.63 C959.86 920.94 960.64 921.25 961.45 921.57 C964.08 922.63 964.08 922.63 966.08 923.63 C966.08 924.29 966.08 924.95 966.08 925.63 C966.65 925.9 967.23 926.17 967.83 926.44 C970.13 927.66 972.1 928.93 974.08 930.63 C974.08 931.29 974.08 931.95 974.08 932.63 C974.74 932.63 975.4 932.63 976.08 932.63 C980.91 937.31 985.45 942.97 989.08 948.63 C989.08 949.29 989.08 949.95 989.08 950.63 C989.74 950.63 990.4 950.63 991.08 950.63 C991.66 951.81 991.66 951.81 992.25 953.01 C995.48 959.59 995.48 959.59 999.14 965.94 C1011.17 986.7 1012.21 1016.22 1007.04 1039.05 C1003.74 1051.28 999.25 1061.65 993.08 1072.63 C992.4 1073.96 991.72 1075.29 991.08 1076.63 C990.42 1076.63 989.76 1076.63 989.08 1076.63 C988.83 1077.35 988.58 1078.07 988.32 1078.81 C986.95 1081.91 985.29 1084.14 983.14 1086.76 C982.45 1087.6 981.76 1088.45 981.05 1089.33 C977.78 1093.15 977.78 1093.15 976.08 1094.63 C975.42 1094.63 974.76 1094.63 974.08 1094.63 C974.08 1095.29 974.08 1095.95 974.08 1096.63 C968.6 1101.63 968.6 1101.63 966.08 1101.63 C966.08 1102.29 966.08 1102.95 966.08 1103.63 C964.02 1105.15 964.02 1105.15 961.2 1106.88 C960.19 1107.5 959.18 1108.12 958.15 1108.76 C957.13 1109.38 956.12 1109.99 955.08 1110.63 C954.23 1111.18 953.38 1111.72 952.51 1112.28 C946.6 1116.02 940.68 1118.41 934.08 1120.63 C932.78 1121.15 931.49 1121.67 930.2 1122.19 C919.47 1126.12 909.1 1127.12 897.8 1127.02 C895.51 1127.01 893.23 1127.02 890.94 1127.04 C882.22 1127.05 874.46 1126.25 866.08 1123.63 C864.84 1123.29 863.61 1122.95 862.34 1122.6 C856.24 1120.76 850.64 1118.74 845.08 1115.63 C843.66 1114.86 843.66 1114.86 842.22 1114.08 C840.27 1113.03 838.33 1111.97 836.4 1110.9 C834.97 1110.12 833.53 1109.36 832.08 1108.63 C832.08 1107.97 832.08 1107.31 832.08 1106.63 C831.36 1106.38 830.64 1106.14 829.91 1105.88 C826.76 1104.49 824.44 1102.79 821.76 1100.63 C820.88 1099.93 820 1099.23 819.09 1098.51 C818.42 1097.89 817.76 1097.27 817.08 1096.63 C817.08 1095.97 817.08 1095.31 817.08 1094.63 C816.42 1094.63 815.76 1094.63 815.08 1094.63 C810.25 1089.95 805.71 1084.3 802.08 1078.63 C802.08 1077.97 802.08 1077.31 802.08 1076.63 C801.42 1076.63 800.76 1076.63 800.08 1076.63 C799.69 1075.85 799.3 1075.06 798.9 1074.25 C795.67 1067.67 795.67 1067.67 792.01 1061.32 C779.22 1039.25 778.76 1007.67 785.08 983.63 C786.2 980.18 787.57 976.93 789.08 973.63 C789.7 971.97 790.33 970.3 790.95 968.63 C792.78 964.03 795.16 959.94 797.81 955.76 C799.21 953.57 799.21 953.57 800.08 950.63 C800.74 950.63 801.4 950.63 802.08 950.63 C802.39 949.85 802.69 949.06 803.01 948.26 C804.08 945.63 804.08 945.63 805.08 943.63 C805.74 943.63 806.4 943.63 807.08 943.63 C807.34 943.05 807.61 942.47 807.89 941.87 C809.09 939.6 810.41 937.83 812.08 935.88 C812.59 935.27 813.11 934.65 813.64 934.02 C815.08 932.63 815.08 932.63 817.08 932.63 C817.08 931.97 817.08 931.31 817.08 930.63 C819.17 928.84 821.25 927.16 823.45 925.51 C824.05 925.04 824.66 924.57 825.28 924.09 C829.81 920.63 829.81 920.63 832.08 920.63 C832.08 919.97 832.08 919.31 832.08 918.63 C834.98 916.59 836.48 915.63 840.08 915.63 C840.08 914.97 840.08 914.31 840.08 913.63 C842.78 912.39 845.49 911.16 848.2 909.93 C850.33 908.97 852.46 907.99 854.58 907.01 C859.27 905.16 864.21 903.96 869.08 902.63 C762.16 902.63 655.24 902.63 545.08 902.63 C550.52 904.12 550.52 904.12 556.08 905.63 C560.51 907.76 560.51 907.76 562.32 908.76 C564.21 909.7 566.02 910.19 568.08 910.63 C568.08 911.29 568.08 911.95 568.08 912.63 C568.79 912.73 569.5 912.83 570.24 912.93 C573.5 913.74 575.65 915.04 578.45 916.88 C579.4 917.51 580.36 918.14 581.34 918.78 C582.24 919.39 583.14 920 584.08 920.63 C584.82 921.13 585.57 921.62 586.35 922.14 C587.96 923.24 589.53 924.43 591.08 925.63 C591.08 926.29 591.08 926.95 591.08 927.63 C592.07 927.96 593.06 928.29 594.08 928.63 C594.08 929.29 594.08 929.95 594.08 930.63 C594.67 930.9 595.27 931.17 595.89 931.44 C598.07 932.63 599.49 933.73 601.08 935.63 C601.08 936.29 601.08 936.95 601.08 937.63 C602.07 937.96 603.06 938.29 604.08 938.63 C604.08 939.29 604.08 939.95 604.08 940.63 C604.74 940.63 605.4 940.63 606.08 940.63 C607.72 942.76 609.22 944.88 610.7 947.13 C611.14 947.81 611.59 948.48 612.05 949.17 C619.61 960.9 625.31 973.18 629.08 986.63 C629.35 987.54 629.35 987.54 629.64 988.47 C631.6 995.7 631.41 1003.11 631.39 1010.55 C631.39 1012.86 631.41 1015.17 631.44 1017.49 C631.48 1026.6 630.64 1034.82 628.08 1043.63 C627.88 1044.36 627.68 1045.08 627.47 1045.83 C623.92 1058.33 617.84 1069.13 610.76 1079.94 C610.33 1080.61 609.9 1081.27 609.45 1081.96 C608.38 1083.55 607.23 1085.1 606.08 1086.63 C605.42 1086.63 604.76 1086.63 604.08 1086.63 C603.75 1087.62 603.42 1088.61 603.08 1089.63 C602.42 1089.63 601.76 1089.63 601.08 1089.63 C600.81 1090.23 600.54 1090.83 600.26 1091.44 C599.08 1093.63 597.98 1095.04 596.08 1096.63 C595.42 1096.63 594.76 1096.63 594.08 1096.63 C593.75 1097.62 593.42 1098.61 593.08 1099.63 C592.42 1099.63 591.76 1099.63 591.08 1099.63 C591.08 1100.29 591.08 1100.95 591.08 1101.63 C588.94 1103.28 586.82 1104.78 584.58 1106.26 C583.91 1106.7 583.23 1107.14 582.54 1107.6 C573.06 1113.72 563.02 1119.26 552.04 1122.12 C549.94 1122.62 549.94 1122.62 547.51 1123.69 C538.81 1127.04 529.97 1127 520.78 1127 C518.41 1127.01 516.04 1127.04 513.66 1127.08 C503.7 1127.15 495.56 1125.85 486.08 1122.63 C483.89 1122.02 481.7 1121.41 479.51 1120.82 C469.37 1117.64 460.59 1112.1 451.76 1106.32 C451.1 1105.89 450.43 1105.45 449.75 1105.01 C448.15 1103.94 446.61 1102.79 445.08 1101.63 C445.08 1100.97 445.08 1100.31 445.08 1099.63 C444.09 1099.3 443.1 1098.97 442.08 1098.63 C442.08 1097.97 442.08 1097.31 442.08 1096.63 C441.48 1096.36 440.88 1096.09 440.26 1095.82 C438.08 1094.63 436.66 1093.54 435.08 1091.63 C435.08 1090.97 435.08 1090.31 435.08 1089.63 C434.09 1089.3 433.1 1088.97 432.08 1088.63 C432.08 1087.97 432.08 1087.31 432.08 1086.63 C431.42 1086.63 430.76 1086.63 430.08 1086.63 C428.43 1084.5 426.93 1082.38 425.45 1080.13 C425.01 1079.46 424.57 1078.79 424.11 1078.1 C417.99 1068.61 412.45 1058.57 409.59 1047.59 C409.09 1045.5 409.09 1045.5 408.01 1043.07 C404.43 1033.74 404.64 1024.09 404.64 1014.26 C404.64 1013.45 404.64 1012.65 404.63 1011.82 C404.65 999.42 405.62 988.31 410.08 976.63 C410.46 975.54 410.84 974.45 411.24 973.33 C415.55 962.02 422.21 949.86 430.08 940.63 C430.74 940.63 431.4 940.63 432.08 940.63 C432.41 939.64 432.74 938.65 433.08 937.63 C433.74 937.63 434.4 937.63 435.08 937.63 C435.48 936.73 435.48 936.73 435.89 935.82 C437.07 933.63 438.17 932.22 440.08 930.63 C440.74 930.63 441.4 930.63 442.08 930.63 C442.41 929.64 442.74 928.65 443.08 927.63 C443.74 927.63 444.4 927.63 445.08 927.63 C445.08 926.97 445.08 926.31 445.08 925.63 C447.21 923.98 449.33 922.48 451.58 921.01 C452.25 920.56 452.93 920.12 453.62 919.66 C463.38 913.38 473.26 908.42 484.36 905.01 C485.1 904.78 485.84 904.55 486.61 904.32 C488.43 903.75 490.25 903.19 492.08 902.63 C490.9 902.63 489.73 902.62 488.52 902.61 C477.41 902.56 466.31 902.48 455.2 902.4 C449.49 902.35 443.78 902.31 438.07 902.28 C432.55 902.26 427.04 902.22 421.52 902.17 C419.42 902.15 417.33 902.14 415.23 902.13 C401 902.09 388.35 901.21 375.08 895.63 C374.13 895.25 373.18 894.87 372.2 894.47 C366.36 892.08 360.68 889.54 355.08 886.63 C355.08 885.97 355.08 885.31 355.08 884.63 C354.5 884.53 353.92 884.42 353.33 884.31 C346.5 882.25 340.74 875.54 335.51 870.82 C334.98 870.34 334.44 869.86 333.89 869.36 C332.58 868.16 331.32 866.9 330.08 865.63 C330.08 864.97 330.08 864.31 330.08 863.63 C329.42 863.63 328.76 863.63 328.08 863.63 C326.87 862.32 326.87 862.32 325.54 860.49 C324.82 859.5 324.82 859.5 324.09 858.49 C323.59 857.8 323.09 857.1 322.58 856.38 C322.08 855.7 321.58 855.02 321.06 854.31 C315.08 846.05 315.08 846.05 315.08 841.63 C314.42 841.63 313.76 841.63 313.08 841.63 C312.12 839.4 311.16 837.17 310.2 834.94 C309.93 834.32 309.66 833.69 309.38 833.05 C297.41 805.15 296.87 774.87 308.08 746.63 C310.16 741.93 312.57 737.39 314.95 732.83 C317.06 728.7 319.03 724.51 321.01 720.32 C321.4 719.5 321.79 718.68 322.19 717.84 C322.56 717.07 322.92 716.31 323.29 715.52 C323.61 714.84 323.93 714.16 324.26 713.46 C325.77 710.06 326.2 708.25 325.19 704.72 C324.97 703.96 324.76 703.2 324.54 702.43 C324.3 701.63 324.07 700.83 323.83 700.01 C323.59 699.18 323.36 698.36 323.11 697.52 C321.82 693.02 320.43 688.58 318.89 684.16 C317.41 679.56 316.19 674.89 314.92 670.23 C313.66 665.65 312.31 661.14 310.74 656.66 C309.9 654.08 309.27 651.46 308.63 648.83 C307.69 645.1 306.67 641.4 305.64 637.69 C305.42 636.9 305.2 636.11 304.97 635.29 C303.69 630.7 302.32 626.16 300.74 621.66 C299.9 619.08 299.27 616.46 298.63 613.83 C297.69 610.1 296.67 606.4 295.64 602.69 C295.42 601.9 295.2 601.11 294.97 600.29 C293.69 595.7 292.32 591.16 290.74 586.66 C289.9 584.08 289.27 581.46 288.63 578.83 C287.69 575.1 286.67 571.4 285.64 567.69 C285.42 566.9 285.2 566.11 284.97 565.29 C283.69 560.7 282.32 556.16 280.74 551.66 C279.9 549.08 279.27 546.46 278.63 543.83 C277.69 540.1 276.67 536.4 275.64 532.69 C275.42 531.9 275.2 531.11 274.97 530.29 C273.69 525.7 272.32 521.16 270.74 516.66 C269.9 514.08 269.27 511.46 268.63 508.83 C267.69 505.1 266.67 501.4 265.64 497.69 C265.42 496.9 265.2 496.11 264.97 495.29 C263.69 490.7 262.32 486.16 260.74 481.66 C259.9 479.08 259.27 476.46 258.63 473.83 C257.69 470.1 256.67 466.4 255.64 462.69 C255.42 461.9 255.2 461.11 254.97 460.29 C253.69 455.7 252.32 451.16 250.74 446.66 C249.9 444.08 249.27 441.46 248.63 438.83 C247.69 435.1 246.67 431.4 245.64 427.69 C245.42 426.9 245.2 426.11 244.97 425.29 C243.69 420.7 242.32 416.16 240.74 411.66 C239.9 409.08 239.27 406.46 238.63 403.83 C237.69 400.1 236.67 396.4 235.64 392.69 C235.42 391.9 235.2 391.11 234.97 390.29 C233.69 385.7 232.32 381.16 230.74 376.66 C229.9 374.08 229.27 371.46 228.63 368.83 C227.69 365.1 226.67 361.4 225.64 357.69 C225.42 356.9 225.2 356.11 224.97 355.29 C223.69 350.7 222.32 346.16 220.74 341.66 C219.9 339.08 219.27 336.46 218.63 333.83 C217.69 330.1 216.67 326.4 215.64 322.69 C215.42 321.9 215.2 321.11 214.97 320.29 C213.69 315.7 212.32 311.16 210.74 306.66 C209.9 304.08 209.27 301.46 208.63 298.83 C207.69 295.1 206.67 291.4 205.64 287.69 C205.42 286.9 205.2 286.11 204.97 285.29 C203.69 280.7 202.32 276.16 200.74 271.66 C199.9 269.08 199.27 266.46 198.63 263.83 C197.69 260.1 196.67 256.4 195.64 252.69 C195.31 251.51 195.31 251.51 194.97 250.29 C193.69 245.7 192.32 241.16 190.74 236.66 C189.9 234.08 189.27 231.46 188.63 228.83 C187.69 225.1 186.67 221.4 185.64 217.69 C185.31 216.51 185.31 216.51 184.97 215.29 C183.69 210.7 182.32 206.16 180.74 201.66 C179.9 199.08 179.27 196.46 178.63 193.83 C177.69 190.1 176.67 186.4 175.64 182.69 C175.31 181.51 175.31 181.51 174.97 180.29 C173.69 175.7 172.32 171.16 170.74 166.66 C169.9 164.08 169.27 161.46 168.63 158.83 C167.69 155.1 166.67 151.4 165.64 147.69 C165.31 146.51 165.31 146.51 164.97 145.29 C163.69 140.7 162.32 136.16 160.74 131.66 C159.9 129.08 159.27 126.46 158.63 123.83 C157.69 120.1 156.67 116.4 155.64 112.69 C155.42 111.9 155.2 111.11 154.97 110.29 C153.67 105.65 152.28 101.06 150.69 96.5 C149.86 93.97 149.26 91.39 148.64 88.8 C148.03 86.46 147.29 84.18 146.51 81.88 C146.24 81.08 145.97 80.28 145.7 79.46 C145.49 78.86 145.29 78.25 145.08 77.63 C143.82 77.63 143.82 77.63 142.53 77.63 C122.07 77.64 101.62 77.61 81.16 77.55 C71.26 77.52 61.37 77.5 51.48 77.51 C42.85 77.52 34.22 77.5 25.6 77.46 C21.03 77.44 16.47 77.44 11.9 77.45 C7.6 77.47 3.29 77.45 -1.01 77.42 C-2.58 77.41 -4.15 77.41 -5.73 77.42 C-18.27 77.52 -27.24 74.8 -36.92 66.63 C-38.58 64.77 -38.58 64.77 -39.99 62.88 C-40.45 62.27 -40.92 61.65 -41.4 61.02 C-41.9 60.23 -42.41 59.44 -42.92 58.63 C-43.27 58.09 -43.62 57.55 -43.98 57 C-47.43 51.04 -47.56 45.53 -47.49 38.76 C-47.51 37.73 -47.53 36.71 -47.56 35.65 C-47.54 25.55 -43.83 17.88 -36.92 10.63 C-26.11 0.08 -14.26 -0.09 0 0 Z M269.08 226.63 C271.4 236.12 271.4 236.12 274.33 245.3 C275.19 247.99 275.86 250.71 276.53 253.44 C277.46 257.17 278.49 260.87 279.51 264.57 C279.73 265.36 279.95 266.15 280.18 266.97 C281.46 271.56 282.83 276.1 284.41 280.6 C285.26 283.18 285.88 285.8 286.52 288.43 C287.46 292.16 288.48 295.86 289.51 299.57 C289.73 300.36 289.95 301.15 290.18 301.97 C291.46 306.56 292.83 311.1 294.41 315.6 C295.26 318.18 295.88 320.8 296.52 323.43 C297.46 327.16 298.48 330.86 299.51 334.57 C299.73 335.36 299.95 336.15 300.18 336.97 C301.46 341.56 302.83 346.1 304.41 350.6 C305.26 353.18 305.88 355.8 306.52 358.43 C307.46 362.16 308.48 365.86 309.51 369.57 C309.84 370.76 309.84 370.76 310.18 371.97 C311.46 376.56 312.83 381.1 314.41 385.6 C315.26 388.18 315.88 390.8 316.52 393.43 C317.46 397.16 318.48 400.86 319.51 404.57 C319.84 405.76 319.84 405.76 320.18 406.97 C321.46 411.56 322.83 416.1 324.41 420.6 C325.26 423.18 325.88 425.8 326.52 428.43 C327.46 432.16 328.48 435.86 329.51 439.57 C329.84 440.76 329.84 440.76 330.18 441.97 C331.46 446.56 332.83 451.1 334.41 455.6 C335.26 458.18 335.88 460.8 336.52 463.43 C337.46 467.16 338.48 470.86 339.51 474.57 C339.84 475.76 339.84 475.76 340.18 476.97 C341.46 481.56 342.83 486.1 344.41 490.6 C345.26 493.18 345.88 495.8 346.52 498.43 C347.46 502.16 348.48 505.86 349.51 509.57 C349.73 510.36 349.95 511.15 350.18 511.97 C351.46 516.56 352.83 521.1 354.41 525.6 C355.26 528.18 355.88 530.8 356.52 533.43 C357.46 537.16 358.48 540.86 359.51 544.57 C359.73 545.36 359.95 546.15 360.18 546.97 C361.46 551.56 362.83 556.1 364.41 560.6 C365.26 563.18 365.88 565.8 366.52 568.43 C367.46 572.16 368.48 575.86 369.51 579.57 C369.73 580.36 369.95 581.15 370.18 581.97 C371.46 586.56 372.83 591.1 374.41 595.6 C375.26 598.18 375.88 600.8 376.52 603.43 C377.46 607.16 378.48 610.86 379.51 614.57 C379.73 615.36 379.95 616.15 380.18 616.97 C381.46 621.56 382.83 626.1 384.41 630.6 C385.26 633.18 385.88 635.8 386.52 638.43 C387.46 642.16 388.48 645.86 389.51 649.57 C389.73 650.36 389.95 651.15 390.18 651.97 C391.48 656.62 392.86 661.23 394.45 665.8 C395.11 667.73 395.66 669.67 396.2 671.63 C396.77 674.49 396.77 674.49 398.08 675.63 C399.44 675.73 400.8 675.76 402.16 675.76 C403.05 675.76 403.94 675.76 404.85 675.76 C405.84 675.76 406.83 675.76 407.85 675.75 C409.42 675.76 409.42 675.76 411.02 675.76 C414.56 675.76 418.11 675.76 421.66 675.75 C424.21 675.75 426.76 675.75 429.31 675.75 C434.88 675.76 440.44 675.75 446.01 675.75 C454.29 675.74 462.57 675.74 470.85 675.74 C484.78 675.75 498.71 675.74 512.63 675.74 C526.43 675.73 540.22 675.73 554.02 675.73 C554.88 675.73 555.73 675.73 556.62 675.73 C560.97 675.73 565.32 675.73 569.67 675.72 C600.51 675.72 631.35 675.72 662.19 675.71 C692.16 675.7 722.12 675.69 752.09 675.69 C753.48 675.69 753.48 675.69 754.89 675.69 C764.16 675.68 773.43 675.68 782.7 675.68 C801.59 675.68 820.48 675.68 839.36 675.67 C840.23 675.67 841.1 675.67 842 675.67 C900.02 675.66 958.05 675.65 1016.08 675.63 C1016.72 674.05 1017.36 672.46 1018.01 670.88 C1018.36 670 1018.72 669.12 1019.09 668.21 C1020.4 664.79 1021.25 661.44 1022.08 657.88 C1022.4 656.5 1022.74 655.13 1023.07 653.75 C1023.31 652.73 1023.31 652.73 1023.57 651.68 C1026.75 638.85 1026.75 638.85 1029.08 633.2 C1030.35 629.94 1031.14 626.6 1031.95 623.19 C1036.56 604.32 1036.56 604.32 1039.08 598.2 C1040.35 594.94 1041.14 591.6 1041.95 588.19 C1046.56 569.32 1046.56 569.32 1049.08 563.2 C1050.35 559.94 1051.14 556.6 1051.95 553.19 C1056.56 534.32 1056.56 534.32 1059.08 528.2 C1060.35 524.94 1061.14 521.6 1061.95 518.19 C1066.56 499.32 1066.56 499.32 1069.08 493.2 C1070.35 489.94 1071.14 486.6 1071.95 483.19 C1076.56 464.32 1076.56 464.32 1079.08 458.2 C1080.35 454.94 1081.14 451.6 1081.95 448.19 C1086.56 429.32 1086.56 429.32 1089.08 423.2 C1090.35 419.94 1091.14 416.6 1091.95 413.19 C1096.56 394.32 1096.56 394.32 1099.08 388.2 C1100.35 384.94 1101.14 381.6 1101.95 378.19 C1106.56 359.32 1106.56 359.32 1109.08 353.2 C1110.35 349.94 1111.14 346.6 1111.95 343.19 C1116.56 324.32 1116.56 324.32 1119.08 318.2 C1120.35 314.94 1121.14 311.6 1121.95 308.19 C1126.56 289.32 1126.56 289.32 1129.08 283.2 C1130.35 279.94 1131.14 276.6 1131.95 273.19 C1136.56 254.3 1136.56 254.3 1139.06 248.24 C1140.42 244.74 1141.3 241.16 1142.2 237.51 C1142.38 236.79 1142.56 236.08 1142.75 235.34 C1143.49 232.36 1144.08 229.71 1144.08 226.63 C855.33 226.63 566.58 226.63 269.08 226.63 Z M489.14 990.88 C487.9 992.57 487.9 992.57 488.08 994.63 C487.42 994.63 486.76 994.63 486.08 994.63 C486.08 995.95 486.08 997.27 486.08 998.63 C485.42 998.63 484.76 998.63 484.08 998.63 C480.14 1011.38 480.75 1020.34 486.08 1032.63 C486.74 1032.63 487.4 1032.63 488.08 1032.63 C488.3 1033.19 488.53 1033.74 488.76 1034.32 C491.19 1038.59 494.51 1041.77 499.08 1043.63 C499.08 1044.29 499.08 1044.95 499.08 1045.63 C510.93 1049.95 519.88 1052.69 532.08 1047.63 C543.21 1041.97 549.47 1034.85 553.35 1023.01 C553.59 1022.23 553.83 1021.44 554.08 1020.63 C554.41 1019.64 554.74 1018.65 555.08 1017.63 C555.66 1009.37 553.35 1002.18 550.08 994.63 C549.42 994.63 548.76 994.63 548.08 994.63 C547.85 994.07 547.62 993.52 547.39 992.94 C544.96 988.67 541.64 985.49 537.08 983.63 C537.08 982.97 537.08 982.31 537.08 981.63 C518.86 974.99 502.8 975.02 489.14 990.88 Z M865.8 992.39 C859.37 1000.75 858.21 1009.3 859.08 1019.63 C861.14 1030.5 868.25 1039.28 877.08 1045.63 C879.75 1046.99 882.16 1047.77 885.08 1048.63 C886.56 1049.22 886.56 1049.22 888.08 1049.82 C896.4 1052.07 904.89 1050.24 912.5 1046.41 C920.84 1041.24 928.13 1033.47 931.26 1024.07 C933.68 1013.22 932.23 1003.48 926.45 994.07 C921.09 986.49 914.99 981.26 906.08 978.63 C904.62 978.04 904.62 978.04 903.14 977.44 C888.11 973.46 875.35 981.36 865.8 992.39 Z " fill="#000000" transform="translate(46.92431640625,76.368896484375)"/>
</svg>
