<?xml version="1.0" encoding="UTF-8"?>
<!-- Generator: visioncortex VTracer 0.6.3 -->
<svg version="1.1" xmlns="http://www.w3.org/2000/svg" width="1280" height="1280">
<path d="M0 0 C8.62 6.13 14.11 13.77 16.31 24.25 C17.24 32.42 16.98 40.7 16.94 48.9 C16.95 51.42 16.95 53.94 16.96 56.46 C16.98 61.93 16.98 67.4 16.96 72.86 C16.94 80.99 16.95 89.12 16.96 97.25 C16.98 111.77 16.98 126.29 16.96 140.81 C16.94 153.52 16.94 166.22 16.94 178.93 C16.94 179.77 16.94 180.61 16.94 181.48 C16.94 184.9 16.95 188.33 16.95 191.75 C16.96 223.85 16.94 255.95 16.91 288.05 C16.88 316.56 16.87 345.08 16.89 373.59 C16.89 380.89 16.9 388.2 16.9 395.5 C16.9 396.85 16.9 396.85 16.9 398.22 C16.91 422.06 16.91 445.89 16.89 469.73 C16.89 472.29 16.89 474.86 16.89 477.42 C16.89 479.12 16.89 480.82 16.89 482.53 C16.88 495.22 16.88 507.92 16.89 520.62 C16.9 535.06 16.89 549.49 16.86 563.93 C16.85 572.01 16.85 580.09 16.86 588.17 C16.87 594.2 16.86 600.23 16.84 606.26 C16.83 608.7 16.83 611.14 16.84 613.58 C16.85 616.9 16.84 620.21 16.82 623.53 C16.83 624.48 16.84 625.43 16.85 626.4 C16.72 637.2 12.15 647.34 4.55 655.04 C-4.73 663.23 -13.7 665.88 -26.04 665.6 C-36 664.65 -45.46 659.17 -52.06 651.69 C-58.94 642.99 -61.14 634.62 -61.07 623.65 C-61.08 622.1 -61.08 622.1 -61.09 620.51 C-61.1 617.04 -61.09 613.57 -61.08 610.1 C-61.09 607.58 -61.09 605.07 -61.1 602.55 C-61.11 597.09 -61.12 591.62 -61.11 586.15 C-61.11 578.02 -61.12 569.89 -61.13 561.76 C-61.15 546.4 -61.16 531.03 -61.16 515.67 C-61.16 503.8 -61.16 491.94 -61.17 480.07 C-61.17 478.37 -61.17 476.66 -61.17 474.96 C-61.17 474.11 -61.17 473.26 -61.17 472.39 C-61.17 471.54 -61.17 470.7 -61.17 469.82 C-61.17 468.97 -61.17 468.12 -61.17 467.25 C-61.19 443.36 -61.2 419.47 -61.19 395.58 C-61.19 394.68 -61.19 393.78 -61.19 392.85 C-61.19 388.29 -61.19 383.72 -61.19 379.16 C-61.19 378.25 -61.19 377.35 -61.19 376.41 C-61.19 374.58 -61.19 372.75 -61.19 370.91 C-61.18 342.4 -61.2 313.88 -61.23 285.36 C-61.27 253.31 -61.28 221.26 -61.28 189.22 C-61.28 185.8 -61.28 182.38 -61.28 178.96 C-61.28 178.12 -61.28 177.28 -61.28 176.41 C-61.28 163.72 -61.29 151.02 -61.31 138.32 C-61.33 123.87 -61.33 109.43 -61.31 94.99 C-61.3 86.91 -61.31 78.83 -61.33 70.75 C-61.35 64.71 -61.34 58.67 -61.32 52.63 C-61.31 50.19 -61.32 47.75 -61.33 45.31 C-61.41 28.91 -61.13 15.7 -49.01 3.34 C-45.77 0.43 -42.62 -1.87 -38.69 -3.75 C-38.04 -4.07 -37.39 -4.38 -36.71 -4.71 C-23.94 -9.92 -11.26 -6.92 0 0 Z " fill="#000000" transform="translate(1109.6875,310.75)"/>
<path d="M0 0 C8.62 6.13 14.11 13.77 16.31 24.25 C17.24 32.42 16.98 40.7 16.94 48.9 C16.95 51.42 16.95 53.94 16.96 56.46 C16.98 61.93 16.98 67.4 16.96 72.86 C16.94 80.99 16.95 89.12 16.96 97.25 C16.98 111.77 16.98 126.29 16.96 140.81 C16.94 153.52 16.94 166.22 16.94 178.93 C16.94 179.77 16.94 180.61 16.94 181.48 C16.94 184.9 16.95 188.33 16.95 191.75 C16.96 223.85 16.94 255.95 16.91 288.05 C16.88 316.56 16.87 345.08 16.89 373.59 C16.89 380.89 16.9 388.2 16.9 395.5 C16.9 396.85 16.9 396.85 16.9 398.22 C16.91 422.06 16.91 445.89 16.89 469.73 C16.89 472.29 16.89 474.86 16.89 477.42 C16.89 479.12 16.89 480.82 16.89 482.53 C16.88 495.22 16.88 507.92 16.89 520.62 C16.9 535.06 16.89 549.49 16.86 563.93 C16.85 572.01 16.85 580.09 16.86 588.17 C16.87 594.2 16.86 600.23 16.84 606.26 C16.83 608.7 16.83 611.14 16.84 613.58 C16.85 616.9 16.84 620.21 16.82 623.53 C16.83 624.48 16.84 625.43 16.85 626.4 C16.72 637.2 12.15 647.34 4.55 655.04 C-4.73 663.23 -13.7 665.88 -26.04 665.6 C-36 664.65 -45.46 659.17 -52.06 651.69 C-58.94 642.99 -61.14 634.62 -61.07 623.65 C-61.08 622.1 -61.08 622.1 -61.09 620.51 C-61.1 617.04 -61.09 613.57 -61.08 610.1 C-61.09 607.58 -61.09 605.07 -61.1 602.55 C-61.11 597.09 -61.12 591.62 -61.11 586.15 C-61.11 578.02 -61.12 569.89 -61.13 561.76 C-61.15 546.4 -61.16 531.03 -61.16 515.67 C-61.16 503.8 -61.16 491.94 -61.17 480.07 C-61.17 478.37 -61.17 476.66 -61.17 474.96 C-61.17 474.11 -61.17 473.26 -61.17 472.39 C-61.17 471.54 -61.17 470.7 -61.17 469.82 C-61.17 468.97 -61.17 468.12 -61.17 467.25 C-61.19 443.36 -61.2 419.47 -61.19 395.58 C-61.19 394.68 -61.19 393.78 -61.19 392.85 C-61.19 388.29 -61.19 383.72 -61.19 379.16 C-61.19 378.25 -61.19 377.35 -61.19 376.41 C-61.19 374.58 -61.19 372.75 -61.19 370.91 C-61.18 342.4 -61.2 313.88 -61.23 285.36 C-61.27 253.31 -61.28 221.26 -61.28 189.22 C-61.28 185.8 -61.28 182.38 -61.28 178.96 C-61.28 178.12 -61.28 177.28 -61.28 176.41 C-61.28 163.72 -61.29 151.02 -61.31 138.32 C-61.33 123.87 -61.33 109.43 -61.31 94.99 C-61.3 86.91 -61.31 78.83 -61.33 70.75 C-61.35 64.71 -61.34 58.67 -61.32 52.63 C-61.31 50.19 -61.32 47.75 -61.33 45.31 C-61.41 28.91 -61.13 15.7 -49.01 3.34 C-45.77 0.43 -42.62 -1.87 -38.69 -3.75 C-38.04 -4.07 -37.39 -4.38 -36.71 -4.71 C-23.94 -9.92 -11.26 -6.92 0 0 Z " fill="#000000" transform="translate(509.6875,310.75)"/>
<path d="M0 0 C8.62 6.13 14.11 13.77 16.31 24.25 C17.24 32.42 16.98 40.7 16.94 48.9 C16.95 51.42 16.95 53.94 16.96 56.46 C16.98 61.93 16.98 67.4 16.96 72.86 C16.94 80.99 16.95 89.12 16.96 97.25 C16.98 111.77 16.98 126.29 16.96 140.81 C16.94 153.52 16.94 166.22 16.94 178.93 C16.94 179.77 16.94 180.61 16.94 181.48 C16.94 184.9 16.95 188.33 16.95 191.75 C16.96 223.85 16.94 255.95 16.91 288.05 C16.88 316.56 16.87 345.08 16.89 373.59 C16.89 380.89 16.9 388.2 16.9 395.5 C16.9 396.85 16.9 396.85 16.9 398.22 C16.91 422.06 16.91 445.89 16.89 469.73 C16.89 472.29 16.89 474.86 16.89 477.42 C16.89 479.12 16.89 480.82 16.89 482.53 C16.88 495.22 16.88 507.92 16.89 520.62 C16.9 535.06 16.89 549.49 16.86 563.93 C16.85 572.01 16.85 580.09 16.86 588.17 C16.87 594.2 16.86 600.23 16.84 606.26 C16.83 608.7 16.83 611.14 16.84 613.58 C16.85 616.9 16.84 620.21 16.82 623.53 C16.83 624.48 16.84 625.43 16.85 626.4 C16.72 637.2 12.15 647.34 4.55 655.04 C-4.73 663.23 -13.7 665.88 -26.04 665.6 C-36 664.65 -45.46 659.17 -52.06 651.69 C-58.94 642.99 -61.14 634.62 -61.07 623.65 C-61.08 622.1 -61.08 622.1 -61.09 620.51 C-61.1 617.04 -61.09 613.57 -61.08 610.1 C-61.09 607.58 -61.09 605.07 -61.1 602.55 C-61.11 597.09 -61.12 591.62 -61.11 586.15 C-61.11 578.02 -61.12 569.89 -61.13 561.76 C-61.15 546.4 -61.16 531.03 -61.16 515.67 C-61.16 503.8 -61.16 491.94 -61.17 480.07 C-61.17 478.37 -61.17 476.66 -61.17 474.96 C-61.17 474.11 -61.17 473.26 -61.17 472.39 C-61.17 471.54 -61.17 470.7 -61.17 469.82 C-61.17 468.97 -61.17 468.12 -61.17 467.25 C-61.19 443.36 -61.2 419.47 -61.19 395.58 C-61.19 394.68 -61.19 393.78 -61.19 392.85 C-61.19 388.29 -61.19 383.72 -61.19 379.16 C-61.19 378.25 -61.19 377.35 -61.19 376.41 C-61.19 374.58 -61.19 372.75 -61.19 370.91 C-61.18 342.4 -61.2 313.88 -61.23 285.36 C-61.27 253.31 -61.28 221.26 -61.28 189.22 C-61.28 185.8 -61.28 182.38 -61.28 178.96 C-61.28 178.12 -61.28 177.28 -61.28 176.41 C-61.28 163.72 -61.29 151.02 -61.31 138.32 C-61.33 123.87 -61.33 109.43 -61.31 94.99 C-61.3 86.91 -61.31 78.83 -61.33 70.75 C-61.35 64.71 -61.34 58.67 -61.32 52.63 C-61.31 50.19 -61.32 47.75 -61.33 45.31 C-61.41 28.91 -61.13 15.7 -49.01 3.34 C-45.77 0.43 -42.62 -1.87 -38.69 -3.75 C-38.04 -4.07 -37.39 -4.38 -36.71 -4.71 C-23.94 -9.92 -11.26 -6.92 0 0 Z " fill="#000000" transform="translate(209.6875,310.75)"/>
<path d="M0 0 C8.9 6.33 13.42 13.72 16.31 24.25 C16.99 29.95 16.99 35.58 16.94 41.31 C16.95 43.01 16.95 44.7 16.96 46.4 C16.98 51.02 16.97 55.65 16.95 60.27 C16.94 65.28 16.95 70.28 16.97 75.28 C16.98 85.06 16.98 94.85 16.96 104.63 C16.94 112.58 16.94 120.54 16.94 128.49 C16.94 129.62 16.94 130.76 16.94 131.92 C16.95 134.23 16.95 136.53 16.95 138.83 C16.96 159.17 16.94 179.51 16.91 199.85 C16.88 219.58 16.87 239.31 16.89 259.04 C16.91 280.54 16.91 302.04 16.89 323.53 C16.89 325.83 16.89 328.12 16.89 330.41 C16.89 331.54 16.88 332.67 16.88 333.83 C16.88 341.77 16.88 349.72 16.89 357.66 C16.9 367.34 16.89 377.02 16.86 386.7 C16.85 391.64 16.85 396.57 16.86 401.51 C16.87 406.03 16.86 410.55 16.84 415.07 C16.83 416.71 16.83 418.34 16.84 419.97 C16.88 428.75 16.56 436.32 12.31 444.25 C11.59 445.6 11.59 445.6 10.86 446.98 C4.64 456.23 -3.59 462.95 -14.69 465.25 C-28.12 466.49 -38.19 463.69 -48.69 455.25 C-57.56 446.5 -60.97 437.01 -61.09 424.64 C-61.1 422.33 -61.09 420.01 -61.08 417.69 C-61.09 416 -61.09 414.31 -61.1 412.62 C-61.12 407.99 -61.11 403.36 -61.11 398.73 C-61.11 393.74 -61.12 388.74 -61.13 383.74 C-61.15 373.95 -61.16 364.17 -61.16 354.38 C-61.16 346.42 -61.16 338.46 -61.17 330.51 C-61.17 328.21 -61.17 325.92 -61.17 323.63 C-61.17 322.49 -61.18 321.35 -61.18 320.17 C-61.2 298.59 -61.19 277.01 -61.19 255.42 C-61.18 235.69 -61.2 215.96 -61.24 196.23 C-61.27 175.95 -61.28 155.68 -61.28 135.41 C-61.28 124.03 -61.28 112.66 -61.31 101.28 C-61.33 91.59 -61.33 81.91 -61.31 72.22 C-61.3 67.28 -61.3 62.34 -61.32 57.4 C-61.34 52.87 -61.34 48.35 -61.32 43.82 C-61.31 42.19 -61.32 40.56 -61.33 38.92 C-61.44 25.06 -59.02 13.55 -49.01 3.34 C-45.77 0.43 -42.62 -1.87 -38.69 -3.75 C-38.04 -4.07 -37.39 -4.38 -36.71 -4.71 C-23.94 -9.92 -11.26 -6.92 0 0 Z " fill="#000000" transform="translate(959.6875,310.75)"/>
<path d="M0 0 C8.9 6.33 13.42 13.72 16.31 24.25 C16.99 29.95 16.99 35.58 16.94 41.31 C16.95 43.01 16.95 44.7 16.96 46.4 C16.98 51.02 16.97 55.65 16.95 60.27 C16.94 65.28 16.95 70.28 16.97 75.28 C16.98 85.06 16.98 94.85 16.96 104.63 C16.94 112.58 16.94 120.54 16.94 128.49 C16.94 129.62 16.94 130.76 16.94 131.92 C16.95 134.23 16.95 136.53 16.95 138.83 C16.96 159.17 16.94 179.51 16.91 199.85 C16.88 219.58 16.87 239.31 16.89 259.04 C16.91 280.54 16.91 302.04 16.89 323.53 C16.89 325.83 16.89 328.12 16.89 330.41 C16.89 331.54 16.88 332.67 16.88 333.83 C16.88 341.77 16.88 349.72 16.89 357.66 C16.9 367.34 16.89 377.02 16.86 386.7 C16.85 391.64 16.85 396.57 16.86 401.51 C16.87 406.03 16.86 410.55 16.84 415.07 C16.83 416.71 16.83 418.34 16.84 419.97 C16.88 428.75 16.56 436.32 12.31 444.25 C11.59 445.6 11.59 445.6 10.86 446.98 C4.64 456.23 -3.59 462.95 -14.69 465.25 C-28.12 466.49 -38.19 463.69 -48.69 455.25 C-57.56 446.5 -60.97 437.01 -61.09 424.64 C-61.1 422.33 -61.09 420.01 -61.08 417.69 C-61.09 416 -61.09 414.31 -61.1 412.62 C-61.12 407.99 -61.11 403.36 -61.11 398.73 C-61.11 393.74 -61.12 388.74 -61.13 383.74 C-61.15 373.95 -61.16 364.17 -61.16 354.38 C-61.16 346.42 -61.16 338.46 -61.17 330.51 C-61.17 328.21 -61.17 325.92 -61.17 323.63 C-61.17 322.49 -61.18 321.35 -61.18 320.17 C-61.2 298.59 -61.19 277.01 -61.19 255.42 C-61.18 235.69 -61.2 215.96 -61.24 196.23 C-61.27 175.95 -61.28 155.68 -61.28 135.41 C-61.28 124.03 -61.28 112.66 -61.31 101.28 C-61.33 91.59 -61.33 81.91 -61.31 72.22 C-61.3 67.28 -61.3 62.34 -61.32 57.4 C-61.34 52.87 -61.34 48.35 -61.32 43.82 C-61.31 42.19 -61.32 40.56 -61.33 38.92 C-61.44 25.06 -59.02 13.55 -49.01 3.34 C-45.77 0.43 -42.62 -1.87 -38.69 -3.75 C-38.04 -4.07 -37.39 -4.38 -36.71 -4.71 C-23.94 -9.92 -11.26 -6.92 0 0 Z " fill="#000000" transform="translate(809.6875,310.75)"/>
<path d="M0 0 C8.9 6.33 13.42 13.72 16.31 24.25 C16.99 29.95 16.99 35.58 16.94 41.31 C16.95 43.01 16.95 44.7 16.96 46.4 C16.98 51.02 16.97 55.65 16.95 60.27 C16.94 65.28 16.95 70.28 16.97 75.28 C16.98 85.06 16.98 94.85 16.96 104.63 C16.94 112.58 16.94 120.54 16.94 128.49 C16.94 129.62 16.94 130.76 16.94 131.92 C16.95 134.23 16.95 136.53 16.95 138.83 C16.96 159.17 16.94 179.51 16.91 199.85 C16.88 219.58 16.87 239.31 16.89 259.04 C16.91 280.54 16.91 302.04 16.89 323.53 C16.89 325.83 16.89 328.12 16.89 330.41 C16.89 331.54 16.88 332.67 16.88 333.83 C16.88 341.77 16.88 349.72 16.89 357.66 C16.9 367.34 16.89 377.02 16.86 386.7 C16.85 391.64 16.85 396.57 16.86 401.51 C16.87 406.03 16.86 410.55 16.84 415.07 C16.83 416.71 16.83 418.34 16.84 419.97 C16.88 428.75 16.56 436.32 12.31 444.25 C11.59 445.6 11.59 445.6 10.86 446.98 C4.64 456.23 -3.59 462.95 -14.69 465.25 C-28.12 466.49 -38.19 463.69 -48.69 455.25 C-57.56 446.5 -60.97 437.01 -61.09 424.64 C-61.1 422.33 -61.09 420.01 -61.08 417.69 C-61.09 416 -61.09 414.31 -61.1 412.62 C-61.12 407.99 -61.11 403.36 -61.11 398.73 C-61.11 393.74 -61.12 388.74 -61.13 383.74 C-61.15 373.95 -61.16 364.17 -61.16 354.38 C-61.16 346.42 -61.16 338.46 -61.17 330.51 C-61.17 328.21 -61.17 325.92 -61.17 323.63 C-61.17 322.49 -61.18 321.35 -61.18 320.17 C-61.2 298.59 -61.19 277.01 -61.19 255.42 C-61.18 235.69 -61.2 215.96 -61.24 196.23 C-61.27 175.95 -61.28 155.68 -61.28 135.41 C-61.28 124.03 -61.28 112.66 -61.31 101.28 C-61.33 91.59 -61.33 81.91 -61.31 72.22 C-61.3 67.28 -61.3 62.34 -61.32 57.4 C-61.34 52.87 -61.34 48.35 -61.32 43.82 C-61.31 42.19 -61.32 40.56 -61.33 38.92 C-61.44 25.06 -59.02 13.55 -49.01 3.34 C-45.77 0.43 -42.62 -1.87 -38.69 -3.75 C-38.04 -4.07 -37.39 -4.38 -36.71 -4.71 C-23.94 -9.92 -11.26 -6.92 0 0 Z " fill="#000000" transform="translate(659.6875,310.75)"/>
<path d="M0 0 C8.9 6.33 13.42 13.72 16.31 24.25 C16.99 29.95 16.99 35.58 16.94 41.31 C16.95 43.01 16.95 44.7 16.96 46.4 C16.98 51.02 16.97 55.65 16.95 60.27 C16.94 65.28 16.95 70.28 16.97 75.28 C16.98 85.06 16.98 94.85 16.96 104.63 C16.94 112.58 16.94 120.54 16.94 128.49 C16.94 129.62 16.94 130.76 16.94 131.92 C16.95 134.23 16.95 136.53 16.95 138.83 C16.96 159.17 16.94 179.51 16.91 199.85 C16.88 219.58 16.87 239.31 16.89 259.04 C16.91 280.54 16.91 302.04 16.89 323.53 C16.89 325.83 16.89 328.12 16.89 330.41 C16.89 331.54 16.88 332.67 16.88 333.83 C16.88 341.77 16.88 349.72 16.89 357.66 C16.9 367.34 16.89 377.02 16.86 386.7 C16.85 391.64 16.85 396.57 16.86 401.51 C16.87 406.03 16.86 410.55 16.84 415.07 C16.83 416.71 16.83 418.34 16.84 419.97 C16.88 428.75 16.56 436.32 12.31 444.25 C11.59 445.6 11.59 445.6 10.86 446.98 C4.64 456.23 -3.59 462.95 -14.69 465.25 C-28.12 466.49 -38.19 463.69 -48.69 455.25 C-57.56 446.5 -60.97 437.01 -61.09 424.64 C-61.1 422.33 -61.09 420.01 -61.08 417.69 C-61.09 416 -61.09 414.31 -61.1 412.62 C-61.12 407.99 -61.11 403.36 -61.11 398.73 C-61.11 393.74 -61.12 388.74 -61.13 383.74 C-61.15 373.95 -61.16 364.17 -61.16 354.38 C-61.16 346.42 -61.16 338.46 -61.17 330.51 C-61.17 328.21 -61.17 325.92 -61.17 323.63 C-61.17 322.49 -61.18 321.35 -61.18 320.17 C-61.2 298.59 -61.19 277.01 -61.19 255.42 C-61.18 235.69 -61.2 215.96 -61.24 196.23 C-61.27 175.95 -61.28 155.68 -61.28 135.41 C-61.28 124.03 -61.28 112.66 -61.31 101.28 C-61.33 91.59 -61.33 81.91 -61.31 72.22 C-61.3 67.28 -61.3 62.34 -61.32 57.4 C-61.34 52.87 -61.34 48.35 -61.32 43.82 C-61.31 42.19 -61.32 40.56 -61.33 38.92 C-61.44 25.06 -59.02 13.55 -49.01 3.34 C-45.77 0.43 -42.62 -1.87 -38.69 -3.75 C-38.04 -4.07 -37.39 -4.38 -36.71 -4.71 C-23.94 -9.92 -11.26 -6.92 0 0 Z " fill="#000000" transform="translate(359.6875,310.75)"/>
<path d="M0 0 C1.73 -0 3.46 -0.01 5.18 -0.02 C9.85 -0.03 14.51 -0.01 19.17 0.01 C24.07 0.03 28.97 0.02 33.86 0.02 C42.08 0.02 50.3 0.04 58.53 0.07 C68.01 0.11 77.49 0.12 86.98 0.11 C96.13 0.11 105.28 0.12 114.43 0.14 C118.31 0.14 122.19 0.15 126.07 0.15 C130.65 0.14 135.22 0.16 139.8 0.18 C141.47 0.19 143.15 0.19 144.82 0.19 C162.28 0.16 176.62 4.68 191.68 13.62 C191.68 14.28 191.68 14.94 191.68 15.62 C192.85 16.08 192.85 16.08 194.05 16.55 C196.68 17.62 196.68 17.62 198.68 18.62 C198.68 19.28 198.68 19.94 198.68 20.62 C199.24 20.85 199.8 21.09 200.38 21.33 C203.2 22.9 205.16 24.83 207.43 27.12 C208.63 28.31 208.63 28.31 209.85 29.52 C211.68 31.62 211.68 31.62 211.68 33.62 C212.34 33.62 213 33.62 213.68 33.62 C215.24 35.9 216.66 38.17 218.05 40.55 C218.66 41.58 218.66 41.58 219.28 42.63 C222.11 47.49 224.62 52.38 226.68 57.62 C227.05 58.46 227.42 59.31 227.8 60.18 C230 66.31 230.93 71.83 230.95 78.34 C230.96 79.08 230.96 79.81 230.97 80.57 C230.98 83.01 230.98 85.45 230.98 87.89 C230.99 89.65 231 91.4 231.01 93.16 C231.03 97.92 231.04 102.68 231.05 107.44 C231.05 110.42 231.06 113.4 231.06 116.38 C231.09 126.78 231.1 137.17 231.1 147.57 C231.11 157.25 231.14 166.93 231.18 176.6 C231.21 184.93 231.23 193.25 231.23 201.57 C231.23 206.54 231.24 211.5 231.27 216.47 C231.29 221.14 231.3 225.81 231.28 230.48 C231.28 232.19 231.28 233.89 231.3 235.6 C231.4 246.82 229.94 254.41 223.49 263.8 C215.54 271.75 206.81 276.88 195.47 277.18 C194.63 277.18 193.79 277.18 192.93 277.18 C192.05 277.18 191.18 277.18 190.27 277.17 C180.3 276.91 173.18 273.02 165.68 266.62 C158.92 259.19 154.56 250.23 154.54 240.18 C154.54 239.52 154.53 238.86 154.53 238.19 C154.52 235.98 154.52 233.78 154.52 231.57 C154.52 230 154.51 228.42 154.5 226.84 C154.49 223.44 154.48 220.04 154.48 216.63 C154.47 211.26 154.45 205.88 154.43 200.5 C154.36 185.2 154.31 169.91 154.28 154.61 C154.26 146.17 154.23 137.72 154.19 129.28 C154.17 124.81 154.15 120.34 154.15 115.87 C154.15 111.66 154.13 107.46 154.11 103.26 C154.1 101.71 154.1 100.17 154.1 98.63 C154.1 96.52 154.09 94.42 154.07 92.31 C154.06 90.54 154.06 90.54 154.06 88.74 C153.62 85.17 152.95 83.4 150.68 80.62 C146.35 77.81 142.99 77.24 137.89 77.26 C137.23 77.25 136.57 77.25 135.89 77.25 C133.7 77.24 131.51 77.26 129.32 77.28 C127.74 77.28 126.16 77.28 124.58 77.28 C121.19 77.27 117.8 77.28 114.41 77.3 C109.04 77.32 103.66 77.31 98.29 77.3 C83.02 77.28 67.74 77.29 52.47 77.33 C44.03 77.35 35.59 77.35 27.15 77.33 C21.82 77.31 16.49 77.33 11.15 77.36 C7.82 77.37 4.49 77.36 1.16 77.35 C-0.37 77.34 -1.9 77.35 -3.44 77.37 C-15.86 77.51 -24.73 74.69 -34.32 66.62 C-43.36 56.68 -46.11 45.69 -45.51 32.58 C-44.63 23.39 -38.8 15.76 -32.32 9.62 C-31.71 8.96 -31.09 8.31 -30.46 7.64 C-21.9 -0.46 -11.01 -0.09 0 0 Z " fill="#000000" transform="translate(1049.322265625,151.384765625)"/>
<path d="M0 0 C1.73 -0.01 3.45 -0.02 5.18 -0.03 C9.81 -0.06 14.45 -0.05 19.08 -0.04 C22.97 -0.03 26.86 -0.04 30.74 -0.05 C39.91 -0.07 49.09 -0.07 58.26 -0.04 C67.69 -0.02 77.12 -0.04 86.55 -0.08 C94.69 -0.11 102.82 -0.12 110.96 -0.11 C115.8 -0.1 120.64 -0.1 125.48 -0.12 C130.03 -0.15 134.58 -0.14 139.13 -0.11 C140.79 -0.1 142.45 -0.1 144.12 -0.12 C156.86 -0.23 166.05 2.29 176.01 10.66 C185.05 20.6 187.8 31.59 187.2 44.69 C186.21 55.05 179.12 63.32 171.51 69.79 C165.04 74.64 159.38 76.91 151.23 76.91 C150.57 76.92 149.91 76.92 149.23 76.92 C147.04 76.93 144.85 76.92 142.66 76.92 C141.09 76.92 139.51 76.92 137.94 76.93 C134.55 76.94 131.16 76.94 127.78 76.94 C122.42 76.93 117.06 76.95 111.7 76.97 C96.47 77.01 81.23 77.04 66 77.04 C57.58 77.05 49.16 77.07 40.74 77.1 C35.42 77.12 30.09 77.12 24.77 77.11 C21.46 77.11 18.14 77.12 14.83 77.14 C13.29 77.15 11.76 77.14 10.22 77.14 C-0.62 76.86 -0.62 76.86 -9.99 81.66 C-12.28 85.11 -12.24 88.11 -12.24 92.19 C-12.24 92.84 -12.25 93.5 -12.25 94.17 C-12.26 96.36 -12.25 98.55 -12.24 100.74 C-12.25 102.31 -12.25 103.88 -12.25 105.45 C-12.26 108.83 -12.26 112.21 -12.26 115.6 C-12.26 120.95 -12.27 126.31 -12.29 131.66 C-12.34 146.89 -12.36 162.11 -12.37 177.34 C-12.37 185.75 -12.39 194.16 -12.42 202.57 C-12.44 207.89 -12.45 213.2 -12.44 218.52 C-12.43 221.84 -12.45 225.16 -12.47 228.47 C-12.47 230.01 -12.47 231.54 -12.46 233.07 C-12.39 245.83 -14.51 255.68 -23.43 265.29 C-33.95 275.04 -42.94 277.42 -56.97 277.12 C-66.23 276.57 -74.51 271.68 -80.65 264.8 C-81.34 263.87 -81.34 263.87 -82.05 262.91 C-82.75 261.99 -82.75 261.99 -83.46 261.05 C-83.96 260.26 -84.47 259.48 -84.99 258.66 C-85.67 257.65 -86.35 256.64 -87.05 255.6 C-90.41 248.76 -89.53 240.73 -89.49 233.28 C-89.49 231.51 -89.5 229.74 -89.51 227.97 C-89.52 223.18 -89.51 218.39 -89.49 213.6 C-89.48 208.58 -89.48 203.55 -89.49 198.53 C-89.49 190.09 -89.48 181.66 -89.45 173.22 C-89.43 163.48 -89.43 153.74 -89.44 144 C-89.45 134.62 -89.44 125.23 -89.43 115.85 C-89.42 111.86 -89.42 107.88 -89.43 103.89 C-89.43 99.19 -89.42 94.49 -89.4 89.79 C-89.39 88.07 -89.39 86.35 -89.4 84.63 C-89.42 76.15 -89.4 68.59 -85.99 60.66 C-85.58 59.6 -85.17 58.54 -84.74 57.44 C-82.35 51.73 -79.84 46.16 -76.99 40.66 C-76.33 40.66 -75.67 40.66 -74.99 40.66 C-74.52 39.49 -74.52 39.49 -74.05 38.29 C-72.99 35.66 -72.99 35.66 -71.99 33.66 C-71.33 33.66 -70.67 33.66 -69.99 33.66 C-69.75 33.1 -69.51 32.54 -69.27 31.96 C-67.7 29.14 -65.77 27.18 -63.49 24.91 C-62.69 24.11 -61.9 23.31 -61.08 22.49 C-58.99 20.66 -58.99 20.66 -56.99 20.66 C-56.99 20 -56.99 19.34 -56.99 18.66 C-53.51 16.05 -49.72 13.9 -45.99 11.66 C-45.14 11.13 -44.28 10.6 -43.41 10.05 C-29.71 1.93 -15.59 -0.09 0 0 Z " fill="#000000" transform="translate(88.987548828125,151.337158203125)"/>
<path d="M0 0 C5.01 2.95 9.58 6.3 13.06 11 C13.53 11.61 13.99 12.23 14.47 12.86 C15.23 14.04 15.23 14.04 16 15.25 C16.68 16.27 17.36 17.28 18.06 18.33 C21.39 25.12 20.56 33.04 20.53 40.43 C20.54 42.18 20.55 43.92 20.56 45.67 C20.58 50.41 20.58 55.15 20.57 59.88 C20.57 63.85 20.57 67.81 20.58 71.78 C20.6 81.14 20.59 90.51 20.58 99.88 C20.56 109.51 20.58 119.14 20.61 128.77 C20.63 137.06 20.64 145.35 20.63 153.64 C20.63 158.59 20.63 163.53 20.65 168.47 C20.67 173.12 20.66 177.78 20.64 182.43 C20.63 184.13 20.64 185.83 20.65 187.52 C20.79 208.42 13.91 227.29 0 243.25 C-0.66 243.25 -1.32 243.25 -2 243.25 C-2.21 243.79 -2.41 244.32 -2.62 244.88 C-4.53 248.17 -7.05 250.84 -10 253.25 C-10.66 253.25 -11.32 253.25 -12 253.25 C-12 253.91 -12 254.57 -12 255.25 C-16.38 258.25 -16.38 258.25 -19 258.25 C-19 258.91 -19 259.57 -19 260.25 C-21.3 261.5 -23.62 262.72 -25.94 263.94 C-26.56 264.28 -27.18 264.62 -27.82 264.97 C-41.35 271.96 -54.9 274 -69.9 273.91 C-71.61 273.92 -73.33 273.93 -75.05 273.94 C-79.65 273.97 -84.26 273.97 -88.87 273.95 C-92.73 273.95 -96.6 273.96 -100.46 273.96 C-109.58 273.98 -118.7 273.98 -127.82 273.96 C-137.2 273.93 -146.57 273.95 -155.95 273.99 C-164.04 274.02 -172.12 274.03 -180.21 274.02 C-185.03 274.01 -189.84 274.01 -194.66 274.04 C-199.18 274.06 -203.7 274.05 -208.23 274.02 C-209.88 274.01 -211.53 274.02 -213.18 274.03 C-225.89 274.14 -235.07 271.6 -245 263.25 C-254.04 253.32 -256.79 242.32 -256.19 229.22 C-255.31 220.03 -249.47 212.4 -243 206.25 C-242.39 205.6 -241.77 204.94 -241.14 204.27 C-232.93 196.52 -222.62 196.54 -211.99 196.65 C-210.4 196.65 -208.82 196.65 -207.23 196.64 C-203.84 196.63 -200.44 196.64 -197.05 196.66 C-191.68 196.69 -186.31 196.68 -180.94 196.67 C-170.51 196.65 -160.08 196.66 -149.65 196.68 C-136.37 196.71 -123.08 196.72 -109.79 196.69 C-104.46 196.68 -99.12 196.69 -93.79 196.72 C-90.47 196.73 -87.15 196.73 -83.83 196.72 C-82.29 196.72 -80.76 196.72 -79.22 196.74 C-68.37 197.05 -68.37 197.05 -59 192.25 C-56.71 188.8 -56.75 185.8 -56.75 181.72 C-56.75 181.07 -56.74 180.42 -56.74 179.74 C-56.73 177.55 -56.74 175.36 -56.74 173.18 C-56.74 171.6 -56.74 170.03 -56.73 168.46 C-56.73 165.08 -56.72 161.7 -56.73 158.32 C-56.73 152.96 -56.71 147.61 -56.7 142.25 C-56.65 127.03 -56.63 111.8 -56.62 96.57 C-56.62 88.16 -56.6 79.75 -56.56 71.34 C-56.54 66.03 -56.54 60.71 -56.55 55.39 C-56.55 52.08 -56.54 48.76 -56.52 45.44 C-56.52 43.91 -56.52 42.38 -56.53 40.85 C-56.6 28.13 -54.54 18.11 -45.5 8.62 C-44.67 7.84 -43.85 7.06 -43 6.25 C-42.38 5.6 -41.76 4.95 -41.12 4.27 C-30.94 -5.44 -12.28 -5.98 0 0 Z " fill="#000000" transform="translate(1260,854.75)"/>
<path d="M0 0 C11.05 6.51 17 15.25 21 27.25 C21.1 29.39 21.13 31.54 21.14 33.69 C21.14 34.35 21.14 35 21.15 35.68 C21.15 37.88 21.16 40.09 21.16 42.29 C21.16 43.87 21.17 45.45 21.17 47.03 C21.18 50.43 21.19 53.83 21.2 57.23 C21.21 62.61 21.23 67.99 21.25 73.37 C21.31 88.66 21.37 103.96 21.4 119.25 C21.42 127.7 21.45 136.14 21.49 144.59 C21.51 149.06 21.53 153.53 21.53 158 C21.53 162.2 21.55 166.4 21.57 170.61 C21.58 172.15 21.58 173.69 21.58 175.24 C21.57 177.34 21.59 179.45 21.61 181.56 C21.61 183.32 21.61 183.32 21.62 185.13 C22.05 188.7 22.73 190.47 25 193.25 C29.33 196.05 32.69 196.62 37.79 196.61 C38.78 196.61 38.78 196.61 39.79 196.62 C41.98 196.62 44.17 196.6 46.36 196.59 C47.94 196.59 49.52 196.59 51.09 196.59 C54.49 196.59 57.88 196.58 61.27 196.57 C66.64 196.55 72.01 196.55 77.39 196.56 C92.66 196.58 107.94 196.57 123.21 196.53 C131.65 196.51 140.09 196.51 148.53 196.54 C153.86 196.55 159.19 196.54 164.52 196.51 C167.85 196.49 171.18 196.5 174.52 196.52 C176.05 196.52 177.58 196.52 179.12 196.5 C191.54 196.36 200.41 199.18 210 207.25 C219.04 217.18 221.79 228.18 221.19 241.28 C220.2 251.64 213.1 259.91 205.5 266.38 C198.83 271.38 193.11 273.5 184.72 273.51 C184 273.51 183.29 273.52 182.56 273.52 C180.19 273.53 177.82 273.53 175.44 273.52 C173.74 273.53 172.03 273.53 170.33 273.54 C165.7 273.55 161.08 273.55 156.45 273.55 C152.58 273.55 148.71 273.56 144.84 273.56 C135.71 273.57 126.57 273.57 117.44 273.57 C108.04 273.56 98.63 273.57 89.23 273.59 C81.14 273.61 73.05 273.62 64.97 273.61 C60.14 273.61 55.32 273.61 50.49 273.63 C45.95 273.64 41.41 273.64 36.87 273.63 C35.21 273.62 33.55 273.63 31.89 273.63 C7.89 273.75 -12.82 265.21 -30.19 248.38 C-33 245.54 -33 245.54 -33 243.25 C-33.99 242.92 -34.98 242.59 -36 242.25 C-36 241.59 -36 240.93 -36 240.25 C-36.66 240.25 -37.32 240.25 -38 240.25 C-39.53 238.07 -40.9 235.91 -42.25 233.62 C-42.65 232.95 -43.05 232.28 -43.46 231.58 C-49.99 220.33 -55.23 208.72 -55.27 195.52 C-55.28 194.79 -55.28 194.05 -55.29 193.3 C-55.3 190.86 -55.31 188.42 -55.31 185.98 C-55.31 184.22 -55.32 182.46 -55.33 180.7 C-55.35 175.94 -55.36 171.18 -55.37 166.42 C-55.37 163.44 -55.38 160.47 -55.38 157.49 C-55.41 147.09 -55.42 136.69 -55.43 126.29 C-55.43 116.61 -55.46 106.94 -55.5 97.26 C-55.54 88.94 -55.55 80.61 -55.55 72.29 C-55.55 67.33 -55.56 62.36 -55.59 57.4 C-55.62 52.73 -55.62 48.06 -55.6 43.39 C-55.6 41.68 -55.61 39.97 -55.62 38.26 C-55.73 25.75 -53.87 16.56 -45 7.25 C-33.39 -4.09 -14.75 -7.18 0 0 Z " fill="#000000" transform="translate(55,854.75)"/>
<path d="M0 0 C11.05 6.51 17 15.25 21 27.25 C21.11 29.08 21.16 30.92 21.18 32.76 C21.2 34.45 21.2 34.45 21.22 36.18 C21.22 37.4 21.23 38.62 21.24 39.88 C21.25 41.14 21.25 42.4 21.26 43.7 C21.28 46.37 21.29 49.04 21.3 51.71 C21.31 55.1 21.34 58.5 21.38 61.9 C21.41 65.16 21.42 68.43 21.43 71.69 C21.44 72.9 21.46 74.11 21.48 75.35 C21.45 87.15 17.64 97.52 9.23 106.04 C-0.04 114.23 -9.01 116.88 -21.35 116.6 C-31.32 115.65 -40.77 110.17 -47.38 102.69 C-54.97 93.08 -56.46 84.1 -56.43 72.04 C-56.44 70.78 -56.44 69.53 -56.45 68.24 C-56.46 64.94 -56.45 61.63 -56.44 58.33 C-56.44 56.32 -56.45 54.3 -56.47 52.29 C-56.5 48.39 -56.5 44.5 -56.5 40.6 C-56.51 39.41 -56.52 38.22 -56.53 37 C-56.44 25.81 -53.32 16.84 -45.5 8.62 C-44.67 7.84 -43.85 7.06 -43 6.25 C-42.38 5.6 -41.76 4.95 -41.12 4.27 C-30.94 -5.44 -12.28 -5.98 0 0 Z " fill="#000000" transform="translate(955,859.75)"/>
<path d="M0 0 C11.05 6.51 17 15.25 21 27.25 C21.11 29.08 21.16 30.92 21.18 32.76 C21.2 34.45 21.2 34.45 21.22 36.18 C21.22 37.4 21.23 38.62 21.24 39.88 C21.25 41.14 21.25 42.4 21.26 43.7 C21.28 46.37 21.29 49.04 21.3 51.71 C21.31 55.1 21.34 58.5 21.38 61.9 C21.41 65.16 21.42 68.43 21.43 71.69 C21.44 72.9 21.46 74.11 21.48 75.35 C21.45 87.15 17.64 97.52 9.23 106.04 C-0.04 114.23 -9.01 116.88 -21.35 116.6 C-31.32 115.65 -40.77 110.17 -47.38 102.69 C-54.97 93.08 -56.46 84.1 -56.43 72.04 C-56.44 70.78 -56.44 69.53 -56.45 68.24 C-56.46 64.94 -56.45 61.63 -56.44 58.33 C-56.44 56.32 -56.45 54.3 -56.47 52.29 C-56.5 48.39 -56.5 44.5 -56.5 40.6 C-56.51 39.41 -56.52 38.22 -56.53 37 C-56.44 25.81 -53.32 16.84 -45.5 8.62 C-44.67 7.84 -43.85 7.06 -43 6.25 C-42.38 5.6 -41.76 4.95 -41.12 4.27 C-30.94 -5.44 -12.28 -5.98 0 0 Z " fill="#000000" transform="translate(805,859.75)"/>
<path d="M0 0 C11.05 6.51 17 15.25 21 27.25 C21.11 29.08 21.16 30.92 21.18 32.76 C21.2 34.45 21.2 34.45 21.22 36.18 C21.22 37.4 21.23 38.62 21.24 39.88 C21.25 41.14 21.25 42.4 21.26 43.7 C21.28 46.37 21.29 49.04 21.3 51.71 C21.31 55.1 21.34 58.5 21.38 61.9 C21.41 65.16 21.42 68.43 21.43 71.69 C21.44 72.9 21.46 74.11 21.48 75.35 C21.45 87.15 17.64 97.52 9.23 106.04 C-0.04 114.23 -9.01 116.88 -21.35 116.6 C-31.32 115.65 -40.77 110.17 -47.38 102.69 C-54.97 93.08 -56.46 84.1 -56.43 72.04 C-56.44 70.78 -56.44 69.53 -56.45 68.24 C-56.46 64.94 -56.45 61.63 -56.44 58.33 C-56.44 56.32 -56.45 54.3 -56.47 52.29 C-56.5 48.39 -56.5 44.5 -56.5 40.6 C-56.51 39.41 -56.52 38.22 -56.53 37 C-56.44 25.81 -53.32 16.84 -45.5 8.62 C-44.67 7.84 -43.85 7.06 -43 6.25 C-42.38 5.6 -41.76 4.95 -41.12 4.27 C-30.94 -5.44 -12.28 -5.98 0 0 Z " fill="#000000" transform="translate(655,859.75)"/>
<path d="M0 0 C11.05 6.51 17 15.25 21 27.25 C21.11 29.08 21.16 30.92 21.18 32.76 C21.2 34.45 21.2 34.45 21.22 36.18 C21.22 37.4 21.23 38.62 21.24 39.88 C21.25 41.14 21.25 42.4 21.26 43.7 C21.28 46.37 21.29 49.04 21.3 51.71 C21.31 55.1 21.34 58.5 21.38 61.9 C21.41 65.16 21.42 68.43 21.43 71.69 C21.44 72.9 21.46 74.11 21.48 75.35 C21.45 87.15 17.64 97.52 9.23 106.04 C-0.04 114.23 -9.01 116.88 -21.35 116.6 C-31.32 115.65 -40.77 110.17 -47.38 102.69 C-54.97 93.08 -56.46 84.1 -56.43 72.04 C-56.44 70.78 -56.44 69.53 -56.45 68.24 C-56.46 64.94 -56.45 61.63 -56.44 58.33 C-56.44 56.32 -56.45 54.3 -56.47 52.29 C-56.5 48.39 -56.5 44.5 -56.5 40.6 C-56.51 39.41 -56.52 38.22 -56.53 37 C-56.44 25.81 -53.32 16.84 -45.5 8.62 C-44.68 7.84 -43.85 7.06 -43 6.25 C-42.38 5.6 -41.76 4.95 -41.12 4.27 C-30.94 -5.44 -12.28 -5.98 0 0 Z " fill="#000000" transform="translate(355,859.75)"/>
</svg>
