<?xml version="1.0" encoding="UTF-8"?>
<!-- Generator: visioncortex VTracer 0.6.3 -->
<svg version="1.1" xmlns="http://www.w3.org/2000/svg" width="1280" height="1280">
<path d="M0 0 C0.87 -0 1.73 -0 2.63 -0.01 C5.57 -0.01 8.51 -0.01 11.45 -0.01 C13.58 -0.01 15.7 -0.01 17.82 -0.02 C23.71 -0.03 29.6 -0.03 35.49 -0.03 C41.88 -0.03 48.26 -0.04 54.65 -0.04 C65.86 -0.06 77.08 -0.06 88.29 -0.07 C100.32 -0.07 112.36 -0.08 124.39 -0.09 C125.15 -0.09 125.91 -0.09 126.69 -0.09 C129.78 -0.1 132.88 -0.1 135.97 -0.1 C176.09 -0.14 216.21 -0.16 256.34 -0.17 C265.01 -0.18 273.69 -0.18 282.37 -0.19 C346.91 -0.22 411.46 -0.24 476 -0.26 C490.97 -0.27 505.94 -0.27 520.91 -0.27 C522.78 -0.27 524.66 -0.27 526.54 -0.27 C586.89 -0.29 647.25 -0.33 707.6 -0.38 C750.95 -0.42 794.31 -0.45 837.66 -0.46 C839 -0.46 839 -0.46 840.36 -0.46 C859.93 -0.47 879.5 -0.47 899.07 -0.47 C906.94 -0.47 914.81 -0.48 922.68 -0.48 C923.98 -0.48 923.98 -0.48 925.3 -0.48 C953.07 -0.48 980.84 -0.5 1008.61 -0.54 C1036.58 -0.57 1064.54 -0.58 1092.51 -0.57 C1096.38 -0.57 1100.24 -0.57 1104.1 -0.57 C1104.86 -0.57 1105.62 -0.57 1106.4 -0.56 C1118.4 -0.56 1130.4 -0.58 1142.4 -0.6 C1154.19 -0.63 1165.99 -0.63 1177.79 -0.61 C1184.1 -0.6 1190.41 -0.6 1196.72 -0.62 C1202.46 -0.65 1208.2 -0.64 1213.94 -0.62 C1216 -0.61 1218.07 -0.62 1220.14 -0.63 C1240.68 -0.79 1240.68 -0.79 1249.39 7.71 C1253.06 11.82 1255.02 15.38 1255.04 20.88 C1255.04 21.83 1255.05 22.79 1255.06 23.78 C1255.06 24.83 1255.06 25.87 1255.05 26.95 C1255.06 28.63 1255.06 28.63 1255.07 30.34 C1255.09 34.09 1255.09 37.84 1255.1 41.59 C1255.11 44.28 1255.12 46.97 1255.13 49.65 C1255.15 56.96 1255.17 64.26 1255.17 71.57 C1255.18 76.13 1255.19 80.69 1255.2 85.26 C1255.22 97.89 1255.24 110.53 1255.25 123.17 C1255.25 123.98 1255.25 124.79 1255.25 125.62 C1255.25 126.43 1255.25 127.24 1255.25 128.08 C1255.25 129.72 1255.25 131.36 1255.25 133 C1255.25 133.82 1255.26 134.63 1255.26 135.47 C1255.26 148.67 1255.3 161.87 1255.34 175.07 C1255.39 188.62 1255.42 202.18 1255.42 215.73 C1255.42 223.34 1255.43 230.95 1255.47 238.56 C1255.5 245.04 1255.51 251.52 1255.49 258 C1255.49 261.3 1255.49 264.61 1255.52 267.91 C1255.54 271.5 1255.53 275.09 1255.51 278.67 C1255.52 279.71 1255.54 280.75 1255.56 281.82 C1255.46 289.07 1253.51 293.62 1248.77 299.13 C1246.29 301.29 1246.29 301.29 1244.02 302.63 C1243.27 303.1 1242.51 303.56 1241.73 304.04 C1237.86 306.2 1235.43 306.25 1230.94 306.24 C1230.23 306.24 1229.53 306.24 1228.81 306.25 C1226.48 306.24 1224.16 306.24 1221.83 306.23 C1220.22 306.23 1218.61 306.23 1216.99 306.22 C1212.75 306.22 1208.5 306.21 1204.26 306.2 C1199.93 306.19 1195.6 306.18 1191.27 306.18 C1182.77 306.17 1174.27 306.15 1165.77 306.13 C1165.78 307.91 1165.78 307.91 1165.78 309.72 C1165.87 337.81 1165.94 365.91 1165.98 394.01 C1165.98 397.47 1165.99 400.93 1165.99 404.39 C1166 405.42 1166 405.42 1166 406.47 C1166.01 417.62 1166.05 428.76 1166.08 439.91 C1166.12 451.35 1166.14 462.79 1166.15 474.23 C1166.16 480.66 1166.17 487.08 1166.2 493.51 C1166.22 499.55 1166.23 505.6 1166.23 511.65 C1166.23 513.87 1166.24 516.09 1166.25 518.3 C1166.27 521.34 1166.27 524.37 1166.25 527.4 C1166.27 528.71 1166.27 528.71 1166.29 530.05 C1166.21 538.62 1162.83 545.08 1156.77 551.13 C1150.51 556.41 1143.58 557.12 1135.66 556.68 C1128.62 555.69 1123.59 552.38 1118.84 547.19 C1073.94 480.53 1113.77 386.5 1113.77 306.13 C784.43 306.13 455.09 306.13 115.77 306.13 C115.77 553.3 115.77 800.47 115.77 1055.13 C445.11 1055.13 774.45 1055.13 1113.77 1055.13 C1113.77 954.15 1113.77 853.17 1113.77 749.13 C1118.71 739.25 1121.95 734.27 1131.77 730.13 C1134.47 729.77 1136.83 729.56 1139.52 729.57 C1140.23 729.57 1140.93 729.57 1141.65 729.58 C1149.05 729.84 1153.99 732.63 1159.38 737.62 C1166.33 745.2 1166.21 752.97 1166.15 762.71 C1166.16 764.1 1166.16 765.49 1166.17 766.88 C1166.18 770.7 1166.18 774.51 1166.17 778.32 C1166.16 782.43 1166.17 786.55 1166.18 790.66 C1166.19 798.71 1166.19 806.77 1166.18 814.83 C1166.17 821.37 1166.17 827.92 1166.18 834.47 C1166.18 835.4 1166.18 836.33 1166.18 837.29 C1166.18 839.19 1166.18 841.08 1166.18 842.97 C1166.19 860.73 1166.18 878.48 1166.16 896.24 C1166.15 911.47 1166.15 926.7 1166.16 941.93 C1166.18 959.62 1166.19 977.31 1166.18 995 C1166.18 996.89 1166.18 998.77 1166.18 1000.66 C1166.17 1001.59 1166.17 1002.52 1166.17 1003.47 C1166.17 1010.01 1166.18 1016.55 1166.18 1023.09 C1166.19 1031.06 1166.19 1039.03 1166.17 1047 C1166.16 1051.06 1166.16 1055.13 1166.17 1059.2 C1166.18 1062.92 1166.18 1066.64 1166.16 1070.37 C1166.15 1072.35 1166.16 1074.33 1166.17 1076.31 C1166.12 1085.3 1165.11 1092.72 1158.6 1099.41 C1150.21 1107.33 1140.91 1106.84 1130.05 1106.76 C1128.22 1106.77 1126.4 1106.78 1124.57 1106.79 C1119.54 1106.81 1114.52 1106.8 1109.49 1106.78 C1104.03 1106.77 1098.56 1106.79 1093.1 1106.8 C1083.52 1106.82 1073.93 1106.82 1064.35 1106.81 C1050.11 1106.79 1035.86 1106.8 1021.61 1106.82 C995.43 1106.85 969.25 1106.85 943.06 1106.84 C939.35 1106.84 935.64 1106.84 931.93 1106.84 C930.83 1106.84 930.83 1106.84 929.7 1106.83 C912.63 1106.83 895.56 1106.83 878.48 1106.84 C876.99 1106.84 875.5 1106.84 874.01 1106.84 C868.02 1106.84 862.03 1106.85 856.04 1106.85 C839.29 1106.85 822.55 1106.86 805.8 1106.86 C805.04 1106.86 804.28 1106.86 803.49 1106.86 C779.19 1106.87 754.89 1106.86 730.59 1106.85 C729.4 1106.85 729.4 1106.85 728.2 1106.85 C715.39 1106.85 702.59 1106.84 689.79 1106.84 C639.02 1106.82 588.25 1106.83 537.48 1106.86 C524.68 1106.87 511.89 1106.88 499.1 1106.88 C498.31 1106.88 497.52 1106.88 496.71 1106.88 C472.43 1106.9 448.16 1106.91 423.88 1106.91 C423.12 1106.91 422.36 1106.91 421.57 1106.91 C404.84 1106.91 388.12 1106.9 371.39 1106.9 C365.4 1106.9 359.42 1106.9 353.43 1106.9 C351.94 1106.9 350.45 1106.89 348.97 1106.89 C325.23 1106.89 301.5 1106.9 277.77 1106.92 C253.2 1106.94 228.64 1106.94 204.08 1106.91 C189.91 1106.89 175.74 1106.9 161.58 1106.92 C152.12 1106.94 142.67 1106.93 133.21 1106.9 C127.82 1106.89 122.43 1106.89 117.04 1106.91 C112.13 1106.93 107.23 1106.92 102.32 1106.89 C100.56 1106.89 98.79 1106.89 97.03 1106.91 C86.36 1106.99 78.36 1106.22 70.18 1098.66 C63.35 1091.22 63.34 1083.65 63.4 1074.07 C63.4 1072.73 63.4 1071.39 63.39 1070.05 C63.38 1066.36 63.39 1062.68 63.41 1058.99 C63.42 1054.98 63.41 1050.97 63.41 1046.96 C63.4 1039.93 63.4 1032.9 63.42 1025.87 C63.43 1015.41 63.44 1004.96 63.43 994.51 C63.43 976.92 63.44 959.34 63.46 941.75 C63.47 924.34 63.49 906.93 63.49 889.51 C63.49 888.43 63.49 887.35 63.49 886.23 C63.49 880.74 63.49 875.24 63.49 869.74 C63.5 830.8 63.52 791.86 63.55 752.92 C63.57 715.09 63.6 677.26 63.61 639.43 C63.61 638.26 63.61 637.09 63.61 635.89 C63.61 624.18 63.62 612.48 63.62 600.77 C63.63 576.91 63.64 553.06 63.65 529.21 C63.65 527.56 63.65 527.56 63.65 525.89 C63.68 452.63 63.72 379.38 63.77 306.13 C62.45 306.15 62.45 306.15 61.11 306.17 C52.78 306.29 44.46 306.38 36.13 306.44 C31.85 306.47 27.57 306.52 23.29 306.58 C19.15 306.65 15.02 306.68 10.88 306.7 C9.31 306.71 7.74 306.73 6.17 306.77 C-3.26 306.95 -10.68 306.5 -18.23 300.13 C-21.74 296.73 -24.92 292.87 -25.48 287.89 C-25.48 287.06 -25.49 286.24 -25.49 285.38 C-25.5 284.43 -25.5 283.47 -25.51 282.49 C-25.51 281.44 -25.51 280.39 -25.51 279.31 C-25.51 278.19 -25.52 277.08 -25.53 275.93 C-25.54 272.17 -25.55 268.42 -25.55 264.67 C-25.56 261.98 -25.57 259.3 -25.58 256.61 C-25.61 249.31 -25.62 242 -25.63 234.69 C-25.63 230.13 -25.64 225.57 -25.65 221 C-25.67 208.37 -25.69 195.73 -25.7 183.09 C-25.7 182.28 -25.7 181.48 -25.7 180.64 C-25.7 179.83 -25.7 179.02 -25.7 178.19 C-25.7 176.54 -25.71 174.9 -25.71 173.26 C-25.71 172.44 -25.71 171.63 -25.71 170.79 C-25.72 157.59 -25.75 144.39 -25.8 131.19 C-25.84 117.64 -25.87 104.09 -25.87 90.53 C-25.87 82.92 -25.89 75.31 -25.92 67.7 C-25.95 61.22 -25.96 54.74 -25.95 48.26 C-25.94 44.96 -25.94 41.66 -25.97 38.35 C-25.99 34.76 -25.98 31.18 -25.96 27.59 C-25.98 26.55 -25.99 25.51 -26.01 24.45 C-25.91 17.19 -23.97 12.64 -19.23 7.13 C-16.74 4.97 -16.74 4.97 -14.48 3.63 C-13.72 3.17 -12.96 2.7 -12.18 2.22 C-8.05 -0.09 -4.66 -0.01 0 0 Z M25.77 51.13 C25.77 118.45 25.77 185.77 25.77 255.13 C414.51 255.13 803.25 255.13 1203.77 255.13 C1203.77 187.81 1203.77 120.49 1203.77 51.13 C815.03 51.13 426.29 51.13 25.77 51.13 Z " fill="#000000" transform="translate(25.22627878189087,86.86889749765396)"/>
<path d="M0 0 C1.7 -0.01 3.41 -0.02 5.11 -0.03 C9.76 -0.05 14.41 -0.04 19.06 -0.01 C24.09 0 29.11 -0.02 34.14 -0.03 C43.98 -0.06 53.81 -0.05 63.65 -0.02 C71.64 -0.01 79.64 -0 87.63 -0.01 C88.77 -0.01 89.91 -0.01 91.08 -0.01 C93.4 -0.01 95.71 -0.01 98.02 -0.01 C119.71 -0.03 141.39 -0 163.07 0.03 C181.67 0.07 200.26 0.07 218.86 0.05 C240.47 0.03 262.08 0.02 283.69 0.04 C285.99 0.04 288.3 0.05 290.6 0.05 C291.74 0.05 292.87 0.05 294.04 0.05 C302.02 0.06 310.01 0.05 317.99 0.04 C327.72 0.03 337.45 0.04 347.18 0.07 C352.15 0.09 357.11 0.09 362.07 0.08 C366.62 0.07 371.17 0.08 375.71 0.1 C377.35 0.11 379 0.11 380.64 0.1 C390.71 0.03 399.37 0.51 407.11 7.74 C413.43 14.34 415.44 20.67 415.38 29.58 C415.38 30.44 415.39 31.31 415.4 32.2 C415.41 35.08 415.41 37.97 415.4 40.85 C415.41 42.93 415.42 45 415.43 47.07 C415.45 52.7 415.45 58.32 415.45 63.94 C415.45 68.64 415.46 73.34 415.47 78.04 C415.49 89.13 415.49 100.22 415.48 111.31 C415.48 122.74 415.5 134.17 415.54 145.6 C415.57 155.42 415.58 165.24 415.58 175.06 C415.57 180.93 415.58 186.79 415.6 192.65 C415.63 198.17 415.62 203.68 415.6 209.2 C415.6 211.21 415.61 213.23 415.62 215.25 C415.76 236.61 415.76 236.61 407.99 244.87 C402 250.66 396.02 253.13 387.72 253.14 C387.01 253.14 386.31 253.15 385.59 253.15 C383.25 253.17 380.91 253.16 378.57 253.15 C376.87 253.15 375.17 253.16 373.47 253.17 C368.81 253.18 364.15 253.18 359.49 253.18 C354.46 253.17 349.43 253.19 344.4 253.2 C334.54 253.22 324.69 253.23 314.84 253.22 C306.83 253.22 298.82 253.23 290.81 253.23 C288.5 253.24 286.2 253.24 283.89 253.24 C282.74 253.24 281.59 253.24 280.41 253.24 C258.7 253.26 236.98 253.26 215.27 253.25 C195.4 253.25 175.54 253.27 155.67 253.3 C135.27 253.34 114.88 253.35 94.48 253.35 C83.03 253.35 71.58 253.35 60.13 253.38 C50.38 253.4 40.63 253.4 30.88 253.38 C25.91 253.37 20.93 253.37 15.96 253.39 C11.4 253.41 6.85 253.41 2.29 253.38 C0.65 253.38 -1 253.38 -2.64 253.4 C-12.73 253.47 -21.39 253.01 -29.15 245.77 C-35.46 239.18 -37.47 232.85 -37.42 223.95 C-37.42 223.08 -37.43 222.22 -37.44 221.33 C-37.46 218.45 -37.46 215.57 -37.45 212.69 C-37.46 210.62 -37.47 208.55 -37.48 206.48 C-37.51 200.86 -37.52 195.25 -37.52 189.63 C-37.52 186.12 -37.53 182.61 -37.54 179.1 C-37.56 166.83 -37.58 154.57 -37.57 142.31 C-37.57 130.9 -37.6 119.48 -37.65 108.07 C-37.69 98.26 -37.71 88.45 -37.7 78.63 C-37.7 72.78 -37.71 66.93 -37.74 61.07 C-37.77 55.56 -37.77 50.05 -37.75 44.54 C-37.75 42.53 -37.75 40.51 -37.77 38.5 C-37.87 27.12 -37.6 18.47 -31.02 8.76 C-30.36 8.76 -29.7 8.76 -29.02 8.76 C-29.02 8.1 -29.02 7.44 -29.02 6.76 C-19.37 0.64 -11.02 -0.1 0 0 Z M14.98 52.76 C14.98 101.6 14.98 150.44 14.98 200.76 C129.82 200.76 244.66 200.76 362.98 200.76 C362.98 151.92 362.98 103.08 362.98 52.76 C248.14 52.76 133.3 52.76 14.98 52.76 Z " fill="#000000" transform="translate(676.0168762207031,843.2448272705078)"/>
<path d="M0 0 C0.75 -0 1.5 -0.01 2.27 -0.01 C4.79 -0.02 7.31 -0.02 9.83 -0.01 C11.66 -0.02 13.48 -0.02 15.3 -0.03 C20.31 -0.04 25.33 -0.05 30.34 -0.05 C35.75 -0.05 41.15 -0.06 46.56 -0.07 C58.38 -0.09 70.2 -0.1 82.02 -0.11 C89.4 -0.11 96.78 -0.12 104.16 -0.12 C124.58 -0.14 145.01 -0.16 165.43 -0.16 C166.74 -0.16 168.05 -0.16 169.39 -0.16 C172.04 -0.16 174.69 -0.16 177.34 -0.16 C178.66 -0.17 179.98 -0.17 181.33 -0.17 C183.31 -0.17 183.31 -0.17 185.32 -0.17 C206.68 -0.17 228.03 -0.2 249.38 -0.23 C271.3 -0.27 293.21 -0.29 315.12 -0.29 C327.43 -0.29 339.74 -0.3 352.05 -0.33 C362.53 -0.35 373.01 -0.36 383.48 -0.35 C388.83 -0.34 394.18 -0.34 399.53 -0.36 C404.42 -0.38 409.32 -0.38 414.21 -0.36 C415.98 -0.36 417.76 -0.36 419.53 -0.38 C430.03 -0.45 436.84 -0.15 444.87 7.36 C445.41 8.01 445.95 8.65 446.5 9.32 C447.06 9.97 447.61 10.62 448.18 11.3 C450.8 14.85 451.88 17.52 451.9 21.95 C451.91 22.89 451.92 23.83 451.93 24.8 C451.93 25.82 451.93 26.84 451.93 27.9 C451.94 28.98 451.95 30.06 451.96 31.18 C451.98 34.77 451.99 38.36 452 41.95 C452.01 44.45 452.02 46.95 452.03 49.44 C452.04 54.69 452.05 59.94 452.05 65.18 C452.06 70.55 452.08 75.92 452.11 81.3 C452.16 87.79 452.18 94.29 452.18 100.78 C452.18 103.25 452.2 105.72 452.22 108.19 C452.41 132.97 452.41 132.97 446.63 142.26 C446.27 142.87 445.91 143.48 445.54 144.1 C433.8 162.53 414.14 176.35 394.78 185.73 C392.6 186.79 390.44 187.87 388.28 188.98 C379.9 193.28 371.41 196.87 362.63 200.26 C360.75 201.01 358.88 201.76 357 202.51 C355.54 203.09 354.09 203.68 352.63 204.26 C351.78 204.61 350.93 204.95 350.06 205.31 C346.97 206.52 343.82 207.36 340.63 208.26 C339.13 208.78 337.63 209.3 336.13 209.82 C332.31 211.12 328.63 211.72 324.63 212.26 C322.95 212.89 321.28 213.56 319.63 214.26 C314.98 215.72 310.33 216.77 305.56 217.69 C303.38 218.11 301.21 218.56 299.04 219.02 C292.39 220.41 285.91 221.52 279.14 222.02 C276.72 222.25 274.44 222.67 272.06 223.2 C254.45 226.83 236.63 226.6 218.74 226.58 C215.63 226.57 212.53 226.58 209.43 226.6 C186.29 226.73 163.9 225.53 141.13 220.94 C137.7 220.27 134.28 219.75 130.81 219.26 C125.82 218.52 121.09 217.38 116.25 215.98 C113.68 215.27 111.12 214.74 108.5 214.26 C104.57 213.51 100.92 212.43 97.15 211.1 C94.11 210.09 91.03 209.24 87.94 208.39 C78.29 205.65 68.85 202.42 59.74 198.21 C57.54 197.22 55.32 196.37 53.06 195.51 C46.38 192.87 40.02 189.54 33.63 186.28 C30.3 184.59 26.96 182.92 23.63 181.26 C23.63 180.6 23.63 179.94 23.63 179.26 C23.07 179.15 22.51 179.05 21.94 178.94 C6.08 174.27 -11 155.82 -19.37 142.26 C-20.06 141.15 -20.06 141.15 -20.77 140.02 C-26.37 129.05 -25.09 116.65 -25.04 104.65 C-25.04 102.15 -25.05 99.66 -25.05 97.16 C-25.06 91.94 -25.05 86.73 -25.02 81.52 C-25 76.17 -25 70.83 -25.02 65.48 C-25.05 59 -25.06 52.53 -25.04 46.05 C-25.04 43.59 -25.04 41.13 -25.05 38.67 C-25.07 35.23 -25.05 31.79 -25.02 28.35 C-25.03 27.34 -25.04 26.33 -25.05 25.29 C-24.93 17.45 -22.59 12.7 -17.28 7.02 C-16.63 6.48 -15.98 5.94 -15.31 5.39 C-14.66 4.83 -14.01 4.28 -13.34 3.71 C-8.93 0.46 -5.41 -0.03 0 0 Z M26.63 51.26 C26.63 73.04 26.63 94.82 26.63 117.26 C34.49 125.38 34.49 125.38 43.06 131.89 C44.55 132.86 44.55 132.86 46.06 133.86 C48.58 135.5 48.58 135.5 51.63 135.26 C51.63 135.92 51.63 136.58 51.63 137.26 C54.21 138.6 56.79 139.93 59.38 141.26 C60.47 141.83 60.47 141.83 61.59 142.42 C62.3 142.78 63.01 143.14 63.74 143.51 C64.71 144.01 64.71 144.01 65.7 144.53 C67.91 145.5 67.91 145.5 71.63 145.26 C71.63 145.92 71.63 146.58 71.63 147.26 C72.79 147.62 72.79 147.62 73.97 147.99 C83.51 151.06 83.51 151.06 87.5 153.26 C92.57 155.93 98.03 157.23 103.54 158.7 C106.67 159.54 109.8 160.41 112.93 161.27 C114.54 161.72 116.15 162.16 117.76 162.6 C123.4 164.15 123.4 164.15 125.63 165.26 C127 165.44 128.37 165.58 129.75 165.7 C135.39 166.27 140.63 167.69 146.06 169.23 C151.82 170.66 157.68 171.17 163.56 171.76 C164.79 171.89 166.02 172.01 167.29 172.14 C171.07 172.53 174.85 172.9 178.63 173.26 C179.76 173.37 180.89 173.48 182.05 173.59 C202.43 175.5 222 175.53 242.38 173.89 C243.16 173.82 243.94 173.76 244.75 173.69 C264.89 172.2 264.89 172.2 284.63 168.26 C288.25 167.56 291.89 166.99 295.54 166.4 C299.5 165.74 302.91 164.83 306.63 163.26 C308.91 162.63 311.2 162.03 313.5 161.45 C325.5 158.32 337.04 154.22 348.48 149.49 C350.89 148.55 353.11 147.78 355.63 147.26 C355.63 146.6 355.63 145.94 355.63 145.26 C356.29 145.17 356.96 145.08 357.64 144.98 C361.51 144.05 364.86 142.43 368.44 140.7 C369.13 140.37 369.83 140.04 370.54 139.7 C372.24 138.89 373.93 138.08 375.63 137.26 C375.63 136.6 375.63 135.94 375.63 135.26 C376.18 135.16 376.74 135.05 377.31 134.94 C380.12 134.12 382.26 132.87 384.75 131.32 C385.62 130.8 386.49 130.27 387.39 129.73 C392.21 126.06 396.34 121.55 400.63 117.26 C400.63 95.48 400.63 73.7 400.63 51.26 C277.21 51.26 153.79 51.26 26.63 51.26 Z " fill="#000000" transform="translate(426.3727226257324,441.7399377822876)"/>
<path d="M0 0 C0.96 -0.01 1.92 -0.02 2.91 -0.03 C6.07 -0.05 9.23 -0.05 12.39 -0.05 C14.6 -0.06 16.81 -0.06 19.02 -0.07 C23.64 -0.09 28.26 -0.09 32.89 -0.08 C38.8 -0.08 44.7 -0.11 50.61 -0.15 C55.17 -0.17 59.73 -0.17 64.29 -0.17 C66.47 -0.17 68.64 -0.18 70.82 -0.2 C73.87 -0.22 76.93 -0.21 79.98 -0.2 C81.31 -0.22 81.31 -0.22 82.67 -0.24 C90.23 -0.14 96.71 2.24 102.34 7.4 C108.52 13.98 110.86 20.34 110.59 29.36 C109.53 37.33 105.44 42.84 99.44 47.95 C93.05 52.11 87.85 52.86 80.37 52.84 C78.93 52.85 78.93 52.85 77.46 52.87 C74.3 52.89 71.14 52.89 67.98 52.89 C65.77 52.9 63.56 52.9 61.35 52.91 C56.73 52.93 52.11 52.93 47.48 52.92 C41.57 52.92 35.67 52.95 29.76 52.99 C25.2 53.01 20.64 53.01 16.08 53.01 C13.9 53.01 11.72 53.02 9.55 53.04 C6.49 53.06 3.44 53.05 0.39 53.04 C-0.5 53.05 -1.39 53.06 -2.3 53.08 C-9.68 52.98 -16.25 50.73 -21.74 45.64 C-26.88 40.02 -29.41 34.34 -29.38 26.67 C-29.38 25.97 -29.37 25.27 -29.37 24.54 C-29.11 17.14 -26.31 12.2 -21.33 6.81 C-14.88 0.9 -8.33 -0.03 0 0 Z " fill="#000000" transform="translate(880.815673828125,943.580078125)"/>
<path d="M0 0 C7.5 3.32 12.07 8.45 16.21 15.39 C18.26 22.64 18.4 29.51 15.27 36.46 C11.24 43.54 5.17 48.91 -2.73 51.14 C-11.13 52.2 -17.79 51.12 -24.73 46.14 C-31.16 40.35 -34.77 34.2 -35.29 25.46 C-35.16 18.42 -32.28 13.09 -28.73 7.14 C-28.07 7.14 -27.41 7.14 -26.73 7.14 C-26.73 6.48 -26.73 5.82 -26.73 5.14 C-17.87 -0.13 -10.2 -3.2 0 0 Z " fill="#000000" transform="translate(773.73046875,944.85546875)"/>
<path d="M0 0 C7.5 3.32 12.07 8.45 16.21 15.39 C18.26 22.64 18.4 29.51 15.27 36.46 C11.24 43.54 5.17 48.91 -2.73 51.14 C-11.13 52.2 -17.79 51.12 -24.73 46.14 C-31.16 40.35 -34.77 34.2 -35.29 25.46 C-35.16 18.42 -32.28 13.09 -28.73 7.14 C-28.07 7.14 -27.41 7.14 -26.73 7.14 C-26.73 6.48 -26.73 5.82 -26.73 5.14 C-17.87 -0.13 -10.2 -3.2 0 0 Z " fill="#000000" transform="translate(1173.73046875,704.85546875)"/>
</svg>
