<?xml version="1.0" encoding="UTF-8"?>
<!-- Generator: visioncortex VTracer 0.6.3 -->
<svg version="1.1" xmlns="http://www.w3.org/2000/svg" width="1280" height="1280">
<path d="M0 0 C11.17 -0.07 22.34 -0.12 33.51 -0.16 C38.7 -0.17 43.89 -0.19 49.08 -0.23 C54.09 -0.26 59.1 -0.28 64.11 -0.28 C66.02 -0.29 67.92 -0.3 69.83 -0.32 C88.21 -0.47 88.21 -0.47 97 3 C98.09 3.23 99.19 3.45 100.31 3.69 C104.5 5.73 106.28 8.74 108 13 C109.39 19.28 109.53 24.99 107 31 C104.3 35.15 101.34 37.62 97 40 C93.87 40.57 90.79 40.55 87.61 40.53 C86.69 40.54 85.76 40.55 84.81 40.56 C81.76 40.58 78.72 40.58 75.67 40.57 C73.55 40.59 71.43 40.6 69.31 40.62 C63.74 40.66 58.18 40.67 52.61 40.68 C43.68 40.7 34.75 40.76 25.82 40.81 C22.69 40.82 19.57 40.83 16.44 40.84 C14.54 40.84 12.64 40.85 10.74 40.86 C9.43 40.86 9.43 40.86 8.09 40.86 C4.23 40.5 4.23 40.5 1 42 C0.9 44.14 0.87 46.29 0.87 48.43 C0.87 49.1 0.87 49.77 0.87 50.47 C0.86 52.7 0.86 54.93 0.87 57.16 C0.87 58.7 0.87 60.24 0.86 61.79 C0.86 65.02 0.86 68.26 0.87 71.5 C0.88 75.66 0.87 79.82 0.87 83.98 C0.86 87.17 0.86 90.36 0.87 93.54 C0.87 95.08 0.87 96.61 0.86 98.15 C0.86 100.29 0.87 102.43 0.87 104.57 C0.87 105.79 0.87 107.01 0.87 108.27 C0.69 110.91 0.69 110.91 2 112 C4.24 112.1 6.48 112.13 8.72 112.13 C9.43 112.13 10.15 112.13 10.88 112.14 C13.31 112.14 15.75 112.14 18.18 112.14 C19.93 112.14 21.69 112.14 23.44 112.15 C28.31 112.16 33.17 112.16 38.04 112.16 C43.32 112.16 48.59 112.17 53.87 112.17 C63.13 112.18 72.4 112.19 81.66 112.2 C95.44 112.2 109.21 112.22 122.99 112.23 C146.15 112.26 169.32 112.27 192.49 112.29 C215.44 112.31 238.39 112.33 261.34 112.35 C262.41 112.35 262.41 112.35 263.5 112.35 C270 112.36 276.5 112.36 283.01 112.37 C299.18 112.38 315.35 112.4 331.52 112.41 C332.63 112.41 332.63 112.41 333.75 112.41 C369.6 112.45 405.44 112.47 441.28 112.5 C453.73 112.51 466.17 112.52 478.61 112.53 C479.38 112.53 480.15 112.53 480.95 112.53 C516.81 112.56 552.66 112.59 588.52 112.63 C590.85 112.63 593.17 112.63 595.5 112.63 C610.92 112.65 626.34 112.66 641.77 112.67 C672.45 112.7 703.14 112.73 733.83 112.75 C735.29 112.76 736.75 112.76 738.21 112.76 C822.47 112.83 906.72 112.9 1030 113 C1030 89.57 1030 66.14 1030 42 C749.17 42 468.34 42 179 42 C179 41.67 179 41.34 179 41 C178.44 41 177.89 40.99 177.31 40.99 C170.95 40.67 166.36 38.78 162 34 C162 33.01 162 32.02 162 31 C161.01 30.67 160.02 30.34 159 30 C155.92 26.06 155.81 22.91 156.38 18.12 C157.65 11.98 159.8 7.66 165 4 C168.61 2.57 172.18 1.66 176 1 C176 0.67 176 0.34 176 0 C257.1 -0.03 338.2 -0.07 419.3 -0.08 C420.5 -0.08 421.7 -0.09 422.94 -0.09 C449.01 -0.09 475.09 -0.1 501.16 -0.1 C513.95 -0.1 526.73 -0.11 539.52 -0.11 C540.79 -0.11 542.06 -0.11 543.38 -0.11 C584.64 -0.12 625.9 -0.13 667.16 -0.15 C709.55 -0.17 751.94 -0.18 794.33 -0.19 C800.32 -0.19 806.3 -0.19 812.29 -0.19 C813.46 -0.19 814.64 -0.19 815.86 -0.19 C834.83 -0.19 853.81 -0.2 872.79 -0.21 C891.86 -0.23 910.93 -0.23 930 -0.23 C941.33 -0.23 952.67 -0.23 964 -0.24 C971.57 -0.25 979.14 -0.25 986.71 -0.24 C991.02 -0.24 995.34 -0.24 999.65 -0.25 C1003.58 -0.26 1007.5 -0.26 1011.43 -0.25 C1012.84 -0.25 1014.25 -0.25 1015.66 -0.25 C1023.12 -0.28 1029.78 0.12 1037 2 C1037.99 2 1038.98 2 1040 2 C1042.34 2.99 1044.67 3.98 1047 5 C1047.66 5 1048.32 5 1049 5 C1049.66 5.99 1050.32 6.98 1051 8 C1052.97 9.06 1054.97 10.07 1057 11 C1057 11.66 1057 12.32 1057 13 C1058.18 13.31 1058.18 13.31 1059.38 13.62 C1062 15 1062 15 1063.12 17.94 C1063.41 18.95 1063.7 19.96 1064 21 C1065 22 1066 23 1067 24 C1071.17 31.61 1070.46 40.56 1070.48 48.97 C1070.49 50.53 1070.51 52.1 1070.52 53.66 C1070.57 57.77 1070.59 61.89 1070.61 66 C1070.65 72.51 1070.71 79.02 1070.77 85.52 C1070.78 87.11 1070.8 88.7 1070.81 90.28 C1070.9 100.37 1071.07 110.45 1071.46 120.53 C1071.5 121.54 1071.54 122.54 1071.58 123.58 C1071.76 127.84 1072.09 131.82 1073 136 C1073.99 136.33 1074.98 136.66 1076 137 C1077.71 140.32 1078 142.18 1078 146 C1078.99 146.33 1079.98 146.66 1081 147 C1082.71 150.32 1083 152.18 1083 156 C1083.99 156.33 1084.98 156.66 1086 157 C1087.71 160.32 1088 162.18 1088 166 C1088.99 166.33 1089.98 166.66 1091 167 C1092.02 168.59 1092.02 168.59 1092.95 170.66 C1093.3 171.42 1093.65 172.19 1094.01 172.98 C1094.38 173.81 1094.74 174.64 1095.12 175.5 C1098.39 182.63 1101.81 189.62 1105.55 196.51 C1109.16 203.19 1112.52 209.99 1115.9 216.79 C1117.74 220.49 1119.59 224.18 1121.44 227.88 C1122.2 229.39 1122.95 230.91 1123.71 232.42 C1124.09 233.18 1124.47 233.93 1124.85 234.71 C1128.29 241.58 1128.29 241.58 1129.43 243.86 C1130.18 245.36 1130.93 246.87 1131.68 248.37 C1133.52 252.05 1135.36 255.72 1137.19 259.4 C1140.78 266.61 1144.41 273.77 1148.28 280.83 C1154 291.39 1154 291.39 1154 296 C1154.66 296 1155.32 296 1156 296 C1156.05 307.65 1156.08 319.3 1156.1 330.94 C1156.11 336.35 1156.13 341.76 1156.15 347.17 C1156.17 352.39 1156.18 357.61 1156.19 362.83 C1156.19 364.82 1156.2 366.81 1156.21 368.8 C1156.23 371.59 1156.23 374.38 1156.23 377.17 C1156.23 377.99 1156.24 378.82 1156.25 379.67 C1156.23 383.94 1155.88 387.08 1154 391 C1153.6 392.99 1153.24 394.99 1152.94 397 C1151.31 407.53 1151.31 407.53 1149 411 C1148.41 412.89 1148.41 412.89 1147.81 414.81 C1145.67 421.56 1142.25 427.74 1139 434 C1138.34 434 1137.68 434 1137 434 C1136.34 435.32 1135.68 436.64 1135 438 C1134.34 438 1133.68 438 1133 438 C1132.9 438.74 1132.79 439.49 1132.69 440.25 C1131.95 443.2 1131.05 444.78 1129 447 C1128.34 447 1127.68 447 1127 447 C1127 447.66 1127 448.32 1127 449 C1125.36 450.62 1125.36 450.62 1123.19 452.44 C1120.18 454.97 1120.18 454.97 1117.36 457.72 C1116 459 1116 459 1114 459 C1114 459.66 1114 460.32 1114 461 C1112.54 461.84 1111.09 462.67 1109.62 463.5 C1108.81 463.96 1108 464.43 1107.16 464.91 C1105 466 1105 466 1103 466 C1103 466.66 1103 467.32 1103 468 C1100.46 469.3 1097.92 470.59 1095.38 471.88 C1094.66 472.24 1093.95 472.6 1093.21 472.98 C1087.01 476.11 1080.97 478.1 1074.15 479.44 C1071.9 480.03 1070.06 480.93 1068 482 C1067.98 531.18 1067.97 580.36 1067.96 629.54 C1067.96 630.27 1067.96 630.99 1067.96 631.74 C1067.95 647.55 1067.95 663.35 1067.95 679.15 C1067.95 686.9 1067.95 694.65 1067.95 702.4 C1067.94 703.18 1067.94 703.95 1067.94 704.74 C1067.94 729.76 1067.93 754.78 1067.92 779.8 C1067.91 805.5 1067.91 831.2 1067.91 856.9 C1067.91 860.53 1067.91 864.15 1067.91 867.78 C1067.91 868.85 1067.91 868.85 1067.9 869.94 C1067.9 881.45 1067.9 892.96 1067.89 904.48 C1067.89 916.03 1067.89 927.59 1067.89 939.15 C1067.89 945.42 1067.89 951.69 1067.88 957.96 C1067.88 963.68 1067.88 969.41 1067.88 975.14 C1067.88 977.22 1067.88 979.3 1067.88 981.39 C1067.87 984.2 1067.87 987.01 1067.88 989.82 C1067.87 990.64 1067.87 991.47 1067.87 992.32 C1067.54 995.96 1067.54 995.96 1069 999 C1071.26 999.08 1073.52 999.08 1075.78 999.06 C1076.47 999.06 1077.16 999.05 1077.86 999.05 C1080.81 999.03 1083.76 999.01 1086.7 998.98 C1107.75 998.8 1107.75 998.8 1115.75 1001.94 C1116.63 1002.28 1117.51 1002.62 1118.42 1002.96 C1119.27 1003.31 1120.12 1003.65 1121 1004 C1121.93 1004.37 1122.87 1004.75 1123.83 1005.13 C1124.54 1005.42 1125.26 1005.7 1126 1006 C1126 1006.99 1126 1007.98 1126 1009 C1128.31 1009.33 1130.62 1009.66 1133 1010 C1133.33 1010.99 1133.66 1011.98 1134 1013 C1135.66 1014.01 1137.33 1015.01 1139 1016 C1139 1016.66 1139 1017.32 1139 1018 C1139.66 1018 1140.32 1018 1141 1018 C1141 1018.66 1141 1019.32 1141 1020 C1141.99 1020.49 1141.99 1020.49 1143 1021 C1147.96 1027.3 1153.52 1034.68 1153 1043 C1153.99 1043.33 1154.98 1043.66 1156 1044 C1156.07 1055 1156.12 1065.99 1156.16 1076.99 C1156.17 1082.09 1156.19 1087.2 1156.23 1092.31 C1156.26 1097.23 1156.28 1102.16 1156.28 1107.09 C1156.29 1108.97 1156.3 1110.85 1156.32 1112.73 C1156.34 1115.36 1156.34 1118 1156.34 1120.63 C1156.36 1121.79 1156.36 1121.79 1156.37 1122.98 C1156.35 1127.54 1155.72 1130.34 1153 1134 C1152.49 1134.75 1151.98 1135.51 1151.46 1136.28 C1145.19 1144.74 1139.27 1148.22 1129 1150 C1126.01 1150.25 1123.04 1150.27 1120.03 1150.25 C1119.17 1150.25 1118.31 1150.26 1117.42 1150.26 C1114.54 1150.27 1111.66 1150.26 1108.78 1150.25 C1106.68 1150.26 1104.58 1150.26 1102.48 1150.26 C1096.7 1150.27 1090.92 1150.27 1085.13 1150.26 C1078.85 1150.26 1072.56 1150.27 1066.28 1150.27 C1055.26 1150.28 1044.23 1150.28 1033.21 1150.28 C1021.39 1150.27 1009.56 1150.28 997.74 1150.28 C996.99 1150.28 996.24 1150.28 995.47 1150.28 C992.43 1150.28 989.39 1150.29 986.35 1150.29 C955.46 1150.3 924.57 1150.31 893.69 1150.3 C889.42 1150.3 885.15 1150.3 880.88 1150.3 C880.04 1150.3 879.19 1150.3 878.32 1150.3 C859.53 1150.3 840.75 1150.3 821.97 1150.31 C817.68 1150.31 813.39 1150.31 809.1 1150.31 C807.38 1150.31 805.66 1150.31 803.94 1150.31 C803.09 1150.31 802.23 1150.31 801.35 1150.31 C799.63 1150.31 797.9 1150.31 796.18 1150.31 C747.21 1150.32 698.25 1150.32 649.28 1150.32 C648.37 1150.32 647.47 1150.32 646.53 1150.32 C636.42 1150.32 626.31 1150.32 616.19 1150.32 C615.28 1150.32 614.37 1150.32 613.43 1150.32 C605.84 1150.32 605.84 1150.32 602.35 1150.32 C543.95 1150.31 485.54 1150.32 427.14 1150.34 C412.42 1150.34 397.71 1150.35 382.99 1150.35 C381.63 1150.35 381.63 1150.35 380.24 1150.35 C352.32 1150.36 324.4 1150.36 296.47 1150.36 C295.16 1150.36 295.16 1150.36 293.82 1150.36 C274.58 1150.37 255.33 1150.36 236.09 1150.36 C229.21 1150.36 222.32 1150.36 215.44 1150.36 C213.73 1150.36 212.01 1150.36 210.3 1150.36 C183 1150.36 155.7 1150.37 128.4 1150.38 C100.14 1150.39 71.89 1150.39 43.63 1150.38 C40.6 1150.38 37.56 1150.38 34.53 1150.38 C33.78 1150.38 33.04 1150.38 32.27 1150.38 C20.48 1150.37 8.68 1150.38 -3.11 1150.39 C-14.7 1150.4 -26.3 1150.39 -37.89 1150.38 C-44.09 1150.38 -50.3 1150.37 -56.5 1150.39 C-62.14 1150.4 -67.78 1150.39 -73.42 1150.38 C-75.45 1150.38 -77.48 1150.38 -79.51 1150.39 C-106.12 1150.48 -106.12 1150.48 -116 1141 C-116.33 1140.34 -116.66 1139.68 -117 1139 C-117.99 1138.67 -118.98 1138.34 -120 1138 C-120.91 1136.19 -120.91 1136.19 -121.62 1134 C-122.41 1131.26 -122.41 1131.26 -124 1129 C-124.11 1126.36 -124.16 1123.74 -124.16 1121.1 C-124.17 1120.28 -124.17 1119.45 -124.18 1118.59 C-124.19 1115.84 -124.2 1113.09 -124.2 1110.34 C-124.21 1108.43 -124.21 1106.52 -124.22 1104.61 C-124.23 1100.59 -124.24 1096.58 -124.24 1092.57 C-124.25 1087.43 -124.27 1082.3 -124.3 1077.16 C-124.32 1073.21 -124.32 1069.26 -124.32 1065.31 C-124.33 1063.42 -124.33 1061.53 -124.35 1059.64 C-124.36 1056.98 -124.36 1054.33 -124.36 1051.67 C-124.37 1050.9 -124.37 1050.12 -124.38 1049.32 C-124.33 1042.05 -121.71 1037.18 -118 1031 C-117.26 1029.21 -117.26 1029.21 -116.5 1027.38 C-114.48 1022.83 -114.48 1022.83 -112 1021 C-111.34 1021 -110.68 1021 -110 1021 C-109.88 1020.1 -109.88 1020.1 -109.75 1019.19 C-108.78 1016.35 -107.52 1015.55 -105 1014 C-104.01 1013.67 -103.02 1013.34 -102 1013 C-101.67 1012.01 -101.34 1011.02 -101 1010 C-99.02 1008.97 -97.02 1007.97 -95 1007 C-94.67 1006.34 -94.34 1005.68 -94 1005 C-92.35 1005 -90.7 1005 -89 1005 C-89 1004.34 -89 1003.68 -89 1003 C-86.69 1002.67 -84.38 1002.34 -82 1002 C-82 1001.34 -82 1000.68 -82 1000 C-71.36 999.05 -60.88 998.93 -50.2 999.17 C-48.22 999.21 -46.24 999.24 -44.27 999.26 C-43.11 999.28 -41.95 999.3 -40.76 999.32 C-39.39 999.16 -39.39 999.16 -38 999 C-37.34 998.01 -36.68 997.02 -36 996 C-36.33 996 -36.66 996 -37 996 C-37 825.72 -37 655.44 -37 480 C-40.96 479.34 -44.92 478.68 -49 478 C-58.61 475.11 -66.82 470.58 -75.07 464.95 C-77.35 463.43 -79.52 462.14 -82 461 C-82 460.34 -82 459.68 -82 459 C-82.76 458.94 -83.53 458.88 -84.31 458.81 C-87.87 457.74 -88.23 456.16 -90 453 C-91.32 452.32 -92.66 451.65 -94 451 C-96.06 448.62 -96.06 448.62 -98 446 C-98.58 445.3 -99.16 444.6 -99.75 443.88 C-101 442 -101 442 -101 439 C-101.99 439 -102.98 439 -104 439 C-104 438.34 -104 437.68 -104 437 C-104.66 437 -105.32 437 -106 437 C-106.24 436.37 -106.48 435.74 -106.72 435.1 C-108.49 430.81 -110.46 426.63 -112.44 422.44 C-112.83 421.59 -113.23 420.74 -113.63 419.86 C-114.22 418.63 -114.22 418.63 -114.81 417.37 C-115.16 416.63 -115.51 415.88 -115.86 415.12 C-117.06 412.89 -118.44 410.98 -120 409 C-119.67 408.34 -119.34 407.68 -119 407 C-119.3 406.42 -119.6 405.83 -119.91 405.23 C-121.62 401.74 -121.45 398.19 -121.66 394.36 C-121.77 393.58 -121.88 392.8 -122 392 C-122.66 391.67 -123.32 391.34 -124 391 C-123.34 391 -122.68 391 -122 391 C-122.33 390.36 -122.65 389.71 -122.99 389.05 C-124.33 385.02 -124.26 381.4 -124.23 377.17 C-124.23 376.29 -124.23 375.41 -124.23 374.51 C-124.23 371.61 -124.21 368.72 -124.2 365.82 C-124.19 363.81 -124.19 361.8 -124.19 359.79 C-124.18 354.51 -124.16 349.22 -124.14 343.94 C-124.12 338.54 -124.11 333.14 -124.1 327.75 C-124.08 317.17 -124.04 306.58 -124 296 C-123.34 296 -122.68 296 -122 296 C-122.5 294.51 -122.5 294.51 -123 293 C-122.05 291.26 -121.08 289.52 -120.04 287.83 C-118.84 285.86 -118.84 285.86 -118 282.88 C-117 280 -117 280 -114.94 277.56 C-112.71 275.05 -112.71 275.05 -112.5 271.44 C-111.91 267.36 -110.91 266.74 -108 264 C-106.93 261.7 -105.93 259.36 -105 257 C-103.8 254.43 -102.45 252.07 -101 249.62 C-99.66 247.32 -98.82 245.45 -98 242.88 C-97 240 -97 240 -94.94 237.44 C-92.84 235.18 -92.84 235.18 -92.5 232.5 C-91.84 229.22 -90.07 227.59 -88 225 C-87.64 223.34 -87.3 221.67 -87 220 C-85.56 217.69 -85.56 217.69 -84 216 C-83.34 216 -82.68 216 -82 216 C-82.06 215.09 -82.12 214.19 -82.19 213.25 C-81.98 209.71 -81.47 208.47 -79 206 C-78.34 206 -77.68 206 -77 206 C-77.33 205.01 -77.66 204.02 -78 203 C-76.93 200.48 -75.45 198.33 -74 196 C-73.34 196 -72.68 196 -72 196 C-72.33 195.01 -72.66 194.02 -73 193 C-71.93 190.48 -70.45 188.33 -69 186 C-68.34 186 -67.68 186 -67 186 C-67.33 185.01 -67.66 184.02 -68 183 C-66.93 180.48 -65.45 178.33 -64 176 C-63.34 176 -62.68 176 -62 176 C-62.33 175.01 -62.66 174.02 -63 173 C-62.67 172.34 -62.34 171.68 -62 171 C-61.34 171 -60.68 171 -60 171 C-60 169.35 -60 167.7 -60 166 C-59.34 165.67 -58.68 165.34 -58 165 C-57.35 162.98 -57.35 162.98 -57 161 C-56.34 161 -55.68 161 -55 161 C-55 159.35 -55 157.7 -55 156 C-54.34 155.67 -53.68 155.34 -53 155 C-52.35 152.98 -52.35 152.98 -52 151 C-51.34 151 -50.68 151 -50 151 C-50 149.35 -50 147.7 -50 146 C-49.34 145.67 -48.68 145.34 -48 145 C-47.35 142.98 -47.35 142.98 -47 141 C-46.34 141 -45.68 141 -45 141 C-45 139.35 -45 137.7 -45 136 C-44.34 135.67 -43.68 135.34 -43 135 C-42.35 132.98 -42.35 132.98 -42 131 C-41.34 131 -40.68 131 -40 131 C-40 98.99 -40 66.98 -40 34 C-39.34 33.67 -38.68 33.34 -38 33 C-37.8 31.02 -37.6 29.04 -37.41 27.06 C-36.8 24.02 -35.02 22.28 -33 20 C-32.86 19.34 -32.71 18.68 -32.56 18 C-31.49 14.19 -28.27 11.73 -24.94 9.81 C-24.3 9.54 -23.66 9.28 -23 9 C-20.52 7.84 -18.7 6.75 -16.56 5 C-11.8 1.69 -5.61 1.63 0 1 C0 0.67 0 0.34 0 0 Z M157 21 C158 23 158 23 158 23 Z M95 35 C95 35.99 95 36.98 95 38 C95.66 37.67 96.32 37.34 97 37 C96.34 36.34 95.68 35.68 95 35 Z M-9 156 C-10.2 157.96 -10.2 157.96 -11.19 160.06 C-11.53 160.75 -11.88 161.45 -12.23 162.16 C-13.13 163.98 -13.13 163.98 -13 166 C-13.66 166 -14.32 166 -15 166 C-15.99 169.3 -16.98 172.6 -18 176 C-18.66 176 -19.32 176 -20 176 C-20.99 179.3 -21.98 182.6 -23 186 C-23.66 186 -24.32 186 -25 186 C-25.2 186.55 -25.39 187.1 -25.59 187.66 C-27.88 193.72 -30.72 199.37 -33.8 205.06 C-39.9 216.31 -45.46 227.83 -50.86 239.44 C-52.53 243.02 -54.24 246.48 -56.27 249.87 C-58.24 252.84 -58.24 252.84 -58 256 C-58.66 256 -59.32 256 -60 256 C-60.44 256.98 -60.44 256.98 -60.88 257.98 C-63.69 264.22 -66.67 270.32 -69.86 276.37 C-71.26 279.13 -71.26 279.13 -71 283 C-54.22 283.02 -37.43 283.04 -20.65 283.05 C-12.85 283.06 -5.06 283.06 2.73 283.08 C9.53 283.09 16.32 283.09 23.11 283.09 C26.7 283.1 30.3 283.1 33.9 283.11 C37.91 283.11 41.92 283.11 45.93 283.11 C47.13 283.12 48.33 283.12 49.56 283.12 C50.65 283.12 51.74 283.12 52.86 283.12 C53.81 283.12 54.76 283.12 55.74 283.12 C58.03 283.15 58.03 283.15 60 282 C60.26 279.97 60.51 277.95 60.66 275.91 C61 274 61 274 63 272 C64.1 269.09 64.94 266.31 65.5 263.25 C66 261 66 261 68 259 C68.65 256.43 68.65 256.43 69 254 C69.33 254 69.66 254 70 254 C70.12 252.87 70.25 251.73 70.38 250.56 C70.58 249.39 70.79 248.21 71 247 C71.66 246.67 72.32 246.34 73 246 C73.2 244.36 73.41 242.72 73.6 241.08 C74.2 237.96 75.53 235.28 76.88 232.41 C78.45 229.02 79.8 225.55 81.17 222.07 C82 220 82 220 83 218 C83.04 215.67 83.04 213.33 83 211 C83.66 211 84.32 211 85 211 C85.37 209.64 85.37 209.64 85.75 208.25 C86.76 204.73 87.87 201.24 89 197.75 C89.33 196.73 89.66 195.72 90 194.67 C91 192 91 192 93 189 C93.34 187.33 93.67 185.67 94 184 C94.63 182.65 95.3 181.32 96 180 C97.23 177.16 98.16 174.42 99 171.44 C99.8 168.68 100.7 166.52 102 164 C102.35 162.67 102.69 161.34 103 160 C103.66 158 104.32 156 105 154 C102.19 153.06 100.47 152.87 97.56 152.86 C96.65 152.85 95.74 152.85 94.81 152.84 C93.81 152.84 92.82 152.84 91.79 152.84 C90.74 152.83 89.69 152.83 88.61 152.82 C85.14 152.81 81.66 152.8 78.19 152.8 C75.78 152.79 73.37 152.79 70.96 152.78 C65.9 152.77 60.85 152.76 55.8 152.76 C49.31 152.75 42.82 152.73 36.34 152.7 C31.36 152.68 26.38 152.68 21.4 152.68 C19.01 152.67 16.62 152.67 14.23 152.65 C10.89 152.64 7.55 152.64 4.21 152.64 C3.21 152.63 2.22 152.63 1.19 152.62 C0.29 152.62 -0.62 152.63 -1.56 152.63 C-2.35 152.63 -3.14 152.63 -3.95 152.63 C-6.53 153.1 -7.37 153.99 -9 156 Z M146.4 154.88 C144.85 157.23 144.07 159.22 143.38 161.94 C142.46 165.42 141.37 168.67 140 172 C139.35 173.77 138.7 175.54 138.06 177.31 C136.87 180.61 135.67 183.9 134.44 187.19 C134.2 187.82 133.96 188.46 133.71 189.11 C133.23 190.38 132.75 191.65 132.25 192.92 C130.49 197.48 129.06 202.08 127.75 206.8 C127 209 127 209 125 212 C124.52 213.3 124.1 214.61 123.71 215.94 C123.49 216.69 123.27 217.44 123.05 218.21 C122.83 218.99 122.6 219.76 122.38 220.56 C122.15 221.34 121.92 222.12 121.68 222.93 C120.45 226.9 120.45 226.9 120 231 C119.34 231 118.68 231 118 231 C117.73 231.99 117.46 232.98 117.19 234 C116.41 236.72 115.52 239.36 114.5 242 C113.54 244.5 112.74 246.91 112 249.5 C110.88 253.43 109.47 257.19 108 261 C106.98 263.66 105.98 266.33 105 269 C104.72 269.77 104.44 270.54 104.14 271.33 C103.73 272.5 103.73 272.5 103.31 273.69 C103.06 274.39 102.81 275.1 102.55 275.82 C101.93 278.28 101.96 280.47 102 283 C119.05 283.02 136.09 283.04 153.14 283.05 C161.05 283.06 168.97 283.06 176.88 283.08 C183.78 283.09 190.67 283.09 197.57 283.09 C201.22 283.1 204.87 283.1 208.53 283.11 C212.6 283.11 216.67 283.11 220.75 283.11 C221.97 283.12 223.18 283.12 224.44 283.12 C226.1 283.12 226.1 283.12 227.79 283.12 C228.75 283.12 229.71 283.12 230.71 283.12 C233.03 283.15 233.03 283.15 235 282 C235.39 279.51 235.39 279.51 235.5 276.62 C235.7 272.75 235.79 271.31 238 268 C238.42 265.29 238.42 265.29 238.56 262.38 C238.9 257.1 238.9 257.1 240 256 C240.28 253.78 240.45 251.56 240.62 249.32 C241.02 246.86 241.87 245.21 243 243 C243.45 240.87 243.45 240.87 243.62 238.75 C243.81 236.89 243.81 236.89 244 235 C244.33 235 244.66 235 245 235 C245.07 233.88 245.07 233.88 245.15 232.73 C245.26 231.26 245.26 231.26 245.38 229.75 C245.44 228.78 245.51 227.8 245.59 226.8 C245.99 224.06 246.73 222.42 248 220 C248.45 217.87 248.45 217.87 248.62 215.75 C248.81 213.89 248.81 213.89 249 212 C249.33 212 249.66 212 250 212 C250.07 210.84 250.07 210.84 250.15 209.66 C250.22 208.66 250.3 207.66 250.38 206.62 C250.44 205.63 250.51 204.63 250.59 203.6 C251 201 251 201 253 199 C253.43 196.67 253.43 196.67 253.56 194.06 C253.78 191.09 254.05 188.85 255 186 C255.14 184.7 255.29 183.4 255.44 182.06 C255.8 178.9 256.58 176.84 258 174 C258.44 171.34 258.7 168.68 259 166 C259.33 165.01 259.66 164.02 260 163 C260.09 161.46 260.13 159.92 260.12 158.38 C260.13 157.58 260.13 156.78 260.13 155.96 C260.22 154 260.22 154 259 153 C257.58 152.9 256.15 152.86 254.73 152.85 C253.81 152.85 252.89 152.84 251.94 152.83 C250.92 152.83 249.9 152.83 248.85 152.82 C247.79 152.82 246.72 152.81 245.62 152.8 C242.07 152.78 238.53 152.77 234.98 152.76 C233.17 152.76 233.17 152.76 231.32 152.75 C224.93 152.73 218.54 152.71 212.15 152.7 C205.53 152.69 198.92 152.66 192.3 152.62 C187.23 152.59 182.15 152.59 177.08 152.58 C174.64 152.58 172.2 152.57 169.76 152.55 C166.35 152.52 162.95 152.52 159.54 152.53 C158.52 152.52 157.51 152.5 156.47 152.49 C151.07 152.46 151.07 152.46 146.4 154.88 Z M301 156 C300.05 158.88 300.05 158.88 299.44 162.12 C299.19 163.29 298.95 164.45 298.69 165.64 C298.46 166.75 298.24 167.86 298 169 C297.63 170.63 297.25 172.25 296.88 173.88 C296.29 176.5 295.86 179.02 295.5 181.69 C295 185 295 185 294.06 187.69 C292.76 191.73 292.17 195.76 291.5 199.95 C289.77 210.47 289.77 210.47 288 214 C287.66 215.83 287.35 217.66 287.06 219.5 C285.65 228.21 283.84 236.7 281.66 245.24 C280.89 248.47 280.46 251.71 280 255 C279.69 255.89 279.38 256.77 279.06 257.69 C277.46 262.69 276.8 267.82 276 273 C275.86 273.73 275.72 274.47 275.58 275.23 C274.91 278.93 274.8 279.71 277 283 C279.39 283.45 279.39 283.45 282.21 283.36 C283.32 283.36 284.42 283.37 285.56 283.37 C286.78 283.36 288 283.35 289.25 283.34 C290.53 283.34 291.81 283.34 293.13 283.34 C296.64 283.34 300.15 283.33 303.66 283.3 C307.32 283.29 310.99 283.28 314.65 283.28 C321.6 283.27 328.54 283.25 335.49 283.22 C343.39 283.18 351.3 283.17 359.21 283.15 C375.47 283.12 391.74 283.07 408 283 C408.33 280.69 408.66 278.38 409 276 C409.33 276 409.66 276 410 276 C410.33 265.44 410.66 254.88 411 244 C411.33 244 411.66 244 412 244 C412.17 242.38 412.33 240.75 412.5 239.12 C412.59 238.22 412.69 237.32 412.78 236.38 C413.03 234.07 413.03 234.07 413 232 C413.07 230.11 413.14 228.22 413.22 226.34 C413.26 225.21 413.31 224.09 413.36 222.94 C413.4 221.76 413.45 220.59 413.5 219.38 C413.55 218.19 413.6 217.01 413.64 215.79 C413.76 212.86 413.88 209.93 414 207 C414.33 207 414.66 207 415 207 C415.33 196.11 415.66 185.22 416 174 C416.33 174 416.66 174 417 174 C417.62 167.31 418.13 160.72 418 154 C415.63 152.81 414.18 152.87 411.53 152.86 C410.59 152.85 409.65 152.85 408.68 152.84 C407.64 152.84 406.61 152.84 405.54 152.84 C404.45 152.83 403.36 152.83 402.24 152.82 C398.63 152.81 395.02 152.8 391.41 152.8 C388.91 152.79 386.41 152.79 383.91 152.78 C379.33 152.77 374.75 152.76 370.18 152.76 C363.44 152.76 356.7 152.74 349.96 152.71 C344.12 152.69 338.29 152.68 332.45 152.68 C329.97 152.67 327.48 152.67 325 152.65 C321.53 152.64 318.06 152.64 314.59 152.64 C313.56 152.63 312.52 152.63 311.46 152.62 C310.52 152.62 309.57 152.63 308.6 152.63 C307.78 152.63 306.96 152.63 306.11 152.63 C303.47 153.09 302.62 153.89 301 156 Z M458 153 C457.87 153.87 457.73 154.74 457.6 155.63 C457.42 156.79 457.24 157.94 457.06 159.12 C456.89 160.26 456.71 161.4 456.54 162.57 C456.19 164.8 455.83 167.02 455.45 169.25 C454.97 172.16 454.81 174.97 454.72 177.91 C454.68 179 454.64 180.1 454.61 181.22 C454.53 183.5 454.46 185.78 454.39 188.05 C454.36 189.14 454.32 190.23 454.28 191.35 C454.24 192.83 454.24 192.83 454.19 194.35 C454 197 454 197 453.5 198.98 C452.84 201.65 452.82 204.17 452.75 206.91 C452.72 208.07 452.69 209.22 452.65 210.41 C452.59 212.82 452.54 215.22 452.48 217.63 C452.32 223.02 452.07 228.18 451 233.47 C449.66 240.09 449.58 246.7 449.44 253.44 C449.38 255.92 449.31 258.39 449.25 260.87 C449.22 261.95 449.2 263.04 449.17 264.15 C449.02 266.6 448.66 268.65 448 271 C447.89 272.71 447.83 274.42 447.81 276.12 C447.8 276.99 447.78 277.86 447.77 278.76 C447.78 281.2 447.78 281.2 450 283 C452.43 283.3 452.43 283.3 455.29 283.24 C456.41 283.24 457.53 283.25 458.69 283.25 C459.93 283.24 461.16 283.23 462.44 283.23 C463.73 283.23 465.03 283.23 466.37 283.23 C469.93 283.23 473.5 283.22 477.06 283.2 C480.78 283.19 484.5 283.19 488.23 283.19 C495.28 283.18 502.33 283.16 509.38 283.14 C517.41 283.12 525.43 283.11 533.46 283.1 C549.97 283.08 566.49 283.04 583 283 C583.03 280.43 583.05 277.86 583.06 275.28 C583.07 274.56 583.08 273.83 583.08 273.09 C583.1 269.41 583.01 266.02 582.04 262.46 C580.29 256 580.57 249.27 580.44 242.62 C580.38 239.93 580.31 237.23 580.25 234.54 C580.21 232.76 580.21 232.76 580.17 230.95 C580.12 227.94 580.12 227.94 579 225 C578.85 223.25 578.75 221.5 578.68 219.75 C578.64 218.73 578.6 217.71 578.56 216.66 C578.52 215.6 578.48 214.53 578.44 213.44 C578.39 212.37 578.35 211.3 578.31 210.21 C578 202.52 578 202.52 578 200 C577.68 198.28 577.36 196.56 577.03 194.84 C575.66 186.76 575.62 178.71 575.54 170.54 C575.52 168.57 575.48 166.6 575.44 164.63 C575.42 162.9 575.42 162.9 575.4 161.13 C574.92 157.37 574.59 155.82 572 153 C568.41 152.23 564.85 152.37 561.19 152.43 C560.08 152.43 558.97 152.43 557.82 152.43 C554.14 152.43 550.45 152.47 546.77 152.51 C544.22 152.52 541.67 152.53 539.11 152.53 C533.08 152.55 527.05 152.59 521.01 152.64 C514.14 152.7 507.27 152.72 500.4 152.75 C486.27 152.8 472.13 152.89 458 153 Z M613 154 C612.76 158.93 612.98 163.27 614.01 168.1 C615.12 173.98 615.16 179.6 615 185.56 C614.82 192.12 615.08 197.97 616.52 204.37 C617.45 209.49 617.4 214.69 617.5 219.88 C617.63 226.39 617.85 232.7 619.03 239.12 C620.08 244.88 620.17 250.35 620 256.19 C619.74 265.39 620.75 273.33 624 282 C625.02 283.24 625.02 283.24 627.18 283.12 C628.16 283.12 629.13 283.12 630.13 283.12 C631.24 283.12 632.36 283.12 633.5 283.12 C634.73 283.12 635.96 283.12 637.23 283.11 C639.16 283.11 639.16 283.11 641.13 283.11 C644.67 283.11 648.21 283.11 651.76 283.1 C655.45 283.1 659.15 283.09 662.85 283.09 C669.85 283.09 676.86 283.08 683.86 283.07 C691.84 283.06 699.81 283.06 707.78 283.05 C724.19 283.04 740.59 283.02 757 283 C756.79 281.98 756.79 281.98 756.58 280.95 C756.4 280.05 756.22 279.16 756.03 278.24 C755.85 277.35 755.67 276.47 755.49 275.56 C755.09 273.45 754.78 271.32 754.5 269.19 C754.12 266 754.12 266 752.88 263.19 C752.44 262.1 752.44 262.1 752 261 C752.33 260.34 752.66 259.68 753 259 C752.52 256.84 752.52 256.84 751.69 254.44 C748 242.78 748 242.78 748 238 C747.56 236 747.1 234 746.62 232 C745.1 225.5 743.76 218.98 742.51 212.43 C742 209.82 742 209.82 741 206.62 C740 203 740 203 739.5 199.38 C739.14 196.03 739.14 196.03 737.88 193.19 C737.59 192.47 737.3 191.74 737 191 C737.5 190.01 737.5 190.01 738 189 C737.52 186.84 737.52 186.84 736.69 184.44 C733 172.78 733 172.78 733 168 C732.57 165.83 732.11 163.66 731.62 161.5 C731.37 160.33 731.11 159.17 730.85 157.97 C730.23 154.91 730.23 154.91 728 153 C725.9 152.7 725.9 152.7 723.44 152.75 C722.48 152.75 721.52 152.74 720.53 152.74 C719.47 152.75 718.41 152.75 717.32 152.76 C715.66 152.75 715.66 152.75 713.96 152.75 C710.27 152.75 706.59 152.76 702.9 152.77 C700.35 152.77 697.8 152.77 695.25 152.77 C689.9 152.77 684.55 152.78 679.2 152.79 C673 152.81 666.81 152.82 660.62 152.81 C654.67 152.81 648.72 152.82 642.77 152.83 C640.23 152.83 637.69 152.83 635.16 152.83 C631.62 152.84 628.08 152.84 624.55 152.85 C622.96 152.85 622.96 152.85 621.34 152.85 C620.38 152.86 619.42 152.86 618.43 152.87 C617.18 152.87 617.18 152.87 615.9 152.87 C613.99 152.79 613.99 152.79 613 154 Z M771 153 C769.23 159.09 771.11 164.74 772.81 170.69 C775.18 179.22 776.86 187.87 778.53 196.57 C779.74 202.84 780.98 209.09 782.44 215.31 C782.69 216.41 782.95 217.51 783.21 218.64 C783.73 220.87 784.26 223.1 784.79 225.33 C785.04 226.42 785.3 227.51 785.56 228.62 C785.9 230.07 785.9 230.07 786.25 231.54 C786.87 234.41 787.42 237.28 787.93 240.18 C788.98 246.01 790.22 251.78 791.5 257.56 C791.93 259.5 792.36 261.44 792.78 263.38 C792.99 264.31 793.19 265.25 793.41 266.21 C794.16 269.77 794.82 273.34 795.46 276.92 C796.1 279.38 797.19 281.19 799 283 C800.7 283.1 802.4 283.12 804.09 283.12 C805.2 283.12 806.3 283.12 807.44 283.12 C809.27 283.12 809.27 283.12 811.14 283.11 C812.42 283.11 813.69 283.11 815.01 283.11 C818.53 283.11 822.04 283.11 825.55 283.1 C829.22 283.1 832.89 283.09 836.56 283.09 C843.51 283.09 850.47 283.08 857.42 283.07 C865.33 283.06 873.24 283.06 881.16 283.05 C897.44 283.04 913.72 283.02 930 283 C929.67 280.36 929.34 277.72 929 275 C928.01 274.67 927.02 274.34 926 274 C926.37 273.01 926.37 273.01 926.75 272 C927.07 268.16 925.86 266.34 924.05 263.04 C922.57 260.15 921.85 257.12 921 254 C920.48 252.74 919.93 251.49 919.38 250.25 C918 247 918 247 918 244 C917.67 243.01 917.34 242.02 917 241 C916.34 241 915.68 241 915 241 C914.88 239.91 914.75 238.81 914.62 237.69 C914.25 233.93 914.25 233.93 912 231 C911.86 230.26 911.71 229.51 911.56 228.75 C910.84 225.22 909.48 222.28 908 219 C907.34 219 906.68 219 906 219 C906.21 218.09 906.41 217.19 906.62 216.25 C907.14 211.78 905.8 210.19 903.38 206.56 C901.87 203.76 901.73 202.13 902 199 C901.34 199 900.68 199 900 199 C899.9 198.41 899.8 197.81 899.7 197.2 C898.31 189.46 896.41 181.61 892 175 C892 173.68 892 172.36 892 171 C891.34 171 890.68 171 890 171 C889.9 169.99 889.79 168.98 889.69 167.94 C888.96 163.77 887.76 160.82 886 157 C885.5 155.51 885.5 155.51 885 154 C882.62 152.81 881.17 152.88 878.51 152.88 C877.56 152.88 876.62 152.88 875.64 152.88 C874.6 152.88 873.56 152.88 872.49 152.89 C870.85 152.89 870.85 152.89 869.18 152.89 C865.56 152.89 861.93 152.89 858.3 152.9 C855.8 152.9 853.29 152.91 850.78 152.91 C844.84 152.91 838.91 152.92 832.97 152.93 C825.55 152.94 818.13 152.95 810.71 152.95 C797.48 152.96 784.24 152.98 771 153 Z M928 153 C926.36 157.93 928.54 161.94 930.56 166.56 C931.91 169.78 932.58 172.55 933 176 C933.66 176 934.32 176 935 176 C935.17 176.75 935.34 177.5 935.52 178.27 C936.96 184.35 938.67 190.06 941.09 195.82 C942.66 199.58 943.84 203.38 944.88 207.31 C945.75 210.17 946.68 212.57 947.94 215.25 C949.96 219.62 951.17 224.04 952.29 228.71 C952.86 231.17 952.86 231.17 955 233 C955.12 233.87 955.25 234.73 955.38 235.62 C956.01 239.06 957.27 241.54 958.89 244.6 C960.72 248.55 961.83 252.71 963.06 256.88 C964.2 260.67 965.58 264.31 967 268 C967.67 270 968.33 272 969 274 C970.39 279.36 970.39 279.36 974 283 C975.71 283.09 977.42 283.12 979.14 283.12 C980.77 283.12 980.77 283.12 982.44 283.12 C984.23 283.12 984.23 283.12 986.07 283.11 C987.33 283.11 988.59 283.11 989.88 283.11 C993.34 283.11 996.8 283.11 1000.25 283.1 C1003.86 283.1 1007.47 283.09 1011.08 283.09 C1017.92 283.09 1024.76 283.08 1031.6 283.07 C1039.38 283.06 1047.17 283.06 1054.95 283.05 C1070.97 283.04 1086.98 283.02 1103 283 C1103 279.94 1102.59 278.77 1101.31 276.08 C1100.77 274.92 1100.77 274.92 1100.21 273.74 C1099.61 272.51 1099.61 272.51 1099 271.25 C1098.59 270.4 1098.18 269.54 1097.76 268.66 C1094.99 262.93 1092.07 257.3 1089.02 251.7 C1085.91 245.95 1083.13 240.05 1080.36 234.12 C1075.34 223.44 1070.05 212.92 1064.5 202.5 C1058 190.29 1051.89 177.92 1046.06 165.38 C1043.21 158.15 1043.21 158.15 1038 153 C1036.53 152.91 1035.06 152.88 1033.58 152.88 C1032.66 152.88 1031.73 152.88 1030.77 152.88 C1029.24 152.88 1029.24 152.88 1027.68 152.89 C1026.6 152.89 1025.53 152.89 1024.42 152.89 C1020.86 152.89 1017.3 152.89 1013.74 152.9 C1011.28 152.9 1008.82 152.91 1006.35 152.91 C999.86 152.91 993.36 152.92 986.87 152.93 C980.25 152.94 973.63 152.95 967 152.95 C954 152.96 941 152.98 928 153 Z M615 200 C614.67 200.66 614.34 201.32 614 202 C614.66 202 615.32 202 616 202 C615.67 201.34 615.34 200.68 615 200 Z M620 270 C619.67 270.66 619.34 271.32 619 272 C619.66 272 620.32 272 621 272 C620.67 271.34 620.34 270.68 620 270 Z M795 280 C796 282 796 282 796 282 Z M-84 322 C-85.06 325.19 -85.15 327.51 -85.18 330.86 C-85.19 332.06 -85.2 333.27 -85.22 334.51 C-85.22 335.82 -85.23 337.12 -85.24 338.47 C-85.24 339.14 -85.25 339.8 -85.25 340.49 C-85.27 344.03 -85.29 347.57 -85.3 351.11 C-85.31 354.74 -85.34 358.37 -85.38 362 C-85.41 364.81 -85.41 367.63 -85.42 370.44 C-85.43 372.42 -85.45 374.4 -85.48 376.38 C-85.46 384.42 -84.21 390.65 -81 398 C-80.33 399.79 -79.66 401.58 -79 403.38 C-77.49 407.14 -75.7 409.94 -73 413 C-72.67 413.68 -72.34 414.36 -72 415.06 C-70.72 417.55 -69.1 419.16 -67 421 C-66.34 421 -65.68 421 -65 421 C-64.75 421.6 -64.5 422.2 -64.25 422.81 C-62.82 425.32 -61.43 426.48 -59 428 C-58.34 428 -57.68 428 -57 428 C-56.67 428.99 -56.34 429.98 -56 431 C-53.7 432.47 -51.48 433.75 -49.06 435 C-48.39 435.36 -47.71 435.71 -47.01 436.08 C-41.83 438.73 -36.68 440.69 -31 442 C-30.29 442.19 -29.58 442.37 -28.86 442.57 C-26.99 443.08 -26.99 443.08 -25 443 C-24.24 443.01 -23.48 443.02 -22.69 443.03 C-19.63 443.07 -16.56 443.1 -13.5 443.12 C-11.89 443.15 -11.89 443.15 -10.25 443.18 C-9.23 443.18 -8.21 443.19 -7.16 443.2 C-6.22 443.21 -5.28 443.22 -4.31 443.23 C-1.8 443.23 -1.8 443.23 0 441 C2.32 440.6 4.66 440.26 7 440 C7 439.67 7 439.34 7 439 C8.98 438.67 10.96 438.34 13 438 C13 437.34 13 436.68 13 436 C13.56 435.73 14.11 435.46 14.69 435.19 C16.32 434.35 17.92 433.45 19.5 432.5 C22 431 22 431 23.84 430.22 C26.77 428.56 28.79 426.36 31.12 423.94 C35.81 419.1 35.81 419.1 38 418 C38.46 416.82 38.46 416.82 38.94 415.62 C40.02 412.95 40.96 411.96 43 410 C46.05 405.69 47.45 400.99 49 396 C49.33 395.01 49.66 394.02 50 393 C50.22 391.79 50.22 391.79 50.44 390.56 C51 388 51 388 53 384 C53 363.54 53 343.08 53 322 C7.79 322 -37.42 322 -84 322 Z M93 323 C92.89 324.98 92.85 326.97 92.84 328.95 C92.83 330.23 92.82 331.5 92.81 332.82 C92.8 334.22 92.8 335.63 92.8 337.04 C92.79 338.47 92.79 339.91 92.78 341.35 C92.77 344.37 92.76 347.39 92.76 350.41 C92.75 354.26 92.73 358.12 92.7 361.97 C92.68 364.94 92.68 367.92 92.68 370.89 C92.67 372.31 92.67 373.73 92.65 375.15 C92.59 382.79 92.68 389.05 96 396 C96.5 397.38 97 398.75 97.5 400.12 C99.92 406.49 103.03 411.54 107.28 416.85 C108.41 418.27 109.5 419.72 110.53 421.21 C111.97 423.29 111.97 423.29 115 424 C115.82 425.01 116.65 426.02 117.5 427.06 C118.74 428.52 118.74 428.52 120 430 C120.99 430 121.98 430 123 430 C123.33 430.99 123.66 431.98 124 433 C125.32 433 126.64 433 128 433 C128.33 433.99 128.66 434.98 129 436 C131.8 437.13 131.8 437.13 135 438 C136.67 438.67 138.33 439.33 140 440 C147.96 442.88 155.36 443.18 163.75 443.19 C165.33 443.21 165.33 443.21 166.94 443.22 C167.95 443.23 168.95 443.23 169.98 443.23 C171.36 443.24 171.36 443.24 172.76 443.24 C175.2 443.22 175.2 443.22 177 441 C179.33 440.65 181.67 440.32 184 440 C186.17 439.13 186.17 439.13 188 438 C189.05 437.5 189.05 437.5 190.12 437 C192.17 436.03 192.17 436.03 194 434 C194.99 433.78 194.99 433.78 196 433.56 C198.39 433.13 198.39 433.13 200 430 C200.62 429.86 201.24 429.71 201.88 429.56 C204.79 428.79 206.08 427.27 208 425 C208 424.34 208 423.68 208 423 C208.58 422.77 209.15 422.55 209.75 422.31 C214.22 419.71 216.36 415.78 218 411 C218.66 411 219.32 411 220 411 C220 409.35 220 407.7 220 406 C220.99 405.67 221.98 405.34 223 405 C226.9 399.04 227.7 390.87 229 384 C229.33 384 229.66 384 230 384 C230 363.54 230 343.08 230 322 C205.85 321.97 205.85 321.97 181.71 321.95 C171.86 321.95 162.02 321.94 152.18 321.92 C145.01 321.91 137.85 321.91 130.68 321.91 C126.89 321.9 123.09 321.9 119.29 321.89 C115.72 321.89 112.15 321.89 108.58 321.89 C106.64 321.89 104.7 321.88 102.76 321.88 C101.61 321.88 100.46 321.88 99.28 321.88 C97.78 321.88 97.78 321.88 96.25 321.88 C94.03 321.75 94.03 321.75 93 323 Z M270 322 C265.86 370.02 265.86 370.02 283.57 416.76 C284.77 417.87 284.77 417.87 286 419 C291 424 291 424 293.19 426.31 C294.83 428.23 294.83 428.23 297 428 C297.33 428.99 297.66 429.98 298 431 C300.57 432.59 300.57 432.59 303.69 434 C304.72 434.5 305.76 434.99 306.82 435.5 C307.87 436 308.92 436.49 310 437 C311.6 437.82 311.6 437.82 313.24 438.65 C315.93 439.97 318.07 440.5 321 441 C322.22 441.35 323.43 441.7 324.69 442.06 C327.75 443.09 327.75 443.09 330 443 C330.73 443.01 331.46 443.02 332.21 443.03 C335.14 443.07 338.07 443.1 341 443.12 C342.54 443.15 342.54 443.15 344.1 443.18 C345.08 443.18 346.06 443.19 347.06 443.2 C347.96 443.21 348.86 443.22 349.79 443.23 C352.21 443.21 352.21 443.21 354 441 C356.33 440.65 358.67 440.32 361 440 C363.12 439.11 363.12 439.11 365 438 C366.11 437.63 366.11 437.63 367.25 437.25 C370.52 435.77 373.04 433.79 375.86 431.59 C378.63 429.53 381.55 427.8 384.53 426.08 C385.02 425.72 385.5 425.37 386 425 C386 424.34 386 423.68 386 423 C386.66 423 387.32 423 388 423 C389.5 421.2 389.5 421.2 391 419 C391.52 418.35 392.04 417.7 392.57 417.04 C396.54 412.09 396.54 412.09 398 406 C398.66 406 399.32 406 400 406 C402.21 401.97 403.46 398.56 404 394 C404.33 394 404.66 394 405 394 C405.07 392.88 405.07 392.88 405.15 391.73 C405.26 390.26 405.26 390.26 405.38 388.75 C405.44 387.78 405.51 386.8 405.59 385.8 C406 383 406 383 408 379 C408 360.19 408 341.38 408 322 C362.46 322 316.92 322 270 322 Z M447 322 C444.34 365.13 444.34 365.13 453.88 404.5 C454.21 405.25 454.55 405.99 454.9 406.76 C456.85 410.94 458.79 414.62 462 418 C462.66 418 463.32 418 464 418 C464.23 418.93 464.45 419.86 464.69 420.81 C466.23 424.56 467.39 425.33 471 427 C472.49 427.5 472.49 427.5 474 428 C474 428.66 474 429.32 474 430 C474.64 430.29 475.28 430.58 475.94 430.88 C478 432 478 432 479 434 C480.95 434.8 480.95 434.8 483.25 435.44 C486.05 436.31 488.16 437.1 490.69 438.62 C493.46 440.27 495.84 440.53 499 441 C499.9 441.5 499.9 441.5 500.81 442.01 C503.65 443.29 505.9 443.26 509.01 443.27 C510.16 443.27 511.31 443.27 512.5 443.27 C513.69 443.27 514.89 443.26 516.12 443.25 C517.33 443.26 518.54 443.27 519.78 443.27 C521.5 443.27 521.5 443.27 523.26 443.27 C524.31 443.26 525.36 443.26 526.45 443.26 C529.17 443.25 529.17 443.25 531 441 C533.01 440.77 535.01 440.55 537.02 440.34 C539.65 439.89 541.16 438.91 543 437 C543 436.34 543 435.68 543 435 C543.55 435.24 544.09 435.49 544.66 435.74 C548.24 436.14 549.73 434.36 552.5 432.19 C555.6 429.78 558.47 427.71 562 426 C564.9 423.46 566.8 421.41 568.5 417.94 C570.2 414.61 572.11 413.3 575 411 C576.25 408.59 576.25 408.59 577 406 C577.67 404.33 578.33 402.67 579 401 C579.33 401 579.66 401 580 401 C580.12 399.87 580.25 398.73 580.38 397.56 C580.58 396.39 580.79 395.21 581 394 C581.66 393.67 582.32 393.34 583 393 C583.47 389.72 583.47 389.72 583.62 385.94 C583.7 384.65 583.77 383.36 583.85 382.03 C583.93 380.53 583.93 380.53 584 379 C584.33 379 584.66 379 585 379 C585 360.19 585 341.38 585 322 C539.46 322 493.92 322 447 322 Z M623 323 C622.9 324.62 622.86 326.24 622.85 327.87 C622.85 328.91 622.84 329.94 622.84 331.01 C622.83 332.15 622.83 333.28 622.83 334.45 C622.83 335.6 622.83 336.76 622.82 337.96 C622.82 340.42 622.81 342.88 622.81 345.33 C622.81 349.09 622.79 352.84 622.78 356.59 C622.77 358.98 622.77 361.37 622.77 363.76 C622.76 364.88 622.76 366 622.75 367.15 C622.76 372.87 623.15 377.59 625 383 C625.29 384.52 625.56 386.05 625.78 387.59 C625.9 388.37 626.02 389.16 626.14 389.96 C626.38 391.59 626.62 393.22 626.86 394.86 C627.17 396.91 627.58 398.96 628 401 C628.66 401.33 629.32 401.66 630 402 C630.97 403.9 631.93 405.8 632.86 407.72 C634.02 410.05 635.28 412.27 636.62 414.5 C637.03 415.17 637.43 415.84 637.85 416.53 C638.23 417.02 638.61 417.5 639 418 C639.66 418 640.32 418 641 418 C641.27 418.58 641.54 419.15 641.81 419.75 C643.04 422.07 644.25 424.04 646 426 C646.99 426 647.98 426 649 426 C649 426.66 649 427.32 649 428 C649.97 428.43 650.94 428.87 651.94 429.31 C655 431 655 431 656 434 C658.08 435.18 658.08 435.18 660.62 436.06 C661.53 436.4 662.44 436.74 663.37 437.09 C666.55 438.19 669.77 439.09 673 440 C674.24 440.55 675.46 441.11 676.69 441.69 C679.97 442.99 680.84 443.21 684 442 C684.33 442.33 684.66 442.66 685 443 C688.47 443.25 691.96 443.19 695.44 443.19 C696.42 443.2 697.4 443.21 698.41 443.22 C699.81 443.23 699.81 443.23 701.25 443.23 C702.54 443.24 702.54 443.24 703.86 443.24 C706.21 443.2 706.21 443.2 708 441 C710.01 440.74 712.01 440.49 714.03 440.27 C716.38 439.95 718.06 439.39 720 438 C720.5 436.51 720.5 436.51 721 435 C726 434 726 434 728.46 433.71 C731.62 432.83 732.52 431.64 734.5 429.06 C737.21 425.75 739 424.51 743 423 C745.05 420.31 745.05 420.31 747 417 C747.99 415.7 748.99 414.41 750 413.12 C753.54 408.45 756.15 403.56 758 398 C758.33 397.05 758.66 396.1 759 395.12 C760.61 389.58 760.67 383.74 761 378 C761.33 378 761.66 378 762 378 C762 359.52 762 341.04 762 322 C744.02 321.98 726.05 321.96 708.07 321.95 C699.73 321.94 691.38 321.94 683.04 321.92 C675.76 321.91 668.49 321.91 661.22 321.91 C657.37 321.9 653.52 321.9 649.66 321.89 C646.04 321.89 642.42 321.89 638.8 321.89 C636.83 321.89 634.85 321.88 632.88 321.88 C631.14 321.88 631.14 321.88 629.36 321.88 C628.34 321.88 627.33 321.88 626.28 321.88 C624.03 321.74 624.03 321.74 623 323 Z M802 322 C799.82 325.27 799.75 326.21 799.74 330 C799.73 331.02 799.73 332.04 799.72 333.09 C799.73 334.19 799.73 335.29 799.73 336.42 C799.73 337.56 799.73 338.69 799.73 339.86 C799.73 342.26 799.73 344.66 799.74 347.06 C799.75 350.72 799.74 354.38 799.73 358.05 C799.73 360.38 799.73 362.71 799.73 365.05 C799.73 366.14 799.73 367.23 799.72 368.36 C799.76 373.99 800.16 378.67 802 384 C802.31 386.27 802.49 388.51 802.66 390.79 C803.46 395.94 806.18 400.52 808.5 405.12 C808.81 405.75 809.12 406.37 809.43 407 C810.83 409.79 812.27 412.4 814 415 C814.66 415 815.32 415 816 415 C816.23 415.95 816.45 416.9 816.69 417.88 C817.67 421.2 817.67 421.2 820.56 422.19 C821.37 422.46 822.17 422.72 823 423 C823.33 423.99 823.66 424.98 824 426 C825.56 427.41 825.56 427.41 827.44 428.62 C828.05 429.05 828.67 429.48 829.31 429.91 C831.01 431.05 831.01 431.05 833 432 C833.33 432.66 833.66 433.32 834 434 C839.07 436.78 844.45 438.46 850 440 C851.41 440.76 851.41 440.76 852.85 441.54 C858.52 444.01 864.75 443.39 870.81 443.31 C872.67 443.32 872.67 443.32 874.57 443.32 C880.87 443.76 880.87 443.76 886 441 C887.77 440.44 889.57 439.95 891.38 439.5 C894.84 438.64 897.86 437.71 901 436 C901.66 435.67 902.32 435.34 903 435 C903 434.34 903 433.68 903 433 C903.71 432.76 904.43 432.51 905.16 432.26 C912.94 428.81 919.36 422.06 924.66 415.53 C926 414 926 414 928 413 C928.7 411.35 929.36 409.68 930 408 C931.29 405.31 932.64 402.66 934 400 C934.33 400 934.66 400 935 400 C935.19 398.05 935.19 398.05 935.38 396.06 C935.59 393.85 935.59 393.85 936 392 C936.66 391.67 937.32 391.34 938 391 C938 368.23 938 345.46 938 322 C913.88 321.91 913.88 321.91 889.75 321.85 C879.92 321.84 870.09 321.81 860.26 321.77 C853.1 321.74 845.94 321.72 838.78 321.72 C834.98 321.71 831.19 321.7 827.4 321.68 C823.83 321.66 820.26 321.66 816.7 321.66 C814.76 321.66 812.82 321.64 810.88 321.63 C809.73 321.63 808.59 321.63 807.4 321.64 C806.4 321.64 805.4 321.63 804.37 321.63 C803.59 321.75 802.81 321.87 802 322 Z M978 323 C977.9 324.76 977.86 326.52 977.85 328.28 C977.85 329.41 977.84 330.54 977.84 331.7 C977.83 332.93 977.83 334.16 977.83 335.43 C977.83 336.7 977.83 337.96 977.82 339.26 C977.82 341.94 977.81 344.62 977.81 347.31 C977.81 350.72 977.8 354.13 977.78 357.54 C977.77 360.82 977.77 364.1 977.77 367.37 C977.76 368.59 977.76 369.8 977.75 371.05 C977.77 377.95 978.32 384.31 980 391 C980.37 392.48 980.37 392.48 980.75 393.99 C982.06 398.4 983.43 402.14 986 406 C986.59 407.33 986.59 407.33 987.19 408.69 C990.54 414.82 995.04 421.18 1001 425 C1001.66 425 1002.32 425 1003 425 C1003.04 425.58 1003.08 426.15 1003.12 426.75 C1005.58 433.07 1016.26 436.39 1022 439 C1024.33 439.82 1026.6 440.41 1029 441 C1029.87 441.39 1030.73 441.78 1031.62 442.19 C1034.48 443.16 1036.12 442.72 1039 442 C1039.33 442.33 1039.66 442.66 1040 443 C1043.47 443.25 1046.96 443.19 1050.44 443.19 C1051.42 443.2 1052.4 443.21 1053.41 443.22 C1054.81 443.23 1054.81 443.23 1056.25 443.23 C1057.54 443.24 1057.54 443.24 1058.86 443.24 C1061.21 443.2 1061.21 443.2 1063 441 C1066.06 440.13 1069.14 439.47 1072.25 438.78 C1075.12 438.21 1075.12 438.21 1077 436 C1079.18 434.8 1081.26 433.91 1083.62 433.12 C1086.46 431.78 1086.75 430.77 1088 428 C1088.99 427.67 1089.98 427.34 1091 427 C1091 426.34 1091 425.68 1091 425 C1091.78 424.9 1092.57 424.79 1093.38 424.69 C1096.33 424.22 1096.33 424.22 1098 421 C1097.67 420.34 1097.34 419.68 1097 419 C1097.61 418.75 1098.21 418.51 1098.84 418.25 C1101.38 416.78 1102.2 415.48 1103.62 412.94 C1105.81 409.1 1105.81 409.1 1108 408 C1108.83 405.95 1108.83 405.95 1109.5 403.56 C1110.78 399.22 1110.78 399.22 1113 397 C1113.38 395.01 1113.71 393.01 1114 391 C1114.33 390.01 1114.66 389.02 1115 388 C1115.08 385.94 1115.11 383.88 1115.1 381.82 C1115.09 380.54 1115.09 379.27 1115.09 377.95 C1115.08 377.27 1115.08 376.59 1115.08 375.89 C1115.06 373.76 1115.06 371.63 1115.05 369.5 C1115.04 364.98 1115.02 360.46 1115 355.94 C1114.98 350.7 1114.96 345.45 1114.94 340.21 C1114.94 338.11 1114.93 336.01 1114.91 333.91 C1114.91 332.64 1114.91 331.36 1114.9 330.05 C1114.9 328.93 1114.89 327.81 1114.89 326.65 C1115 324 1115 324 1116 322 C1098.15 321.98 1080.31 321.96 1062.46 321.95 C1054.18 321.94 1045.89 321.94 1037.61 321.92 C1030.39 321.91 1023.17 321.91 1015.95 321.91 C1012.13 321.9 1008.3 321.9 1004.48 321.89 C1000.88 321.89 997.29 321.89 993.69 321.89 C991.73 321.89 989.78 321.88 987.82 321.88 C986.66 321.88 985.51 321.88 984.32 321.88 C982.81 321.88 982.81 321.88 981.26 321.88 C979.03 321.75 979.03 321.75 978 323 Z M800 380 C799.67 380.66 799.34 381.32 799 382 C799.66 382 800.32 382 801 382 C800.67 381.34 800.34 380.68 800 380 Z M1135 430 C1136 432 1136 432 1136 432 Z M1137 430 C1138 432 1138 432 1138 432 Z M72 437 C67.82 440.82 65.35 443.33 64 449 C63.34 449 62.68 449 62 449 C60.33 450.33 60.33 450.33 59 452 C59 452.66 59 453.32 59 454 C57.02 454.66 55.04 455.32 53 456 C53 456.66 53 457.32 53 458 C52.16 458.37 52.16 458.37 51.31 458.75 C48.58 460.23 46.32 461.93 44 464 C44 464.66 44 465.32 44 466 C43.27 466.11 42.54 466.23 41.79 466.34 C38.92 467.02 36.95 468 34.44 469.5 C31.62 471.18 29.22 472.36 26 473 C26 473.66 26 474.32 26 475 C25.07 474.96 24.14 474.92 23.19 474.88 C19.84 474.73 19.84 474.73 17 477 C14.99 477.58 12.97 478.09 10.94 478.56 C6.85 479.47 6.85 479.47 3 481 C3 651.61 3 822.22 3 998 C13.56 998 24.12 998 35 998 C35 995.82 35.01 993.64 35.01 991.4 C35.09 939.75 35.18 888.09 35.28 836.44 C35.29 830.09 35.31 823.74 35.32 817.38 C35.32 816.12 35.32 814.86 35.32 813.55 C35.36 793.05 35.4 772.55 35.43 752.05 C35.46 731.03 35.5 710.01 35.54 688.99 C35.57 676.01 35.59 663.03 35.61 650.05 C35.62 641.16 35.64 632.27 35.66 623.38 C35.67 618.24 35.68 613.1 35.68 607.97 C35.69 603.27 35.7 598.58 35.71 593.88 C35.72 592.18 35.72 590.47 35.72 588.77 C35.72 586.46 35.73 584.16 35.74 581.85 C35.74 580.57 35.74 579.28 35.75 577.96 C36 575 36 575 38 573 C38.31 571.87 38.62 570.73 38.94 569.56 C39.98 566.06 40.47 565.32 43 563 C44.19 560.4 44.19 560.4 45 558 C45.99 558 46.98 558 48 558 C48 557.01 48 556.02 48 555 C49.13 554.71 50.27 554.42 51.44 554.12 C52.61 553.75 53.79 553.38 55 553 C55.33 552.34 55.66 551.68 56 551 C60.6 548.41 65.29 548.71 70.42 548.73 C71.85 548.73 71.85 548.73 73.3 548.72 C76.5 548.71 79.69 548.71 82.89 548.71 C85.18 548.7 87.47 548.7 89.76 548.69 C95.98 548.67 102.21 548.67 108.43 548.67 C113.63 548.66 118.82 548.66 124.02 548.65 C135.58 548.63 147.14 548.63 158.7 548.63 C159.4 548.63 160.09 548.63 160.8 548.63 C161.5 548.63 162.19 548.63 162.91 548.63 C174.15 548.63 185.4 548.61 196.64 548.58 C208.2 548.55 219.75 548.54 231.31 548.54 C237.79 548.54 244.28 548.54 250.76 548.52 C256.86 548.5 262.96 548.5 269.06 548.51 C271.3 548.51 273.53 548.51 275.77 548.5 C278.83 548.48 281.89 548.49 284.95 548.51 C286.26 548.49 286.26 548.49 287.61 548.47 C296.6 548.57 303.76 551.88 311 557 C311.99 557.33 312.98 557.66 314 558 C315.03 559.78 315.03 559.78 316 562 C317.28 564.3 318.58 566.59 319.88 568.88 C322.07 573.03 322.13 576.35 322.14 580.99 C322.14 582.07 322.14 582.07 322.15 583.17 C322.16 585.6 322.16 588.03 322.16 590.46 C322.16 592.2 322.17 593.95 322.17 595.7 C322.19 600.52 322.19 605.35 322.2 610.18 C322.21 615.45 322.22 620.72 322.24 626 C322.26 636.25 322.28 646.5 322.3 656.74 C322.32 668.59 322.35 680.44 322.37 692.29 C322.44 723.59 322.5 754.89 322.56 786.19 C322.71 856.09 322.85 925.98 323 998 C555.65 998 788.3 998 1028 998 C1028.1 912.92 1028.21 827.84 1028.31 740.19 C1028.38 699.82 1028.38 699.82 1028.45 658.64 C1028.47 634.62 1028.47 634.62 1028.48 610.59 C1028.48 599.14 1028.5 587.7 1028.53 576.25 C1028.56 564.58 1028.57 552.92 1028.57 541.26 C1028.56 534.92 1028.57 528.59 1028.6 522.25 C1028.62 516.53 1028.62 510.81 1028.6 505.09 C1028.6 503.02 1028.61 500.94 1028.62 498.87 C1028.64 496.05 1028.63 493.24 1028.62 490.43 C1028.63 489.61 1028.64 488.79 1028.66 487.94 C1028.67 485.43 1028.67 485.43 1028 482 C1025.72 479.92 1025.72 479.92 1023 479 C1022.26 478.7 1021.52 478.4 1020.75 478.09 C1015.9 476.51 1011.15 475 1006 475 C1006 474.34 1006 473.68 1006 473 C1004.82 472.59 1003.65 472.17 1002.44 471.75 C999.5 470.66 996.87 469.42 994.19 467.81 C991.18 465.75 991.18 465.75 988 466 C988 465.34 988 464.68 988 464 C987.01 464 986.02 464 985 464 C984.75 463.41 984.51 462.81 984.25 462.2 C982.81 459.67 981.35 458.46 979 456.75 C978.3 456.23 977.6 455.71 976.88 455.17 C975.09 453.82 975.09 453.82 973 454 C973 453.34 973 452.68 973 452 C972.01 451.67 971.02 451.34 970 451 C970 450.34 970 449.68 970 449 C969.34 449 968.68 449 968 449 C967.73 448.2 967.46 447.39 967.19 446.56 C966.8 445.72 966.4 444.87 966 444 C965.01 443.67 964.02 443.34 963 443 C963 442.01 963 441.02 963 440 C961.06 438.29 961.06 438.29 959 437 C957.46 438.37 957.46 438.37 956 440 C956 440.66 956 441.32 956 442 C955.34 442 954.68 442 954 442 C952.47 443.52 952.47 443.52 950.88 445.5 C941.17 456.92 941.17 456.92 937 459 C937 459.66 937 460.32 937 461 C936.11 461.25 935.23 461.5 934.31 461.75 C931 462.8 931 462.8 928.72 464.86 C916.84 474.23 900.71 478.72 886 481 C884.9 481.18 883.79 481.36 882.65 481.55 C878.59 482.05 874.65 482.18 870.56 482.19 C869.85 482.2 869.14 482.21 868.4 482.22 C863.27 482.24 858.95 481.34 854 480 C851.9 479.66 849.8 479.34 847.69 479.06 C841.71 478.18 835.67 477.16 830 475 C829.67 474.34 829.34 473.68 829 473 C828.22 472.75 827.43 472.5 826.62 472.25 C821.41 470.45 816.8 467.71 812 465 C811.3 464.62 810.6 464.25 809.88 463.86 C806.34 461.94 803.75 459.92 801 457 C799.9 456.08 798.8 455.16 797.69 454.25 C791.84 449.28 787.06 443.5 783 437 C780.96 438.36 780.96 438.36 779 440 C779 440.66 779 441.32 779 442 C778.34 442 777.68 442 777 442 C774.83 443.83 774.83 443.83 773 446 C773 446.66 773 447.32 773 448 C772.04 448.4 772.04 448.4 771.06 448.81 C768.67 449.89 768.67 449.89 768 453 C766.68 453.69 765.35 454.36 764 455 C762.2 456.67 760.55 458.45 758.88 460.25 C756.74 462.25 754.56 463.57 752 465 C751.14 465.48 750.28 465.97 749.39 466.46 C746.6 467.99 743.8 469.5 741 471 C739.85 471.61 739.85 471.61 738.68 472.24 C735.1 474.1 731.96 475.31 728 476 C726.78 476.5 725.57 476.99 724.31 477.5 C720.43 479.01 716.83 479.46 712.69 479.69 C709.79 479.96 709.79 479.96 706.25 481.01 C701.8 482.17 697.58 482.3 693 482.25 C691.87 482.26 691.87 482.26 690.71 482.27 C685.48 482.26 681.04 481.35 676 480 C674.74 480 673.48 480 672.19 480 C669 480 669 480 666 478 C662.58 476.95 659.14 476.04 655.69 475.12 C651.03 473.7 646.38 472.15 642 470 C641.67 469.34 641.34 468.68 641 468 C638.53 466.66 635.99 465.5 633.45 464.32 C631 463 631 463 629.37 461.34 C627.96 459.65 627.96 459.65 625 460 C624.67 459.01 624.34 458.02 624 457 C622.34 455.36 622.34 455.36 620.31 453.75 C616.87 450.85 614.01 447.82 611.23 444.29 C610.62 443.65 610.62 443.65 610 443 C609.34 443 608.68 443 608 443 C608 442.34 608 441.68 608 441 C607.34 440.34 606.68 439.68 606 439 C605.34 438.34 604.68 437.68 604 437 C603.06 438.07 603.06 438.07 602.1 439.15 C600.88 440.53 600.88 440.53 599.62 441.94 C598.81 442.85 598 443.77 597.16 444.71 C595 447 595 447 593 448 C592.27 449.98 591.6 451.98 591 454 C590.34 454 589.68 454 589 454 C589 454.66 589 455.32 589 456 C588.46 456.06 587.93 456.12 587.38 456.19 C584.55 457.15 582.74 458.78 580.52 460.73 C578.5 462.42 576.27 463.67 574 465 C573.34 465.66 572.68 466.32 572 467 C571.32 467.16 570.64 467.33 569.94 467.5 C569.3 467.66 568.66 467.83 568 468 C567.67 468.66 567.34 469.32 567 470 C565 470.96 565 470.96 562.44 471.94 C561.53 472.29 560.61 472.63 559.68 472.99 C558.79 473.32 557.91 473.66 557 474 C556.33 474.27 555.67 474.54 554.98 474.82 C547.28 477.9 539.17 479.7 531 481 C530.07 481.18 529.14 481.36 528.18 481.55 C524.16 482.12 520.24 482.19 516.19 482.19 C515.39 482.19 514.59 482.19 513.76 482.19 C508.22 482.14 503.37 481.43 498 480 C497.07 480.03 496.14 480.06 495.18 480.09 C491.43 479.98 488.83 478.99 485.38 477.56 C481.92 476.15 478.62 474.88 475 474 C473.44 473.39 471.9 472.74 470.38 472.06 C469.21 471.55 469.21 471.55 468.02 471.04 C466 470 466 470 464 468 C462.79 467.54 462.79 467.54 461.56 467.06 C458.93 465.97 457.97 464.97 456 463 C455.05 462.53 454.1 462.05 453.12 461.56 C450.03 460.01 447.68 458.16 445 456 C444.34 456 443.68 456 443 456 C443 455.34 443 454.68 443 454 C442.34 454 441.68 454 441 454 C440.74 453.42 440.48 452.83 440.22 452.23 C438.9 449.82 437.45 448.18 435.5 446.25 C434.89 445.64 434.28 445.02 433.66 444.39 C432.11 442.79 432.11 442.79 430 443 C429.67 441.35 429.34 439.7 429 438 C425.82 437.67 425.82 437.67 423.5 440.19 C420.96 442.87 420.96 442.87 419.31 445.81 C418.88 446.53 418.45 447.26 418 448 C416.33 448 414.67 448 413 448 C413.33 449.32 413.66 450.64 414 452 C412.51 452.93 412.51 452.93 411 453.88 C409.51 454.93 409.51 454.93 408 456 C408 456.66 408 457.32 408 458 C407.42 458.27 406.84 458.54 406.25 458.81 C403.96 460.02 402.09 461.4 400.06 463 C397.13 465.25 394.49 466.73 391 468 C390.67 468.66 390.34 469.32 390 470 C384.58 472.66 378.81 474.39 373 476 C371.73 476.51 370.46 477.04 369.19 477.56 C365.33 479.06 361.7 479.47 357.59 479.69 C354.85 479.94 354.85 479.94 351.75 481.01 C347.42 482.15 343.58 482.3 339.12 482.25 C338.33 482.25 337.53 482.24 336.71 482.24 C331.95 482.16 327.54 481.8 322.94 480.5 C320.76 479.94 318.68 479.74 316.44 479.56 C311.92 479.12 308.17 477.71 304 476 C303.07 475.71 302.14 475.42 301.19 475.12 C291.02 471.54 279.67 466.71 272 459 C271.34 459 270.68 459 270 459 C269.75 458.4 269.5 457.8 269.25 457.19 C267.81 454.66 266.47 453.5 264 452 C263.01 452 262.02 452 261 452 C261 451.01 261 450.02 261 449 C258.73 446.48 258.73 446.48 256 444 C253.67 441.67 251.33 439.33 249 437 C246.55 439.2 245.02 440.96 243.56 443.94 C240.71 449.52 235.8 453.11 231 457 C230.23 457.64 229.47 458.29 228.68 458.95 C223.66 463.1 218.95 466.36 213 469 C213 469.66 213 470.32 213 471 C211.35 471 209.7 471 208 471 C208 471.66 208 472.32 208 473 C207.01 473.15 207.01 473.15 206 473.31 C202.87 473.95 202.87 473.95 199.5 475.38 C193.83 477.56 187.94 478.76 182 480 C181.04 480.21 180.08 480.42 179.09 480.63 C168.11 482.77 156.07 483.31 145.18 480.44 C142.9 479.89 142.9 479.89 140.14 480.09 C136.42 479.98 133.81 478.98 130.38 477.56 C126.29 475.83 126.29 475.83 122.05 474.55 C119.86 473.96 118.1 473.14 116.1 472.07 C115.37 471.69 114.65 471.3 113.9 470.91 C113.15 470.51 112.4 470.1 111.62 469.69 C110.88 469.3 110.14 468.91 109.38 468.5 C106 466.71 102.73 464.88 99.59 462.71 C97.24 460.82 97.24 460.82 95 461 C95 460.34 95 459.68 95 459 C93.51 457.64 93.51 457.64 91.62 456.38 C91 455.93 90.37 455.48 89.73 455.02 C88.05 453.83 88.05 453.83 86 454 C86 453.01 86 452.02 86 451 C84.35 450.34 82.7 449.68 81 449 C81 448.34 81 447.68 81 447 C80.34 447 79.68 447 79 447 C78.5 444.52 78.5 444.52 78 442 C77.34 442 76.68 442 76 442 C75.71 441.36 75.42 440.72 75.12 440.06 C74.17 437.85 74.17 437.85 72 437 Z M243 438 C243.33 438.99 243.66 439.98 244 441 C244.66 440.67 245.32 440.34 246 440 C246 439.34 246 438.68 246 438 C245.01 438 244.02 438 243 438 Z M952 439 C951.67 439.66 951.34 440.32 951 441 C951.66 441 952.32 441 953 441 C952.67 440.34 952.34 439.68 952 439 Z M1129 440 C1129.66 440.66 1130.32 441.32 1131 442 C1131 441.34 1131 440.68 1131 440 C1130.34 440 1129.68 440 1129 440 Z M238 445 C238.33 445.99 238.66 446.98 239 448 C239.66 447.67 240.32 447.34 241 447 C241 446.34 241 445.68 241 445 C240.01 445 239.02 445 238 445 Z M59 448 C58.67 448.99 58.34 449.98 58 451 C58.99 450.67 59.98 450.34 61 450 C61 449.34 61 448.68 61 448 C60.34 448 59.68 448 59 448 Z M235 448 C235 448.66 235 449.32 235 450 C234.34 450 233.68 450 233 450 C233 450.99 233 451.98 233 453 C234.32 452.34 235.64 451.68 237 451 C237 450.01 237 449.02 237 448 C236.34 448 235.68 448 235 448 Z M588 450 C588 450.99 588 451.98 588 453 C588.99 452.67 589.98 452.34 591 452 C591 451.34 591 450.68 591 450 C590.01 450 589.02 450 588 450 Z M759 455 C759 455.99 759 456.98 759 458 C759.66 457.67 760.32 457.34 761 457 C761 456.34 761 455.68 761 455 C760.34 455 759.68 455 759 455 Z M45 458 C45 458.99 45 459.98 45 461 C45.66 460.67 46.32 460.34 47 460 C46.34 459.34 45.68 458.68 45 458 Z M755 458 C755 458.99 755 459.98 755 461 C755.99 460.67 756.98 460.34 758 460 C757.67 459.34 757.34 458.68 757 458 C756.34 458 755.68 458 755 458 Z M400 459 C400 459.66 400 460.32 400 461 C400.66 460.67 401.32 460.34 402 460 C401.34 459.67 400.68 459.34 400 459 Z M220 460 C220 460.99 220 461.98 220 463 C220.66 462.67 221.32 462.34 222 462 C221.34 461.34 220.68 460.68 220 460 Z M1105 461 C1105 461.66 1105 462.32 1105 463 C1105.66 462.67 1106.32 462.34 1107 462 C1106.34 461.67 1105.68 461.34 1105 461 Z M925 463 C925 463.99 925 464.98 925 466 C925.99 465.67 926.98 465.34 928 465 C928 464.34 928 463.68 928 463 C927.01 463 926.02 463 925 463 Z M326 479 C325.67 479.66 325.34 480.32 325 481 C325.66 481 326.32 481 327 481 C326.67 480.34 326.34 479.68 326 479 Z M681 479 C680.67 479.66 680.34 480.32 680 481 C680.66 481 681.32 481 682 481 C681.67 480.34 681.34 479.68 681 479 Z M75 589 C74.9 591.17 74.87 593.34 74.87 595.5 C74.87 596.2 74.87 596.89 74.87 597.6 C74.86 599.94 74.86 602.29 74.87 604.63 C74.86 606.32 74.86 608.01 74.86 609.69 C74.85 614.35 74.85 619.01 74.85 623.66 C74.85 628.68 74.85 633.69 74.84 638.71 C74.84 648.54 74.83 658.37 74.83 668.2 C74.83 676.19 74.83 684.17 74.83 692.16 C74.82 714.78 74.81 737.39 74.81 760.01 C74.81 761.23 74.81 762.45 74.81 763.71 C74.81 764.93 74.81 766.15 74.81 767.41 C74.82 787.23 74.81 807.04 74.79 826.86 C74.78 847.18 74.77 867.5 74.77 887.82 C74.77 899.24 74.77 910.66 74.76 922.07 C74.75 931.79 74.75 941.52 74.75 951.24 C74.76 956.2 74.76 961.16 74.75 966.13 C74.74 970.67 74.74 975.2 74.75 979.74 C74.75 981.39 74.75 983.04 74.74 984.69 C74.74 986.91 74.74 989.14 74.75 991.37 C74.75 992.61 74.75 993.85 74.75 995.13 C74.7 998.13 74.7 998.13 77 1000 C79.72 1000.19 82.34 1000.26 85.06 1000.24 C85.9 1000.24 86.75 1000.24 87.62 1000.25 C90.46 1000.25 93.3 1000.24 96.14 1000.23 C98.17 1000.23 100.2 1000.23 102.23 1000.23 C107.75 1000.23 113.28 1000.22 118.8 1000.2 C124.57 1000.19 130.34 1000.19 136.1 1000.19 C147.03 1000.18 157.96 1000.16 168.89 1000.14 C181.33 1000.12 193.77 1000.11 206.21 1000.1 C231.81 1000.08 257.4 1000.04 283 1000 C283.33 999.34 283.66 998.68 284 998 C284.33 998 284.66 998 285 998 C285 863.03 285 728.06 285 589 C281.82 587.41 278.4 587.86 274.91 587.87 C274.06 587.87 273.22 587.87 272.34 587.87 C269.49 587.86 266.64 587.87 263.79 587.87 C261.75 587.87 259.71 587.87 257.67 587.87 C252.13 587.86 246.58 587.86 241.03 587.87 C235.24 587.87 229.44 587.87 223.65 587.86 C213.92 587.86 204.19 587.86 194.46 587.87 C183.2 587.88 171.93 587.87 160.67 587.87 C151.01 587.86 141.36 587.86 131.7 587.87 C125.93 587.87 120.15 587.87 114.38 587.86 C108.95 587.86 103.53 587.86 98.1 587.87 C96.1 587.87 94.11 587.87 92.11 587.87 C89.39 587.86 86.68 587.87 83.97 587.87 C83.16 587.87 82.36 587.87 81.54 587.87 C77.97 587.55 77.97 587.55 75 589 Z M5 999 C5 999.33 5 999.66 5 1000 C14.9 1000 24.8 1000 35 1000 C35 999.67 35 999.34 35 999 C25.1 999 15.2 999 5 999 Z M325 999 C325 999.33 325 999.66 325 1000 C556.66 1000 788.32 1000 1027 1000 C1027 999.67 1027 999.34 1027 999 C795.34 999 563.68 999 325 999 Z M-76 1042 C-76.33 1041.67 -76.66 1041.34 -77 1041 C-77.99 1041 -78.98 1041 -80 1041 C-81.11 1042.88 -81.11 1042.88 -82 1045 C-81.67 1045.66 -81.34 1046.32 -81 1047 C-81.62 1047.83 -82.24 1048.65 -82.88 1049.5 C-87.45 1056.46 -87.29 1064.21 -87.23 1072.25 C-87.23 1073.3 -87.23 1074.35 -87.23 1075.43 C-87.23 1077.64 -87.22 1079.85 -87.21 1082.06 C-87.19 1085.45 -87.19 1088.85 -87.19 1092.24 C-87.18 1094.39 -87.17 1096.54 -87.17 1098.68 C-87.17 1099.7 -87.17 1100.72 -87.16 1101.77 C-87.16 1102.71 -87.15 1103.64 -87.15 1104.61 C-87.14 1105.43 -87.14 1106.26 -87.13 1107.11 C-87.21 1109.01 -87.21 1109.01 -86 1110 C-83.38 1110.1 -80.78 1110.13 -78.16 1110.12 C-77.32 1110.13 -76.48 1110.13 -75.62 1110.13 C-72.77 1110.13 -69.92 1110.13 -67.07 1110.12 C-65.02 1110.12 -62.96 1110.12 -60.91 1110.13 C-55.21 1110.13 -49.51 1110.13 -43.81 1110.12 C-37.63 1110.12 -31.45 1110.12 -25.27 1110.12 C-14.42 1110.12 -3.57 1110.12 7.28 1110.12 C18.93 1110.11 30.57 1110.11 42.22 1110.11 C43.32 1110.11 43.32 1110.11 44.45 1110.11 C48.19 1110.11 51.93 1110.11 55.68 1110.11 C82.81 1110.12 109.95 1110.11 137.08 1110.11 C163.96 1110.1 190.84 1110.1 217.72 1110.09 C218.97 1110.09 218.97 1110.09 220.25 1110.09 C227.87 1110.09 235.49 1110.09 243.1 1110.09 C262.04 1110.09 280.98 1110.09 299.92 1110.09 C300.78 1110.09 301.65 1110.09 302.54 1110.09 C344.52 1110.09 386.5 1110.08 428.48 1110.08 C443.05 1110.07 457.62 1110.07 472.2 1110.07 C473.1 1110.07 474 1110.07 474.94 1110.07 C516.93 1110.06 558.93 1110.06 600.92 1110.06 C603.65 1110.05 606.38 1110.05 609.1 1110.05 C627.16 1110.05 645.23 1110.05 663.29 1110.05 C699.23 1110.05 735.17 1110.05 771.12 1110.04 C772.83 1110.04 774.54 1110.04 776.25 1110.04 C853.33 1110.04 930.41 1110.03 1007.49 1110.02 C1008.21 1110.02 1008.94 1110.02 1009.68 1110.02 C1045.79 1110.01 1081.89 1110.01 1118 1110 C1118.13 1102.96 1118.21 1095.91 1118.27 1088.87 C1118.3 1086.48 1118.33 1084.09 1118.38 1081.69 C1118.44 1078.24 1118.47 1074.78 1118.49 1071.33 C1118.51 1070.27 1118.54 1069.22 1118.57 1068.14 C1118.57 1059.93 1116.88 1051.63 1111.46 1045.16 C1110.05 1043.79 1110.05 1043.79 1108 1044 C1108 1043.34 1108 1042.68 1108 1042 C1102.27 1038.18 1096.41 1037.71 1089.68 1037.75 C1088.86 1037.75 1088.04 1037.74 1087.2 1037.74 C1084.46 1037.73 1081.72 1037.74 1078.98 1037.75 C1076.99 1037.74 1075 1037.74 1073.01 1037.74 C1067.51 1037.73 1062.02 1037.73 1056.52 1037.74 C1050.56 1037.74 1044.59 1037.73 1038.62 1037.73 C1028.15 1037.72 1017.68 1037.72 1007.21 1037.72 C995.97 1037.73 984.74 1037.72 973.5 1037.72 C972.79 1037.72 972.08 1037.72 971.35 1037.72 C968.46 1037.72 965.58 1037.71 962.69 1037.71 C933.35 1037.7 904.01 1037.69 874.67 1037.7 C870.62 1037.7 866.56 1037.7 862.51 1037.7 C861.7 1037.7 860.9 1037.7 860.07 1037.7 C842.23 1037.7 824.39 1037.7 806.55 1037.69 C802.47 1037.69 798.4 1037.69 794.33 1037.69 C792.69 1037.69 791.06 1037.69 789.42 1037.69 C788.21 1037.69 788.21 1037.69 786.97 1037.69 C785.33 1037.69 783.69 1037.69 782.05 1037.69 C735.55 1037.68 689.04 1037.68 642.54 1037.68 C641.25 1037.68 641.25 1037.68 639.93 1037.68 C630.32 1037.68 620.72 1037.68 611.11 1037.68 C609.81 1037.68 609.81 1037.68 608.49 1037.68 C603.23 1037.68 603.23 1037.68 597.97 1037.68 C542.49 1037.69 487.01 1037.68 431.53 1037.66 C417.55 1037.66 403.57 1037.65 389.59 1037.65 C388.73 1037.65 387.87 1037.65 386.99 1037.65 C360.46 1037.64 333.94 1037.64 307.42 1037.64 C306.59 1037.64 305.76 1037.64 304.9 1037.64 C286.63 1037.63 268.35 1037.64 250.08 1037.64 C243.54 1037.64 237.01 1037.64 230.47 1037.64 C228.84 1037.64 227.21 1037.64 225.59 1037.64 C199.65 1037.64 173.72 1037.63 147.79 1037.62 C120.95 1037.61 94.11 1037.61 67.27 1037.62 C64.39 1037.62 61.51 1037.62 58.63 1037.62 C57.92 1037.62 57.21 1037.62 56.49 1037.62 C45.28 1037.63 34.07 1037.62 22.87 1037.61 C11.86 1037.6 0.85 1037.61 -10.17 1037.62 C-16.06 1037.62 -21.95 1037.63 -27.85 1037.61 C-33.2 1037.6 -38.56 1037.61 -43.92 1037.62 C-45.85 1037.62 -47.78 1037.62 -49.71 1037.61 C-52.32 1037.6 -54.94 1037.61 -57.55 1037.63 C-58.3 1037.62 -59.04 1037.61 -59.81 1037.6 C-65.84 1037.67 -70.59 1039.29 -76 1042 Z M1150 1133 C1151 1135 1151 1135 1151 1135 Z M-109 1143 C-108 1145 -108 1145 -108 1145 Z " fill="#000000" transform="translate(124,64)"/>
<path d="M0 0 C0.99 -0.01 1.97 -0.01 2.99 -0.02 C6.29 -0.03 9.59 -0.03 12.9 -0.03 C15.26 -0.04 17.63 -0.05 20 -0.06 C26.44 -0.08 32.87 -0.09 39.3 -0.09 C43.33 -0.1 47.35 -0.1 51.37 -0.11 C62.51 -0.13 73.65 -0.15 84.79 -0.15 C85.5 -0.15 86.22 -0.15 86.95 -0.15 C88.39 -0.15 89.84 -0.15 91.28 -0.15 C92 -0.15 92.72 -0.15 93.46 -0.15 C94.17 -0.15 94.89 -0.15 95.63 -0.15 C107.26 -0.16 118.88 -0.18 130.51 -0.22 C142.46 -0.26 154.41 -0.28 166.36 -0.28 C173.06 -0.28 179.76 -0.29 186.47 -0.32 C192.77 -0.34 199.08 -0.34 205.39 -0.33 C207.7 -0.33 210.01 -0.33 212.32 -0.35 C215.49 -0.37 218.65 -0.36 221.81 -0.34 C223.17 -0.36 223.17 -0.36 224.56 -0.38 C232.35 -0.28 238.72 2.35 244.66 7.4 C247.68 13.2 249 19.56 247.28 25.96 C245.2 31.05 241.78 35.29 237.16 38.27 C231.01 40.2 224.97 40.56 218.57 40.51 C217.19 40.52 217.19 40.52 215.78 40.52 C212.71 40.52 209.64 40.51 206.57 40.5 C204.37 40.5 202.16 40.5 199.95 40.5 C193.97 40.5 187.99 40.49 182.01 40.48 C175.76 40.46 169.51 40.46 163.25 40.46 C152.76 40.46 142.27 40.44 131.78 40.43 C120.97 40.41 110.17 40.39 99.37 40.38 C98.7 40.38 98.03 40.38 97.35 40.38 C94 40.38 90.66 40.38 87.31 40.37 C59.59 40.35 31.88 40.32 4.16 40.27 C4.14 74.02 4.12 107.77 4.11 141.52 C4.11 145.52 4.1 149.52 4.1 153.51 C4.1 154.71 4.1 154.71 4.1 155.92 C4.1 168.76 4.09 181.59 4.08 194.42 C4.07 207.62 4.07 220.81 4.06 234.01 C4.06 242.13 4.06 250.26 4.05 258.38 C4.05 263.97 4.04 269.57 4.05 275.16 C4.05 278.37 4.04 281.58 4.04 284.8 C4.03 288.31 4.04 291.82 4.04 295.33 C4.03 296.8 4.03 296.8 4.03 298.29 C4.05 309.32 4.68 320.22 5.16 331.27 C182.04 331.6 358.92 331.93 541.16 332.27 C540.83 236.24 540.5 140.21 540.16 41.27 C467.04 41.02 467.04 41.02 393.92 40.8 C379.79 40.74 379.79 40.74 373.18 40.71 C368.56 40.69 363.93 40.68 359.31 40.67 C353.41 40.66 347.51 40.64 341.61 40.61 C339.45 40.6 337.28 40.59 335.12 40.59 C332.19 40.59 329.27 40.57 326.35 40.55 C325.07 40.56 325.07 40.56 323.77 40.56 C319.16 40.51 315.51 39.99 311.16 38.27 C310.48 38.15 309.8 38.03 309.1 37.9 C306.2 36.97 304.35 35.34 302.16 33.27 C302.16 32.28 302.16 31.29 302.16 30.27 C301.17 30.27 300.18 30.27 299.16 30.27 C299.03 29.74 298.91 29.2 298.78 28.65 C298.17 26.14 298.17 26.14 297.03 23.27 C296.11 20.11 296.16 19.28 297.16 16.27 C297.3 15.06 297.45 13.84 297.6 12.59 C297.78 11.49 297.97 10.4 298.16 9.27 C298.82 8.94 299.48 8.61 300.16 8.27 C300.49 7.28 300.82 6.29 301.16 5.27 C304.93 2.02 308.39 0.03 313.42 0.02 C314.27 0.01 315.12 0.01 315.99 0 C316.92 0.01 317.85 0.01 318.8 0.01 C320.29 0.01 320.29 0.01 321.8 0 C325.13 -0.01 328.45 -0 331.78 -0 C334.16 -0 336.54 -0.01 338.92 -0.02 C344.72 -0.03 350.52 -0.03 356.32 -0.03 C361.03 -0.03 365.75 -0.03 370.47 -0.03 C371.14 -0.03 371.81 -0.03 372.5 -0.03 C373.87 -0.04 375.23 -0.04 376.59 -0.04 C389.39 -0.05 402.18 -0.05 414.97 -0.04 C426.67 -0.04 438.36 -0.05 450.06 -0.07 C462.07 -0.08 474.09 -0.09 486.1 -0.09 C492.84 -0.09 499.58 -0.09 506.33 -0.1 C512.67 -0.12 519.01 -0.11 525.36 -0.1 C527.68 -0.1 530.01 -0.1 532.34 -0.11 C535.52 -0.12 538.7 -0.11 541.88 -0.1 C542.79 -0.11 543.71 -0.11 544.66 -0.12 C550.67 -0.07 555.57 1.09 561.16 3.27 C562.09 3.58 563.01 3.89 563.97 4.21 C566.63 5.5 568.17 7.1 570.16 9.27 C570.8 9.85 571.44 10.43 572.1 11.02 C576.15 15.45 579.42 20.22 580.16 26.27 C580.49 26.6 580.82 26.93 581.16 27.27 C581.26 28.97 581.28 30.66 581.28 32.36 C581.29 34.02 581.29 34.02 581.29 35.71 C581.29 36.94 581.29 38.18 581.29 39.45 C581.29 40.74 581.29 42.04 581.29 43.38 C581.29 47 581.29 50.61 581.29 54.23 C581.29 58.13 581.29 62.02 581.29 65.92 C581.3 73.55 581.3 81.19 581.29 88.83 C581.29 95.03 581.29 101.24 581.29 107.45 C581.29 108.77 581.29 108.77 581.29 110.12 C581.29 111.91 581.29 113.7 581.29 115.49 C581.3 132.3 581.29 149.11 581.29 165.93 C581.28 180.36 581.28 194.8 581.29 209.24 C581.29 225.99 581.3 242.73 581.29 259.48 C581.29 261.26 581.29 263.05 581.29 264.83 C581.29 265.71 581.29 266.59 581.29 267.5 C581.29 273.7 581.29 279.9 581.29 286.1 C581.3 293.65 581.3 301.2 581.29 308.76 C581.29 312.61 581.29 316.47 581.29 320.32 C581.29 324.5 581.29 328.67 581.29 332.85 C581.29 334.08 581.29 335.3 581.29 336.57 C581.29 337.68 581.29 338.79 581.28 339.94 C581.28 340.91 581.28 341.87 581.28 342.86 C581.16 345.27 581.16 345.27 580.16 348.27 C579.5 348.27 578.84 348.27 578.16 348.27 C578.16 349.92 578.16 351.57 578.16 353.27 C577.5 353.27 576.84 353.27 576.16 353.27 C576.07 354.02 575.98 354.76 575.88 355.52 C574.47 360.91 569.68 364.59 565.17 367.61 C557.38 371.78 549.13 372.57 540.43 372.53 C539.49 372.53 538.55 372.54 537.58 372.54 C534.43 372.55 531.28 372.54 528.12 372.53 C525.84 372.54 523.56 372.54 521.27 372.55 C515 372.56 508.73 372.55 502.45 372.55 C496.38 372.55 490.31 372.56 484.24 372.56 C470.29 372.58 456.34 372.58 442.38 372.58 C431.61 372.57 420.84 372.58 410.06 372.58 C408.51 372.58 406.97 372.58 405.42 372.58 C403.08 372.58 400.75 372.58 398.42 372.59 C376.73 372.59 355.03 372.6 333.34 372.59 C332.12 372.59 332.12 372.59 330.87 372.59 C326.72 372.59 322.58 372.59 318.43 372.59 C317.61 372.59 316.79 372.59 315.94 372.59 C314.28 372.59 312.61 372.59 310.95 372.59 C285.05 372.58 259.16 372.59 233.26 372.61 C204.16 372.63 175.07 372.64 145.97 372.64 C142.86 372.64 139.76 372.64 136.66 372.64 C135.51 372.64 135.51 372.64 134.34 372.64 C122.81 372.64 111.28 372.64 99.75 372.65 C86.64 372.66 73.52 372.67 60.41 372.65 C53.72 372.65 47.02 372.65 40.33 372.66 C34.21 372.67 28.08 372.67 21.95 372.65 C19.74 372.65 17.52 372.65 15.31 372.66 C-14.25 372.76 -14.25 372.76 -26.36 360.77 C-29.67 357.1 -33.84 351.42 -33.84 346.27 C-34.5 346.27 -35.16 346.27 -35.84 346.27 C-37.02 339.76 -36.98 333.34 -36.98 326.73 C-36.98 325.46 -36.98 324.2 -36.98 322.9 C-36.99 319.4 -36.99 315.9 -36.99 312.4 C-36.99 308.62 -36.99 304.84 -37 301.06 C-37.01 293.66 -37.01 286.27 -37.01 278.87 C-37.01 272.86 -37.01 266.85 -37.01 260.84 C-37.02 243.8 -37.03 226.77 -37.03 209.73 C-37.03 208.81 -37.03 207.89 -37.03 206.95 C-37.03 206.03 -37.03 205.11 -37.03 204.16 C-37.03 189.25 -37.04 174.34 -37.05 159.43 C-37.06 144.12 -37.07 128.81 -37.07 113.5 C-37.07 104.9 -37.07 96.3 -37.08 87.71 C-37.09 80.39 -37.09 73.08 -37.09 65.77 C-37.08 62.03 -37.08 58.3 -37.09 54.57 C-37.1 50.52 -37.1 46.48 -37.09 42.44 C-37.09 41.25 -37.1 40.07 -37.1 38.85 C-37.1 37.77 -37.1 36.69 -37.09 35.57 C-37.09 34.64 -37.09 33.71 -37.09 32.74 C-36.83 30.12 -36.09 28.57 -34.84 26.27 C-34.59 24.73 -34.59 24.73 -34.34 23.15 C-33.84 20.27 -33.84 20.27 -31.84 18.27 C-31.56 17.67 -31.28 17.07 -30.99 16.44 C-29.54 13.7 -27.7 11.8 -25.53 9.59 C-24.77 8.8 -24.01 8.01 -23.23 7.2 C-20.67 5.14 -19.07 4.61 -15.84 4.27 C-15.84 3.61 -15.84 2.95 -15.84 2.27 C-10.47 0.06 -5.7 -0.02 0 0 Z M241.16 27.27 C242.64 28.26 242.64 28.26 244.16 29.27 C244.16 28.61 244.16 27.95 244.16 27.27 C243.17 27.27 242.18 27.27 241.16 27.27 Z M238.16 31.27 C237.17 31.77 237.17 31.77 236.16 32.27 C236.16 33.26 236.16 34.25 236.16 35.27 C237.48 34.61 238.8 33.95 240.16 33.27 C239.5 32.61 238.84 31.95 238.16 31.27 Z M573.16 355.27 C574.16 357.27 574.16 357.27 574.16 357.27 Z M563.16 362.27 C563.16 363.26 563.16 364.25 563.16 365.27 C563.82 364.94 564.48 364.61 565.16 364.27 C564.5 363.61 563.84 362.95 563.16 362.27 Z M-15.84 365.27 C-14.84 367.27 -14.84 367.27 -14.84 367.27 Z " fill="#000000" transform="translate(520.8414916992188,611.7258453369141)"/>
<path d="M0 0 C6.35 0.14 11.99 2.89 17.12 6.5 C21.89 11.88 21.71 16.8 21.66 23.78 C21.66 24.86 21.66 25.95 21.67 27.06 C21.67 29.35 21.66 31.64 21.65 33.93 C21.63 37.42 21.65 40.91 21.67 44.4 C21.67 46.63 21.66 48.86 21.66 51.09 C21.66 52.13 21.67 53.17 21.68 54.24 C21.6 60.54 20.82 64.35 17.12 69.5 C12.02 74.22 5.46 73.88 -1.12 73.74 C-3.88 73.5 -3.88 73.5 -5.88 72.5 C-5.88 71.84 -5.88 71.18 -5.88 70.5 C-6.66 70.4 -7.44 70.29 -8.25 70.19 C-10.88 69.5 -10.88 69.5 -12.88 66.5 C-12.88 65.51 -12.88 64.52 -12.88 63.5 C-13.87 63.5 -14.86 63.5 -15.88 63.5 C-16.72 60.54 -17.01 57.88 -17.05 54.81 C-17.06 53.89 -17.08 52.96 -17.09 52.01 C-17.1 51.02 -17.11 50.03 -17.11 49 C-17.12 47.98 -17.13 46.95 -17.14 45.9 C-17.15 43.73 -17.16 41.56 -17.17 39.39 C-17.19 36.08 -17.23 32.77 -17.28 29.45 C-17.29 27.34 -17.29 25.24 -17.3 23.13 C-17.32 22.14 -17.34 21.15 -17.35 20.13 C-17.33 13.22 -17.33 13.22 -14.94 9.44 C-14.26 8.8 -13.58 8.16 -12.88 7.5 C-12.38 6.94 -11.88 6.39 -11.38 5.81 C-9.67 4.32 -7.91 3.49 -5.88 2.5 C-3.88 0.5 -3.88 0.5 0 0 Z M13.12 65.5 C13.12 66.49 13.12 67.48 13.12 68.5 C14.12 68.17 15.11 67.84 16.12 67.5 C16.12 66.84 16.12 66.18 16.12 65.5 C15.13 65.5 14.14 65.5 13.12 65.5 Z " fill="#000000" transform="translate(355.875,813.5)"/>
<path d="M0 0 C28.38 0 56.76 0 86 0 C86 0.33 86 0.66 86 1 C57.62 1 29.24 1 0 1 C0 0.67 0 0.34 0 0 Z " fill="#FDFDFD" transform="translate(126,105)"/>
<path d="M0 0 C0.33 0 0.66 0 1 0 C1 20.46 1 40.92 1 62 C0.67 62 0.34 62 0 62 C0 41.54 0 21.08 0 0 Z " fill="#FDFDFD" transform="translate(1195,108)"/>
<path d="M0 0 C0.33 0 0.66 0 1 0 C1 16.5 1 33 1 50 C0.67 50 0.34 50 0 50 C0 33.5 0 17 0 0 Z " fill="#000000" transform="translate(707,387)"/>
<path d="M0 0 C0.33 0 0.66 0 1 0 C1 14.19 1 28.38 1 43 C0.67 43 0.34 43 0 43 C0 28.81 0 14.62 0 0 Z " fill="#000000" transform="translate(884,389)"/>
<path d="M0 0 C8.91 0 17.82 0 27 0 C27 0.33 27 0.66 27 1 C18.09 1 9.18 1 0 1 C0 0.67 0 0.34 0 0 Z " fill="#000000" transform="translate(58,1062)"/>
<path d="M0 0 C8.25 0 16.5 0 25 0 C25 0.33 25 0.66 25 1 C16.75 1 8.5 1 0 1 C0 0.67 0 0.34 0 0 Z " fill="#000000" transform="translate(1193,1062)"/>
<path d="M0 0 C0.33 0 0.66 0 1 0 C1 3.96 1 7.92 1 12 C0.67 12 0.34 12 0 12 C0 8.04 0 4.08 0 0 Z " fill="#FDFDFD" transform="translate(925,389)"/>
<path d="M0 0 C0.33 0 0.66 0 1 0 C1 2.97 1 5.94 1 9 C0.67 9 0.34 9 0 9 C0 6.03 0 3.06 0 0 Z " fill="#FDFDFD" transform="translate(925,409)"/>
<path d="M0 0 C0.33 0 0.66 0 1 0 C1 1.98 1 3.96 1 6 C0.67 6 0.34 6 0 6 C0 4.02 0 2.04 0 0 Z " fill="#FDFDFD" transform="translate(575,306)"/>
<path d="M0 0 C0.33 0 0.66 0 1 0 C1 1.98 1 3.96 1 6 C0.67 6 0.34 6 0 6 C0 4.02 0 2.04 0 0 Z " fill="#FDFDFD" transform="translate(580,236)"/>
<path d="M0 0 C0.66 0.33 1.32 0.66 2 1 C1.01 1.66 0.02 2.32 -1 3 C-0.67 2.01 -0.34 1.02 0 0 Z " fill="#313030" transform="translate(344,818)"/>
<path d="M0 0 C0 3 0 3 0 3 Z " fill="#000000" transform="translate(864,485)"/>
<path d="M0 0 C3 1 3 1 3 1 Z " fill="#FDFDFD" transform="translate(975,545)"/>
<path d="M0 0 C0.99 0.5 0.99 0.5 2 1 C1.01 1.5 1.01 1.5 0 2 C0 1.34 0 0.68 0 0 Z " fill="#000000" transform="translate(1218,486)"/>
<path d="" fill="#000000" transform="translate(0,0)"/>
<path d="M0 0 C2 1 2 1 2 1 Z " fill="#000000" transform="translate(19,1074)"/>
<path d="" fill="#000000" transform="translate(0,0)"/>
<path d="M0 0 C2 1 2 1 2 1 Z " fill="#FDFDFD" transform="translate(1134,540)"/>
<path d="M0 0 C2 1 2 1 2 1 Z " fill="#000000" transform="translate(149,489)"/>
<path d="" fill="#000000" transform="translate(0,0)"/>
<path d="" fill="#000000" transform="translate(0,0)"/>
<path d="" fill="#000000" transform="translate(0,0)"/>
<path d="" fill="#000000" transform="translate(0,0)"/>
<path d="" fill="#000000" transform="translate(0,0)"/>
<path d="" fill="#000000" transform="translate(0,0)"/>
<path d="" fill="#000000" transform="translate(0,0)"/>
<path d="" fill="#000000" transform="translate(0,0)"/>
<path d="" fill="#7B7A79" transform="translate(0,0)"/>
<path d="" fill="#000000" transform="translate(0,0)"/>
<path d="" fill="#7B7A79" transform="translate(0,0)"/>
<path d="" fill="#000000" transform="translate(0,0)"/>
<path d="" fill="#000000" transform="translate(0,0)"/>
<path d="" fill="#000000" transform="translate(0,0)"/>
<path d="" fill="#000000" transform="translate(0,0)"/>
<path d="" fill="#000000" transform="translate(0,0)"/>
<path d="" fill="#7B7A79" transform="translate(0,0)"/>
<path d="" fill="#000000" transform="translate(0,0)"/>
<path d="" fill="#FDFDFD" transform="translate(0,0)"/>
<path d="" fill="#7B7A79" transform="translate(0,0)"/>
<path d="" fill="#000000" transform="translate(0,0)"/>
<path d="" fill="#FDFDFD" transform="translate(0,0)"/>
<path d="" fill="#000000" transform="translate(0,0)"/>
<path d="" fill="#FDFDFD" transform="translate(0,0)"/>
<path d="" fill="#000000" transform="translate(0,0)"/>
<path d="" fill="#000000" transform="translate(0,0)"/>
<path d="" fill="#000000" transform="translate(0,0)"/>
<path d="" fill="#000000" transform="translate(0,0)"/>
<path d="" fill="#000000" transform="translate(0,0)"/>
<path d="" fill="#000000" transform="translate(0,0)"/>
<path d="" fill="#000000" transform="translate(0,0)"/>
<path d="" fill="#000000" transform="translate(0,0)"/>
<path d="" fill="#000000" transform="translate(0,0)"/>
<path d="" fill="#000000" transform="translate(0,0)"/>
<path d="" fill="#000000" transform="translate(0,0)"/>
<path d="" fill="#000000" transform="translate(0,0)"/>
<path d="" fill="#000000" transform="translate(0,0)"/>
<path d="" fill="#000000" transform="translate(0,0)"/>
<path d="" fill="#000000" transform="translate(0,0)"/>
<path d="" fill="#000000" transform="translate(0,0)"/>
<path d="" fill="#FDFDFD" transform="translate(0,0)"/>
<path d="" fill="#FDFDFD" transform="translate(0,0)"/>
<path d="" fill="#FDFDFD" transform="translate(0,0)"/>
<path d="" fill="#FDFDFD" transform="translate(0,0)"/>
<path d="" fill="#FDFDFD" transform="translate(0,0)"/>
<path d="" fill="#FDFDFD" transform="translate(0,0)"/>
<path d="" fill="#FDFDFD" transform="translate(0,0)"/>
<path d="" fill="#FDFDFD" transform="translate(0,0)"/>
<path d="" fill="#FDFDFD" transform="translate(0,0)"/>
<path d="" fill="#FDFDFD" transform="translate(0,0)"/>
<path d="" fill="#FDFDFD" transform="translate(0,0)"/>
<path d="" fill="#FDFDFD" transform="translate(0,0)"/>
<path d="" fill="#FDFDFD" transform="translate(0,0)"/>
<path d="" fill="#FDFDFD" transform="translate(0,0)"/>
<path d="" fill="#FDFDFD" transform="translate(0,0)"/>
<path d="" fill="#FDFDFD" transform="translate(0,0)"/>
<path d="" fill="#7B7A79" transform="translate(0,0)"/>
<path d="" fill="#000000" transform="translate(0,0)"/>
<path d="" fill="#7B7A79" transform="translate(0,0)"/>
<path d="" fill="#7B7A79" transform="translate(0,0)"/>
<path d="" fill="#000000" transform="translate(0,0)"/>
<path d="" fill="#000000" transform="translate(0,0)"/>
<path d="" fill="#7B7A79" transform="translate(0,0)"/>
<path d="" fill="#7B7A79" transform="translate(0,0)"/>
<path d="" fill="#000000" transform="translate(0,0)"/>
<path d="" fill="#000000" transform="translate(0,0)"/>
<path d="" fill="#7B7A79" transform="translate(0,0)"/>
<path d="" fill="#7B7A79" transform="translate(0,0)"/>
<path d="" fill="#7B7A79" transform="translate(0,0)"/>
<path d="" fill="#7B7A79" transform="translate(0,0)"/>
<path d="" fill="#000000" transform="translate(0,0)"/>
<path d="" fill="#000000" transform="translate(0,0)"/>
<path d="" fill="#000000" transform="translate(0,0)"/>
<path d="" fill="#000000" transform="translate(0,0)"/>
<path d="" fill="#000000" transform="translate(0,0)"/>
<path d="" fill="#000000" transform="translate(0,0)"/>
<path d="" fill="#000000" transform="translate(0,0)"/>
<path d="" fill="#000000" transform="translate(0,0)"/>
<path d="" fill="#000000" transform="translate(0,0)"/>
<path d="" fill="#000000" transform="translate(0,0)"/>
<path d="" fill="#000000" transform="translate(0,0)"/>
<path d="" fill="#000000" transform="translate(0,0)"/>
<path d="" fill="#000000" transform="translate(0,0)"/>
<path d="" fill="#000000" transform="translate(0,0)"/>
<path d="" fill="#000000" transform="translate(0,0)"/>
<path d="" fill="#000000" transform="translate(0,0)"/>
<path d="" fill="#000000" transform="translate(0,0)"/>
<path d="" fill="#000000" transform="translate(0,0)"/>
<path d="" fill="#000000" transform="translate(0,0)"/>
<path d="" fill="#000000" transform="translate(0,0)"/>
<path d="" fill="#000000" transform="translate(0,0)"/>
<path d="" fill="#000000" transform="translate(0,0)"/>
<path d="" fill="#000000" transform="translate(0,0)"/>
<path d="" fill="#000000" transform="translate(0,0)"/>
<path d="" fill="#000000" transform="translate(0,0)"/>
<path d="" fill="#000000" transform="translate(0,0)"/>
<path d="" fill="#000000" transform="translate(0,0)"/>
<path d="" fill="#000000" transform="translate(0,0)"/>
<path d="" fill="#000000" transform="translate(0,0)"/>
<path d="" fill="#000000" transform="translate(0,0)"/>
<path d="" fill="#000000" transform="translate(0,0)"/>
<path d="" fill="#000000" transform="translate(0,0)"/>
<path d="" fill="#000000" transform="translate(0,0)"/>
<path d="" fill="#000000" transform="translate(0,0)"/>
<path d="" fill="#000000" transform="translate(0,0)"/>
<path d="" fill="#000000" transform="translate(0,0)"/>
<path d="" fill="#000000" transform="translate(0,0)"/>
<path d="" fill="#000000" transform="translate(0,0)"/>
<path d="" fill="#000000" transform="translate(0,0)"/>
<path d="" fill="#000000" transform="translate(0,0)"/>
<path d="" fill="#000000" transform="translate(0,0)"/>
<path d="" fill="#000000" transform="translate(0,0)"/>
<path d="" fill="#000000" transform="translate(0,0)"/>
<path d="" fill="#000000" transform="translate(0,0)"/>
<path d="" fill="#000000" transform="translate(0,0)"/>
<path d="" fill="#000000" transform="translate(0,0)"/>
<path d="" fill="#000000" transform="translate(0,0)"/>
<path d="" fill="#000000" transform="translate(0,0)"/>
<path d="" fill="#000000" transform="translate(0,0)"/>
<path d="" fill="#000000" transform="translate(0,0)"/>
<path d="" fill="#000000" transform="translate(0,0)"/>
<path d="" fill="#000000" transform="translate(0,0)"/>
<path d="" fill="#000000" transform="translate(0,0)"/>
<path d="" fill="#000000" transform="translate(0,0)"/>
<path d="" fill="#000000" transform="translate(0,0)"/>
<path d="" fill="#000000" transform="translate(0,0)"/>
<path d="" fill="#000000" transform="translate(0,0)"/>
<path d="" fill="#000000" transform="translate(0,0)"/>
<path d="" fill="#000000" transform="translate(0,0)"/>
<path d="" fill="#000000" transform="translate(0,0)"/>
<path d="" fill="#000000" transform="translate(0,0)"/>
<path d="" fill="#FDFDFD" transform="translate(0,0)"/>
<path d="" fill="#FDFDFD" transform="translate(0,0)"/>
<path d="" fill="#000000" transform="translate(0,0)"/>
<path d="" fill="#000000" transform="translate(0,0)"/>
<path d="" fill="#FDFDFD" transform="translate(0,0)"/>
<path d="" fill="#FDFDFD" transform="translate(0,0)"/>
<path d="" fill="#000000" transform="translate(0,0)"/>
<path d="" fill="#000000" transform="translate(0,0)"/>
<path d="" fill="#FDFDFD" transform="translate(0,0)"/>
<path d="" fill="#000000" transform="translate(0,0)"/>
<path d="" fill="#000000" transform="translate(0,0)"/>
<path d="" fill="#000000" transform="translate(0,0)"/>
<path d="" fill="#000000" transform="translate(0,0)"/>
<path d="" fill="#FDFDFD" transform="translate(0,0)"/>
<path d="" fill="#000000" transform="translate(0,0)"/>
<path d="" fill="#FDFDFD" transform="translate(0,0)"/>
<path d="" fill="#FDFDFD" transform="translate(0,0)"/>
<path d="" fill="#000000" transform="translate(0,0)"/>
<path d="" fill="#FDFDFD" transform="translate(0,0)"/>
<path d="" fill="#000000" transform="translate(0,0)"/>
<path d="" fill="#FDFDFD" transform="translate(0,0)"/>
<path d="" fill="#000000" transform="translate(0,0)"/>
<path d="" fill="#000000" transform="translate(0,0)"/>
<path d="" fill="#FDFDFD" transform="translate(0,0)"/>
<path d="" fill="#000000" transform="translate(0,0)"/>
<path d="" fill="#FDFDFD" transform="translate(0,0)"/>
<path d="" fill="#FDFDFD" transform="translate(0,0)"/>
<path d="" fill="#FDFDFD" transform="translate(0,0)"/>
<path d="" fill="#000000" transform="translate(0,0)"/>
<path d="" fill="#FDFDFD" transform="translate(0,0)"/>
<path d="" fill="#FDFDFD" transform="translate(0,0)"/>
<path d="" fill="#000000" transform="translate(0,0)"/>
<path d="" fill="#000000" transform="translate(0,0)"/>
<path d="" fill="#000000" transform="translate(0,0)"/>
<path d="" fill="#FDFDFD" transform="translate(0,0)"/>
<path d="" fill="#000000" transform="translate(0,0)"/>
<path d="" fill="#000000" transform="translate(0,0)"/>
<path d="" fill="#FDFDFD" transform="translate(0,0)"/>
<path d="" fill="#FDFDFD" transform="translate(0,0)"/>
<path d="" fill="#000000" transform="translate(0,0)"/>
<path d="" fill="#FDFDFD" transform="translate(0,0)"/>
<path d="" fill="#000000" transform="translate(0,0)"/>
<path d="" fill="#FDFDFD" transform="translate(0,0)"/>
<path d="" fill="#000000" transform="translate(0,0)"/>
<path d="" fill="#000000" transform="translate(0,0)"/>
<path d="" fill="#000000" transform="translate(0,0)"/>
<path d="" fill="#000000" transform="translate(0,0)"/>
<path d="" fill="#000000" transform="translate(0,0)"/>
<path d="" fill="#000000" transform="translate(0,0)"/>
<path d="" fill="#000000" transform="translate(0,0)"/>
<path d="" fill="#000000" transform="translate(0,0)"/>
</svg>
