<?xml version="1.0" encoding="UTF-8"?>
<!-- Generator: visioncortex VTracer 0.6.3 -->
<svg version="1.1" xmlns="http://www.w3.org/2000/svg" width="1280" height="1280">
<path d="M0 0 C1.48 0.3 2.96 0.59 4.44 0.88 C14.16 2.78 24 4.71 32.95 9.07 C35.17 10.07 37.34 10.73 39.69 11.38 C50.19 14.37 60.11 19.44 70 24 C70 24.66 70 25.32 70 26 C70.67 26.08 71.35 26.17 72.04 26.25 C75.83 27.21 78.96 28.99 82.31 30.94 C83.34 31.53 83.34 31.53 84.4 32.13 C89.64 35.16 94.84 38.27 100 41.44 C100.7 41.86 101.4 42.29 102.12 42.72 C103.78 43.76 105.4 44.87 107 46 C107 46.66 107 47.32 107 48 C107.56 48.27 108.12 48.54 108.7 48.81 C111.16 50.08 113.44 51.49 115.75 53 C116.55 53.52 117.35 54.03 118.17 54.56 C119.08 55.27 119.08 55.27 120 56 C120 56.66 120 57.32 120 58 C121.08 58.37 121.08 58.37 122.19 58.75 C125.28 60.12 127.51 61.72 130 64 C130 64.66 130 65.32 130 66 C130.58 66.27 131.15 66.54 131.75 66.81 C134.06 68.03 136.02 69.3 138 71 C138 71.66 138 72.32 138 73 C138.66 73 139.32 73 140 73 C141.62 74.37 141.62 74.37 143 76 C143 76.66 143 77.32 143 78 C143.96 78.4 143.96 78.4 144.94 78.81 C147 80 147 80 148 83 C148.66 83 149.32 83 150 83 C151.62 84.37 151.62 84.37 153 86 C153 86.66 153 87.32 153 88 C153.66 88 154.32 88 155 88 C160 93.48 160 93.48 160 96 C160.66 96 161.32 96 162 96 C163.75 98 165.39 100.01 167 102.12 C167.49 102.75 167.97 103.38 168.47 104.03 C188 129.43 188 129.43 188 134 C188.66 134 189.32 134 190 134 C190.39 134.8 190.77 135.59 191.17 136.41 C191.95 138 191.95 138 192.75 139.62 C193.26 140.67 193.77 141.71 194.3 142.79 C195.93 146.01 195.93 146.01 197.95 148.88 C200.36 152.55 202.17 156.33 204 160.31 C204.35 161.07 204.7 161.82 205.06 162.6 C207.15 167.11 209.22 171.62 211.21 176.18 C211.95 177.88 212.72 179.57 213.5 181.25 C215.38 185.64 216.66 190.23 218.03 194.79 C218.83 197.44 219.67 200.07 220.56 202.69 C223.69 212.03 226.02 221.35 228 231 C228.2 231.88 228.39 232.76 228.6 233.66 C229.89 239.56 230.41 245.38 230.75 251.41 C230.72 253.93 230.72 253.93 232 255 C232.1 257.11 232.13 259.22 232.13 261.32 C232.13 261.98 232.13 262.64 232.13 263.32 C232.14 265.52 232.14 267.71 232.13 269.9 C232.13 271.42 232.13 272.94 232.14 274.46 C232.14 277.64 232.14 280.83 232.13 284.02 C232.12 288.11 232.13 292.2 232.13 296.29 C232.14 299.43 232.14 302.56 232.13 305.7 C232.13 307.21 232.13 308.72 232.14 310.23 C232.14 312.33 232.13 314.44 232.13 316.55 C232.13 318.35 232.13 318.35 232.13 320.18 C232 323 232 323 231 325 C230.84 326.73 230.72 328.46 230.62 330.19 C229.82 340.53 227.41 350.57 224.94 360.62 C224.69 361.62 224.69 361.62 224.45 362.63 C223.54 366.22 222.43 369.59 221 373 C220.53 374.59 220.07 376.19 219.62 377.79 C217.49 385.33 215.33 392.73 212 399.83 C210.92 402.17 209.99 404.54 209.06 406.94 C207 412.13 204.57 417.05 202 422 C201.36 423.27 200.71 424.54 200.07 425.81 C194.68 436.32 188.64 446.24 182 456 C181.53 456.69 181.06 457.39 180.57 458.1 C179.2 460.1 177.82 462.08 176.44 464.06 C176.02 464.66 175.6 465.27 175.17 465.89 C174.17 467.3 173.09 468.65 172 470 C171.34 470 170.68 470 170 470 C169.6 471.11 169.6 471.11 169.19 472.25 C168.05 474.89 166.91 476.86 165 479 C164.34 479 163.68 479 163 479 C162.77 479.55 162.53 480.1 162.29 480.67 C157.65 489.04 148.91 496.18 142.19 502.94 C141.26 503.88 141.26 503.88 140.3 504.84 C130.1 515 130.1 515 127 515 C127 515.66 127 516.32 127 517 C125.54 518.29 125.54 518.29 123.62 519.62 C122.69 520.29 122.69 520.29 121.73 520.98 C120 522 120 522 118 522 C118 522.66 118 523.32 118 524 C116.6 525.26 116.6 525.26 114.62 526.69 C113.89 527.22 113.16 527.75 112.41 528.29 C111.62 528.86 110.82 529.42 110 530 C109.19 530.58 108.38 531.16 107.55 531.75 C81.77 550 81.77 550 75 550 C75 550.66 75 551.32 75 552 C69.24 554.99 63.47 557.69 57.42 560.04 C55.14 560.94 52.92 561.92 50.69 562.94 C39.14 568.11 27.14 572.52 14.75 575.19 C11.22 575.6 11.22 575.6 10 577 C8.57 577.36 7.13 577.66 5.69 577.94 C4.79 578.11 3.9 578.28 2.98 578.46 C-1.18 579.21 -5.35 579.88 -9.53 580.54 C-11.99 580.88 -11.99 580.88 -14 582 C-16.95 582.29 -19.9 582.45 -22.86 582.62 C-25.21 582.79 -27.48 583.08 -29.8 583.47 C-39.88 585.15 -49.69 585.23 -59.88 585.12 C-61.55 585.11 -63.22 585.11 -64.89 585.1 C-68.92 585.08 -72.96 585.04 -77 585 C-77 586 -77 587 -77 588.03 C-76.95 632.07 -76.9 676.12 -76.87 720.17 C-76.87 720.84 -76.87 721.5 -76.87 722.19 C-76.86 736.71 -76.85 751.23 -76.85 765.74 C-76.84 772.86 -76.84 779.99 -76.84 787.11 C-76.83 787.81 -76.83 788.52 -76.83 789.25 C-76.82 812.18 -76.8 835.1 -76.77 858.03 C-76.74 881.61 -76.72 905.19 -76.72 928.77 C-76.71 943.95 -76.7 959.13 -76.68 974.31 C-76.66 984.28 -76.66 994.24 -76.66 1004.21 C-76.66 1009.95 -76.66 1015.69 -76.64 1021.43 C-76.5 1075.07 -76.5 1075.07 -83.44 1096.94 C-83.72 1097.91 -84.01 1098.89 -84.31 1099.89 C-86.04 1105.59 -88.21 1110.75 -91 1116 C-91.85 1117.83 -92.68 1119.66 -93.5 1121.5 C-95.56 1126.06 -97.73 1130.54 -100 1135 C-100.66 1135 -101.32 1135 -102 1135 C-102.11 1135.57 -102.23 1136.14 -102.35 1136.73 C-103.06 1139.21 -104.07 1141.06 -105.44 1143.25 C-105.87 1143.96 -106.3 1144.66 -106.75 1145.39 C-107.16 1145.92 -107.57 1146.45 -108 1147 C-108.66 1147 -109.32 1147 -110 1147 C-110.22 1147.7 -110.44 1148.4 -110.67 1149.12 C-112.31 1152.67 -114.65 1155.21 -117.31 1158 C-117.79 1158.51 -118.26 1159.02 -118.75 1159.54 C-132.48 1174.2 -147 1186.91 -165 1196 C-165.97 1196.51 -166.93 1197.03 -167.93 1197.55 C-174.78 1201.13 -181.63 1203.72 -189 1206 C-190.52 1206.52 -192.04 1207.04 -193.56 1207.56 C-218.3 1215.7 -243.9 1215.15 -269.67 1215.14 C-272.34 1215.14 -275.01 1215.15 -277.67 1215.15 C-284.2 1215.16 -290.72 1215.16 -297.24 1215.16 C-305.06 1215.16 -312.89 1215.17 -320.71 1215.17 C-339.61 1215.19 -358.51 1215.2 -377.4 1215.2 C-386.35 1215.2 -395.31 1215.21 -404.26 1215.21 C-434.93 1215.22 -465.61 1215.23 -496.29 1215.24 C-498.21 1215.24 -500.13 1215.24 -502.06 1215.24 C-503.98 1215.24 -505.91 1215.24 -507.84 1215.24 C-511.7 1215.24 -515.57 1215.24 -519.43 1215.24 C-520.39 1215.24 -521.35 1215.24 -522.34 1215.24 C-553.41 1215.24 -584.48 1215.26 -615.55 1215.28 C-648.46 1215.31 -681.36 1215.32 -714.26 1215.32 C-717.88 1215.32 -721.49 1215.32 -725.11 1215.32 C-726.45 1215.32 -726.45 1215.32 -727.81 1215.32 C-742.09 1215.32 -756.37 1215.34 -770.66 1215.35 C-785.03 1215.36 -799.4 1215.37 -813.77 1215.36 C-822.29 1215.36 -830.81 1215.36 -839.33 1215.38 C-845.04 1215.39 -850.75 1215.38 -856.46 1215.37 C-859.71 1215.37 -862.95 1215.37 -866.19 1215.38 C-878.87 1215.42 -891.36 1215.09 -903.97 1213.66 C-905.52 1213.49 -905.52 1213.49 -907.1 1213.31 C-917.39 1212.03 -927.24 1209.46 -937 1206 C-937.8 1205.74 -938.61 1205.47 -939.44 1205.2 C-951.45 1201.13 -962.55 1194.96 -973.5 1188.62 C-974.25 1188.2 -975 1187.77 -975.77 1187.33 C-977.55 1186.28 -979.28 1185.15 -981 1184 C-981 1183.34 -981 1182.68 -981 1182 C-982.05 1181.68 -982.05 1181.68 -983.12 1181.34 C-986.73 1179.66 -989.29 1177.23 -992.12 1174.5 C-994.98 1171.78 -997.71 1169.2 -1001 1167 C-1001 1166.34 -1001 1165.68 -1001 1165 C-1001.99 1164.67 -1002.98 1164.34 -1004 1164 C-1004 1163.34 -1004 1162.68 -1004 1162 C-1004.66 1162 -1005.32 1162 -1006 1162 C-1007.95 1159.88 -1007.95 1159.88 -1010.12 1157.12 C-1010.85 1156.22 -1011.57 1155.32 -1012.32 1154.38 C-1014 1152 -1014 1152 -1014 1150 C-1014.66 1150 -1015.32 1150 -1016 1150 C-1016 1149.01 -1016 1148.02 -1016 1147 C-1016.66 1147 -1017.32 1147 -1018 1147 C-1020.3 1144.44 -1021 1143.52 -1021 1140 C-1021.66 1140 -1022.32 1140 -1023 1140 C-1024.69 1137.01 -1026.34 1134.01 -1028 1131 C-1028.32 1130.44 -1028.63 1129.87 -1028.96 1129.29 C-1033.12 1121.88 -1036.72 1114.74 -1039.2 1106.57 C-1040.01 1103.79 -1040.01 1103.79 -1041.56 1100.44 C-1044.76 1092.8 -1046.21 1085.19 -1047 1077 C-1047.33 1076.67 -1047.66 1076.34 -1048 1076 C-1048.1 1074.36 -1048.12 1072.71 -1048.12 1071.06 C-1048.12 1069.99 -1048.12 1068.92 -1048.12 1067.82 C-1048.12 1066.63 -1048.12 1065.45 -1048.11 1064.23 C-1048.11 1062.99 -1048.11 1061.75 -1048.11 1060.47 C-1048.11 1057.07 -1048.11 1053.66 -1048.1 1050.25 C-1048.1 1046.7 -1048.09 1043.14 -1048.09 1039.58 C-1048.09 1032.84 -1048.08 1026.1 -1048.07 1019.36 C-1048.06 1011.69 -1048.06 1004.02 -1048.05 996.35 C-1048.04 980.57 -1048.02 964.78 -1048 949 C-1047.34 949 -1046.68 949 -1046 949 C-1046 948.01 -1046 947.02 -1046 946 C-1045.34 946 -1044.68 946 -1044 946 C-1043.67 945.01 -1043.34 944.02 -1043 943 C-1042.34 943 -1041.68 943 -1041 943 C-1041 942.34 -1041 941.68 -1041 941 C-1032.26 935.98 -1022.57 936.84 -1012.78 936.79 C-1011.35 936.79 -1009.92 936.78 -1008.49 936.76 C-1004.63 936.74 -1000.77 936.72 -996.91 936.7 C-992.87 936.67 -988.82 936.65 -984.78 936.62 C-977.14 936.57 -969.49 936.53 -961.84 936.48 C-953.13 936.43 -944.43 936.38 -935.72 936.32 C-917.81 936.21 -899.91 936.1 -882 936 C-882 935.28 -881.99 934.55 -881.99 933.8 C-881.88 915.82 -881.77 897.84 -881.66 879.86 C-881.61 871.16 -881.55 862.47 -881.5 853.77 C-881.44 843.68 -881.38 833.59 -881.32 823.5 C-881.31 822.24 -881.31 822.24 -881.3 820.94 C-881.15 798.39 -880.9 775.83 -880.5 753.28 C-879.77 712.14 -879.7 670.99 -879.54 629.84 C-879.46 608.85 -879.36 587.85 -879.27 566.86 C-879.25 563.36 -879.23 559.86 -879.22 556.37 C-879.04 517.12 -878.83 477.87 -878.54 438.63 C-878.51 433.88 -878.48 429.13 -878.45 424.38 C-878.25 395.84 -877.93 367.3 -877.45 338.76 C-877.13 320.36 -876.93 301.98 -876.9 283.58 C-876.89 280.14 -876.88 276.69 -876.87 273.25 C-876.87 272.13 -876.87 271.01 -876.86 269.86 C-876.85 267.62 -876.85 265.38 -876.84 263.15 C-876.82 257.44 -876.81 251.73 -876.82 246.02 C-876.84 240.3 -876.82 234.57 -876.78 228.84 C-876.77 226.71 -876.78 224.57 -876.79 222.44 C-876.9 202.81 -876.9 202.81 -871.68 196.4 C-869.89 194.9 -868.13 193.94 -866 193 C-866 192.34 -866 191.68 -866 191 C-860.47 188.23 -856.19 187.57 -850.05 187.62 C-848.72 187.61 -848.72 187.61 -847.37 187.6 C-844.41 187.59 -841.45 187.59 -838.49 187.6 C-836.35 187.6 -834.21 187.59 -832.06 187.58 C-826.17 187.56 -820.28 187.56 -814.39 187.57 C-808.04 187.57 -801.69 187.55 -795.34 187.54 C-784.34 187.51 -773.33 187.5 -762.33 187.5 C-750.79 187.49 -739.25 187.48 -727.71 187.46 C-726.99 187.46 -726.27 187.46 -725.53 187.46 C-721.89 187.45 -718.24 187.45 -714.6 187.44 C-688.78 187.4 -662.97 187.37 -637.16 187.35 C-612.08 187.33 -587.01 187.3 -561.93 187.26 C-561.16 187.26 -560.38 187.26 -559.59 187.26 C-551.82 187.25 -544.06 187.24 -536.3 187.23 C-520.48 187.2 -504.67 187.18 -488.86 187.16 C-488.13 187.16 -487.4 187.16 -486.65 187.16 C-438.1 187.09 -389.55 187.04 -341 187 C-340.35 185.72 -339.71 184.43 -339.06 183.14 C-338.52 182.07 -338.52 182.07 -337.97 180.97 C-336.96 178.91 -336.1 176.84 -335.31 174.69 C-333.27 169.48 -330.94 164.43 -328.56 159.38 C-328.19 158.58 -327.82 157.78 -327.44 156.95 C-325.26 152.36 -322.89 148.02 -320.11 143.76 C-318.54 141.27 -317.26 138.66 -316 136 C-315.34 136 -314.68 136 -314 136 C-313.81 135.13 -313.81 135.13 -313.62 134.25 C-312.99 131.98 -312.11 130.07 -311 128 C-310.34 128 -309.68 128 -309 128 C-308.74 127.28 -308.49 126.56 -308.23 125.82 C-306.92 122.81 -305.34 120.5 -303.38 117.88 C-301.14 114.88 -298.92 111.89 -296.77 108.84 C-296.06 107.84 -295.35 106.84 -294.62 105.81 C-293.65 104.43 -293.65 104.43 -292.66 103.02 C-292.11 102.35 -291.57 101.69 -291 101 C-290.34 101 -289.68 101 -289 101 C-288.67 100.01 -288.34 99.02 -288 98 C-287.34 98 -286.68 98 -286 98 C-285.34 96.35 -284.68 94.7 -284 93 C-283.34 93 -282.68 93 -282 93 C-281.77 92.44 -281.53 91.88 -281.29 91.31 C-278.78 86.82 -274.77 83.44 -271.15 79.84 C-269.69 78.38 -268.25 76.91 -266.81 75.45 C-265.88 74.52 -264.96 73.6 -264.01 72.65 C-262.75 71.38 -262.75 71.38 -261.46 70.09 C-259.01 68.01 -256.95 67.18 -254 66 C-253.67 65.01 -253.34 64.02 -253 63 C-252.34 63 -251.68 63 -251 63 C-251 62.34 -251 61.68 -251 61 C-249.37 59.66 -247.66 58.4 -245.94 57.19 C-244.94 56.48 -243.94 55.77 -242.91 55.04 C-241.95 54.37 -240.99 53.69 -240 53 C-238.65 52 -237.29 51 -235.94 50 C-233 48 -233 48 -231 48 C-231 47.34 -231 46.68 -231 46 C-228.73 44.31 -228.73 44.31 -225.75 42.44 C-224.78 41.82 -223.8 41.2 -222.8 40.56 C-220.43 39.24 -218.64 38.46 -216 38 C-216 37.34 -216 36.68 -216 36 C-215.24 35.62 -214.48 35.25 -213.69 34.86 C-206.76 31.43 -199.87 27.94 -193.24 23.94 C-189.22 21.54 -185.11 19.76 -180.74 18.07 C-177.8 16.92 -174.9 15.72 -172 14.5 C-170.48 13.87 -170.48 13.87 -168.94 13.23 C-167.1 12.46 -165.27 11.68 -163.44 10.9 C-157.97 8.6 -152.54 7.02 -146.76 5.71 C-144.05 5.01 -141.58 4.08 -139 3 C-134.39 1.55 -129.78 0.5 -125.04 -0.41 C-122.92 -0.82 -120.81 -1.25 -118.7 -1.7 C-109.93 -3.54 -101.24 -4.85 -92.31 -5.69 C-91.32 -5.78 -91.32 -5.78 -90.31 -5.88 C-60.58 -8.63 -28.89 -8.25 0 0 Z M-83.07 38.17 C-85.13 38.38 -87.19 38.57 -89.25 38.76 C-104.37 40.18 -104.37 40.18 -119 44 C-120.09 44.14 -121.19 44.29 -122.31 44.44 C-125.9 44.98 -128.94 45.92 -132.34 47.12 C-135.55 48.18 -138.8 49.05 -142.06 49.94 C-146.71 51.25 -150.83 52.71 -155.05 55.02 C-157.26 56.13 -159.47 56.86 -161.81 57.62 C-173.04 61.58 -184.36 67.68 -194.02 74.65 C-196 76 -196 76 -199.18 77.78 C-203.62 80.29 -207.77 83.19 -211.94 86.12 C-212.72 86.66 -213.5 87.2 -214.3 87.75 C-215.03 88.27 -215.77 88.79 -216.53 89.32 C-217.19 89.79 -217.86 90.25 -218.55 90.73 C-219.03 91.15 -219.51 91.57 -220 92 C-220 92.66 -220 93.32 -220 94 C-220.54 94.24 -221.08 94.47 -221.64 94.72 C-224.63 96.34 -227.11 98.35 -229.75 100.5 C-230.73 101.29 -231.72 102.09 -232.73 102.91 C-233.86 103.94 -233.86 103.94 -235 105 C-235 105.66 -235 106.32 -235 107 C-235.66 107 -236.32 107 -237 107 C-238.67 108.33 -238.67 108.33 -240 110 C-240 110.66 -240 111.32 -240 112 C-240.66 112 -241.32 112 -242 112 C-243.67 113.33 -243.67 113.33 -245 115 C-245 115.66 -245 116.32 -245 117 C-245.66 117 -246.32 117 -247 117 C-248.56 118.69 -250.05 120.46 -251.5 122.25 C-252.29 123.22 -253.09 124.2 -253.91 125.2 C-255.59 127.45 -256.88 129.45 -258 132 C-258.66 132 -259.32 132 -260 132 C-261.42 133.66 -261.42 133.66 -262.83 135.84 C-263.38 136.66 -263.93 137.47 -264.5 138.31 C-265.08 139.18 -265.66 140.05 -266.25 140.94 C-266.81 141.77 -267.37 142.6 -267.95 143.46 C-269.64 145.96 -271.32 148.48 -273 151 C-273.55 151.82 -274.09 152.63 -274.66 153.47 C-282.9 165.79 -290.29 178.43 -295.11 192.5 C-295.94 194.83 -296.89 197.02 -297.94 199.25 C-302.9 210.24 -305.76 221.64 -308.2 233.39 C-309 237 -309 237 -310 239 C-310.2 240.66 -310.36 242.33 -310.5 244 C-310.89 248.78 -310.89 248.78 -312 251 C-312.3 253.43 -312.54 255.84 -312.75 258.28 C-312.82 259.01 -312.88 259.74 -312.95 260.49 C-313.09 262.03 -313.22 263.58 -313.36 265.13 C-313.56 267.46 -313.77 269.8 -313.98 272.13 C-315.12 284.89 -314.97 297.01 -313.77 309.74 C-313.56 312.02 -313.36 314.3 -313.15 316.58 C-313.02 318.03 -312.89 319.49 -312.75 320.94 C-312.63 322.25 -312.51 323.55 -312.39 324.9 C-312.19 327.9 -312.19 327.9 -311 330 C-310.87 331.41 -310.77 332.83 -310.69 334.25 C-310.17 339.99 -308.62 345.26 -306.97 350.76 C-306.25 353.17 -305.58 355.55 -305 358 C-302.03 370.43 -302.03 370.43 -296.98 382.11 C-295.9 384.19 -295.08 386.3 -294.25 388.5 C-290.37 398.41 -285.29 407.97 -280.01 417.2 C-278.94 419.11 -277.96 421.04 -277 423 C-276.34 423 -275.68 423 -275 423 C-274.89 423.58 -274.78 424.15 -274.67 424.75 C-273.91 427.3 -272.84 428.91 -271.27 431.05 C-270.71 431.81 -270.16 432.57 -269.58 433.36 C-269 434.15 -268.41 434.94 -267.81 435.75 C-266.96 436.91 -266.96 436.91 -266.1 438.09 C-264.41 440.4 -262.71 442.7 -261 445 C-260.45 445.75 -259.89 446.5 -259.32 447.27 C-258.8 447.98 -258.27 448.69 -257.73 449.42 C-257.26 450.05 -256.79 450.68 -256.31 451.33 C-254.4 453.76 -252.21 455.85 -250 458 C-248.89 459.29 -247.79 460.58 -246.69 461.88 C-243.71 465.31 -240.53 468.26 -237.06 471.19 C-234.09 473.8 -231.39 476.64 -228.66 479.5 C-227.13 481.22 -227.13 481.22 -225 481 C-225 481.66 -225 482.32 -225 483 C-223.29 484.59 -223.29 484.59 -221.12 486.12 C-220.05 486.93 -220.05 486.93 -218.95 487.76 C-217.1 489.18 -217.1 489.18 -215 489 C-215 489.66 -215 490.32 -215 491 C-211.78 493.32 -211.78 493.32 -208 494 C-208 494.66 -208 495.32 -208 496 C-207.01 496 -206.02 496 -205 496 C-205 496.66 -205 497.32 -205 498 C-203.34 499.29 -203.34 499.29 -201.15 500.54 C-200.33 501.03 -199.5 501.53 -198.65 502.04 C-197.75 502.56 -196.86 503.09 -195.94 503.62 C-195.03 504.16 -194.12 504.7 -193.18 505.25 C-185.57 509.73 -177.88 514.01 -170 518 C-169.13 518.45 -168.26 518.89 -167.37 519.35 C-158.77 523.53 -149.57 526.26 -140.49 529.19 C-138.17 529.95 -135.85 530.73 -133.54 531.52 C-110.02 539.35 -86.44 541.49 -61.81 541.5 C-60.78 541.5 -59.75 541.51 -58.68 541.51 C-40.28 541.55 -22.87 539.42 -5 535 C-3.59 534.68 -2.19 534.37 -0.78 534.06 C6.26 532.5 13 530.88 19.64 527.98 C22.26 526.89 24.91 526.08 27.62 525.25 C34.87 522.89 41.48 519.42 48.22 515.92 C50.48 514.75 52.77 513.66 55.06 512.56 C59.43 510.38 63.62 507.93 67.81 505.44 C68.45 505.06 69.08 504.68 69.74 504.3 C73.39 502.09 76.69 499.7 80 497 C82.29 495.57 84.63 494.3 87 493 C87 492.34 87 491.68 87 491 C87.72 490.75 88.43 490.5 89.17 490.25 C92.31 488.86 94.64 487.16 97.31 485 C98.2 484.3 99.08 483.6 99.99 482.88 C100.65 482.26 101.32 481.64 102 481 C102 480.34 102 479.68 102 479 C102.56 478.75 103.11 478.5 103.69 478.25 C106.42 476.77 108.68 475.07 111 473 C111 472.34 111 471.68 111 471 C111.99 470.67 112.98 470.34 114 470 C114 469.34 114 468.68 114 468 C114.66 468 115.32 468 116 468 C116 467.34 116 466.68 116 466 C116.99 465.67 117.98 465.34 119 465 C119 464.34 119 463.68 119 463 C119.66 463 120.32 463 121 463 C122.58 461.52 122.58 461.52 124.12 459.62 C124.66 459 125.2 458.37 125.76 457.73 C127.19 456.08 127.19 456.08 127 454 C127.66 454 128.32 454 129 454 C130.8 451.91 132.47 449.82 134.12 447.62 C134.59 447.02 135.06 446.42 135.54 445.8 C138.14 442.74 138.14 442.74 139 439 C139.66 439 140.32 439 141 439 C142.4 437.29 142.4 437.29 143.79 435.05 C144.34 434.21 144.88 433.37 145.44 432.5 C146.02 431.59 146.59 430.68 147.19 429.75 C147.78 428.83 148.37 427.91 148.97 426.96 C158.98 411.26 167.78 395.52 173.7 377.82 C174.7 374.81 175.85 371.91 177.12 369 C179.76 362.59 181.05 355.8 182.54 349.05 C182.95 347.22 183.4 345.4 183.85 343.58 C185.51 336.84 186.6 330.18 187.35 323.29 C187.68 320.37 188.07 317.8 189 315 C189.1 313.43 189.15 311.85 189.16 310.28 C189.18 308.84 189.18 308.84 189.19 307.37 C189.19 306.33 189.2 305.29 189.2 304.22 C189.21 303.14 189.21 302.05 189.22 300.94 C189.23 298.63 189.24 296.33 189.24 294.03 C189.25 290.57 189.28 287.11 189.31 283.65 C189.39 266.81 187.69 251.23 183.68 234.86 C183.04 232.16 182.5 229.47 182 226.75 C181.24 222.86 180.16 219.22 178.85 215.48 C177.83 212.49 176.95 209.47 176.06 206.44 C174.71 202.02 173.19 198.03 171.01 193.97 C169.03 190.11 167.57 186.03 166 182 C165.33 180.33 164.67 178.67 164 177 C163.34 177 162.68 177 162 177 C161.49 175.15 161.49 175.15 160.96 173.26 C158.83 166.88 155.24 161.5 151.62 155.88 C150.96 154.83 150.31 153.78 149.62 152.71 C144.56 144.68 144.56 144.68 139 137 C138.34 137 137.68 137 137 137 C136.75 136.46 136.51 135.93 136.25 135.38 C134.69 132.42 132.97 129.7 131 127 C130.34 127 129.68 127 129 127 C128.62 126.12 128.62 126.12 128.22 125.23 C126.89 122.81 125.43 121.27 123.44 119.38 C120.1 116.19 120.1 116.19 119 114 C118.34 114 117.68 114 117 114 C116.6 113.04 116.6 113.04 116.19 112.06 C115.11 109.67 115.11 109.67 112 109 C112 108.34 112 107.68 112 107 C110.31 105.3 110.31 105.3 108.19 103.56 C104.15 100.16 104.15 100.16 102.36 98.28 C101.07 96.77 101.07 96.77 99 97 C99 96.34 99 95.68 99 95 C97.26 93.55 95.46 92.19 93.62 90.88 C92.13 89.79 92.13 89.79 90.6 88.68 C88.24 86.82 88.24 86.82 86 87 C86 86.34 86 85.68 86 85 C82.78 82.68 82.78 82.68 79 82 C79 81.34 79 80.68 79 80 C77.47 79.14 77.47 79.14 75.91 78.26 C72.94 76.56 70.02 74.77 67.12 72.96 C53.94 64.78 39.74 57.84 25 53 C23.6 52.49 22.21 51.97 20.81 51.44 C19.87 51.08 19.87 51.08 18.9 50.72 C17.59 50.22 16.28 49.71 14.98 49.18 C10.63 47.46 6.67 46.59 2 46 C-1.25 45.15 -4.39 44.24 -7.52 43.03 C-12.33 41.61 -17.15 41.08 -22.12 40.5 C-23.18 40.37 -24.24 40.25 -25.33 40.12 C-28.55 39.74 -31.78 39.37 -35 39 C-35.94 38.89 -36.88 38.78 -37.85 38.67 C-40.44 38.37 -43.03 38.09 -45.62 37.81 C-46.74 37.69 -46.74 37.69 -47.88 37.56 C-59.64 36.36 -71.34 37.01 -83.07 38.17 Z M-832 232 C-832.62 241.85 -833.15 251.53 -833.19 261.38 C-833.2 262.61 -833.21 263.85 -833.21 265.12 C-833.23 267.78 -833.25 270.45 -833.26 273.11 C-833.28 277.39 -833.31 281.68 -833.34 285.97 C-833.39 294.38 -833.44 302.79 -833.49 311.2 C-833.55 321.72 -833.61 332.25 -833.68 342.77 C-833.7 346.3 -833.72 349.82 -833.74 353.35 C-833.84 371.96 -834.08 390.57 -834.4 409.18 C-834.93 441.15 -835.19 473.11 -835.27 505.08 C-835.28 512.1 -835.31 519.13 -835.33 526.16 C-835.37 538.76 -835.41 551.36 -835.45 563.96 C-835.45 564.7 -835.45 565.45 -835.45 566.21 C-835.47 571.47 -835.48 576.74 -835.5 582 C-835.52 588.01 -835.53 594.03 -835.55 600.04 C-835.55 600.78 -835.56 601.52 -835.56 602.29 C-835.6 614.86 -835.64 627.44 -835.68 640.02 C-835.7 646.99 -835.72 653.96 -835.74 660.93 C-835.81 687.88 -835.96 714.83 -836.44 741.78 C-837.11 779.18 -837.12 816.58 -837.07 853.98 C-837.06 863.07 -837.06 872.16 -837.05 881.25 C-837.04 899.83 -837.02 918.42 -837 937 C-836.04 937 -835.09 937 -834.1 937 C-777.4 937.08 -720.7 937.18 -664 937.28 C-657.19 937.29 -650.39 937.31 -643.58 937.32 C-642.9 937.32 -642.22 937.32 -641.53 937.32 C-619.58 937.36 -597.63 937.39 -575.68 937.42 C-552.48 937.46 -529.28 937.5 -506.08 937.54 C-492.19 937.57 -478.29 937.59 -464.39 937.61 C-454.87 937.62 -445.34 937.64 -435.81 937.66 C-430.32 937.67 -424.82 937.68 -419.32 937.68 C-414.29 937.69 -409.25 937.7 -404.22 937.71 C-402.4 937.72 -400.58 937.72 -398.76 937.72 C-388.86 937.71 -379.48 937.84 -370 941 C-370 941.66 -370 942.32 -370 943 C-369.4 943.54 -368.8 944.07 -368.19 944.62 C-362.53 950.76 -362.56 958.17 -362.58 966.07 C-362.57 967.15 -362.57 968.23 -362.56 969.34 C-362.53 972.89 -362.53 976.44 -362.52 979.99 C-362.51 982.46 -362.49 984.94 -362.48 987.41 C-362.43 993.9 -362.41 1000.4 -362.39 1006.89 C-362.35 1017.3 -362.29 1027.72 -362.23 1038.13 C-362.21 1041.77 -362.2 1045.41 -362.19 1049.05 C-362.18 1051.27 -362.17 1053.49 -362.16 1055.71 C-362.16 1056.73 -362.16 1057.75 -362.15 1058.8 C-362.15 1059.72 -362.14 1060.65 -362.14 1061.6 C-362.13 1062.81 -362.13 1062.81 -362.13 1064.04 C-362.12 1066.08 -362.12 1066.08 -361 1068 C-360.82 1069.6 -360.68 1071.21 -360.56 1072.81 C-360.21 1076.62 -359.57 1079.5 -358 1083 C-357.62 1084.42 -357.25 1085.83 -356.88 1087.25 C-353.45 1098.84 -347.57 1111.53 -340 1121 C-339.34 1121 -338.68 1121 -338 1121 C-337.75 1121.54 -337.5 1122.07 -337.25 1122.62 C-335.69 1125.58 -333.97 1128.3 -332 1131 C-331.34 1131 -330.68 1131 -330 1131 C-330 1131.66 -330 1132.32 -330 1133 C-328.67 1134.67 -328.67 1134.67 -327 1136 C-326.34 1136 -325.68 1136 -325 1136 C-325 1136.66 -325 1137.32 -325 1138 C-322.93 1139.82 -320.87 1141.51 -318.69 1143.19 C-318.05 1143.68 -317.41 1144.17 -316.76 1144.68 C-300.11 1157.43 -282.67 1165.35 -262 1169 C-261.1 1169.21 -260.2 1169.41 -259.27 1169.62 C-232.69 1175.55 -203.42 1167.52 -180.27 1154.3 C-178.21 1153.12 -176.13 1152.04 -174 1151 C-174 1150.34 -174 1149.68 -174 1149 C-173.43 1148.74 -172.86 1148.48 -172.28 1148.21 C-169.8 1146.9 -167.76 1145.37 -165.56 1143.62 C-164.82 1143.04 -164.08 1142.45 -163.32 1141.85 C-162.55 1141.24 -161.79 1140.63 -161 1140 C-160.17 1139.37 -159.34 1138.75 -158.49 1138.11 C-155.81 1135.84 -153.75 1133.44 -151.56 1130.69 C-149 1127.48 -146.42 1124.31 -143.69 1121.25 C-140.96 1118.09 -138.96 1114.67 -137 1111 C-136.53 1110.19 -136.05 1109.37 -135.56 1108.54 C-131.75 1101.89 -129.24 1095.3 -127 1088 C-126.48 1086.56 -125.96 1085.12 -125.44 1083.69 C-121.14 1070.39 -120.57 1057.67 -120.64 1043.82 C-120.64 1041.81 -120.64 1039.8 -120.63 1037.79 C-120.62 1032.31 -120.64 1026.82 -120.65 1021.34 C-120.66 1015.41 -120.66 1009.48 -120.66 1003.56 C-120.66 992.63 -120.67 981.7 -120.69 970.78 C-120.7 960.69 -120.71 950.61 -120.72 940.52 C-120.72 939.85 -120.72 939.18 -120.72 938.49 C-120.72 935.09 -120.72 931.69 -120.72 928.28 C-120.73 904.22 -120.75 880.15 -120.77 856.08 C-120.8 832.71 -120.82 809.34 -120.84 785.96 C-120.84 785.24 -120.84 784.52 -120.84 783.78 C-120.84 776.54 -120.84 769.29 -120.85 762.05 C-120.86 747.3 -120.86 732.55 -120.87 717.79 C-120.87 717.12 -120.87 716.44 -120.87 715.74 C-120.9 670.49 -120.95 625.25 -121 580 C-125.11 577.82 -128.25 576.75 -132.89 576.3 C-135.83 575.88 -138.46 574.94 -141.24 573.95 C-143.45 573.19 -145.65 572.48 -147.88 571.8 C-148.58 571.58 -149.28 571.37 -150 571.15 C-151.38 570.73 -152.77 570.31 -154.15 569.89 C-158.58 568.53 -162.77 566.89 -167 565 C-171.81 562.89 -171.81 562.89 -176.75 561.12 C-192.37 555.72 -207.11 546.84 -221 538 C-222.01 537.37 -223.03 536.74 -224.07 536.09 C-231.4 531.5 -231.4 531.5 -234.69 528.8 C-236.78 526.8 -236.78 526.8 -239 527 C-239 526.34 -239 525.68 -239 525 C-240.32 524.67 -241.64 524.34 -243 524 C-243 523.34 -243 522.68 -243 522 C-245.64 519.6 -245.64 519.6 -249 519 C-249 518.34 -249 517.68 -249 517 C-250.65 515.55 -250.65 515.55 -252.75 514.12 C-255.78 511.94 -258.36 509.64 -261 507 C-261.66 507 -262.32 507 -263 507 C-263.33 506.01 -263.66 505.02 -264 504 C-264.66 504 -265.32 504 -266 504 C-266 503.34 -266 502.68 -266 502 C-267.53 500.49 -267.53 500.49 -269.44 499 C-272.9 496.2 -272.9 496.2 -274 494 C-274.66 494 -275.32 494 -276 494 C-276 493.34 -276 492.68 -276 492 C-276.66 492 -277.32 492 -278 492 C-278.25 491.44 -278.49 490.87 -278.75 490.29 C-280.21 487.61 -281.99 485.62 -284.06 483.38 C-287.9 479.19 -287.9 479.19 -289 477 C-289.66 477 -290.32 477 -291 477 C-291.41 476.13 -291.41 476.13 -291.82 475.23 C-292.99 473.03 -294.28 471.21 -295.81 469.25 C-298.47 465.8 -300.75 462.24 -302.92 458.47 C-303.28 457.98 -303.63 457.5 -304 457 C-304.66 457 -305.32 457 -306 457 C-306.12 456.4 -306.25 455.8 -306.38 455.19 C-306.95 452.74 -306.95 452.74 -309 450 C-311.94 449.7 -314.67 449.6 -317.61 449.62 C-318.97 449.61 -318.97 449.61 -320.35 449.61 C-323.39 449.6 -326.44 449.61 -329.48 449.62 C-331.65 449.61 -333.83 449.61 -336 449.6 C-340.7 449.59 -345.39 449.58 -350.08 449.59 C-357.5 449.6 -364.92 449.58 -372.34 449.56 C-388.1 449.52 -403.86 449.51 -419.62 449.5 C-436.62 449.49 -453.61 449.47 -470.6 449.43 C-477.98 449.41 -485.35 449.41 -492.73 449.41 C-497.32 449.42 -501.92 449.4 -506.51 449.39 C-508.64 449.39 -510.77 449.39 -512.9 449.39 C-515.81 449.4 -518.71 449.39 -521.62 449.38 C-522.88 449.39 -522.88 449.39 -524.17 449.4 C-532.5 449.32 -539.05 446.95 -545 441 C-548.87 434.52 -548.94 428.37 -548 421 C-546.93 418.5 -545.76 416.59 -544.09 414.45 C-542.8 413.04 -542.8 413.04 -543 411 C-541.89 410.57 -541.89 410.57 -540.75 410.12 C-538.11 409.14 -538.11 409.14 -536.33 407.95 C-532.92 406.56 -529.56 406.71 -525.93 406.72 C-525.11 406.72 -524.29 406.71 -523.44 406.7 C-520.69 406.69 -517.94 406.68 -515.19 406.68 C-513.22 406.67 -511.24 406.66 -509.27 406.65 C-503.92 406.62 -498.56 406.61 -493.21 406.6 C-487.61 406.58 -482.02 406.55 -476.42 406.53 C-465.83 406.48 -455.23 406.44 -444.64 406.41 C-432.57 406.37 -420.51 406.32 -408.45 406.27 C-383.63 406.17 -358.82 406.08 -334 406 C-335.76 398.82 -338.2 391.81 -341.06 385 C-342.98 380.35 -344.18 375.66 -345.29 370.76 C-345.99 368.04 -346.95 365.6 -348 363 C-350.06 356.7 -351.03 350.29 -352.06 343.75 C-352.41 341.6 -352.75 339.45 -353.1 337.3 C-353.25 336.35 -353.4 335.41 -353.55 334.43 C-353.97 331.87 -353.97 331.87 -355 329 C-355.2 326.39 -355.37 323.8 -355.5 321.19 C-355.76 315.7 -355.76 315.7 -356.51 310.27 C-357.09 306.41 -357.14 302.64 -357.13 298.75 C-357.13 297.59 -357.13 297.59 -357.14 296.4 C-357.14 294.76 -357.13 293.13 -357.13 291.5 C-357.13 289.01 -357.13 286.52 -357.14 284.03 C-357.14 282.44 -357.13 280.84 -357.13 279.25 C-357.13 278.51 -357.14 277.77 -357.14 277.01 C-357.12 272.9 -356.75 269.04 -356 265 C-355.83 262.29 -355.68 259.59 -355.56 256.88 C-355.25 250.62 -354.59 244.58 -353.4 238.42 C-352.89 235.75 -352.89 235.75 -353 232 C-511.07 232 -669.14 232 -832 232 Z M-1005 982 C-1005.11 984.6 -1005.15 987.18 -1005.15 989.79 C-1005.15 990.61 -1005.15 991.42 -1005.16 992.26 C-1005.16 994.98 -1005.17 997.69 -1005.17 1000.41 C-1005.17 1002.3 -1005.17 1004.18 -1005.18 1006.07 C-1005.18 1010.03 -1005.19 1013.99 -1005.19 1017.95 C-1005.19 1023.02 -1005.2 1028.08 -1005.22 1033.15 C-1005.23 1037.05 -1005.23 1040.95 -1005.23 1044.84 C-1005.23 1046.71 -1005.23 1048.58 -1005.24 1050.44 C-1005.25 1053.06 -1005.25 1055.68 -1005.24 1058.3 C-1005.25 1059.07 -1005.25 1059.83 -1005.26 1060.62 C-1005.23 1065.73 -1004.38 1070.08 -1003 1075 C-1002.54 1077.15 -1002.08 1079.29 -1001.62 1081.44 C-1000.53 1086.25 -999.12 1090.56 -996.96 1095 C-996 1097 -996 1097 -995.14 1099.27 C-990.76 1109.79 -984.44 1119.42 -977 1128 C-976.04 1129.21 -975.08 1130.42 -974.12 1131.62 C-973.42 1132.41 -972.72 1133.19 -972 1134 C-971.34 1134 -970.68 1134 -970 1134 C-970 1134.66 -970 1135.32 -970 1136 C-969.34 1136 -968.68 1136 -968 1136 C-968 1136.66 -968 1137.32 -968 1138 C-966.51 1139.33 -964.96 1140.59 -963.38 1141.81 C-960.5 1144.05 -957.66 1146.27 -954.94 1148.69 C-948.13 1154.05 -948.13 1154.05 -940 1156 C-940 1156.66 -940 1157.32 -940 1158 C-928.41 1162.98 -917.51 1167.05 -905 1169 C-904.01 1169.24 -904.01 1169.24 -903 1169.48 C-892.87 1171.78 -882.5 1171.27 -872.18 1171.24 C-869.94 1171.24 -867.7 1171.24 -865.47 1171.25 C-859.33 1171.25 -853.2 1171.24 -847.07 1171.23 C-841.13 1171.22 -835.19 1171.23 -829.26 1171.23 C-817.11 1171.23 -804.97 1171.22 -792.83 1171.21 C-780.81 1171.2 -768.8 1171.19 -756.78 1171.19 C-755.66 1171.19 -755.66 1171.19 -754.51 1171.19 C-750.71 1171.19 -746.92 1171.19 -743.12 1171.19 C-716.23 1171.18 -689.34 1171.17 -662.46 1171.15 C-636.34 1171.13 -610.22 1171.12 -584.11 1171.11 C-582.9 1171.11 -582.9 1171.11 -581.67 1171.11 C-573.58 1171.11 -565.49 1171.1 -557.4 1171.1 C-540.93 1171.1 -524.45 1171.09 -507.98 1171.08 C-507.22 1171.08 -506.47 1171.08 -505.68 1171.08 C-455.12 1171.07 -404.56 1171.03 -354 1171 C-354.66 1169.68 -355.32 1168.36 -356 1167 C-356.66 1167 -357.32 1167 -358 1167 C-358.33 1166.01 -358.66 1165.02 -359 1164 C-359.66 1164 -360.32 1164 -361 1164 C-361 1163.34 -361 1162.68 -361 1162 C-361.66 1162 -362.32 1162 -363 1162 C-363.25 1161.44 -363.5 1160.87 -363.75 1160.29 C-365.2 1157.63 -366.95 1155.6 -368.94 1153.31 C-378.9 1141.33 -387.92 1127.53 -393.03 1112.77 C-393.99 1110.04 -395.03 1107.37 -396.12 1104.69 C-398.73 1098.22 -400.59 1091.83 -402 1085 C-402.25 1083.92 -402.49 1082.84 -402.74 1081.72 C-405.1 1070.57 -405.46 1059.81 -405.48 1048.44 C-405.49 1046.52 -405.51 1044.59 -405.52 1042.67 C-405.57 1037.65 -405.59 1032.64 -405.61 1027.63 C-405.65 1019.56 -405.71 1011.48 -405.77 1003.41 C-405.79 1000.6 -405.8 997.78 -405.81 994.97 C-405.82 993.26 -405.83 991.55 -405.84 989.85 C-405.84 989.06 -405.84 988.28 -405.85 987.47 C-405.55 983.94 -405.55 983.94 -407 981 C-410.16 980.9 -413.29 980.87 -416.44 980.87 C-417.96 980.87 -417.96 980.87 -419.5 980.87 C-422.93 980.87 -426.35 980.87 -429.78 980.87 C-432.24 980.87 -434.7 980.87 -437.17 980.87 C-442.54 980.86 -447.92 980.86 -453.3 980.87 C-461.3 980.87 -469.29 980.87 -477.29 980.87 C-491.57 980.86 -505.85 980.86 -520.12 980.86 C-532.62 980.87 -545.11 980.87 -557.61 980.87 C-558.44 980.87 -559.26 980.87 -560.12 980.87 C-563.47 980.87 -566.83 980.87 -570.19 980.86 C-601.72 980.86 -633.26 980.86 -664.79 980.87 C-692.83 980.87 -720.87 980.87 -748.91 980.87 C-780.39 980.86 -811.86 980.86 -843.33 980.87 C-846.69 980.87 -850.04 980.87 -853.39 980.87 C-854.22 980.87 -855.04 980.87 -855.89 980.87 C-868.38 980.87 -880.87 980.87 -893.36 980.86 C-907.56 980.86 -921.75 980.86 -935.95 980.87 C-943.9 980.87 -951.86 980.87 -959.81 980.87 C-965.73 980.86 -971.66 980.87 -977.58 980.87 C-979.99 980.87 -982.4 980.87 -984.8 980.87 C-988.05 980.87 -991.31 980.87 -994.56 980.87 C-995.99 980.87 -995.99 980.87 -997.45 980.87 C-1001.55 980.46 -1001.55 980.46 -1005 982 Z " fill="#000000" transform="translate(1048,36)"/>
<path d="M0 0 C0.87 0.78 1.73 1.57 2.62 2.38 C3.16 2.85 3.69 3.32 4.24 3.81 C10.89 10.44 10.69 18.69 10.75 27.57 C10.75 31.17 10.7 34.77 10.62 38.38 C11.34 38.51 12.05 38.64 12.78 38.78 C31.4 42.69 50.92 55.38 61.62 71.38 C61.62 72.03 61.62 72.69 61.62 73.38 C62.29 73.38 62.94 73.38 63.62 73.38 C65.67 76.28 66.62 77.78 66.62 81.38 C67.29 81.38 67.94 81.38 68.62 81.38 C68.88 82.02 69.13 82.66 69.39 83.32 C69.74 84.18 70.08 85.05 70.44 85.94 C70.8 86.86 71.17 87.78 71.55 88.73 C72.37 90.76 73.27 92.76 74.19 94.75 C77.7 103.6 78.92 111.77 79 121.25 C79.01 122.15 79.03 123.06 79.04 123.99 C79.01 129.22 78.47 132.82 75.62 137.38 C74.96 137.38 74.31 137.38 73.62 137.38 C73.44 137.95 73.25 138.53 73.06 139.12 C70.61 142.96 66.64 144.37 62.62 146.38 C55.39 147.12 49.67 146.56 43.62 142.38 C41.12 140.25 41.12 140.25 39.62 138.38 C39.62 137.72 39.62 137.06 39.62 136.38 C38.96 136.38 38.31 136.38 37.62 136.38 C35.73 130.99 34.47 125.97 34.12 120.25 C33.8 115.02 32.65 111.19 30.62 106.38 C30.25 104.72 29.89 103.05 29.62 101.38 C28.97 101.38 28.31 101.38 27.62 101.38 C24.62 96.99 24.62 96.99 24.62 94.38 C23.97 94.38 23.31 94.38 22.62 94.38 C22.62 93.72 22.62 93.06 22.62 92.38 C21.14 91.88 21.14 91.88 19.62 91.38 C19.62 90.72 19.62 90.06 19.62 89.38 C18.94 89.13 18.26 88.88 17.56 88.62 C14.62 87.38 14.62 87.38 11.44 85.44 C1.11 79.53 -11.2 78.46 -22.69 81.5 C-27.19 83.07 -31.14 85.41 -35.15 87.97 C-37.38 89.38 -37.38 89.38 -39.6 90.44 C-41.95 91.68 -42.32 92.98 -43.38 95.38 C-44.88 97.62 -44.88 97.62 -46.38 99.38 C-47.03 99.38 -47.7 99.38 -48.38 99.38 C-48.48 99.89 -48.58 100.41 -48.69 100.94 C-49.38 103.38 -49.38 103.38 -50.81 106.44 C-55.65 117.67 -55.24 130.45 -51.46 141.96 C-49.78 145.7 -47.47 148.89 -45 152.15 C-43.38 154.38 -43.38 154.38 -42.41 156.54 C-41.07 158.91 -39.86 159.33 -37.38 160.38 C-35.11 161.62 -32.85 162.89 -30.59 164.16 C-23.13 168.26 -16.02 169.34 -7.49 169.61 C7.6 170.14 21.47 173.91 34.62 181.38 C35.95 182.05 37.29 182.72 38.62 183.38 C38.62 184.03 38.62 184.69 38.62 185.38 C39.41 185.68 40.19 185.99 41 186.31 C43.63 187.38 43.63 187.38 45.62 188.38 C45.62 189.03 45.62 189.69 45.62 190.38 C46.2 190.62 46.77 190.87 47.36 191.13 C62.16 199.27 71.67 218.88 76.56 234.44 C82.76 256.53 79.89 281.13 68.85 301.1 C63.89 309.6 58.05 317.85 50.62 324.38 C49.96 324.38 49.31 324.38 48.62 324.38 C48.3 325.37 47.96 326.36 47.62 327.38 C46.96 327.38 46.31 327.38 45.62 327.38 C45.62 328.04 45.62 328.69 45.62 329.38 C41.24 332.38 41.24 332.38 38.62 332.38 C38.62 333.04 38.62 333.69 38.62 334.38 C30.05 339.54 21.24 342.68 11.62 345.38 C11.61 345.93 11.59 346.48 11.56 347.05 C10.53 374.43 10.53 374.43 3.62 382.38 C2.97 382.38 2.31 382.38 1.62 382.38 C1.62 383.04 1.62 383.69 1.62 384.38 C-4.11 387.84 -10.17 389.05 -16.8 387.98 C-18.68 387.52 -20.53 386.96 -22.38 386.38 C-22.38 385.71 -22.38 385.06 -22.38 384.38 C-23.37 384.38 -24.36 384.38 -25.38 384.38 C-25.38 383.71 -25.38 383.06 -25.38 382.38 C-25.97 382.15 -26.57 381.92 -27.19 381.69 C-30.52 379.69 -31.81 377.22 -32.94 373.53 C-34.46 367.24 -34.61 361.26 -34.5 354.81 C-34.49 353.8 -34.48 352.8 -34.47 351.76 C-34.45 349.3 -34.42 346.84 -34.38 344.38 C-34.98 344.23 -35.59 344.08 -36.22 343.92 C-45.97 341.44 -54.08 336.91 -62.38 331.38 C-62.38 330.71 -62.38 330.06 -62.38 329.38 C-63.37 329.38 -64.36 329.38 -65.38 329.38 C-65.38 328.71 -65.38 328.06 -65.38 327.38 C-66.23 327 -66.23 327 -67.11 326.62 C-75.02 322.26 -80.63 313.83 -85.38 306.38 C-85.98 305.44 -86.59 304.5 -87.22 303.53 C-91.13 297.23 -93.68 291.14 -95.65 283.99 C-96.27 281.42 -96.27 281.42 -97.38 279.38 C-100.96 258.16 -100.96 258.16 -96.38 248.38 C-89.43 239.27 -89.43 239.27 -84.25 237.75 C-77.15 236.82 -70.28 236.45 -64.3 240.93 C-59.03 245.34 -56.46 248.54 -55.48 255.45 C-55.25 256.91 -55.25 256.91 -55.02 258.41 C-54.72 260.45 -54.42 262.48 -54.14 264.52 C-52.67 273.83 -49.47 281.15 -43.38 288.38 C-43.38 289.04 -43.38 289.69 -43.38 290.38 C-42.72 290.38 -42.05 290.38 -41.38 290.38 C-41.38 291.04 -41.38 291.69 -41.38 292.38 C-40.5 292.79 -40.5 292.79 -39.61 293.22 C-36.86 294.64 -34.34 296.33 -31.77 298.06 C-24.39 302.12 -18.24 302.87 -9.94 302.81 C-8.95 302.83 -7.97 302.85 -6.95 302.87 C-0.2 302.87 4.73 301.64 10.62 298.38 C11.93 297.65 11.93 297.65 13.26 296.92 C17.73 293.96 21.18 290.98 24.43 286.7 C24.83 286.26 25.22 285.82 25.62 285.38 C26.28 285.38 26.94 285.38 27.62 285.38 C27.73 284.82 27.83 284.26 27.94 283.69 C28.62 281.38 28.62 281.38 30.06 279.06 C33.82 272.6 33.96 266.24 33.94 258.94 C33.95 258.03 33.97 257.13 33.99 256.2 C33.99 245.11 29.48 235.12 21.81 227.12 C12.92 218.74 3.5 215.17 -8.56 214.31 C-10.43 214.15 -12.3 213.99 -14.17 213.83 C-15.07 213.75 -15.96 213.67 -16.89 213.6 C-40.82 211.47 -61.97 201.16 -77.99 183.06 C-85.81 173.55 -91.64 163.09 -95.38 151.38 C-95.72 150.42 -96.07 149.47 -96.43 148.5 C-97.52 144.9 -98.07 141.34 -98.5 137.62 C-98.58 136.92 -98.67 136.21 -98.75 135.47 C-101.42 111.55 -95.15 88.96 -80.64 69.67 C-80.01 69.03 -80.01 69.03 -79.38 68.38 C-78.72 68.38 -78.05 68.38 -77.38 68.38 C-77.21 67.69 -77.04 67.01 -76.88 66.31 C-74.31 61.29 -69.75 57.17 -64.38 55.38 C-64.38 54.72 -64.38 54.06 -64.38 53.38 C-55.47 47.02 -46.3 41.73 -35.38 40.38 C-35.35 39.45 -35.35 39.45 -35.31 38.5 C-35.22 35.64 -35.11 32.79 -35 29.94 C-34.97 28.96 -34.94 27.99 -34.91 26.99 C-34.24 10.41 -34.24 10.41 -28.44 4.44 C-27.75 3.71 -27.06 2.98 -26.35 2.22 C-19.39 -4.29 -8.32 -4 0 0 Z " fill="#000000" transform="translate(994.375,133.625)"/>
<path d="M0 0 C1.19 -0.01 2.38 -0.01 3.6 -0.02 C6.89 -0.03 10.18 -0.03 13.47 -0.03 C17.02 -0.02 20.57 -0.04 24.12 -0.05 C31.07 -0.07 38.02 -0.08 44.97 -0.07 C50.62 -0.07 56.28 -0.08 61.93 -0.08 C63.56 -0.09 65.18 -0.09 66.81 -0.09 C67.62 -0.09 68.43 -0.09 69.27 -0.09 C84.59 -0.11 99.92 -0.11 115.25 -0.11 C129.26 -0.1 143.28 -0.12 157.3 -0.15 C171.69 -0.19 186.09 -0.2 200.49 -0.2 C208.57 -0.2 216.65 -0.2 224.73 -0.23 C231.61 -0.25 238.49 -0.25 245.37 -0.23 C248.88 -0.22 252.39 -0.22 255.9 -0.24 C259.7 -0.26 263.51 -0.25 267.32 -0.23 C268.42 -0.24 269.53 -0.25 270.66 -0.26 C277.24 -0.19 282.38 0.7 287.28 5.39 C287.61 6.38 287.94 7.37 288.28 8.39 C288.94 8.39 289.6 8.39 290.28 8.39 C294.23 15.23 294.3 21.68 293.28 29.39 C291.84 32.77 290.01 34.96 287.28 37.39 C286.74 37.89 286.2 38.39 285.64 38.91 C278.26 44.92 268.93 44.69 259.84 44.66 C258.71 44.66 257.59 44.66 256.43 44.67 C252.69 44.68 248.94 44.67 245.19 44.67 C242.5 44.67 239.81 44.68 237.12 44.68 C230.57 44.7 224.02 44.7 217.48 44.7 C212.16 44.69 206.83 44.7 201.51 44.7 C200.37 44.7 200.37 44.7 199.21 44.7 C197.67 44.7 196.13 44.71 194.58 44.71 C180.14 44.72 165.69 44.72 151.25 44.71 C138.05 44.7 124.85 44.72 111.65 44.73 C98.08 44.75 84.51 44.76 70.94 44.76 C63.33 44.76 55.71 44.76 48.1 44.77 C41.62 44.78 35.14 44.79 28.66 44.77 C25.36 44.77 22.06 44.77 18.75 44.78 C15.16 44.79 11.58 44.78 7.99 44.77 C6.44 44.78 6.44 44.78 4.86 44.79 C-5.08 44.72 -13.55 43.23 -21.06 36.41 C-24.98 31.64 -26.13 27.51 -26.09 21.39 C-26.1 20.22 -26.11 19.04 -26.11 17.83 C-25.68 14.1 -24.58 11.63 -22.72 8.39 C-22.06 8.39 -21.4 8.39 -20.72 8.39 C-20.39 7.4 -20.06 6.41 -19.72 5.39 C-19.06 5.39 -18.4 5.39 -17.72 5.39 C-17.72 4.73 -17.72 4.07 -17.72 3.39 C-12.02 -0.31 -6.65 -0.03 0 0 Z " fill="#000000" transform="translate(524.7151794433594,623.6055908203125)"/>
<path d="M0 0 C1.17 -0 2.35 -0.01 3.56 -0.01 C6.8 -0.02 10.04 -0.02 13.29 0 C16.79 0.01 20.29 0 23.8 -0 C30.65 -0.01 37.51 -0 44.37 0.02 C52.35 0.04 60.34 0.04 68.33 0.04 C82.58 0.04 96.83 0.05 111.08 0.08 C124.9 0.11 138.73 0.13 152.55 0.12 C153.83 0.12 153.83 0.12 155.13 0.12 C155.98 0.12 156.83 0.12 157.71 0.12 C173.45 0.12 189.2 0.13 204.94 0.15 C210.51 0.16 216.08 0.16 221.64 0.16 C228.42 0.16 235.21 0.17 241.99 0.19 C245.45 0.2 248.91 0.2 252.37 0.2 C256.12 0.2 259.87 0.21 263.62 0.23 C264.71 0.22 265.81 0.22 266.93 0.22 C272.08 0.25 276.38 0.42 281.18 2.49 C281.18 3.15 281.18 3.81 281.18 4.49 C282.05 4.87 282.05 4.87 282.93 5.24 C286.89 7.44 289.55 10.28 291.18 14.49 C291.48 17.96 291.48 17.96 291.5 21.87 C291.51 23.16 291.53 24.44 291.55 25.77 C291.16 29.69 290.16 32.12 288.18 35.49 C287.52 35.49 286.86 35.49 286.18 35.49 C285.85 36.48 285.52 37.47 285.18 38.49 C279.34 44.08 272.93 44.21 265.23 44.14 C263.45 44.15 263.45 44.15 261.63 44.16 C258.35 44.18 255.07 44.18 251.78 44.16 C248.24 44.15 244.69 44.17 241.14 44.19 C234.2 44.21 227.26 44.21 220.32 44.2 C214.68 44.19 209.03 44.19 203.39 44.2 C202.59 44.2 201.78 44.2 200.95 44.21 C199.32 44.21 197.69 44.21 196.05 44.21 C180.74 44.23 165.44 44.22 150.13 44.2 C137 44.18 123.88 44.19 110.75 44.22 C95.5 44.26 80.25 44.28 64.99 44.26 C63.37 44.26 61.74 44.26 60.11 44.26 C59.31 44.26 58.51 44.26 57.68 44.26 C52.05 44.25 46.42 44.26 40.78 44.28 C33.91 44.3 27.04 44.3 20.17 44.27 C16.67 44.26 13.17 44.26 9.66 44.28 C5.86 44.3 2.06 44.28 -1.74 44.25 C-2.84 44.26 -3.94 44.28 -5.08 44.29 C-12.31 44.19 -17.49 42.6 -22.82 37.49 C-22.82 36.83 -22.82 36.17 -22.82 35.49 C-23.48 35.49 -24.14 35.49 -24.82 35.49 C-28.61 28.89 -28.61 22.95 -27.82 15.49 C-25.85 9.51 -21.67 5.63 -16.42 2.41 C-11.04 -0.21 -5.88 -0.06 0 0 Z " fill="#000000" transform="translate(526.8172912597656,804.5055236816406)"/>
<path d="M0 0 C0.93 0.27 1.87 0.53 2.83 0.81 C10.3 3.21 16.89 7.08 23 12 C23 12.66 23 13.32 23 14 C23.6 14.27 24.2 14.54 24.81 14.81 C27 16 28.41 17.1 30 19 C30 19.66 30 20.32 30 21 C31.49 21.5 31.49 21.5 33 22 C43.74 35.57 48.3 51.89 47 69 C43.94 88.21 34.77 104.27 19.12 116.06 C16 118 16 118 13 118 C13 118.66 13 119.32 13 120 C6.98 122.95 1.74 125.35 -5 126 C-6.04 126.33 -7.09 126.66 -8.16 127 C-25.18 131.44 -42.21 126.35 -57.13 118.11 C-60.26 116.25 -63.13 114.25 -66 112 C-66 111.34 -66 110.68 -66 110 C-66.64 109.73 -67.28 109.46 -67.94 109.19 C-70 108 -70 108 -71 105 C-71.66 105 -72.32 105 -73 105 C-80.41 95.62 -86.22 84.9 -88 73 C-88.13 72.16 -88.27 71.32 -88.41 70.45 C-90.4 54.8 -85.37 38.65 -77.15 25.4 C-76.77 24.94 -76.39 24.48 -76 24 C-75.34 24 -74.68 24 -74 24 C-73.76 23.26 -73.53 22.53 -73.28 21.77 C-71.8 18.57 -70.16 16.98 -67.5 14.69 C-66.71 13.99 -65.91 13.29 -65.09 12.57 C-63 11 -63 11 -61 11 C-61 10.34 -61 9.68 -61 9 C-57.01 6.98 -53.01 4.98 -49 3 C-48.2 2.6 -47.41 2.2 -46.59 1.78 C-32.1 -5.17 -15.09 -4.52 0 0 Z M-39 48 C-43.41 53.76 -45.84 58.66 -45 66 C-42.47 73.42 -38.73 78.04 -32 82 C-31.4 82.37 -30.79 82.75 -30.17 83.13 C-24.37 85.46 -16.92 84.86 -11.04 83.12 C-3.94 79.88 -0.52 75.73 2.38 68.62 C3.5 62.11 2.92 56.27 -0.71 50.63 C-4.9 45.34 -9.24 42.17 -16 41 C-24.85 40.12 -32.01 42.44 -39 48 Z " fill="#000000" transform="translate(408,763)"/>
<path d="M0 0 C5.72 5.09 10.99 10.46 15 17 C15 17.99 15 18.98 15 20 C15.66 20 16.32 20 17 20 C23.86 36.48 27.4 54.02 20.74 71.26 C12.37 90.16 -0.33 103.59 -19.33 112.04 C-37.31 118.53 -55.96 117.13 -73.25 109.38 C-74.84 108.6 -76.43 107.81 -78 107 C-78.76 106.62 -79.52 106.24 -80.3 105.85 C-80.86 105.57 -81.42 105.29 -82 105 C-82 104.34 -82 103.68 -82 103 C-82.68 102.79 -83.36 102.59 -84.06 102.38 C-95.84 96.86 -102.82 83.79 -108.19 72.5 C-110.55 65.22 -111.36 58.26 -111.31 50.62 C-111.31 49.7 -111.3 48.77 -111.3 47.82 C-111.18 41.15 -110.52 35.23 -108 29 C-107.66 28.11 -107.32 27.21 -106.97 26.29 C-102.49 15.48 -95.53 5.9 -86 -1 C-85.34 -1 -84.68 -1 -84 -1 C-84 -1.66 -84 -2.32 -84 -3 C-79.12 -7.11 -73.19 -9.2 -67.22 -11.2 C-65.06 -11.8 -65.06 -11.8 -64 -13 C-41.46 -19.28 -18.33 -14.2 0 0 Z M-63 37 C-66.29 41.55 -68.88 46.06 -68.5 51.88 C-67.48 56.23 -65.54 60.32 -63 64 C-62.01 64.33 -61.02 64.66 -60 65 C-60 65.66 -60 66.32 -60 67 C-52.75 71.49 -46.53 73.38 -38 72 C-31.16 69.81 -25.8 66.15 -22 60 C-19.45 54.01 -19.44 48.17 -21.72 42.08 C-24.94 35.8 -29.95 31.51 -36.56 29.12 C-46.49 26.33 -55.86 29.53 -63 37 Z " fill="#000000" transform="translate(431,595)"/>
<path d="M0 0 C1.84 0.97 3.68 1.78 5.6 2.57 C8.57 3.86 11.25 5.16 13.91 7.01 C13.91 7.67 13.91 8.33 13.91 9.01 C14.53 9.32 15.15 9.63 15.79 9.95 C17.16 10.63 18.54 11.32 19.91 12.01 C19.91 12.67 19.91 13.33 19.91 14.01 C20.57 14.01 21.23 14.01 21.91 14.01 C26.91 19.48 26.91 19.48 26.91 22.01 C27.57 22.01 28.23 22.01 28.91 22.01 C33.02 26.89 35.11 32.82 37.11 38.79 C37.71 40.95 37.71 40.95 38.91 42.01 C43.82 62.79 39.79 80.01 28.91 98.01 C28.25 98.01 27.59 98.01 26.91 98.01 C26.68 98.54 26.46 99.08 26.22 99.63 C23.7 104.19 20.36 108.25 15.91 111.01 C15.25 111.01 14.59 111.01 13.91 111.01 C13.91 111.67 13.91 112.33 13.91 113.01 C9.03 117.12 3.1 119.21 -2.87 121.21 C-5.03 121.81 -5.03 121.81 -6.09 123.01 C-17.33 125.73 -27.63 126.41 -39.09 125.01 C-39.89 124.93 -40.7 124.85 -41.53 124.77 C-52.81 123.01 -64.79 115.54 -73.09 108.01 C-73.76 107.41 -74.43 106.81 -75.11 106.19 C-78.42 103.07 -80.86 100.51 -82.09 96.01 C-82.75 96.01 -83.41 96.01 -84.09 96.01 C-86.09 92.01 -88.09 88.01 -90.09 84.01 C-90.46 83.3 -90.83 82.6 -91.22 81.87 C-95.84 71.98 -95.56 59.55 -94.09 49.01 C-94 48.28 -93.91 47.56 -93.82 46.81 C-91.14 30.88 -79.41 15.91 -66.78 6.38 C-47.95 -6.49 -20.7 -11.11 0 0 Z M-46.09 45.88 C-49.77 51.63 -52.44 57.07 -51.09 64.01 C-48.21 71.42 -45.28 76.22 -38.03 79.7 C-31.69 82.45 -26.35 83.3 -19.68 81.27 C-13.7 78.84 -8.93 75.74 -5.28 70.32 C-2.89 63.67 -2.12 57.39 -5.09 50.82 C-8.81 44.07 -13.18 41.65 -20.09 39.01 C-20.75 38.68 -21.41 38.35 -22.09 38.01 C-30.81 36.81 -40.05 39.14 -46.09 45.88 Z " fill="#000000" transform="translate(414.08984375,404.9921875)"/>
</svg>
