<?xml version="1.0" encoding="UTF-8"?>
<!-- Generator: visioncortex VTracer 0.6.3 -->
<svg version="1.1" xmlns="http://www.w3.org/2000/svg" width="1280" height="1280">
<path d="M0 0 C3.21 0.21 6.41 0.32 9.62 0.44 C19.94 0.89 29.85 2.2 39.9 4.57 C42.04 5.01 44.14 5.24 46.31 5.44 C50.87 5.89 55.17 6.95 59.6 8.11 C62.11 8.77 64.63 9.4 67.15 10.02 C67.86 10.19 68.57 10.36 69.3 10.54 C70.69 10.88 72.09 11.22 73.48 11.55 C77.13 12.45 80.52 13.59 84 15 C85.87 15.49 87.74 15.94 89.62 16.38 C94.64 17.6 99.4 19.14 104.21 20.97 C107.14 22.05 110.09 22.96 113.06 23.88 C122.52 27.01 130.97 31.82 136.25 40.5 C139.74 47.48 139.55 54.44 138 62 C136.42 65.38 134.63 68.42 132.59 71.54 C130.87 73.98 130.87 73.98 130 77 C129.34 77 128.68 77 128 77 C127.89 77.56 127.78 78.12 127.66 78.7 C126.91 81.32 125.79 83.39 124.44 85.75 C123.75 86.95 123.75 86.95 123.06 88.17 C122.53 89.08 122.53 89.08 122 90 C121.34 90 120.68 90 120 90 C119.88 90.57 119.76 91.14 119.63 91.73 C118.97 94.1 118.06 96.07 116.94 98.25 C116.58 98.96 116.21 99.66 115.84 100.39 C115.42 101.19 115.42 101.19 115 102 C114.34 102 113.68 102 113 102 C112.89 102.56 112.78 103.12 112.66 103.7 C111.91 106.32 110.79 108.39 109.44 110.75 C108.75 111.95 108.75 111.95 108.06 113.17 C107.53 114.08 107.53 114.08 107 115 C106.34 115 105.68 115 105 115 C104.88 115.57 104.76 116.14 104.63 116.73 C103.97 119.1 103.06 121.07 101.94 123.25 C101.58 123.96 101.21 124.66 100.84 125.39 C100.42 126.19 100.42 126.19 100 127 C99.34 127 98.68 127 98 127 C97.89 127.57 97.77 128.15 97.65 128.74 C96.93 131.23 95.91 133.03 94.53 135.22 C93.8 136.4 93.8 136.4 93.05 137.6 C92.54 138.41 92.03 139.23 91.5 140.06 C90.49 141.68 89.48 143.29 88.47 144.91 C87.79 145.98 87.79 145.98 87.11 147.07 C85.85 149.11 85.85 149.11 85 152 C84.34 152 83.68 152 83 152 C82.89 152.56 82.78 153.12 82.66 153.7 C81.91 156.32 80.79 158.39 79.44 160.75 C78.98 161.55 78.53 162.35 78.06 163.17 C77.71 163.78 77.36 164.38 77 165 C76.34 165 75.68 165 75 165 C74.88 165.57 74.76 166.14 74.63 166.73 C73.97 169.1 73.06 171.07 71.94 173.25 C71.58 173.96 71.21 174.66 70.84 175.39 C70.56 175.92 70.29 176.45 70 177 C69.34 177 68.68 177 68 177 C67.92 177.53 67.84 178.07 67.75 178.62 C66.72 181.87 64.87 184.26 62.94 187.06 C59.03 193.03 57.8 197.93 59 205 C59.33 205.99 59.66 206.98 60 208 C60.66 208 61.32 208 62 208 C63.45 209.74 64.81 211.54 66.12 213.38 C66.85 214.37 67.57 215.37 68.32 216.4 C70 219 70 219 70 221 C70.66 221 71.32 221 72 221 C73.41 222.95 73.41 222.95 75.06 225.69 C77.66 229.89 80.34 233.97 83.19 238 C91.05 249.3 98.74 260.8 104.65 273.25 C106.11 276.22 107.74 279.03 109.44 281.88 C114.67 290.72 119.31 299.84 122.97 309.45 C124.2 312.49 125.59 315.42 127 318.38 C129.4 323.51 131.29 328.63 133.01 334.03 C134.72 339.14 136.82 344.07 139 349 C139.34 349.82 139.69 350.64 140.04 351.48 C146.38 365.48 158.23 379.11 172 386 C172 386.66 172 387.32 172 388 C172.66 388.08 173.32 388.17 174 388.25 C177 389 177 389 180.56 390.81 C190.26 395.73 199.5 397.53 210.26 398.32 C223.61 399.3 231.61 401.77 240.68 411.9 C244.88 418.57 245.44 424.76 245.39 432.43 C245.39 433.46 245.4 434.48 245.4 435.54 C245.42 438.96 245.41 442.38 245.4 445.81 C245.41 448.27 245.42 450.73 245.42 453.18 C245.44 459.16 245.44 465.14 245.44 471.12 C245.43 475.98 245.44 480.84 245.44 485.71 C245.44 486.4 245.44 487.09 245.44 487.81 C245.44 489.21 245.45 490.62 245.45 492.03 C245.46 505.22 245.46 518.41 245.44 531.6 C245.43 543.66 245.45 555.72 245.47 567.77 C245.5 580.17 245.51 592.56 245.5 604.95 C245.49 611.9 245.5 618.86 245.51 625.81 C245.53 632.35 245.53 638.88 245.51 645.42 C245.5 647.82 245.51 650.22 245.52 652.61 C245.53 655.89 245.52 659.17 245.5 662.44 C245.51 663.39 245.52 664.33 245.53 665.31 C245.44 673.55 243.01 680.42 237.38 686.56 C236.49 687.55 236.49 687.55 235.59 688.57 C234 690 234 690 232 690 C232 690.66 232 691.32 232 692 C224 695.75 216.39 697.03 207.62 697.72 C204.66 698.04 201.94 698.68 199.08 699.46 C193.16 700.99 187.16 701.96 181.06 702.38 C174.71 702.87 168.57 704.25 162.35 705.55 C156.98 706.66 151.73 707.43 146.25 707.79 C142.71 708.12 139.43 709.09 136 710 C134.87 710.14 133.73 710.29 132.56 710.44 C120.82 712.29 110.09 718.01 100.31 724.55 C98 726 98 726 95 727 C95 727.66 95 728.32 95 729 C93.5 730.44 93.5 730.44 91.56 732 C88.85 734.15 88.85 734.15 87 737 C86.34 737 85.68 737 85 737 C84.73 737.58 84.46 738.15 84.18 738.75 C82.98 741.03 81.64 742.99 80.09 745.05 C79.52 745.83 78.94 746.6 78.35 747.4 C77.74 748.22 77.13 749.03 76.5 749.88 C75.23 751.58 73.96 753.29 72.7 755 C72.07 755.85 71.44 756.69 70.8 757.56 C68.29 760.96 65.83 764.38 63.38 767.81 C62.24 769.4 62.24 769.4 61.09 771.02 C59.61 773.12 58.22 775.22 56.85 777.39 C56.24 778.25 55.63 779.11 55 780 C54.34 780 53.68 780 53 780 C52.77 780.69 52.55 781.37 52.32 782.08 C50.67 785.74 48.43 788.57 45.94 791.69 C42.67 795.65 42.67 795.65 40 800 C39.34 800 38.68 800 38 800 C37.73 800.74 37.46 801.49 37.19 802.25 C36 805 36 805 34.45 806.72 C32.4 809.95 32.62 812.44 32.61 816.25 C32.61 816.99 32.6 817.72 32.6 818.47 C32.58 820.93 32.59 823.38 32.6 825.83 C32.59 827.59 32.59 829.35 32.58 831.11 C32.56 834.9 32.56 838.69 32.56 842.48 C32.56 848.48 32.54 854.48 32.52 860.47 C32.48 872.13 32.46 883.78 32.44 895.44 C32.42 910.26 32.39 925.07 32.34 939.89 C32.32 945.85 32.31 951.8 32.3 957.76 C32.3 961.47 32.29 965.19 32.28 968.9 C32.27 970.62 32.27 972.34 32.28 974.05 C32.29 987.34 32.01 998.29 22.55 1008.57 C14.28 1016.12 4.37 1015.44 -6.1 1015.4 C-7.73 1015.41 -9.36 1015.42 -10.99 1015.42 C-15.41 1015.44 -19.82 1015.44 -24.24 1015.44 C-27.93 1015.43 -31.62 1015.44 -35.32 1015.44 C-44.03 1015.46 -52.74 1015.46 -61.46 1015.45 C-70.44 1015.43 -79.41 1015.45 -88.39 1015.48 C-96.11 1015.5 -103.83 1015.5 -111.55 1015.5 C-116.16 1015.5 -120.76 1015.5 -125.37 1015.51 C-129.7 1015.53 -134.03 1015.53 -138.36 1015.51 C-139.94 1015.5 -141.53 1015.51 -143.11 1015.52 C-153.19 1015.58 -160.53 1014.65 -169 1009 C-169 1008.34 -169 1007.68 -169 1007 C-169.66 1007 -170.32 1007 -171 1007 C-172.8 1004.76 -174.48 1002.53 -176.12 1000.19 C-176.59 999.54 -177.06 998.9 -177.54 998.24 C-181 993.38 -181 993.38 -181 990 C-181.66 990 -182.32 990 -183 990 C-184.45 988.26 -185.81 986.46 -187.12 984.62 C-187.85 983.63 -188.57 982.63 -189.32 981.6 C-191 979 -191 979 -191 977 C-191.66 977 -192.32 977 -193 977 C-194.33 975.48 -195.58 973.91 -196.81 972.31 C-200.55 967.64 -204.47 963.3 -208.69 959.06 C-209.22 958.52 -209.76 957.98 -210.31 957.42 C-212.86 954.88 -215.35 952.68 -218.39 950.75 C-219.25 950.17 -220.11 949.59 -221 949 C-221 948.34 -221 947.68 -221 947 C-221.56 946.88 -222.12 946.77 -222.7 946.65 C-225.27 945.92 -227.39 944.86 -229.75 943.62 C-244.16 936.32 -257.75 935.7 -273.65 935.74 C-275.63 935.74 -277.6 935.73 -279.58 935.73 C-284.92 935.72 -290.27 935.72 -295.61 935.73 C-301.21 935.74 -306.82 935.73 -312.42 935.73 C-321.83 935.72 -331.23 935.73 -340.64 935.74 C-351.5 935.75 -362.36 935.75 -373.23 935.74 C-382.57 935.73 -391.91 935.73 -401.26 935.73 C-406.83 935.73 -412.4 935.73 -417.98 935.73 C-423.21 935.72 -428.45 935.73 -433.69 935.74 C-435.61 935.74 -437.53 935.74 -439.45 935.73 C-442.07 935.73 -444.7 935.74 -447.32 935.75 C-448.45 935.74 -448.45 935.74 -449.6 935.73 C-457.22 935.79 -464.16 937.11 -470.81 940.94 C-472.15 941.69 -472.15 941.69 -473.52 942.46 C-476.01 943.95 -476.01 943.95 -478.2 945.69 C-480 947 -480 947 -482 947 C-482.33 947.99 -482.66 948.98 -483 950 C-483.66 950 -484.32 950 -485 950 C-485 950.66 -485 951.32 -485 952 C-485.66 952 -486.32 952 -487 952 C-487.33 952.99 -487.66 953.98 -488 955 C-488.66 955 -489.32 955 -490 955 C-490.26 955.73 -490.53 956.47 -490.8 957.22 C-492 960 -493.37 962.04 -495.19 964.44 C-499.61 970.6 -502.73 977.18 -506 984 C-506.53 985.04 -507.07 986.08 -507.62 987.15 C-508.79 989.57 -509.64 991.8 -510.38 994.38 C-512.31 1000.38 -515.25 1006.83 -521 1010 C-521.66 1010 -522.32 1010 -523 1010 C-523 1010.66 -523 1011.32 -523 1012 C-528.54 1014.34 -533.14 1015.44 -539.18 1015.39 C-539.97 1015.4 -540.75 1015.41 -541.56 1015.41 C-544.16 1015.43 -546.77 1015.42 -549.37 1015.42 C-551.25 1015.43 -553.13 1015.44 -555 1015.45 C-560.09 1015.47 -565.17 1015.47 -570.25 1015.47 C-574.5 1015.47 -578.75 1015.48 -583 1015.49 C-593.03 1015.5 -603.06 1015.51 -613.09 1015.5 C-623.42 1015.49 -633.75 1015.52 -644.08 1015.55 C-652.96 1015.59 -661.85 1015.6 -670.73 1015.59 C-676.03 1015.59 -681.33 1015.6 -686.63 1015.62 C-691.62 1015.64 -696.6 1015.64 -701.59 1015.62 C-703.41 1015.62 -705.24 1015.62 -707.06 1015.64 C-718.11 1015.72 -726.83 1015.2 -735.62 1007.79 C-736.22 1007.07 -736.82 1006.36 -737.44 1005.62 C-738.36 1004.56 -738.36 1004.56 -739.31 1003.48 C-743.14 997.86 -744.45 993.07 -744.32 986.32 C-744.32 985.21 -744.32 985.21 -744.32 984.08 C-744.31 981.61 -744.29 979.14 -744.26 976.67 C-744.25 974.9 -744.24 973.12 -744.24 971.34 C-744.22 967.53 -744.2 963.71 -744.17 959.89 C-744.12 953.85 -744.11 947.8 -744.1 941.76 C-744.08 924.57 -744.04 907.39 -743.91 890.2 C-743.84 880.71 -743.81 871.21 -743.82 861.71 C-743.82 856.69 -743.81 851.67 -743.74 846.65 C-743.68 841.93 -743.67 837.21 -743.7 832.48 C-743.71 830.75 -743.69 829.03 -743.65 827.3 C-743.39 816.16 -743.39 816.16 -749.03 806.96 C-750.51 805.57 -752.07 804.27 -753.64 802.97 C-754.81 802 -754.81 802 -756 801 C-756 800.34 -756 799.68 -756 799 C-756.66 799 -757.32 799 -758 799 C-759.51 797.54 -759.51 797.54 -761.12 795.62 C-761.93 794.69 -761.93 794.69 -762.76 793.73 C-764 792 -764 792 -764 790 C-764.66 790 -765.32 790 -766 790 C-771 784.52 -771 784.52 -771 782 C-771.66 782 -772.32 782 -773 782 C-774.51 780.32 -774.51 780.32 -776.12 778.12 C-776.66 777.41 -777.2 776.69 -777.76 775.95 C-779 774 -779 774 -779 772 C-779.66 772 -780.32 772 -781 772 C-782.45 770.26 -783.81 768.46 -785.12 766.62 C-785.85 765.63 -786.57 764.63 -787.32 763.6 C-789 761 -789 761 -789 759 C-789.66 759 -790.32 759 -791 759 C-794 754.62 -794 754.62 -794 752 C-794.66 752 -795.32 752 -796 752 C-797.69 749.73 -797.69 749.73 -799.56 746.75 C-800.18 745.78 -800.8 744.8 -801.44 743.8 C-802.76 741.43 -803.54 739.64 -804 737 C-804.66 737 -805.32 737 -806 737 C-807.68 734.61 -809.23 732.24 -810.75 729.75 C-811.2 729.02 -811.65 728.29 -812.11 727.54 C-815.23 722.44 -817.99 717.24 -820.58 711.85 C-822.07 708.85 -823.72 706 -825.44 703.12 C-830.67 694.28 -835.31 685.16 -838.97 675.55 C-840.2 672.51 -841.59 669.58 -843 666.62 C-845.42 661.46 -847.34 656.29 -849.06 650.86 C-850.5 646.49 -852.25 642.25 -854 638 C-855.62 634.05 -856.83 630.11 -858 626 C-858.52 624.5 -859.04 623 -859.56 621.5 C-860.86 617.68 -861.46 614 -862 610 C-862.63 608.32 -863.3 606.65 -864 605 C-865.47 600.31 -866.51 595.62 -867.43 590.8 C-868.06 587.68 -868.81 584.6 -869.56 581.5 C-870.68 576.73 -871.37 572.12 -871.76 567.24 C-872.05 564.53 -872.76 561.98 -873.46 559.35 C-875.71 549.54 -876.26 539.46 -876.66 529.43 C-876.69 528.67 -876.72 527.91 -876.75 527.12 C-876.78 526.44 -876.8 525.77 -876.83 525.07 C-876.96 522.94 -876.96 522.94 -877.51 520.65 C-878.08 517.55 -878.13 514.64 -878.13 511.48 C-878.13 510.23 -878.14 508.98 -878.14 507.69 C-878.13 506.39 -878.13 505.09 -878.12 503.75 C-878.13 501.82 -878.13 501.82 -878.14 499.86 C-878.13 493.9 -878.02 488.07 -877.25 482.17 C-876.64 476.91 -876.59 471.58 -876.39 466.29 C-876.34 464.94 -876.34 464.94 -876.28 463.57 C-876.25 462.76 -876.22 461.96 -876.19 461.13 C-876 459 -876 459 -875 456 C-874.54 452.36 -874.14 448.72 -873.75 445.07 C-873.1 439.2 -873.1 439.2 -872 437 C-871.87 435.61 -871.77 434.21 -871.69 432.81 C-871.16 426.97 -869.62 421.54 -868.05 415.9 C-866.69 410.99 -865.7 406.02 -864.71 401.02 C-864.04 398.18 -863.1 395.7 -862 393 C-861.56 391.26 -861.14 389.51 -860.75 387.75 C-858.77 379.62 -855.89 371.84 -853 364 C-852.57 362.84 -852.15 361.68 -851.71 360.48 C-847.81 350.08 -843.1 340.12 -838.1 330.22 C-835.97 325.92 -834.1 321.69 -833 317 C-833.61 316.76 -834.21 316.52 -834.84 316.27 C-836.61 315.56 -838.38 314.85 -840.15 314.14 C-841.94 313.42 -843.74 312.71 -845.54 312.02 C-855.73 308.06 -864.9 303.06 -874 297 C-874.74 296.51 -875.49 296.02 -876.25 295.51 C-877.88 294.4 -879.45 293.21 -881 292 C-881 291.34 -881 290.68 -881 290 C-881.55 289.77 -882.09 289.54 -882.65 289.3 C-885.69 287.62 -888 285.47 -890.56 283.12 C-891.51 282.26 -892.46 281.4 -893.44 280.51 C-895.57 278.42 -897.39 276.5 -899 274 C-899 273.34 -899 272.68 -899 272 C-899.66 272 -900.32 272 -901 272 C-902.68 269.95 -904.23 267.91 -905.75 265.75 C-906.42 264.8 -906.42 264.8 -907.11 263.84 C-910.49 258.97 -913.25 253.96 -915.77 248.59 C-916.78 246.46 -917.86 244.55 -919.12 242.56 C-921.58 238.4 -922.72 233.79 -924.06 229.18 C-924.81 226.65 -925.64 224.22 -926.56 221.75 C-930.83 208.87 -934.63 189.89 -929.44 176.88 C-925.86 170.44 -920.65 164.26 -914 161 C-905.74 158.7 -897.51 157.9 -889.81 162.23 C-882.88 167.13 -876.67 173.43 -875 182 C-874.84 184.63 -874.72 187.24 -874.62 189.88 C-873.78 211.97 -864.21 230.66 -848.12 245.75 C-835.01 257.07 -816.79 266.24 -799 265 C-798.67 263.68 -798.34 262.36 -798 261 C-797.34 261 -796.68 261 -796 261 C-796 260.01 -796 259.02 -796 258 C-795.34 258 -794.68 258 -794 258 C-793.69 257.22 -793.38 256.43 -793.06 255.62 C-792 253 -792 253 -791 251 C-790.34 251 -789.68 251 -789 251 C-788.88 250.4 -788.75 249.8 -788.62 249.19 C-788 247 -788 247 -786 244 C-785.34 244 -784.68 244 -784 244 C-783.73 243.44 -783.46 242.88 -783.19 242.3 C-781.92 239.84 -780.51 237.56 -779 235.25 C-778.23 234.05 -778.23 234.05 -777.44 232.83 C-776.96 232.22 -776.49 231.62 -776 231 C-775.34 231 -774.68 231 -774 231 C-773.76 230.45 -773.53 229.91 -773.28 229.35 C-771.67 226.4 -769.66 224.01 -767.5 221.44 C-765.19 218.67 -763 216 -761 213 C-760.34 213 -759.68 213 -759 213 C-758.6 212.11 -758.6 212.11 -758.2 211.2 C-756.96 208.92 -755.7 207.53 -753.81 205.75 C-750.54 202.58 -747.54 199.26 -744.58 195.8 C-743.1 194.12 -741.67 192.49 -740 191 C-739.34 191 -738.68 191 -738 191 C-738 190.34 -738 189.68 -738 189 C-737.34 189 -736.68 189 -736 189 C-735.67 188.01 -735.34 187.02 -735 186 C-734.34 186 -733.68 186 -733 186 C-733 185.34 -733 184.68 -733 184 C-731.67 182.66 -731.67 182.66 -729.75 181.06 C-727.07 178.79 -724.43 176.49 -721.87 174.09 C-721.33 173.59 -720.8 173.09 -720.24 172.58 C-719.17 171.57 -718.1 170.57 -717.04 169.56 C-713.22 166 -713.22 166 -711 166 C-711 165.34 -711 164.68 -711 164 C-708.83 162.15 -706.65 160.41 -704.38 158.69 C-703.13 157.73 -701.89 156.78 -700.65 155.82 C-700.04 155.36 -699.43 154.89 -698.8 154.41 C-697.04 153.03 -695.35 151.6 -693.66 150.14 C-691 148 -691 148 -689 148 C-689 147.34 -689 146.68 -689 146 C-686.58 144.14 -684.14 142.4 -681.62 140.69 C-680.07 139.61 -678.52 138.54 -676.97 137.46 C-675.75 136.62 -675.75 136.62 -674.51 135.76 C-671.97 133.98 -669.47 132.16 -666.97 130.32 C-666.16 129.72 -665.35 129.12 -664.51 128.51 C-662.94 127.35 -661.37 126.19 -659.8 125.01 C-659.09 124.49 -658.37 123.96 -657.63 123.42 C-657 122.95 -656.37 122.49 -655.72 122 C-654 121 -654 121 -651 121 C-651 120.34 -651 119.68 -651 119 C-649.45 117.85 -649.45 117.85 -647.26 116.57 C-646.45 116.09 -645.64 115.61 -644.8 115.12 C-643.48 114.35 -643.48 114.35 -642.12 113.56 C-640.28 112.48 -638.43 111.39 -636.59 110.3 C-635.65 109.75 -634.71 109.2 -633.75 108.63 C-630.46 106.68 -627.21 104.66 -623.97 102.63 C-615.83 97.56 -607.54 93.07 -598.9 88.92 C-595.79 87.42 -592.71 85.86 -589.62 84.31 C-588.49 83.75 -587.35 83.18 -586.18 82.59 C-584.2 81.6 -582.23 80.6 -580.26 79.59 C-574.62 76.71 -568.91 74.26 -563 72 C-560.87 71.19 -558.75 70.38 -556.62 69.56 C-555.52 69.14 -554.42 68.72 -553.28 68.29 C-550.2 67.08 -547.16 65.8 -544.12 64.5 C-538.98 62.33 -533.74 60.53 -528.43 58.81 C-524.87 57.65 -521.39 56.39 -517.94 54.94 C-512.47 52.69 -506.84 51.16 -501.14 49.6 C-498.74 48.93 -496.35 48.23 -493.96 47.52 C-484.74 44.81 -475.6 42.32 -466.13 40.64 C-463.01 40.08 -463.01 40.08 -460.18 39.02 C-456.04 37.69 -451.91 37.11 -447.62 36.5 C-441.63 35.63 -435.87 34.51 -430 33 C-422.26 31.54 -414.53 30.72 -406.68 30.25 C-403.9 30.09 -403.9 30.09 -401 29 C-377.03 26.04 -352.91 25.51 -328.79 25.61 C-324.52 25.63 -320.26 25.62 -316 25.6 C-262.75 25.42 -262.75 25.42 -249 30 C-247.19 30.13 -245.38 30.23 -243.56 30.31 C-236.65 30.79 -230.01 32.08 -223.24 33.54 C-219.28 34.39 -215.39 35.11 -211.36 35.5 C-207.28 35.91 -203.5 36.81 -199.56 37.94 C-195.29 39.13 -191.05 40.25 -186.69 41.06 C-183.39 41.68 -180.26 42.49 -177.06 43.5 C-169.17 45.96 -169.17 45.96 -161 47 C-157.93 45.32 -157.93 45.32 -156 43 C-155.34 43 -154.68 43 -154 43 C-154 42.34 -154 41.68 -154 41 C-151.93 39.32 -149.87 37.77 -147.69 36.25 C-147.05 35.8 -146.41 35.35 -145.75 34.88 C-140.37 31.15 -134.85 27.95 -129 25 C-127.74 24.35 -126.48 23.69 -125.22 23.04 C-116.99 18.8 -108.72 15.15 -100 12 C-98.6 11.46 -97.21 10.92 -95.81 10.38 C-88.96 7.83 -82.02 5.86 -74.84 4.53 C-72.78 4.15 -70.74 3.73 -68.69 3.28 C-46.74 -1.29 -22.24 -3.35 0 0 Z M-103.52 74.11 C-107 76 -107 76 -110 77 C-110 77.66 -110 78.32 -110 79 C-110.73 79.26 -111.46 79.52 -112.21 79.78 C-115.11 81.05 -117.18 82.52 -119.62 84.5 C-122.05 86.45 -124.41 88.27 -127 90 C-127 90.66 -127 91.32 -127 92 C-127.88 92.38 -127.88 92.38 -128.77 92.78 C-131.19 94.11 -132.73 95.57 -134.62 97.56 C-137.81 100.9 -137.81 100.9 -140 102 C-140 102.66 -140 103.32 -140 104 C-152.12 109.48 -161.94 107.36 -174.06 102.79 C-174.74 102.53 -175.42 102.27 -176.12 102 C-176.81 101.74 -177.5 101.48 -178.21 101.21 C-180.99 100.16 -183.76 99.1 -186.49 97.93 C-189.92 96.66 -193.44 95.87 -197 95.06 C-198.53 94.71 -200.06 94.36 -201.59 94.01 C-202.72 93.76 -202.72 93.76 -203.87 93.49 C-205.73 93.06 -207.59 92.61 -209.44 92.14 C-216.17 90.49 -222.83 89.4 -229.71 88.65 C-232.63 88.32 -235.2 87.93 -238 87 C-240.48 86.8 -242.95 86.63 -245.44 86.5 C-252.52 86.13 -252.52 86.13 -254.78 85.51 C-257.89 84.79 -260.95 84.68 -264.14 84.5 C-264.83 84.46 -265.52 84.42 -266.23 84.38 C-268.42 84.25 -270.62 84.12 -272.81 84 C-275 83.88 -277.18 83.75 -279.36 83.62 C-281.35 83.51 -283.34 83.39 -285.33 83.28 C-289 83 -289 83 -292.26 82.49 C-296.06 81.99 -299.69 81.87 -303.52 81.85 C-304.23 81.85 -304.95 81.85 -305.69 81.84 C-308.04 81.84 -310.39 81.83 -312.75 81.83 C-314.4 81.83 -316.06 81.83 -317.71 81.82 C-321.18 81.82 -324.65 81.81 -328.12 81.81 C-332.52 81.81 -336.92 81.8 -341.32 81.78 C-344.74 81.77 -348.17 81.77 -351.59 81.77 C-353.21 81.77 -354.83 81.77 -356.45 81.76 C-365.91 81.72 -375.05 82.18 -384.42 83.52 C-389.08 84.15 -393.73 84.47 -398.43 84.75 C-401.12 84.91 -401.12 84.91 -404 86 C-406.02 86.13 -408.04 86.23 -410.06 86.31 C-416.75 86.74 -423.02 87.95 -429.52 89.54 C-433.98 90.62 -438.32 91.3 -442.89 91.75 C-445.83 92.1 -448.64 92.76 -451.5 93.5 C-453.03 93.89 -453.03 93.89 -454.59 94.28 C-456.93 94.77 -456.93 94.77 -458 96 C-459.49 96.35 -460.99 96.66 -462.5 96.94 C-463.41 97.11 -464.31 97.29 -465.25 97.47 C-466.15 97.64 -467.06 97.82 -468 98 C-473.23 99.04 -478.24 100.33 -483.28 102.08 C-485.47 102.82 -487.67 103.52 -489.88 104.2 C-490.93 104.52 -490.93 104.52 -491.99 104.85 C-493.38 105.27 -494.77 105.69 -496.15 106.11 C-499.39 107.1 -502.44 108.19 -505.55 109.53 C-509 111 -512.4 111.99 -516 113 C-518.32 113.89 -520.64 114.8 -522.94 115.75 C-527.66 117.68 -532.4 119.53 -537.2 121.26 C-543.64 123.59 -549.54 126.21 -555.49 129.63 C-558.72 131.39 -562.06 132.68 -565.5 133.99 C-569.79 135.72 -573.89 137.87 -578 140 C-578 140.66 -578 141.32 -578 142 C-578.73 142.12 -579.46 142.23 -580.21 142.35 C-583.04 143.01 -585.06 143.94 -587.56 145.38 C-588.31 145.8 -589.05 146.22 -589.82 146.65 C-592.04 147.98 -592.04 147.98 -594.14 149.62 C-596.11 151.08 -597.61 151.57 -600 152 C-600 152.66 -600 153.32 -600 154 C-600.68 154.25 -601.36 154.5 -602.06 154.75 C-617.18 161.18 -630.95 171.93 -644.08 181.62 C-645.86 182.9 -647.67 184.08 -649.52 185.26 C-650.75 186.12 -650.75 186.12 -652 187 C-652 187.66 -652 188.32 -652 189 C-652.54 189.25 -653.07 189.5 -653.62 189.75 C-656.58 191.31 -659.3 193.03 -662 195 C-662 195.66 -662 196.32 -662 197 C-664 198 -666 199 -668 200 C-668 200.66 -668 201.32 -668 202 C-668.56 202.25 -669.11 202.5 -669.68 202.75 C-672.41 204.22 -674.66 205.99 -677.06 207.94 C-677.92 208.63 -678.78 209.32 -679.66 210.03 C-682.46 212.38 -682.46 212.38 -685 215 C-685 215.66 -685 216.32 -685 217 C-685.8 217.31 -685.8 217.31 -686.62 217.62 C-690 219.58 -692.43 222.26 -695.12 225.06 C-700.76 230.88 -700.76 230.88 -703 232 C-703 232.66 -703 233.32 -703 234 C-703.66 234 -704.32 234 -705 234 C-706.67 235.33 -706.67 235.33 -708 237 C-708 237.66 -708 238.32 -708 239 C-708.66 239 -709.32 239 -710 239 C-711.53 240.52 -711.53 240.52 -713.12 242.5 C-716.38 246.35 -719.85 249.86 -723.5 253.34 C-725.22 254.87 -725.22 254.87 -725 257 C-725.66 257 -726.32 257 -727 257 C-728.52 258.68 -729.97 260.42 -731.38 262.19 C-732.15 263.15 -732.92 264.11 -733.71 265.11 C-734.47 266.06 -735.22 267.02 -736 268 C-737.13 269.36 -737.13 269.36 -738.29 270.74 C-740.2 272.79 -740.2 272.79 -740 275 C-740.66 275 -741.32 275 -742 275 C-743.3 276.38 -743.3 276.38 -744.58 278.23 C-745.1 278.94 -745.61 279.65 -746.14 280.38 C-746.69 281.16 -747.24 281.95 -747.81 282.75 C-748.39 283.55 -748.96 284.36 -749.55 285.18 C-761.28 301.75 -772.07 318.76 -781 337 C-781.47 337.92 -781.94 338.84 -782.43 339.79 C-789.14 352.92 -794.95 366.29 -799.7 380.25 C-800.74 383.25 -801.87 386.14 -803.12 389.06 C-805.61 395.13 -806.99 401.5 -808.49 407.86 C-809.34 411.44 -810.23 415 -811.12 418.56 C-811.59 420.45 -811.59 420.45 -812.07 422.38 C-812.7 424.82 -813.37 427.25 -814.08 429.66 C-814.85 432.45 -815.33 434.94 -815.56 437.81 C-815.9 441.8 -815.9 441.8 -817 444 C-817.55 446.98 -818.05 449.94 -818.5 452.94 C-818.63 453.82 -818.77 454.71 -818.91 455.62 C-819.92 462.65 -820.46 469.64 -820.71 476.73 C-820.75 477.83 -820.75 477.83 -820.79 478.96 C-820.81 479.6 -820.82 480.24 -820.84 480.89 C-821 483 -821 483 -821.5 485.79 C-822.06 489.37 -822.13 492.78 -822.13 496.41 C-822.13 497.1 -822.13 497.79 -822.14 498.5 C-822.14 499.95 -822.13 501.4 -822.13 502.85 C-822.13 505.06 -822.13 507.27 -822.14 509.48 C-822.14 510.89 -822.13 512.31 -822.13 513.72 C-822.13 515 -822.13 516.28 -822.13 517.59 C-822.02 520.55 -821.64 523.13 -821 526 C-820.83 528.56 -820.68 531.12 -820.56 533.69 C-820.22 539.95 -819.44 545.88 -818 552 C-816.93 556.92 -815.98 561.72 -815.62 566.75 C-815.15 572.26 -813.57 577.34 -811.94 582.61 C-811 586 -811 586 -810.5 589.61 C-810.03 592.77 -809.23 595.09 -808 598 C-807.51 599.89 -807.06 601.79 -806.62 603.69 C-805.44 608.56 -803.9 613.05 -801.96 617.66 C-801.08 619.8 -800.33 621.93 -799.62 624.12 C-796.2 634.58 -792.38 644.7 -787.3 654.47 C-785.7 657.58 -784.38 660.79 -783 664 C-781.04 668.02 -779.02 672.01 -777 676 C-776.04 677.92 -775.08 679.83 -774.12 681.75 C-773.51 682.98 -773.51 682.98 -772.88 684.23 C-772.45 685.11 -772.45 685.11 -772 686 C-771.34 686 -770.68 686 -770 686 C-769.88 686.58 -769.76 687.15 -769.63 687.75 C-766.76 697.97 -758.68 708.13 -752.16 716.34 C-751 718 -751 718 -750 721 C-749.34 721 -748.68 721 -748 721 C-747.77 721.52 -747.54 722.03 -747.3 722.57 C-745.52 725.89 -743.33 728.89 -741.12 731.94 C-740.47 732.85 -740.47 732.85 -739.81 733.78 C-736.07 739.02 -736.07 739.02 -732 744 C-731.34 744 -730.68 744 -730 744 C-729.73 744.57 -729.46 745.14 -729.19 745.73 C-727.96 748.08 -726.57 750.12 -725 752.25 C-724.48 752.96 -723.97 753.66 -723.44 754.39 C-722.96 754.92 -722.49 755.45 -722 756 C-721.34 756 -720.68 756 -720 756 C-720 756.66 -720 757.32 -720 758 C-719.34 758 -718.68 758 -718 758 C-717.5 759.49 -717.5 759.49 -717 761 C-716.34 761 -715.68 761 -715 761 C-714.75 761.58 -714.49 762.16 -714.23 762.76 C-712.86 765.26 -711.32 766.86 -709.26 768.83 C-708.52 769.55 -707.79 770.26 -707.03 771 C-705.48 772.49 -703.93 773.97 -702.38 775.45 C-692.83 784.76 -689.03 792.68 -688.72 806.16 C-688.69 809.01 -688.69 811.86 -688.68 814.71 C-688.67 816.29 -688.66 817.86 -688.65 819.44 C-688.62 823.7 -688.61 827.96 -688.6 832.22 C-688.58 836.68 -688.55 841.14 -688.53 845.6 C-688.48 854.04 -688.44 862.47 -688.41 870.91 C-688.37 882.32 -688.3 893.72 -688.24 905.13 C-688.15 923.09 -688.08 941.04 -688 959 C-644.77 959 -601.54 959 -557 959 C-552.97 951.76 -552.97 951.76 -549.43 944.29 C-547.7 940.32 -545.52 936.92 -543.06 933.38 C-542.59 932.69 -542.12 932 -541.63 931.29 C-529.65 914.32 -529.65 914.32 -523 911 C-523 910.34 -523 909.68 -523 909 C-521.68 908.67 -520.36 908.34 -519 908 C-519 907.34 -519 906.68 -519 906 C-518.16 905.61 -518.16 905.61 -517.29 905.21 C-514.77 903.88 -512.6 902.31 -510.31 900.62 C-505.76 897.39 -501.2 895.02 -496 893 C-496 892.34 -496 891.68 -496 891 C-495.32 890.9 -494.64 890.79 -493.94 890.69 C-491.08 890.02 -488.62 888.97 -485.95 887.8 C-482.72 886.47 -479.41 885.44 -476.06 884.44 C-475.42 884.23 -474.77 884.02 -474.11 883.81 C-460.45 879.7 -446.12 879.71 -432 879.74 C-430.15 879.74 -428.3 879.73 -426.45 879.73 C-421.48 879.72 -416.51 879.72 -411.53 879.73 C-406.29 879.74 -401.05 879.73 -395.81 879.73 C-387.01 879.72 -378.2 879.73 -369.4 879.74 C-359.28 879.75 -349.15 879.75 -339.03 879.74 C-330.29 879.73 -321.55 879.73 -312.8 879.73 C-307.61 879.73 -302.41 879.73 -297.21 879.73 C-238.54 879.66 -238.54 879.66 -218 888 C-217.26 888.27 -216.51 888.55 -215.75 888.83 C-198.76 895.24 -198.76 895.24 -193 901 C-192.01 901 -191.02 901 -190 901 C-190 901.66 -190 902.32 -190 903 C-188.29 904.59 -188.29 904.59 -186.12 906.12 C-185.41 906.66 -184.69 907.2 -183.95 907.76 C-182.1 909.18 -182.1 909.18 -180 909 C-180 909.66 -180 910.32 -180 911 C-176.52 914.64 -176.52 914.64 -172 916 C-172 916.66 -172 917.32 -172 918 C-169.67 920.67 -169.67 920.67 -167 923 C-166.34 923 -165.68 923 -165 923 C-164.67 923.99 -164.34 924.98 -164 926 C-163.34 926 -162.68 926 -162 926 C-162 926.66 -162 927.32 -162 928 C-161.34 928 -160.68 928 -160 928 C-159.73 928.58 -159.46 929.15 -159.19 929.75 C-157.97 932.06 -156.7 934.02 -155 936 C-154.34 936 -153.68 936 -153 936 C-152.77 936.53 -152.54 937.06 -152.3 937.6 C-150.57 940.79 -148.36 943.54 -146.12 946.38 C-145.25 947.49 -144.38 948.6 -143.51 949.71 C-143.12 950.2 -142.74 950.69 -142.34 951.19 C-141 953 -141 953 -139.59 956.07 C-136.7 959.34 -136.33 959.45 -132.23 959.72 C-130.21 959.74 -128.19 959.72 -126.17 959.68 C-124.52 959.68 -124.52 959.68 -122.83 959.68 C-119.18 959.68 -115.54 959.63 -111.89 959.59 C-109.36 959.57 -106.84 959.57 -104.31 959.56 C-98.33 959.54 -92.36 959.49 -86.38 959.43 C-79.58 959.37 -72.78 959.33 -65.98 959.3 C-51.98 959.24 -37.99 959.13 -24 959 C-24 957.73 -24 957.73 -24 956.44 C-23.98 935.82 -23.94 915.2 -23.87 894.59 C-23.83 884.62 -23.81 874.65 -23.8 864.68 C-23.8 855.98 -23.78 847.29 -23.74 838.6 C-23.72 834 -23.71 829.4 -23.71 824.8 C-23.72 820.46 -23.71 816.13 -23.67 811.79 C-23.66 810.21 -23.66 808.62 -23.67 807.04 C-23.74 794.57 -21.08 786.38 -13.31 776.69 C-12.43 775.57 -11.55 774.46 -10.67 773.34 C-10.22 772.79 -9.78 772.23 -9.32 771.66 C-5.48 766.83 -1.75 761.9 2 757 C2.53 756.31 3.06 755.62 3.61 754.9 C5.29 752.71 6.96 750.51 8.62 748.31 C9.16 747.62 9.69 746.92 10.24 746.2 C13.02 742.96 13.02 742.96 14 739 C14.66 739 15.32 739 16 739 C17.27 737.58 17.27 737.58 18.5 735.7 C18.99 735 19.48 734.29 19.99 733.56 C20.51 732.8 21.03 732.04 21.56 731.25 C22.64 729.69 23.72 728.13 24.8 726.57 C25.34 725.8 25.87 725.03 26.43 724.23 C29.32 720.13 32.38 716.18 35.45 712.22 C37.19 710.18 37.19 710.18 37 708 C37.66 708 38.32 708 39 708 C40.52 706.35 40.52 706.35 42 704.25 C42.52 703.55 43.03 702.86 43.56 702.14 C44.9 700.15 45.98 698.17 47 696 C47.66 696 48.32 696 49 696 C49 695.34 49 694.68 49 694 C49.66 694 50.32 694 51 694 C52.67 692.67 52.67 692.67 54 691 C54 690.34 54 689.68 54 689 C54.56 688.75 55.12 688.5 55.7 688.24 C58.35 686.81 60.49 685.1 62.81 683.19 C69.6 677.7 75.94 673.36 83.83 669.54 C85.89 668.54 87.93 667.5 89.95 666.43 C97.41 662.47 104.83 660.07 113 658 C113.99 657.73 114.97 657.47 115.99 657.2 C126.9 654.33 138.1 651.92 149.38 651.31 C152.25 650.97 154.94 650.25 157.74 649.52 C162.82 648.35 168.05 647.86 173.22 647.23 C174.11 647.12 174.99 647 175.91 646.88 C176.69 646.78 177.48 646.68 178.29 646.58 C181.97 645.79 185.48 644.32 189 643 C189 579.97 189 516.94 189 452 C183.72 450.68 178.44 449.36 173 448 C170.69 447.01 168.38 446.02 166 445 C164.38 444.47 162.75 443.95 161.12 443.44 C147.35 438.46 133 429.21 122.77 418.71 C121.17 416.77 121.17 416.77 119 417 C119 416.34 119 415.68 119 415 C117.67 413.33 117.67 413.33 116 412 C115.34 412 114.68 412 114 412 C113.74 411.42 113.48 410.84 113.21 410.24 C111.93 407.87 110.5 406.16 108.69 404.19 C100.78 395.34 100.78 395.34 99 390 C98.34 390 97.68 390 97 390 C96.77 389.36 96.55 388.72 96.31 388.06 C95.22 385.5 94.02 383.27 92.62 380.88 C90.21 376.61 88.56 372.29 86.96 367.67 C86.11 365.31 85.17 363.08 84.12 360.81 C82.23 356.68 80.68 352.45 79.12 348.19 C76.89 342.08 74.3 336.3 71.3 330.53 C69.7 327.42 68.38 324.21 67 321 C65.04 316.98 63.02 312.99 61 309 C60.04 307.08 59.08 305.17 58.12 303.25 C57.72 302.43 57.31 301.61 56.88 300.77 C56.59 300.18 56.3 299.6 56 299 C55.34 299 54.68 299 54 299 C53.81 297.89 53.81 297.89 53.62 296.75 C53.05 294.2 52.26 292.27 51 290 C50.34 290 49.68 290 49 290 C48.81 289.13 48.81 289.13 48.62 288.25 C47.99 285.98 47.11 284.07 46 282 C45.34 282 44.68 282 44 282 C43.81 281.13 43.81 281.13 43.62 280.25 C42.99 277.98 42.11 276.07 41 274 C40.34 274 39.68 274 39 274 C38.75 273.3 38.5 272.59 38.25 271.87 C36.84 268.63 35.09 266.01 33.06 263.12 C32.67 262.57 32.28 262.01 31.88 261.44 C30.59 259.62 29.3 257.81 28 256 C27.55 255.38 27.11 254.75 26.65 254.11 C21.29 246.65 15.81 239.38 9.88 232.37 C2.32 222.82 2.66 212.79 2.69 201 C2.67 199.69 2.66 198.37 2.64 197.02 C2.63 187.28 4.02 180.03 8.81 171.56 C9.34 170.63 9.86 169.7 10.4 168.75 C13.51 163.41 16.68 158.12 19.95 152.87 C23.67 146.88 27.23 140.86 30.55 134.64 C32.51 131.08 34.64 127.63 36.8 124.19 C37.94 122.1 38.55 120.33 39 118 C39.66 118 40.32 118 41 118 C41.61 116.86 41.61 116.86 42.24 115.7 C43.05 114.21 43.05 114.21 43.88 112.69 C44.41 111.7 44.94 110.72 45.49 109.7 C47 107 47 107 49 104 C49 103.01 49 102.02 49 101 C49.66 101 50.32 101 51 101 C51.61 99.86 51.61 99.86 52.24 98.7 C53.05 97.21 53.05 97.21 53.88 95.69 C54.41 94.7 54.94 93.72 55.49 92.7 C57 90 57 90 59 87 C59 86.01 59 85.02 59 84 C59.66 84 60.32 84 61 84 C61.98 82.25 62.96 80.5 63.94 78.75 C64.76 77.29 64.76 77.29 65.59 75.8 C66.77 73.46 67.52 71.55 68 69 C64.14 66.7 59.9 65.97 55.56 65.06 C53.93 64.71 52.3 64.36 50.66 64.01 C49.87 63.84 49.07 63.67 48.24 63.49 C45.3 62.85 42.37 62.14 39.44 61.44 C-7.34 50.75 -60.64 50.3 -103.52 74.11 Z " fill="#000000" transform="translate(983,106)"/>
<path d="M0 0 C2.87 0.01 5.74 0 8.61 -0.01 C18.35 -0.02 27.82 0.36 37.47 1.79 C40.92 2.27 44.33 2.52 47.81 2.7 C53.33 3.05 58.69 3.8 64.12 4.76 C64.86 4.89 65.6 5.02 66.36 5.16 C71.6 6.12 71.6 6.12 73.87 7.26 C75.79 7.45 75.79 7.45 77.75 7.64 C92.76 9.15 92.76 9.15 95.87 12.26 C99.39 13.06 102.92 13.74 106.46 14.44 C109.33 15.13 111.3 15.92 113.87 17.26 C115.61 17.72 117.37 18.13 119.12 18.51 C126.97 20.41 134.38 23.29 141.87 26.26 C142.95 26.69 144.03 27.11 145.14 27.55 C151.25 30.03 157.12 32.85 163 35.86 C165.63 37.14 168.26 38.23 171 39.26 C175.4 40.96 179.23 43.19 183.23 45.69 C186.09 47.39 189.01 48.86 192 50.32 C196.85 52.71 201.43 55.18 205.87 58.26 C205.87 58.92 205.87 59.58 205.87 60.26 C206.74 60.6 206.74 60.6 207.62 60.95 C211.58 63.26 214.21 67.03 215.87 71.26 C217.99 80.59 217.23 89.21 212.19 97.5 C207.04 104.39 200.81 108.13 192.49 109.71 C181.65 110.69 171.96 103.88 163.12 98.32 C155.92 93.85 147.99 90.72 140.25 87.32 C137.04 85.89 133.86 84.39 130.69 82.89 C126.45 80.92 122.25 79.24 117.78 77.9 C115.69 77.2 113.83 76.25 111.87 75.26 C109.54 74.58 107.21 73.91 104.87 73.26 C103.58 72.81 102.29 72.35 101 71.89 C95.83 70.13 90.55 68.96 85.24 67.74 C81.23 66.82 77.26 65.84 73.31 64.7 C63.14 61.87 52.76 60.08 42.23 59.47 C39.87 59.26 39.87 59.26 36.87 58.26 C25.02 57.01 13.03 57.15 1.12 57.14 C0.38 57.13 -0.37 57.13 -1.14 57.13 C-17.79 56.77 -17.79 56.77 -34.13 59.26 C-36.04 59.41 -37.96 59.53 -39.88 59.64 C-51.74 60.5 -63.1 63.12 -74.53 66.29 C-77.98 67.22 -81.44 68.01 -84.94 68.76 C-89.71 69.84 -94.04 71.3 -98.53 73.23 C-101.54 74.43 -104.58 75.34 -107.69 76.26 C-112.35 77.66 -116.71 79.27 -121.1 81.34 C-122.96 82.19 -124.89 82.89 -126.81 83.57 C-132.55 85.67 -137.93 88.59 -143.36 91.36 C-146.02 92.71 -148.7 94.01 -151.38 95.32 C-155.17 97.21 -158.82 99.23 -162.44 101.45 C-171.44 106.86 -178.54 108.46 -189.13 107.26 C-192.81 106.07 -196.08 104.67 -199.13 102.26 C-199.46 101.27 -199.79 100.28 -200.13 99.26 C-201.12 98.93 -202.11 98.6 -203.13 98.26 C-203.13 97.6 -203.13 96.94 -203.13 96.26 C-203.79 96.26 -204.45 96.26 -205.13 96.26 C-205.77 94.66 -206.42 93.05 -207.06 91.45 C-207.42 90.55 -207.78 89.66 -208.15 88.74 C-210.85 81.87 -210.6 76.36 -208.12 69.48 C-206.55 65.96 -204.59 63.23 -202.13 60.26 C-201.47 60.26 -200.81 60.26 -200.13 60.26 C-200.13 59.6 -200.13 58.94 -200.13 58.26 C-198.71 57.2 -198.71 57.2 -196.72 56.05 C-196 55.63 -195.28 55.21 -194.54 54.78 C-193.76 54.34 -192.99 53.9 -192.19 53.45 C-191.41 53 -190.63 52.55 -189.83 52.09 C-187.6 50.8 -185.36 49.53 -183.13 48.26 C-182.15 47.7 -181.18 47.14 -180.17 46.56 C-176.55 44.51 -173.01 42.77 -169.13 41.26 C-168.41 40.81 -167.68 40.35 -166.94 39.89 C-163.62 37.97 -160.21 36.67 -156.65 35.29 C-154.51 34.42 -152.53 33.47 -150.5 32.39 C-140.46 27.23 -129.34 23.91 -118.63 20.44 C-116.12 19.59 -113.69 18.71 -111.23 17.75 C-107.05 16.16 -102.81 15.15 -98.44 14.2 C-93.82 13.19 -89.5 12.13 -85.13 10.26 C-80.14 8.85 -75.42 8.04 -70.27 7.54 C-67.12 7.13 -64.17 6.14 -61.13 5.26 C-53.77 3.74 -46.47 3 -38.98 2.56 C-35.3 2.27 -31.7 1.78 -28.05 1.25 C-18.71 -0.01 -9.41 -0.04 0 0 Z " fill="#000000" transform="translate(637.126953125,238.7392578125)"/>
<path d="M0 0 C9.41 6.61 14.99 14.76 19.38 25.31 C21.63 38.6 19.57 49.84 11.77 60.86 C4.29 69.88 -4.91 76.2 -16.68 77.36 C-29.42 77.98 -39.97 74.68 -49.77 66.25 C-57.46 58.48 -61.72 49.82 -63 39 C-62.86 25.51 -58.55 15.06 -49.36 5.27 C-46.15 2.19 -43 -0.07 -39 -2 C-38.37 -2.32 -37.74 -2.63 -37.1 -2.96 C-25.57 -7.78 -10.58 -6.21 0 0 Z " fill="#000000" transform="translate(968,404)"/>
</svg>
