<?xml version="1.0" encoding="UTF-8"?>
<!-- Generator: visioncortex VTracer 0.6.3 -->
<svg version="1.1" xmlns="http://www.w3.org/2000/svg" width="1280" height="1280">
<path d="M0 0 C2.1 0 4.19 -0.02 6.29 -0.05 C13.4 -0.08 19.2 0.21 25.67 3.32 C26.65 3.7 27.63 4.09 28.64 4.48 C29.47 4.82 30.31 5.16 31.17 5.5 C32.45 6.02 32.45 6.02 33.76 6.55 C34.39 6.8 35.02 7.05 35.67 7.32 C35.67 7.98 35.67 8.64 35.67 9.32 C38.14 9.81 38.14 9.81 40.67 10.32 C40.67 10.98 40.67 11.64 40.67 12.32 C41.47 12.47 41.47 12.47 42.29 12.63 C44.67 13.32 44.67 13.32 47.54 14.82 C54.06 17.95 61.18 18.06 68.17 16.57 C75.56 13.92 82.12 9.94 88.83 5.9 C93.67 3.19 97.09 2.06 102.67 2.32 C102.67 1.66 102.67 1 102.67 0.32 C107.08 0.24 111.49 0.19 115.9 0.15 C117.4 0.14 118.89 0.12 120.39 0.09 C135.69 -0.17 135.69 -0.17 142.67 3.32 C143.81 3.85 144.95 4.38 146.12 4.93 C147.23 5.49 148.34 6.05 149.48 6.63 C150.38 7.08 150.38 7.08 151.3 7.54 C155.07 9.44 158.68 11.52 162.29 13.69 C169.99 17.95 178.17 18.01 186.67 16.32 C189.27 15.33 191.74 14.13 194.23 12.88 C204.41 7.86 214.21 4.88 225.58 8.16 C237.09 13.45 243.92 23.39 248.48 34.82 C254.44 52.43 250.68 71.96 245.67 89.32 C245.46 90.04 245.25 90.77 245.04 91.51 C242.74 99.3 239.76 106.65 236.25 113.96 C234.85 116.93 233.54 119.93 232.26 122.96 C226.75 135.93 220.25 148.57 212.73 160.5 C211.51 162.44 211.51 162.44 210.67 165.32 C210.01 165.32 209.35 165.32 208.67 165.32 C208.55 165.88 208.44 166.44 208.33 167.02 C207.58 169.63 206.46 171.71 205.1 174.07 C204.65 174.86 204.19 175.66 203.73 176.49 C203.38 177.09 203.03 177.69 202.67 178.32 C202.01 178.32 201.35 178.32 200.67 178.32 C200.57 178.86 200.48 179.41 200.38 179.98 C199.48 182.94 198 185.12 196.29 187.69 C193.82 191.49 191.56 195.2 189.67 199.32 C190.32 199.93 190.32 199.93 190.98 200.56 C191.54 201.1 192.09 201.64 192.67 202.19 C193.22 202.72 193.78 203.26 194.35 203.81 C195.67 205.32 195.67 205.32 195.67 207.32 C196.33 207.32 196.99 207.32 197.67 207.32 C210.02 222.45 214.14 240.7 212.44 259.91 C212.22 261.72 211.95 263.52 211.67 265.32 C212.17 265.65 212.68 265.99 213.2 266.34 C213.85 266.79 214.5 267.23 215.17 267.69 C215.82 268.13 216.47 268.57 217.14 269.03 C217.64 269.45 218.15 269.88 218.67 270.32 C218.67 270.98 218.67 271.64 218.67 272.32 C219.37 272.55 220.08 272.78 220.81 273.03 C224.2 274.55 226.54 276.52 229.35 278.94 C230.41 279.84 231.47 280.75 232.53 281.65 C233.32 282.32 233.32 282.32 234.13 283.01 C239.18 287.29 244.33 291.44 249.79 295.19 C250.74 295.89 251.69 296.59 252.67 297.32 C252.67 297.98 252.67 298.64 252.67 299.32 C253.25 299.59 253.84 299.85 254.45 300.13 C256.67 301.32 258.32 302.59 260.2 304.25 C260.84 304.82 261.49 305.38 262.16 305.97 C262.82 306.56 263.48 307.15 264.17 307.75 C265.49 308.92 266.81 310.09 268.14 311.25 C268.75 311.79 269.36 312.33 269.99 312.89 C271.76 314.43 271.76 314.43 274.14 316.1 C274.64 316.5 275.15 316.9 275.67 317.32 C275.67 317.98 275.67 318.64 275.67 319.32 C276.66 319.65 277.65 319.98 278.67 320.32 C282.21 325.53 284.8 330.97 283.67 337.32 C282.29 340.83 280.79 344.19 278.67 347.32 C277.68 347.65 276.69 347.98 275.67 348.32 C275.67 348.98 275.67 349.64 275.67 350.32 C269.88 354.28 263.48 354.34 256.67 353.32 C253.23 351.76 250.52 349.75 247.67 347.32 C246.72 346.59 245.77 345.87 244.79 345.13 C241.11 341.99 241.11 341.99 239.67 340.32 C239.67 339.66 239.67 339 239.67 338.32 C239.09 338.05 238.52 337.78 237.93 337.5 C235.59 336.27 233.54 334.89 231.42 333.32 C230.36 332.54 230.36 332.54 229.28 331.75 C228.75 331.28 228.21 330.8 227.67 330.32 C227.67 329.66 227.67 329 227.67 328.32 C226.85 327.96 226.85 327.96 226.01 327.6 C223.06 325.99 220.68 323.97 218.1 321.82 C215.34 319.5 212.67 317.32 209.67 315.32 C209.67 314.66 209.67 314 209.67 313.32 C209.01 313.11 208.35 312.9 207.67 312.69 C203.59 310.82 199.98 308.34 196.67 305.32 C196.67 304.66 196.67 304 196.67 303.32 C193.97 301.94 192.64 301.32 189.67 301.32 C186.78 302.76 184.25 304.53 181.6 306.37 C169.63 314.29 153.67 317.85 139.67 320.32 C137.85 320.68 137.85 320.68 136 321.06 C128.43 322.59 121.07 323.64 113.34 324.05 C109.84 324.3 106.45 324.77 102.99 325.3 C93.56 326.64 84.12 326.82 74.6 327 C73.68 327.02 72.76 327.04 71.8 327.06 C58.17 327.34 44.55 327.34 30.92 327 C30.15 326.99 29.38 326.97 28.58 326.95 C19.62 326.74 10.88 326.11 2.01 324.77 C-1.4 324.31 -4.77 324.06 -8.21 323.88 C-13.75 323.53 -19.13 322.78 -24.58 321.82 C-25.32 321.68 -26.06 321.55 -26.82 321.42 C-32.06 320.45 -32.06 320.45 -34.33 319.32 C-36.47 319.04 -38.61 318.87 -40.75 318.69 C-51.74 317.08 -63.62 312.74 -73.18 307.14 C-75.98 306.07 -77.51 306.42 -80.33 307.32 C-82.03 308.62 -83.7 309.94 -85.33 311.32 C-85.99 311.32 -86.65 311.32 -87.33 311.32 C-87.33 311.98 -87.33 312.64 -87.33 313.32 C-88.79 314.6 -88.79 314.6 -90.71 315.94 C-91.33 316.39 -91.96 316.83 -92.61 317.29 C-94.33 318.32 -94.33 318.32 -96.33 318.32 C-96.33 318.98 -96.33 319.64 -96.33 320.32 C-98.07 321.92 -99.87 323.45 -101.71 324.94 C-102.71 325.76 -103.7 326.58 -104.73 327.42 C-107.33 329.32 -107.33 329.32 -109.33 329.32 C-109.33 329.98 -109.33 330.64 -109.33 331.32 C-110.98 331.98 -112.63 332.64 -114.33 333.32 C-114.33 333.98 -114.33 334.64 -114.33 335.32 C-115.79 336.82 -115.79 336.82 -117.71 338.44 C-118.33 338.98 -118.96 339.52 -119.61 340.07 C-121.33 341.32 -121.33 341.32 -123.33 341.32 C-123.33 341.98 -123.33 342.64 -123.33 343.32 C-126.79 346.32 -126.79 346.32 -129.33 346.32 C-129.33 346.98 -129.33 347.64 -129.33 348.32 C-129.99 348.32 -130.65 348.32 -131.33 348.32 C-131.33 348.98 -131.33 349.64 -131.33 350.32 C-132.78 351.76 -132.78 351.76 -134.8 353.44 C-139.28 357.25 -143.56 361.22 -147.83 365.25 C-148.54 365.92 -149.25 366.58 -149.98 367.27 C-154.32 371.36 -158.55 375.54 -162.69 379.85 C-164.33 381.32 -164.33 381.32 -166.33 381.32 C-166.6 381.96 -166.87 382.59 -167.15 383.25 C-168.33 385.32 -168.33 385.32 -171.33 386.32 C-172.02 387.64 -172.68 388.97 -173.33 390.32 C-174.64 391.73 -176 393.11 -177.4 394.44 C-180.25 397.09 -180.25 397.09 -182.33 400.32 C-182.99 400.32 -183.65 400.32 -184.33 400.32 C-184.66 401.31 -184.99 402.3 -185.33 403.32 C-185.99 403.32 -186.65 403.32 -187.33 403.32 C-187.67 404.12 -187.67 404.12 -188.02 404.94 C-189.79 408.14 -191.87 410.61 -194.33 413.32 C-194.99 413.32 -195.65 413.32 -196.33 413.32 C-196.66 414.31 -196.99 415.3 -197.33 416.32 C-197.99 416.32 -198.65 416.32 -199.33 416.32 C-199.61 416.91 -199.88 417.5 -200.16 418.1 C-201.3 420.26 -202.51 421.87 -204.12 423.7 C-204.91 424.61 -204.91 424.61 -205.73 425.55 C-206.28 426.17 -206.83 426.8 -207.4 427.44 C-208.49 428.69 -209.59 429.94 -210.68 431.2 C-211.17 431.75 -211.65 432.3 -212.15 432.87 C-213.43 434.33 -213.43 434.33 -214.33 436.32 C-214.99 436.32 -215.65 436.32 -216.33 436.32 C-216.56 436.84 -216.78 437.36 -217.02 437.9 C-218.8 441.18 -221.09 444.02 -223.4 446.94 C-226.66 450.94 -226.66 450.94 -229.33 455.32 C-229.99 455.32 -230.65 455.32 -231.33 455.32 C-231.6 455.88 -231.87 456.44 -232.15 457.02 C-233.41 459.47 -234.82 461.75 -236.33 464.07 C-236.85 464.86 -237.36 465.66 -237.9 466.49 C-238.61 467.39 -238.61 467.39 -239.33 468.32 C-239.99 468.32 -240.65 468.32 -241.33 468.32 C-241.64 469.1 -241.95 469.88 -242.27 470.69 C-243.33 473.32 -243.33 473.32 -244.33 475.32 C-244.99 475.32 -245.65 475.32 -246.33 475.32 C-246.56 476 -246.79 476.68 -247.03 477.39 C-248.64 481.01 -250.86 484.03 -253.21 487.19 C-257.49 492.97 -261.21 498.82 -264.33 505.32 C-264.99 505.32 -265.65 505.32 -266.33 505.32 C-266.46 505.89 -266.58 506.47 -266.71 507.07 C-267.34 509.34 -268.22 511.24 -269.33 513.32 C-269.99 513.32 -270.65 513.32 -271.33 513.32 C-271.5 514.17 -271.5 514.17 -271.67 515.03 C-272.43 517.64 -273.57 519.52 -275.02 521.82 C-277.33 525.57 -279.4 529.35 -281.33 533.32 C-283.11 536.95 -284.97 540.41 -287.15 543.82 C-290.73 549.62 -293.37 555.85 -296.09 562.1 C-297.74 565.87 -299.4 569.54 -301.48 573.1 C-303.12 575.94 -304.28 578.54 -305.33 581.63 C-307.47 587.74 -309.84 593.74 -312.33 599.71 C-314.7 605.44 -316.56 611.23 -318.33 617.17 C-319.2 619.91 -320.2 622.49 -321.33 625.13 C-323.92 631.36 -325.32 637.9 -326.88 644.44 C-327.49 646.98 -328.19 649.49 -328.9 652 C-331.84 662.72 -333.94 673.43 -335.46 684.44 C-335.79 686.82 -336.13 689.2 -336.47 691.57 C-336.61 692.61 -336.75 693.64 -336.9 694.7 C-337.33 697.32 -337.33 697.32 -338.33 700.32 C-338.47 701.65 -338.56 702.99 -338.61 704.34 C-338.65 705.11 -338.69 705.89 -338.73 706.68 C-338.78 707.89 -338.78 707.89 -338.83 709.13 C-338.9 710.72 -338.98 712.31 -339.05 713.9 C-339.08 714.6 -339.11 715.3 -339.14 716.03 C-339.33 718.32 -339.33 718.32 -339.84 720.97 C-340.5 725.42 -340.48 729.79 -340.47 734.28 C-340.47 735.23 -340.47 736.18 -340.47 737.16 C-340.47 739.17 -340.47 741.18 -340.46 743.18 C-340.46 746.24 -340.46 749.3 -340.47 752.35 C-340.47 754.31 -340.47 756.26 -340.47 758.22 C-340.47 759.58 -340.47 759.58 -340.47 760.97 C-340.45 765.85 -340.12 770.48 -339.33 775.32 C-339.27 777.46 -339.25 779.61 -339.27 781.75 C-339.28 782.8 -339.29 783.85 -339.3 784.94 C-339.32 786.11 -339.32 786.11 -339.33 787.32 C-338.67 787.44 -338.01 787.56 -337.32 787.68 C-332.77 788.55 -328.6 789.47 -324.33 791.32 C-320.87 792.33 -317.39 793.3 -313.9 794.25 C-307.88 795.9 -302.17 797.64 -296.53 800.32 C-294.07 801.44 -291.57 802.31 -289.02 803.19 C-283.81 805.04 -279.01 807.42 -274.1 809.95 C-271.85 811.06 -269.71 811.96 -267.33 812.75 C-262.62 814.4 -258.49 817.06 -254.22 819.62 C-251.91 820.98 -249.62 822.22 -247.21 823.38 C-244.22 824.82 -241.41 826.45 -238.58 828.19 C-233.01 831.59 -227.21 834.47 -221.33 837.32 C-221.33 837.98 -221.33 838.64 -221.33 839.32 C-220.76 839.44 -220.18 839.56 -219.59 839.68 C-217.2 840.35 -215.36 841.28 -213.21 842.5 C-212.42 842.95 -211.63 843.4 -210.82 843.86 C-208.33 845.32 -205.86 846.81 -203.4 848.32 C-195.88 852.84 -188.33 856.46 -180.05 859.35 C-177.46 860.27 -174.93 861.27 -172.4 862.32 C-154.42 869.56 -136.35 872.86 -117.14 874.62 C-116.31 874.7 -115.49 874.77 -114.64 874.85 C-113.91 874.92 -113.17 874.98 -112.42 875.05 C-110.33 875.32 -108.37 875.8 -106.33 876.32 C-104.09 876.49 -101.83 876.63 -99.58 876.75 C-89.42 877.36 -79.35 878.56 -69.33 880.38 C-63.79 881.35 -58.29 881.72 -52.68 881.97 C-49.67 882.12 -47.21 882.36 -44.33 883.32 C-42.76 883.52 -41.17 883.68 -39.59 883.82 C-38.21 883.94 -38.21 883.94 -36.8 884.07 C-35.84 884.15 -34.88 884.23 -33.9 884.32 C-32 884.48 -30.11 884.65 -28.21 884.82 C-27.37 884.89 -26.53 884.96 -25.67 885.03 C-23.48 885.3 -21.46 885.77 -19.33 886.32 C-17.09 886.49 -14.83 886.63 -12.58 886.75 C-2.42 887.36 7.65 888.56 17.67 890.38 C23.21 891.35 28.71 891.72 34.32 891.97 C37.33 892.12 39.79 892.36 42.67 893.32 C44.24 893.52 45.83 893.68 47.41 893.82 C48.79 893.94 48.79 893.94 50.2 894.07 C51.16 894.15 52.12 894.23 53.1 894.32 C55 894.48 56.89 894.65 58.79 894.82 C59.63 894.89 60.47 894.96 61.33 895.03 C63.52 895.3 65.54 895.77 67.67 896.32 C69.67 896.47 71.67 896.59 73.67 896.69 C82.35 897.31 90.56 899.26 98.63 902.52 C100.11 903.1 101.62 903.62 103.14 904.11 C111.08 906.72 117.68 910.8 124.67 915.32 C126.27 916.28 127.87 917.23 129.48 918.19 C130.53 918.89 131.58 919.59 132.67 920.32 C132.67 920.98 132.67 921.64 132.67 922.32 C133.24 922.58 133.82 922.85 134.42 923.13 C136.72 924.34 138.69 925.62 140.67 927.32 C140.67 927.98 140.67 928.64 140.67 929.32 C141.66 929.65 142.65 929.98 143.67 930.32 C143.67 930.98 143.67 931.64 143.67 932.32 C144.33 932.32 144.99 932.32 145.67 932.32 C145.67 932.98 145.67 933.64 145.67 934.32 C146.66 934.65 147.65 934.98 148.67 935.32 C150.35 937.22 151.89 939.1 153.42 941.13 C153.86 941.71 154.3 942.29 154.76 942.89 C158.88 948.43 162.39 954.24 165.67 960.32 C166.13 961.13 166.59 961.95 167.07 962.8 C177.7 982.56 180.56 1007.34 177.67 1029.32 C183.86 1026.91 189.93 1024.31 195.96 1021.53 C198.43 1020.42 200.9 1019.42 203.42 1018.44 C209.11 1016.21 214.61 1013.58 220.15 1010.97 C225.57 1008.42 231.01 1005.98 236.57 1003.73 C244.19 1000.64 251.6 997.42 258.91 993.65 C262.48 991.92 266.14 990.67 269.88 989.38 C274 987.81 277.85 985.77 281.77 983.75 C285.13 982.09 288.54 980.72 292.04 979.38 C295.13 978.13 298.14 976.73 301.17 975.32 C304.99 973.53 308.8 971.83 312.73 970.32 C316.48 968.86 320.02 967.16 323.6 965.32 C328.28 962.93 332.93 961.09 337.88 959.38 C342 957.81 345.85 955.77 349.77 953.75 C353.13 952.09 356.54 950.72 360.04 949.38 C363.13 948.13 366.14 946.73 369.17 945.32 C373.75 943.17 378.36 941.21 383.07 939.38 C387.28 937.66 391.37 935.69 395.48 933.75 C398.34 932.46 401.2 931.41 404.17 930.38 C409.08 928.45 411.19 925.87 413.67 921.32 C414.31 920.22 414.95 919.13 415.6 918 C415.92 917.43 416.24 916.85 416.57 916.26 C417.87 913.96 419.24 911.7 420.6 909.44 C424.75 902.55 428.56 895.75 431.67 888.32 C432.31 887.06 432.95 885.81 433.6 884.57 C435.67 880.51 437.16 876.32 438.67 872.03 C439.56 869.61 440.56 867.33 441.67 865 C443.93 860.06 445.29 854.91 446.73 849.67 C447.48 846.97 448.31 844.34 449.23 841.69 C452.7 831.4 454.53 820.84 456.31 810.15 C456.47 809.18 456.63 808.21 456.8 807.22 C456.94 806.35 457.09 805.48 457.23 804.58 C457.67 802.32 457.67 802.32 458.67 799.32 C458.87 797.03 459.03 794.73 459.17 792.44 C459.56 785.79 459.56 785.79 460.18 783 C460.74 779.93 460.79 777.06 460.8 773.94 C460.8 772.67 460.8 771.4 460.81 770.09 C460.8 768.72 460.8 767.34 460.8 765.97 C460.8 764.55 460.8 763.13 460.8 761.71 C460.8 758.75 460.8 755.78 460.8 752.81 C460.79 749.02 460.79 745.22 460.8 741.42 C460.8 738.49 460.8 735.57 460.8 732.64 C460.8 731.24 460.8 729.84 460.8 728.44 C460.81 726.48 460.8 724.52 460.8 722.57 C460.8 721.45 460.79 720.34 460.79 719.19 C460.68 716.7 460.33 714.7 459.67 712.32 C459.51 709.92 459.39 707.53 459.29 705.13 C458.98 698.98 458.25 693 457.17 686.94 C456.97 685.84 456.97 685.84 456.77 684.73 C456.07 680.91 456.07 680.91 454.67 677.32 C454.32 675.49 454.02 673.65 453.73 671.82 C453.07 667.74 452.39 663.68 451.6 659.63 C451.37 658.42 451.37 658.42 451.13 657.18 C450.84 655.31 450.84 655.31 449.67 654.32 C449.48 652.58 449.48 652.58 449.29 650.82 C448.84 646.86 447.8 643.39 446.48 639.64 C445.68 637.34 444.97 635.03 444.29 632.69 C442.99 628.31 441.6 623.97 440.17 619.63 C439.76 618.41 439.36 617.19 438.95 615.93 C438.06 613.43 437.15 611.04 436.09 608.61 C435.04 606.17 434.13 603.85 433.35 601.32 C429.65 589.97 424.76 579.09 419.67 568.32 C418.98 566.83 418.29 565.33 417.6 563.84 C413.56 555.11 409.33 546.59 404.41 538.3 C401.67 533.62 401.67 533.62 401.67 530.32 C401.01 530.32 400.35 530.32 399.67 530.32 C399.05 529.05 399.05 529.05 398.42 527.76 C397.89 526.67 397.35 525.57 396.79 524.44 C395.99 522.8 395.99 522.8 395.17 521.14 C393.82 518.28 393.82 518.28 391.67 516.32 C391.67 515.33 391.67 514.34 391.67 513.32 C391.01 513.32 390.35 513.32 389.67 513.32 C389.28 512.58 388.89 511.84 388.49 511.09 C385.85 506.14 383.27 501.64 379.67 497.32 C379.11 496.3 378.55 495.29 377.97 494.25 C374.87 488.74 370.96 483.78 367.18 478.72 C366.62 477.96 366.05 477.19 365.47 476.4 C364.95 475.71 364.44 475.02 363.91 474.31 C362.65 472.29 362.1 470.64 361.67 468.32 C361.01 468.32 360.35 468.32 359.67 468.32 C358.22 466.58 356.86 464.78 355.54 462.94 C354.82 461.94 354.09 460.95 353.35 459.92 C351.67 457.32 351.67 457.32 351.67 455.32 C351.01 455.32 350.35 455.32 349.67 455.32 C348.38 453.85 348.38 453.85 347.04 451.94 C346.6 451.31 346.15 450.69 345.69 450.04 C344.67 448.32 344.67 448.32 344.67 446.32 C344.01 446.32 343.35 446.32 342.67 446.32 C339.67 442.85 339.67 442.85 339.67 440.32 C339.01 440.32 338.35 440.32 337.67 440.32 C335.98 438.45 335.98 438.45 334.1 436 C333.48 435.2 332.86 434.4 332.23 433.58 C330.67 431.32 330.67 431.32 329.67 428.32 C329.01 428.32 328.35 428.32 327.67 428.32 C326.1 426.62 324.61 424.86 323.17 423.07 C322.37 422.09 321.58 421.12 320.76 420.11 C319.08 417.87 317.79 415.87 316.67 413.32 C316.01 413.32 315.35 413.32 314.67 413.32 C314.67 412.66 314.67 412 314.67 411.32 C314.01 411.32 313.35 411.32 312.67 411.32 C307.92 406.67 306.19 401.82 305.92 395.25 C306.2 388.63 307.95 384.87 312.67 380.32 C313.17 379.78 313.68 379.24 314.2 378.68 C317.39 375.71 321.28 375.35 325.48 374.94 C332.82 375.23 337.83 378.14 342.86 383.43 C348.67 389.82 348.67 389.82 348.67 392.32 C349.33 392.32 349.99 392.32 350.67 392.32 C350.67 392.98 350.67 393.64 350.67 394.32 C351.33 394.32 351.99 394.32 352.67 394.32 C354.12 395.93 355.51 397.61 356.85 399.32 C360.26 403.59 363.76 407.73 367.45 411.76 C368.67 413.32 368.67 413.32 368.67 415.32 C369.33 415.32 369.99 415.32 370.67 415.32 C371.96 416.78 371.96 416.78 373.29 418.69 C373.74 419.32 374.18 419.94 374.64 420.59 C375.67 422.32 375.67 422.32 375.67 424.32 C376.33 424.32 376.99 424.32 377.67 424.32 C379.17 426 379.17 426 380.79 428.19 C381.33 428.91 381.87 429.63 382.42 430.37 C383.67 432.32 383.67 432.32 383.67 434.32 C384.33 434.32 384.99 434.32 385.67 434.32 C385.67 435.31 385.67 436.3 385.67 437.32 C386.33 437.32 386.99 437.32 387.67 437.32 C388.96 438.79 388.96 438.79 390.42 440.87 C390.96 441.62 391.5 442.38 392.06 443.16 C392.63 443.97 393.2 444.79 393.79 445.63 C394.96 447.28 396.14 448.94 397.31 450.59 C398.17 451.8 398.17 451.8 399.04 453.04 C400.44 455 401.86 456.93 403.3 458.85 C404.38 460.29 404.38 460.29 405.48 461.75 C406.42 462.99 406.42 462.99 407.37 464.25 C408.67 466.32 408.67 466.32 408.67 469.32 C409.33 469.32 409.99 469.32 410.67 469.32 C410.67 470.31 410.67 471.3 410.67 472.32 C411.33 472.32 411.99 472.32 412.67 472.32 C413.9 474.01 413.9 474.01 415.28 476.37 C415.78 477.24 416.29 478.1 416.82 478.99 C417.61 480.36 417.61 480.36 418.42 481.75 C421.91 487.74 425.48 493.61 429.36 499.35 C430.94 501.73 432.33 504.17 433.67 506.69 C434.16 507.62 434.66 508.55 435.17 509.51 C435.91 510.9 435.91 510.9 436.67 512.32 C437.62 514.07 438.58 515.82 439.54 517.57 C454.36 544.76 454.36 544.76 458.57 555.62 C459.83 558.72 461.24 561.73 462.67 564.75 C464.93 569.59 466.9 574.43 468.61 579.49 C469.51 581.91 470.52 584.2 471.59 586.55 C473.7 591.22 475.25 595.97 476.73 600.88 C478.11 605.42 479.48 609.93 481.19 614.35 C482.8 618.54 484 622.8 485.17 627.13 C485.6 628.73 486.04 630.34 486.48 631.94 C486.68 632.7 486.89 633.46 487.1 634.25 C487.55 635.9 488.03 637.55 488.51 639.19 C490.64 646.43 491.96 653.81 493.31 661.23 C493.47 662.12 493.63 663 493.8 663.91 C494.01 665.11 494.01 665.11 494.23 666.34 C494.6 668.38 494.6 668.38 495.67 670.32 C496.34 673.92 496.83 677.55 497.35 681.18 C497.69 683.47 498.06 685.75 498.43 688.04 C500.22 699.39 501.12 710.56 501.46 722.05 C501.56 725.48 501.8 728.86 502.18 732.27 C502.78 737.79 502.81 743.27 502.79 748.82 C502.8 750.27 502.8 750.27 502.8 751.75 C502.8 757.17 502.51 762.46 501.91 767.85 C501.58 771.23 501.48 774.61 501.38 778 C501.03 788.9 499.86 799.46 498.02 810.2 C497.71 812.03 497.44 813.87 497.17 815.7 C496.14 822.55 494.46 829.13 492.57 835.77 C491.6 839.26 491.6 839.26 491.23 842.7 C490.67 846.31 489.71 849.44 488.51 852.87 C487.62 855.46 486.79 858.07 485.98 860.69 C485.55 862.08 485.55 862.08 485.11 863.49 C484.52 865.37 483.94 867.26 483.36 869.14 C481.72 874.38 479.86 879.38 477.57 884.36 C476.47 886.75 475.5 889.18 474.54 891.63 C473.38 894.61 472.14 897.47 470.67 900.32 C477.04 897.68 483.4 895 489.73 892.25 C495.64 889.72 501.57 887.36 507.67 885.32 C508.45 885.03 509.24 884.74 510.05 884.44 C529.38 878.13 553.46 879.88 571.61 888.76 C573.67 889.89 575.68 891.05 577.67 892.32 C577.67 892.98 577.67 893.64 577.67 894.32 C578.39 894.57 579.12 894.82 579.87 895.07 C589.42 899.31 595.9 909 601.67 917.32 C602.37 918.31 603.07 919.31 603.8 920.34 C605.54 923.12 606.68 925.59 607.73 928.69 C608.06 929.64 608.38 930.59 608.72 931.57 C609.19 932.93 609.19 932.93 609.67 934.32 C610.22 935.78 610.79 937.23 611.35 938.69 C614.08 946.22 613.88 953.44 613.92 961.38 C613.94 962.64 613.96 963.9 613.98 965.2 C614.03 976.41 612.25 986.34 607.04 996.32 C606.7 996.99 606.35 997.66 606 998.35 C598.59 1012.36 588.46 1023.56 574.57 1031.2 C571.49 1033.01 568.6 1035.09 565.68 1037.14 C563.67 1038.32 563.67 1038.32 560.67 1038.32 C560.67 1038.98 560.67 1039.64 560.67 1040.32 C559.07 1041.49 559.07 1041.49 556.82 1042.78 C555.99 1043.27 555.17 1043.75 554.32 1044.25 C552.97 1045.03 552.97 1045.03 551.6 1045.82 C542.74 1051.03 534.16 1056.53 525.67 1062.32 C512.29 1071.32 512.29 1071.32 508.67 1071.32 C508.67 1071.98 508.67 1072.64 508.67 1073.32 C501.24 1077.74 501.24 1077.74 497.67 1078.32 C497.67 1078.98 497.67 1079.64 497.67 1080.32 C496.15 1081.44 496.15 1081.44 493.99 1082.68 C493.19 1083.15 492.39 1083.62 491.57 1084.1 C490.69 1084.6 489.82 1085.11 488.92 1085.63 C481.49 1089.99 474.18 1094.48 466.98 1099.19 C465.78 1099.97 465.78 1099.97 464.56 1100.77 C461.42 1102.83 458.28 1104.89 455.19 1107.03 C454.39 1107.58 453.59 1108.13 452.77 1108.7 C452.06 1109.2 451.34 1109.7 450.6 1110.22 C448.67 1111.32 448.67 1111.32 445.67 1111.32 C445.67 1111.98 445.67 1112.64 445.67 1113.32 C444.7 1113.85 443.73 1114.39 442.73 1114.94 C439.79 1116.62 436.97 1118.42 434.17 1120.32 C423.4 1127.56 423.4 1127.56 418.67 1128.32 C418.67 1128.98 418.67 1129.64 418.67 1130.32 C415.76 1132.36 414.27 1133.32 410.67 1133.32 C410.67 1133.98 410.67 1134.64 410.67 1135.32 C408.93 1136.58 408.93 1136.58 406.5 1138 C405.63 1138.51 404.75 1139.03 403.85 1139.56 C402.92 1140.1 402 1140.64 401.04 1141.19 C399.24 1142.25 397.43 1143.31 395.63 1144.37 C394.34 1145.12 394.34 1145.12 393.03 1145.89 C391.02 1147.1 389.08 1148.37 387.14 1149.7 C384.67 1151.32 384.67 1151.32 382.67 1151.32 C382.67 1151.98 382.67 1152.64 382.67 1153.32 C381.7 1153.85 380.73 1154.39 379.73 1154.94 C376.79 1156.62 373.97 1158.42 371.17 1160.32 C360.4 1167.56 360.4 1167.56 355.67 1168.32 C355.67 1168.98 355.67 1169.64 355.67 1170.32 C354.07 1171.49 354.07 1171.49 351.82 1172.78 C350.99 1173.27 350.17 1173.75 349.32 1174.25 C347.97 1175.03 347.97 1175.03 346.6 1175.82 C340.2 1179.58 333.88 1183.39 327.73 1187.57 C322.12 1191.37 316.42 1194.97 310.62 1198.49 C307.15 1200.64 303.8 1202.92 300.47 1205.28 C298.67 1206.32 298.67 1206.32 295.67 1206.32 C295.67 1206.98 295.67 1207.64 295.67 1208.32 C294.69 1208.86 293.72 1209.4 292.71 1209.96 C287.52 1212.92 282.59 1216.27 277.63 1219.6 C276.91 1220.08 276.18 1220.56 275.43 1221.05 C274.78 1221.49 274.13 1221.92 273.46 1222.37 C271.67 1223.32 271.67 1223.32 268.67 1223.32 C268.67 1223.98 268.67 1224.64 268.67 1225.32 C267.18 1226.42 267.18 1226.42 265.07 1227.64 C264.28 1228.11 263.49 1228.57 262.67 1229.05 C261.81 1229.55 260.94 1230.05 260.04 1230.57 C253.39 1234.47 246.83 1238.46 240.36 1242.66 C220.63 1255.45 200.36 1265.9 177.67 1272.32 C175.89 1272.84 175.89 1272.84 174.07 1273.37 C164.95 1276.04 156.22 1278.34 146.73 1279.07 C144.61 1279.2 144.61 1279.2 142.67 1280.32 C140.82 1280.41 138.98 1280.44 137.13 1280.44 C135.95 1280.44 134.76 1280.45 133.55 1280.45 C132.23 1280.45 130.92 1280.44 129.57 1280.44 C128.17 1280.44 126.77 1280.45 125.37 1280.45 C121.52 1280.45 117.66 1280.45 113.8 1280.45 C109.65 1280.44 105.5 1280.45 101.34 1280.45 C93.2 1280.45 85.06 1280.45 76.91 1280.45 C70.3 1280.45 63.68 1280.45 57.07 1280.45 C56.13 1280.45 55.19 1280.45 54.22 1280.45 C52.31 1280.45 50.4 1280.45 48.49 1280.45 C30.57 1280.45 12.64 1280.45 -5.28 1280.45 C-20.67 1280.44 -36.06 1280.44 -51.46 1280.45 C-69.31 1280.45 -87.17 1280.45 -105.02 1280.45 C-106.93 1280.45 -108.83 1280.45 -110.73 1280.45 C-112.14 1280.45 -112.14 1280.45 -113.57 1280.45 C-120.18 1280.45 -126.79 1280.45 -133.4 1280.45 C-141.45 1280.45 -149.51 1280.45 -157.56 1280.45 C-161.67 1280.45 -165.78 1280.45 -169.89 1280.45 C-173.65 1280.45 -177.41 1280.45 -181.17 1280.44 C-183.18 1280.44 -185.2 1280.45 -187.21 1280.45 C-188.4 1280.45 -189.58 1280.44 -190.8 1280.44 C-192.34 1280.44 -192.34 1280.44 -193.91 1280.44 C-196.33 1280.32 -196.33 1280.32 -198.33 1279.32 C-200.16 1279.02 -202 1278.75 -203.83 1278.5 C-216.37 1276.63 -228.52 1273.96 -240.33 1269.32 C-241.85 1268.81 -243.37 1268.31 -244.9 1267.82 C-247.87 1266.84 -250.76 1265.76 -253.65 1264.57 C-259.71 1262.09 -265.91 1259.99 -272.11 1257.87 C-275.74 1256.61 -279.29 1255.33 -282.82 1253.82 C-287.25 1251.92 -291.77 1250.37 -296.33 1248.82 C-303.28 1246.44 -309.96 1243.84 -316.65 1240.82 C-319.39 1239.7 -321.94 1238.81 -324.77 1238 C-329.44 1236.65 -333.97 1235.02 -338.52 1233.32 C-339.19 1233.07 -339.85 1232.82 -340.54 1232.56 C-343.64 1231.39 -346.69 1230.16 -349.73 1228.84 C-354.04 1227.02 -358.41 1225.51 -362.83 1224 C-369.06 1221.85 -375.23 1219.63 -381.33 1217.13 C-386.75 1214.91 -392.2 1212.98 -397.77 1211.18 C-401.04 1210.08 -404.16 1208.68 -407.33 1207.32 C-409.23 1206.68 -411.12 1206.05 -413.02 1205.44 C-419.27 1203.4 -425.3 1200.93 -431.33 1198.32 C-431.27 1199.35 -431.21 1200.38 -431.15 1201.44 C-431.26 1214.4 -435.91 1224.43 -442.33 1235.32 C-442.99 1235.32 -443.65 1235.32 -444.33 1235.32 C-444.56 1235.88 -444.79 1236.44 -445.02 1237.02 C-446.69 1239.95 -448.77 1241.81 -451.27 1244.07 C-452.15 1244.86 -453.02 1245.66 -453.92 1246.49 C-456.33 1248.32 -456.33 1248.32 -459.33 1248.32 C-459.33 1248.98 -459.33 1249.64 -459.33 1250.32 C-461.05 1251.13 -462.78 1251.91 -464.52 1252.69 C-465.48 1253.13 -466.45 1253.57 -467.44 1254.03 C-479.39 1258.45 -492.74 1257.61 -505.27 1257.58 C-507.28 1257.58 -509.3 1257.58 -511.31 1257.59 C-515.51 1257.59 -519.71 1257.59 -523.91 1257.58 C-529.26 1257.57 -534.6 1257.57 -539.95 1257.58 C-544.1 1257.59 -548.25 1257.59 -552.41 1257.58 C-554.38 1257.58 -556.35 1257.58 -558.32 1257.59 C-577.68 1257.62 -595.17 1256.89 -610.33 1243.32 C-611.02 1242.72 -611.71 1242.12 -612.42 1241.51 C-621.53 1233.09 -627.73 1221.84 -628.61 1209.39 C-628.76 1204.5 -628.73 1199.61 -628.71 1194.72 C-628.72 1192.82 -628.72 1190.92 -628.73 1189.02 C-628.74 1183.82 -628.73 1178.61 -628.73 1173.41 C-628.72 1167.79 -628.73 1162.18 -628.74 1156.56 C-628.75 1145.56 -628.75 1134.57 -628.74 1123.57 C-628.73 1114.63 -628.73 1105.69 -628.73 1096.75 C-628.74 1095.48 -628.74 1094.21 -628.74 1092.9 C-628.74 1090.31 -628.74 1087.73 -628.74 1085.14 C-628.75 1061.6 -628.74 1038.05 -628.72 1014.51 C-628.71 993.02 -628.71 971.54 -628.72 950.05 C-628.74 925.9 -628.75 901.75 -628.74 877.61 C-628.74 875.03 -628.74 872.45 -628.73 869.88 C-628.73 868.61 -628.73 867.34 -628.73 866.04 C-628.73 857.11 -628.74 848.18 -628.74 839.26 C-628.75 828.38 -628.75 817.5 -628.73 806.62 C-628.72 801.07 -628.72 795.52 -628.73 789.97 C-628.74 784.88 -628.74 779.8 -628.72 774.72 C-628.72 772.88 -628.72 771.04 -628.72 769.21 C-628.77 757.55 -628.09 747.73 -622.33 737.32 C-621.67 737.32 -621.01 737.32 -620.33 737.32 C-620.21 736.51 -620.21 736.51 -620.08 735.69 C-617.7 728.15 -611.66 723.66 -605.33 719.32 C-604.67 719.32 -604.01 719.32 -603.33 719.32 C-603.33 718.66 -603.33 718 -603.33 717.32 C-601.93 716.53 -600.51 715.76 -599.08 715 C-598.29 714.57 -597.51 714.14 -596.69 713.7 C-584.08 708.49 -571.71 708.87 -558.27 708.92 C-556.03 708.92 -553.79 708.91 -551.55 708.91 C-546.87 708.9 -542.19 708.91 -537.51 708.92 C-531.54 708.94 -525.57 708.93 -519.59 708.91 C-514.97 708.9 -510.35 708.91 -505.73 708.91 C-503.53 708.92 -501.33 708.91 -499.13 708.91 C-472.91 708.84 -472.91 708.84 -461.58 715 C-460.35 715.66 -460.35 715.66 -459.1 716.33 C-458.52 716.65 -457.93 716.98 -457.33 717.32 C-457.33 717.98 -457.33 718.64 -457.33 719.32 C-456.75 719.58 -456.17 719.85 -455.58 720.12 C-445.56 725.46 -438.3 735.92 -434.33 746.32 C-431.6 756.05 -430.92 765.27 -431.33 775.32 C-430.04 775.3 -428.75 775.29 -427.42 775.28 C-425.71 775.27 -423.99 775.26 -422.27 775.25 C-421.42 775.24 -420.58 775.24 -419.7 775.23 C-414.8 775.21 -410.19 775.58 -405.33 776.32 C-401.56 776.57 -397.78 776.7 -394.01 776.83 C-393.25 776.87 -392.49 776.9 -391.71 776.94 C-391.04 776.96 -390.36 776.99 -389.67 777.01 C-386.45 777.43 -383.44 778.38 -380.33 779.32 C-380.34 778.1 -380.34 778.1 -380.35 776.85 C-380.41 769.07 -380.46 761.3 -380.49 753.52 C-380.5 749.52 -380.53 745.53 -380.56 741.53 C-380.71 723.2 -380.41 705.45 -377.33 687.32 C-377.14 686.03 -376.94 684.75 -376.74 683.42 C-376.28 680.38 -375.79 677.35 -375.27 674.32 C-375.11 673.33 -374.95 672.35 -374.78 671.34 C-373.92 666.2 -372.82 661.31 -371.33 656.32 C-371.12 654.99 -370.95 653.65 -370.83 652.32 C-370.5 648.49 -369.42 645 -368.33 641.32 C-367.95 639.91 -367.56 638.5 -367.18 637.09 C-364.14 626.1 -360.75 615.25 -357.15 604.44 C-356.93 603.79 -356.71 603.14 -356.49 602.47 C-354.33 595.96 -352.1 589.59 -349.33 583.32 C-348.66 581.32 -348.02 579.32 -347.4 577.32 C-346.29 573.91 -345.21 570.8 -343.33 567.75 C-341.61 564.79 -340.55 562.28 -339.46 559.07 C-337.71 554.04 -335.39 549.62 -332.77 545 C-331.41 542.46 -330.35 539.95 -329.33 537.25 C-327.64 532.8 -325.41 528.96 -322.89 524.93 C-321.28 522.22 -319.89 519.47 -318.52 516.63 C-315.76 510.98 -312.62 505.64 -309.32 500.3 C-307.69 497.65 -306.32 495.28 -305.33 492.32 C-304.67 492.32 -304.01 492.32 -303.33 492.32 C-303.21 491.74 -303.09 491.16 -302.96 490.57 C-302.33 488.29 -301.44 486.39 -300.33 484.32 C-299.67 484.32 -299.01 484.32 -298.33 484.32 C-298.23 483.76 -298.13 483.21 -298.03 482.64 C-295.78 475.14 -289.67 468.28 -285.17 461.95 C-282.35 457.9 -279.7 453.74 -277.03 449.59 C-276.19 448.46 -276.19 448.46 -275.33 447.32 C-274.67 447.32 -274.01 447.32 -273.33 447.32 C-273.01 446.32 -273.01 446.32 -272.68 445.3 C-270.88 441.31 -268.43 438.01 -265.83 434.5 C-265.33 433.81 -264.84 433.12 -264.32 432.4 C-263.84 431.75 -263.36 431.1 -262.86 430.42 C-262.43 429.82 -261.99 429.23 -261.54 428.61 C-261.14 428.19 -260.74 427.76 -260.33 427.32 C-259.67 427.32 -259.01 427.32 -258.33 427.32 C-257.96 426.51 -257.96 426.51 -257.58 425.69 C-256.03 422.73 -254.3 420.02 -252.33 417.32 C-251.67 417.32 -251.01 417.32 -250.33 417.32 C-249.98 416.24 -249.98 416.24 -249.61 415.14 C-248.13 411.87 -246.29 409.8 -243.83 407.19 C-241.42 404.61 -239.3 402.26 -237.33 399.32 C-236.67 399.32 -236.01 399.32 -235.33 399.32 C-235.08 398.76 -234.84 398.2 -234.58 397.63 C-233.11 394.9 -231.34 392.66 -229.4 390.25 C-228.36 388.97 -228.36 388.97 -227.31 387.66 C-224.09 383.85 -224.09 383.85 -222.33 382.32 C-221.67 382.32 -221.01 382.32 -220.33 382.32 C-220.08 381.73 -219.82 381.15 -219.56 380.54 C-218.23 378.12 -216.77 376.58 -214.77 374.69 C-212.19 372.27 -212.19 372.27 -210.33 369.32 C-209.67 369.32 -209.01 369.32 -208.33 369.32 C-208.33 368.66 -208.33 368 -208.33 367.32 C-206.96 365.69 -206.96 365.69 -205.33 364.32 C-204.67 364.32 -204.01 364.32 -203.33 364.32 C-203.07 363.68 -202.8 363.04 -202.52 362.38 C-201.33 360.32 -201.33 360.32 -198.33 359.32 C-198 358.66 -197.67 358 -197.33 357.32 C-196.33 355.32 -196.33 355.32 -193.33 354.32 C-193 353.66 -192.67 353 -192.33 352.32 C-191.33 350.32 -191.33 350.32 -188.33 349.32 C-188 348.66 -187.67 348 -187.33 347.32 C-186.33 345.32 -186.33 345.32 -183.33 344.32 C-183.33 343.66 -183.33 343 -183.33 342.32 C-181.69 340.69 -181.69 340.69 -179.52 338.88 C-176.51 336.34 -176.51 336.34 -173.7 333.59 C-172.33 332.32 -172.33 332.32 -170.33 332.32 C-170.07 331.68 -169.8 331.04 -169.52 330.38 C-168.33 328.32 -168.33 328.32 -165.33 327.32 C-165.33 326.66 -165.33 326 -165.33 325.32 C-163.83 323.8 -163.83 323.8 -161.77 322.07 C-161.05 321.45 -160.32 320.84 -159.57 320.2 C-158.83 319.58 -158.09 318.96 -157.33 318.32 C-156.67 317.72 -156 317.13 -155.31 316.52 C-154.7 315.98 -154.09 315.44 -153.46 314.88 C-152.9 314.38 -152.35 313.89 -151.78 313.38 C-150.33 312.32 -150.33 312.32 -148.33 312.32 C-148.33 311.66 -148.33 311 -148.33 310.32 C-146.85 308.96 -145.29 307.68 -143.71 306.44 C-140.3 303.73 -136.94 301 -133.66 298.12 C-133.05 297.59 -132.43 297.05 -131.8 296.49 C-130.59 295.43 -129.39 294.37 -128.19 293.3 C-125.05 290.56 -122.39 288.58 -118.33 287.32 C-118.33 286.66 -118.33 286 -118.33 285.32 C-116.65 283.81 -116.65 283.81 -114.46 282.19 C-113.74 281.65 -113.02 281.11 -112.28 280.56 C-110.33 279.32 -110.33 279.32 -108.33 279.32 C-108.33 278.66 -108.33 278 -108.33 277.32 C-106.33 275.69 -106.33 275.69 -104.33 274.32 C-114.1 273.93 -123.51 274.52 -133.21 275.75 C-134.27 275.89 -135.34 276.02 -136.43 276.16 C-141.54 276.69 -141.54 276.69 -146.33 278.32 C-147.61 278.44 -148.89 278.56 -150.21 278.69 C-158.36 279.53 -166.24 281.81 -173.95 284.52 C-175.68 285.1 -177.43 285.61 -179.18 286.08 C-188.33 288.58 -196.17 292.66 -204.4 297.25 C-206.09 298.18 -207.8 299.07 -209.51 299.95 C-216.12 303.37 -221.7 307.47 -227.33 312.32 C-228.18 313.03 -229.03 313.74 -229.9 314.48 C-237.86 321.37 -244.45 328.96 -249.33 338.32 C-249.99 338.32 -250.65 338.32 -251.33 338.32 C-251.7 339.18 -251.7 339.18 -252.08 340.07 C-254.59 344.58 -257.51 346.69 -262.33 348.32 C-269 349.26 -274.17 348.73 -279.68 344.75 C-283.71 341.26 -286.89 337.21 -287.7 331.87 C-288.02 319.15 -280.84 310.9 -273.33 301.32 C-272.79 300.54 -272.25 299.76 -271.68 298.96 C-271.24 298.42 -270.79 297.88 -270.33 297.32 C-269.67 297.32 -269.01 297.32 -268.33 297.32 C-268.1 296.75 -267.86 296.19 -267.61 295.61 C-266.04 292.8 -264.12 290.84 -261.83 288.57 C-261.04 287.77 -260.25 286.97 -259.43 286.14 C-257.33 284.32 -257.33 284.32 -255.33 284.32 C-255.33 283.66 -255.33 283 -255.33 282.32 C-253.28 280.59 -251.23 278.97 -249.08 277.38 C-248.2 276.71 -248.2 276.71 -247.31 276.04 C-246.16 275.18 -245.02 274.32 -243.87 273.47 C-242.59 272.51 -241.34 271.51 -240.1 270.5 C-238.33 269.32 -238.33 269.32 -235.33 269.32 C-235.33 268.66 -235.33 268 -235.33 267.32 C-234.14 266.74 -234.14 266.74 -232.92 266.14 C-226.39 262.96 -226.39 262.96 -220.21 259.19 C-213.12 254.57 -204.53 252.28 -196.59 249.48 C-194.06 248.57 -191.54 247.65 -189.02 246.69 C-182.43 244.23 -176.04 242.13 -169.11 240.85 C-165.94 240.24 -162.8 239.53 -159.65 238.82 C-152.25 237.22 -144.84 236.25 -137.33 235.32 C-136.32 235.14 -135.31 234.97 -134.26 234.8 C-128.32 234.07 -122.37 233.94 -116.4 233.75 C-115.14 233.71 -113.88 233.67 -112.59 233.62 C-109.5 233.52 -106.42 233.41 -103.33 233.32 C-104.11 230.82 -104.11 230.82 -105.33 228.32 C-106.32 227.99 -107.31 227.66 -108.33 227.32 C-108.33 226.66 -108.33 226 -108.33 225.32 C-108.99 225.32 -109.65 225.32 -110.33 225.32 C-110.33 224.66 -110.33 224 -110.33 223.32 C-111.29 222.91 -111.29 222.91 -112.27 222.5 C-114.33 221.32 -114.33 221.32 -115.33 218.32 C-116.99 217.61 -118.66 216.95 -120.33 216.32 C-121.91 215.18 -123.46 213.99 -124.96 212.75 C-127.53 210.64 -129.15 209.38 -132.33 208.32 C-132.33 207.66 -132.33 207 -132.33 206.32 C-133.04 206.2 -133.75 206.08 -134.49 205.96 C-138.47 205.06 -141.99 203.35 -145.71 201.67 C-155.78 197.91 -165 196.88 -175.71 197.07 C-177.55 197.07 -177.55 197.07 -179.44 197.08 C-184.88 197.13 -189.97 197.39 -195.33 198.32 C-216.57 199.72 -239.22 197.49 -259.33 190.32 C-260.36 189.98 -261.39 189.64 -262.45 189.29 C-271.19 186.34 -279.24 182.56 -287.42 178.3 C-289.44 177.26 -291.48 176.24 -293.53 175.23 C-296.36 173.82 -299.13 172.35 -301.83 170.69 C-302.5 170.29 -303.17 169.88 -303.86 169.46 C-304.35 169.09 -304.83 168.71 -305.33 168.32 C-305.33 167.66 -305.33 167 -305.33 166.32 C-306.32 165.99 -307.31 165.66 -308.33 165.32 C-308.33 164.66 -308.33 164 -308.33 163.32 C-308.99 163.32 -309.65 163.32 -310.33 163.32 C-313.1 157.91 -314.28 153.39 -313.33 147.32 C-312.04 143.44 -310.84 140.17 -307.19 138.09 C-306.27 137.71 -306.27 137.71 -305.33 137.32 C-305.33 136.66 -305.33 136 -305.33 135.32 C-299.63 130.94 -293.19 131.47 -286.33 132.32 C-283.01 133.6 -280.19 135.2 -277.33 137.32 C-277.33 137.98 -277.33 138.64 -277.33 139.32 C-276.75 139.44 -276.17 139.57 -275.57 139.71 C-273.39 140.3 -271.54 141.07 -269.51 142.06 C-268.43 142.57 -268.43 142.57 -267.33 143.1 C-266.59 143.46 -265.85 143.82 -265.08 144.19 C-263.62 144.9 -262.16 145.61 -260.69 146.31 C-260.05 146.62 -259.4 146.93 -258.74 147.26 C-238.68 156.09 -219.18 156.97 -197.52 156.57 C-192.37 156.5 -187.22 156.45 -182.06 156.39 C-180.85 156.38 -179.63 156.37 -178.37 156.35 C-145.55 156.05 -119.33 165.88 -93.08 185.69 C-92.51 186.12 -91.94 186.55 -91.34 186.99 C-89.97 188.05 -88.65 189.18 -87.33 190.32 C-87.33 190.98 -87.33 191.64 -87.33 192.32 C-86.41 192.75 -86.41 192.75 -85.46 193.19 C-83.33 194.32 -83.33 194.32 -81.33 196.32 C-78.32 195.93 -76.94 195.05 -74.33 193.32 C-74.95 190.34 -75.88 188.16 -77.51 185.6 C-77.95 184.91 -78.38 184.23 -78.83 183.52 C-79.28 182.81 -79.74 182.11 -80.21 181.38 C-81.53 179.3 -82.85 177.23 -84.16 175.15 C-85.15 173.6 -86.15 172.05 -87.15 170.5 C-88.33 168.32 -88.33 168.32 -88.33 165.32 C-88.99 165.32 -89.65 165.32 -90.33 165.32 C-93.33 159.69 -93.33 159.69 -93.33 156.32 C-93.99 156.32 -94.65 156.32 -95.33 156.32 C-95.83 155.32 -96.33 154.33 -96.84 153.31 C-97.16 152.66 -97.49 152.01 -97.82 151.34 C-98.55 149.89 -99.27 148.45 -99.99 147 C-101.74 143.5 -103.49 140.01 -105.25 136.52 C-110.57 125.96 -115.4 115.47 -119.33 104.32 C-119.85 102.94 -120.37 101.56 -120.9 100.19 C-123.38 93.55 -125.4 87.37 -126.33 80.32 C-126.65 79.4 -126.96 78.47 -127.29 77.53 C-132.4 61.79 -131.79 43.38 -124.51 28.43 C-122.36 24.58 -120.15 20.72 -117.33 17.32 C-116.67 17.32 -116.01 17.32 -115.33 17.32 C-115 16.33 -114.67 15.34 -114.33 14.32 C-113.67 14.32 -113.01 14.32 -112.33 14.32 C-112.33 13.66 -112.33 13 -112.33 12.32 C-104.01 6.6 -95.12 6.16 -85.33 7.32 C-80.28 8.73 -75.81 10.88 -71.28 13.5 C-63.73 17.76 -53.68 18.61 -45.33 16.32 C-42.53 14.84 -39.96 13.08 -37.33 11.32 C-25.02 3.59 -14.67 -0.05 0 0 Z M-19.33 46.32 C-19.33 46.98 -19.33 47.64 -19.33 48.32 C-19.85 48.42 -20.37 48.52 -20.91 48.63 C-25.33 49.88 -29.45 51.97 -33.63 53.84 C-40.68 56.65 -47.01 57.68 -54.58 57.63 C-55.83 57.62 -55.83 57.62 -57.11 57.62 C-66.9 57.44 -75.34 55 -84.27 51.09 C-86.44 50.14 -86.44 50.14 -89.33 50.32 C-89.64 60.13 -89.74 68.96 -86.33 78.32 C-86.09 78.98 -85.85 79.65 -85.61 80.34 C-85.13 81.62 -84.65 82.89 -84.15 84.16 C-83.13 86.85 -82.27 89.58 -81.4 92.32 C-79.76 97.26 -77.79 101.74 -75.33 106.32 C-74.47 108 -73.62 109.69 -72.77 111.38 C-72.38 112.15 -71.98 112.93 -71.58 113.73 C-70.65 115.66 -69.78 117.63 -68.94 119.62 C-67.22 123.67 -65.21 127.55 -63.15 131.44 C-62.75 132.18 -62.36 132.92 -61.96 133.69 C-58.91 139.38 -55.61 144.86 -52.17 150.33 C-50.42 153.17 -48.83 156.05 -47.27 159 C-44.77 163.69 -41.89 167.95 -38.75 172.22 C-37.33 174.32 -37.33 174.32 -36.33 177.32 C-35.67 177.32 -35.01 177.32 -34.33 177.32 C-34.27 177.85 -34.21 178.39 -34.15 178.94 C-32.93 182.49 -31.29 185.04 -28.33 187.32 C-24.51 188.59 -20.64 189.11 -16.65 189.63 C-14.56 189.93 -12.47 190.24 -10.38 190.55 C-9 190.74 -9 190.74 -7.59 190.93 C-5.33 191.32 -5.33 191.32 -3.33 192.32 C-1.5 192.58 0.33 192.8 2.17 193 C3.29 193.12 4.42 193.24 5.58 193.37 C6.78 193.5 7.99 193.62 9.23 193.75 C23.69 195.28 23.69 195.28 28.04 195.96 C47.91 198.9 83.42 202.44 101.67 193.32 C103.41 193.14 105.16 193 106.92 192.88 C111.16 192.53 114.66 191.8 118.67 190.32 C123.89 188.94 129.04 188.12 134.41 187.6 C137.53 187.21 140.55 186.52 143.6 185.75 C145.67 185.32 145.67 185.32 148.85 185.32 C153.14 183.79 154.4 180.52 156.57 176.66 C157.81 174.45 157.81 174.45 157.67 172.32 C158.33 172.32 158.99 172.32 159.67 172.32 C160.21 171.36 160.74 170.41 161.3 169.43 C163.98 164.74 166.76 160.13 169.54 155.5 C170.05 154.66 170.55 153.83 171.07 152.96 C171.57 152.12 172.08 151.29 172.6 150.42 C173.35 149.16 173.35 149.16 174.12 147.88 C175.17 146.15 176.21 144.42 177.26 142.69 C180.11 138 182.77 133.32 185.17 128.38 C187.29 124.04 189.49 119.78 191.85 115.57 C194.13 111.43 196 107.29 197.68 102.88 C198.73 100.16 199.88 97.49 201.04 94.82 C203.19 89.65 205.11 84.42 206.92 79.13 C207.18 78.39 207.43 77.66 207.7 76.9 C210.03 69.93 210.83 63.09 210.73 55.75 C210.72 54.48 210.72 54.48 210.7 53.19 C210.69 52.57 210.68 51.95 210.67 51.32 C207.01 50.1 206.16 50.66 202.67 52.07 C186.83 58.01 169.77 60.67 153.79 53.47 C147.42 50.51 141.14 47.41 135.29 43.5 C129.41 39.65 122.68 37.82 115.67 38.32 C112.37 39.27 112.37 39.27 109.1 40.63 C108.01 41.06 106.92 41.49 105.79 41.93 C102.9 43.21 100.26 44.51 97.67 46.32 C97.67 46.98 97.67 47.64 97.67 48.32 C96.88 48.47 96.88 48.47 96.08 48.63 C91.69 49.87 87.62 51.96 83.47 53.84 C70.14 59.34 52.05 59.59 38.67 54.32 C32.23 51.44 25.86 48.32 19.88 44.57 C17.66 43.07 17.66 43.07 14.67 43.32 C14.67 42.66 14.67 42 14.67 41.32 C2.15 35.85 -8.1 38.67 -19.33 46.32 Z M-59.33 231.32 C-59.33 231.98 -59.33 232.64 -59.33 233.32 C-59.99 233.32 -60.65 233.32 -61.33 233.32 C-65.99 240.4 -66.04 249.53 -64.65 257.69 C-63.13 263.81 -61.05 268.45 -55.65 272.07 C-48.01 276.33 -40.09 277.86 -31.54 279.23 C-28.15 279.77 -24.97 280.42 -21.67 281.37 C-18.56 282.25 -15.8 282.66 -12.58 282.88 C-9.54 283.09 -7.25 283.34 -4.33 284.32 C13.21 287.65 30.95 287.79 48.73 287.71 C52.37 287.69 56.01 287.7 59.65 287.72 C81.49 287.8 102.79 286.31 124.24 282 C127.4 281.37 130.55 280.86 133.73 280.38 C140.85 279.21 147.74 277.32 154.67 275.32 C155.49 275.1 156.31 274.89 157.15 274.67 C162.92 272.94 166.37 269.17 169.67 264.32 C172.02 259.85 172.09 255.57 172.1 250.63 C172.11 249.83 172.11 249.03 172.12 248.21 C171.99 241.67 170.47 236.72 166.67 231.32 C166.01 231.32 165.35 231.32 164.67 231.32 C164.67 230.66 164.67 230 164.67 229.32 C156.32 223.81 149.45 223.83 139.75 225.65 C136.81 226.29 133.9 227 130.98 227.75 C120.13 230.55 109.17 232.42 97.98 233.05 C94.9 233.3 91.99 233.78 88.96 234.33 C78.48 235.85 67.93 235.61 57.36 235.58 C53.74 235.57 50.12 235.58 46.5 235.59 C35.79 235.6 25.3 235.56 14.71 233.8 C10.22 233.09 5.71 232.84 1.18 232.56 C-1.33 232.32 -1.33 232.32 -3.33 231.32 C-5.45 230.99 -7.58 230.71 -9.71 230.44 C-15.4 229.66 -20.83 228.51 -26.38 227.05 C-38.37 224.08 -49.7 221.98 -59.33 231.32 Z M-585.65 754.82 C-588.78 759.45 -589.62 762.12 -589.6 767.63 C-589.6 768.38 -589.6 769.14 -589.61 769.91 C-589.62 772.46 -589.62 775.01 -589.61 777.55 C-589.62 779.39 -589.63 781.23 -589.63 783.06 C-589.65 788.13 -589.65 793.19 -589.65 798.25 C-589.66 803.71 -589.67 809.16 -589.69 814.62 C-589.71 826.55 -589.72 838.48 -589.73 850.42 C-589.74 857.87 -589.75 865.31 -589.76 872.76 C-589.78 893.38 -589.8 913.99 -589.81 934.6 C-589.81 935.92 -589.81 937.24 -589.81 938.6 C-589.81 939.94 -589.81 941.27 -589.81 942.61 C-589.81 945.29 -589.81 947.97 -589.81 950.65 C-589.81 951.32 -589.81 951.98 -589.81 952.67 C-589.82 974.22 -589.85 995.78 -589.9 1017.34 C-589.95 1040.12 -589.98 1062.91 -589.98 1085.7 C-589.98 1098.12 -589.99 1110.54 -590.03 1122.96 C-590.06 1133.54 -590.07 1144.12 -590.05 1154.7 C-590.05 1160.1 -590.05 1165.49 -590.08 1170.89 C-590.1 1175.83 -590.1 1180.78 -590.07 1185.72 C-590.07 1187.51 -590.08 1189.29 -590.09 1191.08 C-590.47 1202.95 -590.47 1202.95 -584.84 1213 C-579.65 1217.52 -575.75 1217.76 -569.06 1217.74 C-568.14 1217.74 -567.21 1217.75 -566.26 1217.76 C-563.2 1217.78 -560.15 1217.79 -557.09 1217.78 C-554.96 1217.79 -552.83 1217.8 -550.71 1217.81 C-546.25 1217.82 -541.79 1217.82 -537.32 1217.82 C-531.62 1217.81 -525.91 1217.84 -520.2 1217.88 C-515.8 1217.91 -511.41 1217.91 -507.01 1217.91 C-504.91 1217.91 -502.8 1217.92 -500.7 1217.94 C-497.75 1217.96 -494.81 1217.95 -491.86 1217.93 C-491 1217.94 -490.13 1217.96 -489.24 1217.97 C-483.05 1217.89 -480.02 1216.38 -475.33 1212.32 C-471.92 1207.77 -471.21 1203.28 -471.19 1197.69 C-471.19 1196.78 -471.18 1195.88 -471.18 1194.94 C-471.18 1193.96 -471.18 1192.97 -471.18 1191.96 C-471.17 1190.9 -471.17 1189.85 -471.16 1188.76 C-471.14 1185.23 -471.14 1181.69 -471.13 1178.16 C-471.12 1175.62 -471.11 1173.09 -471.1 1170.56 C-471.08 1165.1 -471.06 1159.65 -471.04 1154.19 C-471.02 1146.3 -470.99 1138.42 -470.96 1130.53 C-470.91 1117.73 -470.87 1104.93 -470.83 1092.14 C-470.79 1079.71 -470.75 1067.27 -470.71 1054.84 C-470.7 1054.08 -470.7 1053.31 -470.7 1052.52 C-470.68 1048.68 -470.67 1044.83 -470.66 1040.99 C-470.54 1009.1 -470.44 977.21 -470.33 945.32 C-469.67 945.32 -469.01 945.32 -468.33 945.32 C-467.98 944.59 -467.63 943.87 -467.27 943.13 C-464.1 938.52 -459.52 935.94 -454.02 934.86 C-447.26 934.53 -442.36 937.1 -437.02 941 C-432.69 946.94 -431.89 953.93 -431.95 961.09 C-431.94 961.93 -431.94 962.76 -431.93 963.62 C-431.92 966.4 -431.93 969.17 -431.93 971.94 C-431.93 973.94 -431.92 975.94 -431.91 977.93 C-431.9 982.22 -431.89 986.51 -431.89 990.8 C-431.89 997.58 -431.87 1004.35 -431.85 1011.13 C-431.81 1024.28 -431.79 1037.43 -431.78 1050.58 C-431.75 1067.35 -431.72 1084.11 -431.67 1100.88 C-431.65 1107.62 -431.64 1114.36 -431.64 1121.11 C-431.63 1125.29 -431.62 1129.47 -431.61 1133.65 C-431.61 1135.6 -431.61 1137.55 -431.61 1139.49 C-431.61 1142.14 -431.6 1144.78 -431.59 1147.43 C-431.6 1148.6 -431.6 1148.6 -431.6 1149.79 C-431.72 1154.01 -431.72 1154.01 -429.33 1157.32 C-427.45 1158.01 -427.45 1158.01 -425.21 1158.57 C-420.43 1159.93 -415.8 1161.56 -411.15 1163.32 C-410.48 1163.56 -409.82 1163.81 -409.13 1164.07 C-403.68 1166.14 -398.34 1168.41 -393.02 1170.82 C-390.17 1171.98 -387.47 1172.9 -384.52 1173.75 C-378.08 1175.62 -371.95 1178.15 -365.83 1180.88 C-363.19 1181.96 -360.75 1182.8 -358.02 1183.57 C-352.35 1185.21 -346.92 1187.38 -341.44 1189.55 C-336.09 1191.66 -330.71 1193.62 -325.27 1195.5 C-321.07 1196.96 -316.92 1198.41 -312.9 1200.32 C-307.75 1202.73 -302.32 1204.34 -296.92 1206.1 C-292.3 1207.62 -287.87 1209.29 -283.47 1211.38 C-279.85 1212.96 -276.09 1214.1 -272.33 1215.29 C-269.58 1216.23 -266.96 1217.34 -264.31 1218.5 C-260.39 1220.12 -256.35 1221.44 -252.33 1222.82 C-246.56 1224.79 -240.91 1226.85 -235.33 1229.32 C-230.41 1231.3 -225.46 1232.9 -220.33 1234.32 C-219.68 1234.54 -219.02 1234.77 -218.34 1235 C-210.49 1237.62 -202.38 1238.78 -194.2 1239.9 C-192.31 1240.17 -190.42 1240.48 -188.54 1240.82 C-175.71 1242.9 -162.81 1242.61 -149.85 1242.59 C-146.27 1242.59 -142.68 1242.6 -139.1 1242.61 C-132.1 1242.62 -125.09 1242.62 -118.09 1242.62 C-112.39 1242.62 -106.69 1242.62 -100.99 1242.62 C-100.17 1242.62 -99.36 1242.62 -98.52 1242.62 C-96.86 1242.63 -95.2 1242.63 -93.55 1242.63 C-78.04 1242.64 -62.54 1242.64 -47.04 1242.63 C-32.91 1242.63 -18.78 1242.64 -4.65 1242.66 C9.9 1242.67 24.46 1242.68 39.02 1242.68 C47.17 1242.68 55.33 1242.68 63.48 1242.69 C70.42 1242.71 77.37 1242.71 84.31 1242.7 C87.85 1242.69 91.38 1242.69 94.91 1242.7 C116.45 1242.76 137.75 1241.84 158.67 1236.32 C160.23 1236 161.79 1235.68 163.35 1235.38 C168.36 1234.27 172.95 1232.3 177.67 1230.32 C179.31 1229.67 180.96 1229.02 182.6 1228.38 C195.13 1223.35 206.64 1217.01 218.23 1210.13 C219.14 1209.6 220.06 1209.06 221 1208.51 C221.86 1208 222.72 1207.49 223.61 1206.96 C224.78 1206.27 224.78 1206.27 225.97 1205.56 C226.53 1205.15 227.09 1204.74 227.67 1204.32 C227.67 1203.66 227.67 1203 227.67 1202.32 C228.22 1202.22 228.77 1202.12 229.34 1202.02 C232.23 1201.14 234.34 1199.74 236.85 1198.07 C241.68 1194.92 246.59 1192.04 251.67 1189.32 C251.67 1188.66 251.67 1188 251.67 1187.32 C252.2 1187.23 252.74 1187.14 253.29 1187.05 C256.51 1186.05 258.92 1184.36 261.73 1182.5 C262.99 1181.68 264.25 1180.85 265.51 1180.03 C266.19 1179.59 266.86 1179.14 267.55 1178.69 C271.23 1176.3 274.95 1173.97 278.67 1171.63 C284 1168.27 289.32 1164.9 294.63 1161.51 C295.63 1160.87 296.62 1160.24 297.65 1159.58 C299.58 1158.34 301.52 1157.1 303.46 1155.86 C304.34 1155.3 305.22 1154.73 306.13 1154.15 C306.91 1153.65 307.69 1153.15 308.49 1152.64 C310.51 1151.41 312.54 1150.33 314.67 1149.32 C314.67 1148.66 314.67 1148 314.67 1147.32 C315.22 1147.22 315.77 1147.12 316.34 1147.01 C319.22 1146.15 321.34 1144.77 323.85 1143.13 C324.82 1142.5 325.79 1141.87 326.79 1141.22 C329.34 1139.53 331.88 1137.83 334.42 1136.13 C339.32 1132.84 344.34 1129.87 349.67 1127.32 C349.67 1126.66 349.67 1126 349.67 1125.32 C350.37 1125.06 351.07 1124.8 351.79 1124.54 C354.95 1123.19 357.74 1121.56 360.67 1119.76 C361.22 1119.42 361.78 1119.08 362.36 1118.72 C363.53 1118 364.71 1117.27 365.88 1116.55 C367.66 1115.45 369.44 1114.35 371.23 1113.26 C372.38 1112.55 373.52 1111.84 374.67 1111.14 C375.7 1110.5 376.73 1109.86 377.79 1109.21 C380.56 1107.38 383.09 1105.4 385.67 1103.32 C387.34 1102.35 389.02 1101.38 390.71 1100.45 C393.66 1098.74 396.45 1096.81 399.26 1094.88 C401.67 1093.32 404.14 1091.91 406.63 1090.5 C410.8 1088.07 414.85 1085.42 418.92 1082.82 C420.88 1081.56 422.84 1080.31 424.8 1079.06 C425.78 1078.44 426.76 1077.81 427.77 1077.16 C432.91 1073.89 438.06 1070.64 443.22 1067.39 C446.54 1065.3 449.85 1063.2 453.15 1061.09 C454.13 1060.46 455.1 1059.83 456.1 1059.19 C456.91 1058.67 457.71 1058.15 458.54 1057.62 C460.54 1056.4 462.55 1055.33 464.67 1054.32 C464.67 1053.66 464.67 1053 464.67 1052.32 C465.23 1052.21 465.79 1052.11 466.38 1052 C469.08 1051.19 470.98 1049.97 473.33 1048.41 C474.2 1047.83 475.08 1047.25 475.98 1046.66 C476.89 1046.05 477.79 1045.44 478.73 1044.82 C480.53 1043.61 482.33 1042.42 484.14 1041.22 C485.33 1040.42 485.33 1040.42 486.55 1039.61 C488.67 1038.32 488.67 1038.32 491.67 1037.32 C491.67 1036.66 491.67 1036 491.67 1035.32 C492.37 1035.06 493.07 1034.8 493.79 1034.54 C496.96 1033.19 499.74 1031.54 502.67 1029.73 C503.22 1029.38 503.78 1029.04 504.36 1028.68 C506.13 1027.58 507.9 1026.48 509.67 1025.38 C511.44 1024.28 513.21 1023.18 514.98 1022.09 C516.58 1021.09 518.19 1020.09 519.79 1019.09 C521.68 1017.92 523.6 1016.79 525.54 1015.71 C526.24 1015.25 526.94 1014.79 527.67 1014.32 C527.67 1013.66 527.67 1013 527.67 1012.32 C528.22 1012.22 528.77 1012.12 529.34 1012.01 C532.22 1011.15 534.34 1009.77 536.85 1008.13 C538.3 1007.19 538.3 1007.19 539.77 1006.23 C543.13 1004.01 546.47 1001.76 549.79 999.48 C551.67 998.32 551.67 998.32 554.67 997.32 C554.67 996.66 554.67 996 554.67 995.32 C555.39 995.07 556.11 994.82 556.85 994.57 C559.94 993.19 562.18 991.59 564.67 989.32 C564.67 988.66 564.67 988 564.67 987.32 C565.33 987.32 565.99 987.32 566.67 987.32 C573.15 976.7 576.13 966.88 574.67 954.32 C572.6 946.68 569.31 939.71 564.67 933.32 C564.01 933.32 563.35 933.32 562.67 933.32 C562.34 932.33 562.01 931.34 561.67 930.32 C561.01 930.32 560.35 930.32 559.67 930.32 C559.67 929.66 559.67 929 559.67 928.32 C558.12 927.01 558.12 927.01 556.1 925.82 C555.44 925.39 554.78 924.97 554.1 924.53 C543.78 919.37 529.56 919.91 518.67 923.32 C516.37 924.21 514.16 925.2 511.93 926.25 C509.62 927.34 507.29 928.27 504.92 929.19 C498.72 931.64 492.71 934.49 486.67 937.32 C481.42 939.75 476.18 942.14 470.79 944.25 C465.7 946.25 460.78 948.56 455.83 950.88 C453.11 952.11 450.39 953.24 447.6 954.32 C443.85 955.77 440.31 957.48 436.73 959.32 C432.06 961.7 427.4 963.54 422.45 965.25 C418.33 966.82 414.48 968.86 410.57 970.88 C407.21 972.54 403.79 973.91 400.3 975.25 C397.2 976.5 394.19 977.9 391.17 979.32 C386.47 981.51 381.75 983.51 376.93 985.39 C374.11 986.55 371.43 987.92 368.72 989.32 C365.64 990.81 362.47 992.01 359.29 993.26 C355.69 994.71 352.18 996.34 348.66 997.96 C344.12 1000.02 339.53 1001.95 334.95 1003.91 C326.22 1007.65 317.57 1011.6 308.94 1015.57 C303.22 1018.2 297.46 1020.66 291.64 1023.07 C286.93 1025.04 282.3 1027.18 277.67 1029.32 C271.04 1032.37 264.38 1035.28 257.64 1038.07 C254.79 1039.27 251.98 1040.52 249.17 1041.82 C245.36 1043.56 241.54 1045.22 237.67 1046.82 C231.94 1049.18 226.3 1051.72 220.67 1054.32 C214.04 1057.37 207.38 1060.28 200.64 1063.07 C195.93 1065.04 191.3 1067.18 186.67 1069.32 C180.92 1071.96 175.16 1074.57 169.35 1077.07 C168.41 1077.47 167.46 1077.88 166.49 1078.3 C160.7 1080.38 155.02 1080.46 148.94 1080.45 C148.08 1080.45 147.21 1080.45 146.32 1080.46 C143.43 1080.46 140.53 1080.46 137.64 1080.46 C135.56 1080.46 133.48 1080.47 131.4 1080.47 C125.76 1080.48 120.12 1080.48 114.48 1080.48 C110.96 1080.48 107.43 1080.49 103.91 1080.49 C91.61 1080.5 79.32 1080.5 67.02 1080.5 C55.56 1080.5 44.1 1080.51 32.64 1080.53 C22.8 1080.54 12.96 1080.55 3.12 1080.54 C-2.76 1080.54 -8.64 1080.55 -14.51 1080.56 C-20.04 1080.57 -25.57 1080.57 -31.09 1080.56 C-33.12 1080.56 -35.15 1080.56 -37.18 1080.57 C-39.95 1080.58 -42.71 1080.57 -45.48 1080.56 C-46.28 1080.57 -47.08 1080.57 -47.91 1080.58 C-55.04 1080.53 -61.1 1078.88 -67.33 1075.32 C-67.66 1074.66 -67.99 1074 -68.33 1073.32 C-68.99 1073.32 -69.65 1073.32 -70.33 1073.32 C-73.42 1066.93 -74.13 1059.98 -72.13 1053.17 C-70.26 1048.83 -67.25 1045.93 -63.33 1043.32 C-57.85 1041.66 -52.83 1041.02 -47.09 1041.04 C-46.3 1041.04 -45.51 1041.03 -44.69 1041.03 C-42.07 1041.01 -39.44 1041.01 -36.82 1041.01 C-34.92 1041.01 -33.03 1041 -31.14 1040.99 C-27.08 1040.97 -23.02 1040.96 -18.96 1040.95 C-12.55 1040.94 -6.13 1040.91 0.29 1040.89 C10.42 1040.84 20.56 1040.81 30.7 1040.78 C48.88 1040.73 67.06 1040.67 85.24 1040.6 C91.63 1040.57 98.01 1040.55 104.4 1040.54 C108.35 1040.53 112.31 1040.51 116.27 1040.5 C118.11 1040.49 119.96 1040.49 121.8 1040.49 C124.3 1040.48 126.81 1040.47 129.31 1040.46 C130.42 1040.46 130.42 1040.46 131.55 1040.46 C134.89 1040.73 134.89 1040.73 137.67 1039.32 C137.77 1036.59 137.81 1033.88 137.8 1031.15 C137.8 1030.33 137.8 1029.5 137.8 1028.65 C137.8 1026.9 137.8 1025.14 137.8 1023.39 C137.79 1020.72 137.8 1018.06 137.8 1015.39 C137.8 1013.69 137.8 1011.98 137.8 1010.28 C137.8 1009.48 137.8 1008.69 137.81 1007.88 C137.77 999.18 136.08 992.26 132.67 984.32 C132.38 983.57 132.09 982.83 131.8 982.06 C129.12 975.4 125.05 969.96 120.67 964.32 C120.2 963.7 119.73 963.09 119.25 962.46 C116.4 958.88 113.3 956.06 109.67 953.32 C109.01 953.32 108.35 953.32 107.67 953.32 C107.67 952.66 107.67 952 107.67 951.32 C92.78 940.28 76.7 936.64 58.62 935.01 C57.78 934.94 56.94 934.86 56.08 934.78 C55.33 934.71 54.57 934.65 53.8 934.58 C51.69 934.32 49.73 933.83 47.67 933.32 C44.47 933.06 41.27 932.88 38.07 932.71 C35.05 932.54 32.55 932.28 29.67 931.32 C28.09 931.11 26.51 930.95 24.92 930.82 C24 930.73 23.08 930.65 22.13 930.57 C21.18 930.48 20.22 930.4 19.23 930.32 C17.33 930.15 15.44 929.99 13.55 929.82 C12.71 929.74 11.87 929.67 11 929.6 C8.81 929.33 6.8 928.86 4.67 928.32 C2.25 928.14 -0.17 928 -2.58 927.88 C-12.94 927.31 -23.18 926.09 -33.4 924.25 C-39.05 923.27 -44.67 922.93 -50.4 922.59 C-59.1 921.98 -67.75 920.81 -76.33 919.25 C-81.87 918.28 -87.38 917.91 -92.99 917.66 C-96 917.51 -98.46 917.27 -101.33 916.32 C-102.91 916.11 -104.49 915.95 -106.08 915.82 C-107 915.73 -107.92 915.65 -108.87 915.57 C-109.82 915.48 -110.78 915.4 -111.77 915.32 C-113.67 915.15 -115.56 914.99 -117.45 914.82 C-118.29 914.74 -119.13 914.67 -120 914.6 C-122.19 914.33 -124.2 913.86 -126.33 913.32 C-128.54 913.14 -130.75 913 -132.96 912.88 C-139.92 912.41 -146.57 911.61 -153.19 909.34 C-156.47 908.27 -159.7 907.59 -163.08 906.94 C-168.29 905.86 -172.97 904.46 -177.83 902.35 C-180.67 901.18 -183.54 900.25 -186.46 899.32 C-190.66 897.95 -194.43 896.34 -198.31 894.26 C-202.15 892.46 -206.25 891.42 -210.33 890.32 C-210.33 889.66 -210.33 889 -210.33 888.32 C-210.89 888.12 -211.44 887.93 -212.01 887.73 C-212.74 887.47 -213.46 887.21 -214.21 886.94 C-214.93 886.69 -215.65 886.43 -216.39 886.17 C-218.33 885.32 -218.33 885.32 -220.33 883.32 C-221.92 882.66 -223.51 882.01 -225.09 881.35 C-227.85 880.08 -230.41 878.56 -233.02 877 C-238.14 873.96 -243.35 871.28 -248.7 868.67 C-250.9 867.54 -252.88 866.36 -254.9 864.94 C-257.26 863.04 -257.26 863.04 -260.33 863.32 C-260.33 862.66 -260.33 862 -260.33 861.32 C-261.22 860.88 -262.1 860.44 -263.01 860 C-264.22 859.39 -265.43 858.79 -266.65 858.19 C-267.28 857.88 -267.92 857.56 -268.57 857.23 C-272.48 855.29 -276.29 853.23 -280.08 851.07 C-284.99 848.34 -289.9 846.66 -295.33 845.32 C-295.33 844.66 -295.33 844 -295.33 843.32 C-295.99 843.08 -296.64 842.85 -297.32 842.62 C-302.26 840.85 -307.13 839.01 -311.96 836.94 C-338.7 825.71 -367.4 818.52 -396.33 816.32 C-397.44 816.23 -397.44 816.23 -398.57 816.14 C-409.5 815.35 -420.38 815.27 -431.33 815.32 C-431.34 815.97 -431.34 816.63 -431.35 817.31 C-431.42 824.19 -431.5 831.07 -431.6 837.95 C-431.63 840.51 -431.66 843.08 -431.68 845.64 C-431.71 849.33 -431.77 853.03 -431.82 856.72 C-431.83 857.86 -431.83 859 -431.84 860.18 C-431.98 867.86 -432.6 873.99 -437.65 880.13 C-443.21 884.66 -447.54 885.89 -454.65 885.66 C-460.04 884.97 -463.58 882.36 -467.21 878.38 C-471.09 872.78 -470.49 866.84 -470.51 860.25 C-470.51 859.24 -470.52 858.23 -470.53 857.19 C-470.54 855 -470.55 852.81 -470.56 850.62 C-470.58 847.14 -470.6 843.67 -470.63 840.2 C-470.7 830.33 -470.76 820.45 -470.81 810.58 C-470.84 804.54 -470.88 798.5 -470.93 792.45 C-470.95 790.16 -470.96 787.86 -470.97 785.56 C-470.98 782.34 -471 779.12 -471.03 775.9 C-471.03 774.96 -471.03 774.01 -471.03 773.04 C-471.1 767.19 -471.88 761.99 -473.33 756.32 C-473.99 756.32 -474.65 756.32 -475.33 756.32 C-475.52 755.72 -475.7 755.12 -475.9 754.5 C-477.98 751.33 -480.82 750.36 -484.33 749.32 C-487.38 748.91 -490.39 748.9 -493.46 748.93 C-494.35 748.92 -495.24 748.92 -496.15 748.91 C-499.07 748.9 -501.98 748.91 -504.9 748.92 C-506.93 748.92 -508.97 748.91 -511 748.91 C-515.26 748.9 -519.52 748.91 -523.78 748.92 C-529.23 748.94 -534.68 748.93 -540.14 748.91 C-544.34 748.9 -548.54 748.91 -552.74 748.91 C-554.75 748.92 -556.76 748.91 -558.77 748.91 C-561.58 748.9 -564.39 748.91 -567.2 748.93 C-568.44 748.92 -568.44 748.92 -569.7 748.91 C-576.06 748.98 -581.14 749.95 -585.65 754.82 Z " fill="#000000" transform="translate(647.333251953125,-0.315673828125)"/>
<path d="M0 0 C5.52 3.15 8.93 6.65 11.11 12.72 C12.48 18.3 12.34 24.09 12.44 29.81 C12.47 31.11 12.51 32.41 12.54 33.75 C12.62 36.94 12.69 40.12 12.75 43.31 C13.73 43.51 14.71 43.71 15.72 43.92 C22.58 45.32 29.21 46.83 35.75 49.31 C36.92 49.75 38.08 50.18 39.28 50.62 C46.9 53.52 53.9 56.86 60.75 61.31 C61.54 61.78 62.33 62.25 63.14 62.73 C63.88 63.17 64.61 63.61 65.38 64.06 C66.03 64.45 66.68 64.84 67.35 65.23 C67.81 65.59 68.27 65.95 68.75 66.31 C68.75 66.97 68.75 67.63 68.75 68.31 C69.33 68.56 69.9 68.81 70.5 69.06 C74.47 71.27 77.07 74.1 78.75 78.31 C79.43 85.13 79.72 91.53 75.75 97.31 C75.09 97.31 74.43 97.31 73.75 97.31 C73.75 97.97 73.75 98.63 73.75 99.31 C73.09 99.31 72.43 99.31 71.75 99.31 C71.75 99.97 71.75 100.63 71.75 101.31 C66.82 105.09 61.67 105.25 55.67 105 C50.01 104.01 46.8 101.28 42.49 97.62 C33.72 90.22 22.52 87.9 11.75 84.31 C11.75 123.25 11.75 162.19 11.75 202.31 C14.06 202.64 16.37 202.97 18.75 203.31 C20.83 204.18 20.83 204.18 22.56 205.19 C25.42 206.72 28.05 207.74 31.19 208.56 C42.31 211.75 52.7 217.32 62.31 223.69 C62.96 224.12 63.61 224.54 64.28 224.99 C65.81 226.04 67.29 227.17 68.75 228.31 C68.75 228.97 68.75 229.63 68.75 230.31 C69.74 230.64 70.73 230.97 71.75 231.31 C71.75 231.97 71.75 232.63 71.75 233.31 C72.39 233.58 73.03 233.85 73.69 234.12 C75.75 235.31 75.75 235.31 76.75 238.31 C77.41 238.31 78.07 238.31 78.75 238.31 C78.75 238.97 78.75 239.63 78.75 240.31 C79.41 240.31 80.07 240.31 80.75 240.31 C82.62 242.71 84.36 245.11 86.06 247.62 C86.56 248.36 87.06 249.09 87.57 249.85 C91.31 255.46 94.42 260.97 96.75 267.31 C97.41 269.02 97.41 269.02 98.08 270.77 C107.51 296.79 104.45 325.38 92.94 350.19 C89.49 357.35 85.39 363.85 80.75 370.31 C80.24 371.07 79.73 371.82 79.21 372.6 C78.11 374.21 76.94 375.77 75.75 377.31 C75.09 377.31 74.43 377.31 73.75 377.31 C73.75 377.97 73.75 378.63 73.75 379.31 C73.09 379.31 72.43 379.31 71.75 379.31 C71.42 380.3 71.09 381.29 70.75 382.31 C70.09 382.31 69.43 382.31 68.75 382.31 C68.75 382.97 68.75 383.63 68.75 384.31 C68.09 384.31 67.43 384.31 66.75 384.31 C66.42 385.3 66.09 386.29 65.75 387.31 C65.09 387.31 64.43 387.31 63.75 387.31 C63.75 387.97 63.75 388.63 63.75 389.31 C60.3 392.51 56.87 394.97 52.71 397.22 C50.44 398.48 48.26 399.87 46.06 401.25 C35.73 407.45 23.92 412.44 11.75 412.31 C11.77 413.3 11.78 414.29 11.8 415.31 C11.85 419 11.89 422.7 11.91 426.4 C11.93 427.99 11.95 429.59 11.98 431.18 C12.01 433.49 12.03 435.79 12.04 438.09 C12.06 438.8 12.07 439.5 12.09 440.22 C12.09 445.51 10.82 449.45 8.75 454.31 C8.09 454.31 7.43 454.31 6.75 454.31 C6.44 455.18 6.44 455.18 6.12 456.06 C4.16 459.28 2.27 461.05 -1.25 462.31 C-8.15 463.31 -14.41 463.45 -20.44 459.62 C-25.68 455.47 -27.34 451.87 -28.25 445.31 C-28.39 442.93 -28.5 440.55 -28.57 438.16 C-28.59 437.51 -28.61 436.85 -28.63 436.17 C-28.69 434.09 -28.75 432.02 -28.81 429.94 C-28.86 428.52 -28.9 427.1 -28.94 425.68 C-29.05 422.23 -29.15 418.77 -29.25 415.31 C-30.91 415.11 -30.91 415.11 -32.6 414.91 C-36.82 414.4 -41.03 413.86 -45.25 413.31 C-46.3 413.18 -47.34 413.05 -48.42 412.91 C-60.57 411.15 -72.01 407.39 -82.8 401.55 C-84.98 400.45 -86.86 399.78 -89.25 399.31 C-89.25 398.65 -89.25 397.99 -89.25 397.31 C-90.25 397.21 -90.25 397.21 -91.28 397.11 C-95.35 396.02 -98.35 393.92 -101.81 391.56 C-102.8 390.92 -102.8 390.92 -103.81 390.26 C-108.84 386.88 -113.04 383.12 -115.25 377.31 C-116.19 370.38 -115.89 364.65 -111.67 358.93 C-107.15 353.79 -102.71 351.7 -95.94 350.94 C-87.88 351.76 -81.65 356.27 -74.98 360.58 C-68.54 364.66 -61.91 367.62 -54.69 370.06 C-53.49 370.47 -52.29 370.88 -51.06 371.3 C-43.92 372.81 -36.54 372.88 -29.25 373.31 C-29.25 325.13 -29.25 276.95 -29.25 227.31 C-30.9 226.98 -32.55 226.65 -34.25 226.31 C-35.94 225.55 -37.61 224.74 -39.25 223.88 C-42.53 222.16 -45.79 220.64 -49.25 219.31 C-49.25 218.65 -49.25 217.99 -49.25 217.31 C-50.35 217.15 -50.35 217.15 -51.48 216.99 C-54.44 216.27 -56.16 215.26 -58.62 213.5 C-61.79 211.3 -64.98 209.33 -68.34 207.45 C-72.46 204.99 -76.54 202.35 -80.25 199.31 C-80.25 198.65 -80.25 197.99 -80.25 197.31 C-80.89 197.04 -81.53 196.78 -82.19 196.5 C-84.25 195.31 -84.25 195.31 -85.25 192.31 C-85.91 192.31 -86.57 192.31 -87.25 192.31 C-89.47 189.82 -91.32 187.03 -93.25 184.31 C-93.95 183.38 -94.65 182.46 -95.38 181.5 C-98.02 177 -99.59 172.25 -101.25 167.31 C-101.54 166.46 -101.83 165.62 -102.13 164.74 C-102.86 162.6 -103.58 160.47 -104.25 158.31 C-104.42 157.75 -104.6 157.2 -104.78 156.62 C-105.82 151.54 -105.48 146.23 -105.49 141.05 C-105.5 138.91 -105.53 136.77 -105.56 134.63 C-105.72 114.19 -98.43 97.09 -87.25 80.31 C-86.59 80.31 -85.93 80.31 -85.25 80.31 C-84.84 79.43 -84.84 79.43 -84.43 78.54 C-76.47 63.48 -57.58 53.93 -42.25 48.31 C-39.82 47.73 -37.38 47.19 -34.94 46.69 C-33.06 46.3 -33.06 46.3 -31.14 45.9 C-30.18 45.71 -29.23 45.51 -28.25 45.31 C-28.26 44.47 -28.27 43.63 -28.28 42.76 C-28.32 39.61 -28.34 36.46 -28.36 33.31 C-28.37 31.95 -28.38 30.59 -28.4 29.23 C-28.43 27.27 -28.44 25.3 -28.45 23.34 C-28.46 22.16 -28.47 20.98 -28.48 19.77 C-28.14 14.57 -26.8 9.86 -24.25 5.31 C-23.59 5.31 -22.93 5.31 -22.25 5.31 C-22.25 4.65 -22.25 3.99 -22.25 3.31 C-15.87 -2.36 -7.75 -3.62 0 0 Z M-39.25 90.31 C-40.58 90.98 -41.92 91.65 -43.25 92.31 C-43.25 92.97 -43.25 93.63 -43.25 94.31 C-45.25 95.31 -47.25 96.31 -49.25 97.31 C-49.25 97.97 -49.25 98.63 -49.25 99.31 C-49.91 99.31 -50.57 99.31 -51.25 99.31 C-56.9 105.07 -60.34 111.88 -63.25 119.31 C-63.57 120.06 -63.89 120.8 -64.22 121.57 C-68.64 133.39 -67.59 147.34 -62.64 158.75 C-61.34 161.15 -60.06 163.26 -58.25 165.31 C-57.59 165.31 -56.93 165.31 -56.25 165.31 C-55.92 166.3 -55.59 167.29 -55.25 168.31 C-53.14 170.05 -51.05 171.63 -48.81 173.19 C-48.18 173.63 -47.55 174.07 -46.91 174.53 C-38.27 180.83 -38.27 180.83 -28.25 183.31 C-28.25 151.63 -28.25 119.95 -28.25 87.31 C-33.33 87.31 -34.97 87.94 -39.25 90.31 Z M11.75 244.31 C11.75 286.22 11.75 328.13 11.75 371.31 C22.73 369.74 31.35 364.55 39.75 357.31 C39.75 356.65 39.75 355.99 39.75 355.31 C41.24 354.82 41.24 354.82 42.75 354.31 C44.48 352.35 46.06 350.4 47.62 348.31 C48.07 347.72 48.52 347.13 48.98 346.52 C54.99 338.41 58.36 331.09 60.95 321.25 C61.75 318.31 61.75 318.31 62.75 316.31 C63.02 312.32 62.98 308.31 63 304.31 C63.02 303.21 63.04 302.11 63.06 300.98 C63.14 285.07 56.8 272.92 45.94 261.43 C43.06 258.65 40.17 256.37 36.75 254.31 C35.75 253.69 35.75 253.69 34.74 253.05 C27.57 248.77 19.82 246.33 11.75 244.31 Z " fill="#000000" transform="translate(714.25,388.6875)"/>
</svg>
